<svg width="99" height="63" viewBox="0 0 99 63" fill="none" xmlns="http://www.w3.org/2000/svg">
<mask id="mask0_1_1154" style="mask-type:luminance" maskUnits="userSpaceOnUse" x="0" y="0" width="99" height="34">
<path d="M93.7928 11.2677V31.1053C93.7928 32.4981 94.9472 33.6148 96.2521 33.6148C97.6323 33.6148 98.7114 32.4981 98.7114 31.1053V11.2677C98.7114 9.8749 97.5947 8.75817 96.2521 8.75817C94.8593 8.75817 93.7928 9.8749 93.7928 11.2677ZM4.8057 25.597C4.8057 23.3635 6.85095 22.1087 9.67414 22.1087C11.757 22.1087 13.2502 22.3973 15.2829 22.8992V28.0437C14.8312 28.4201 13.1122 29.4867 9.9 29.4867C6.62509 29.4867 4.8057 28.0939 4.8057 25.597ZM3.32509 9.73688C2.08289 10.3015 1.70646 11.2175 1.70646 12.008C1.70646 13.4384 3.04905 14.5175 5.0943 13.8525C6.38669 13.3882 8.24373 12.8361 10.1384 12.8361C13.7521 12.8361 15.2954 14.1787 15.2954 17.3281V18.8589C13.1498 18.357 11.5814 18.081 9.3981 18.081C3.12433 18.081 0.188213 21.4939 0 25.3586V26.2118C0.20076 30.5407 3.35019 33.803 9.49848 33.803C14.3167 33.803 17.8426 32.084 19.135 31.2057C19.8376 30.7289 20.0133 30.227 20.0133 29.3989V17.3407C20.0133 11.0795 16.3494 8.35665 10.4144 8.35665C7.59125 8.34411 4.68023 9.08441 3.32509 9.73688ZM51.2943 25.597C51.2943 23.3635 53.327 22.1087 56.1627 22.1087C58.2582 22.1087 59.7388 22.3973 61.7715 22.8992V28.0437C61.3072 28.4201 59.6008 29.4867 56.4011 29.4867C53.1137 29.4867 51.2943 28.0939 51.2943 25.597ZM49.8137 9.73688C48.5589 10.3015 48.1951 11.2175 48.1951 12.008C48.1951 13.4384 49.5376 14.5175 51.5829 13.8525C52.8753 13.3882 54.7323 12.8361 56.627 12.8361C60.2281 12.8361 61.7715 14.1787 61.7715 17.3281V18.8589C59.651 18.357 58.0574 18.081 55.8867 18.081C49.3871 18.081 46.4761 21.7449 46.4761 25.7726C46.4761 30.3274 49.6255 33.803 55.9745 33.803C60.7928 33.803 64.3186 32.084 65.6236 31.2057C66.3137 30.7289 66.5019 30.227 66.5019 29.3989V17.3407C66.5019 11.0795 62.838 8.35665 56.903 8.35665C54.0798 8.34411 51.1563 9.08441 49.8137 9.73688ZM70.7681 10.8913C70.0654 11.3681 69.7768 11.8323 69.7768 12.7985V31.0175C69.7768 32.4103 70.9312 33.527 72.2487 33.527C73.6289 33.527 74.708 32.4103 74.708 31.0175V14.3669C75.762 13.7144 77.9452 13.062 80.2163 13.062C83.1023 13.062 85.5992 14.643 85.5992 18.3445V31.0049C85.5992 32.3977 86.7536 33.5144 88.046 33.5144C89.489 33.5144 90.5179 32.3977 90.5179 31.0049V18.1186C90.5179 11.8574 87.0673 8.34411 80.3544 8.34411C75.4985 8.34411 72.0981 9.8749 70.7681 10.8913ZM27.843 23.6395C27.7175 22.2091 27.7551 19.4738 27.843 18.219C28.0312 14.8437 29.7 13.0745 33.2259 13.0745C35.635 13.0745 37.9563 13.9027 38.9099 14.5175V27.3913C37.9939 28.0939 35.5848 29.0601 33.5897 29.0601C30.0262 29.0601 28.119 27.203 27.843 23.6395ZM38.9224 2.73536V9.68669C37.4042 8.99658 35.0954 8.35665 32.862 8.35665C26.8894 8.35665 23.4639 11.9202 22.9369 17.6669C22.7989 19.3357 22.7989 22.6232 22.9369 24.2418C23.4513 29.9509 27.2407 33.803 33.5019 33.803C38.0065 33.803 41.7582 31.808 42.9627 30.9171C43.7156 30.4152 43.8536 29.9008 43.8536 29.0726V2.73536C43.8536 1.35513 42.7745 0.238403 41.3943 0.238403C40.0517 0.225856 38.9224 1.34259 38.9224 2.73536ZM93.4791 2.73536C93.4791 4.26616 94.6335 5.5711 96.2646 5.5711C97.7829 5.5711 99 4.26616 99 2.73536C99 1.20456 97.7829 0 96.2646 0C94.6335 0 93.4791 1.20456 93.4791 2.73536Z" fill="white"/>
</mask>
<g mask="url(#mask0_1_1154)">
<path d="M0.75245 42.3979L101.923 33.5394L98.2467 -8.59521L-2.93652 0.263339L0.75245 42.3979Z" fill="url(#paint0_linear_1_1154)"/>
</g>
<path d="M84.1683 43.5399H14.8181C14.5672 43.5399 14.3664 43.3391 14.3664 43.0882C14.3664 42.8372 14.5672 42.6365 14.8181 42.6365H84.1683C84.4318 42.6365 84.62 42.8372 84.62 43.0882C84.62 43.3391 84.4318 43.5399 84.1683 43.5399Z" fill="#58595B"/>
<path d="M25.47 58.0951V61.5959C25.47 61.8719 25.3696 62.1103 25.1689 62.3236C24.9806 62.5244 24.7422 62.6373 24.4662 62.6373C24.2027 62.6373 23.9643 62.5369 23.7635 62.3236C23.5753 62.1103 23.4749 61.8719 23.4749 61.5959V50.7924C23.4749 50.3909 23.6004 50.0521 23.8514 49.7635C24.1149 49.4749 24.4662 49.3369 24.943 49.3369H28.7198C29.3221 49.3369 29.8867 49.4373 30.4137 49.6381C30.9533 49.8388 31.4175 50.1274 31.8316 50.5038C32.2457 50.8803 32.5468 51.332 32.7852 51.8715C33.0236 52.4111 33.124 53.0133 33.124 53.6909C33.124 54.381 33.0111 54.9959 32.7852 55.5479C32.5594 56.0875 32.2331 56.5517 31.8316 56.9282C31.4175 57.3046 30.9407 57.5932 30.3886 57.7939C29.8365 57.9947 29.2217 58.0951 28.5567 58.0951H25.47ZM28.5316 56.1C29.4476 56.1 30.1126 55.8742 30.5016 55.435C30.9156 54.9958 31.1038 54.4187 31.1038 53.716C31.1038 53.0008 30.9156 52.4236 30.5016 51.9844C30.1 51.5453 29.4601 51.332 28.6069 51.332H25.47V56.1126H28.5316V56.1Z" fill="#58595B"/>
<path d="M39.2989 52.4236C39.9012 52.4236 40.4533 52.5114 40.9677 52.6996C41.4822 52.8753 41.9339 53.1388 42.3229 53.465C42.6993 53.7913 43.013 54.1928 43.2514 54.657C43.4772 55.1213 43.6152 55.6358 43.6529 56.2004C43.6654 56.3886 43.678 56.6019 43.6905 56.8278C43.7031 57.0536 43.7031 57.292 43.7031 57.5304C43.7031 57.7688 43.7031 58.0072 43.6905 58.2456C43.678 58.484 43.6654 58.6973 43.6529 58.8856C43.6152 59.4377 43.4772 59.9521 43.2514 60.4164C43.013 60.8806 42.6993 61.2947 42.3229 61.6335C41.9339 61.9723 41.4822 62.2483 40.9677 62.4365C40.4533 62.6373 39.8886 62.7251 39.2989 62.7251C38.7092 62.7251 38.1445 62.6247 37.6301 62.4365C37.1156 62.2483 36.6765 61.9723 36.2875 61.6335C35.8985 61.2947 35.5848 60.8806 35.359 60.4164C35.1206 59.9521 34.9825 59.4377 34.9449 58.8856C34.9198 58.6973 34.9073 58.484 34.9073 58.2456C34.8947 58.0072 34.8947 57.7688 34.8947 57.5304C34.8947 57.292 34.8947 57.0536 34.9073 56.8278C34.9073 56.6019 34.9198 56.3886 34.9449 56.2004C34.9825 55.6358 35.1206 55.1213 35.359 54.657C35.5974 54.1928 35.9111 53.7913 36.2875 53.465C36.6765 53.1388 37.1156 52.8753 37.6301 52.6996C38.1445 52.5114 38.7092 52.4236 39.2989 52.4236ZM39.2863 54.3308C38.5837 54.3308 38.0316 54.5316 37.6175 54.9205C37.2035 55.3095 36.9902 55.824 36.9274 56.4513C36.9149 56.6019 36.9023 56.765 36.9023 56.9532C36.8898 57.1415 36.8898 57.3422 36.8898 57.5304C36.8898 57.7312 36.8898 57.932 36.9023 58.1202C36.9023 58.3084 36.9149 58.484 36.9274 58.6221C36.9902 59.2871 37.2286 59.8141 37.6426 60.2156C38.0567 60.6046 38.5962 60.8053 39.2738 60.8053C39.9514 60.8053 40.5035 60.6046 40.9175 60.2156C41.3316 59.8266 41.5825 59.2871 41.6453 58.6221C41.6578 58.484 41.6578 58.3209 41.6578 58.1202V57.5304V56.9658C41.6453 56.7776 41.6453 56.6145 41.6453 56.4639C41.6076 55.8365 41.3818 55.3221 40.9677 54.9331C40.5662 54.5316 40.0016 54.3308 39.2863 54.3308Z" fill="#58595B"/>
<path d="M52.3222 55.046C52.3097 54.9958 52.2846 54.9707 52.2219 54.9707C52.1591 54.9707 52.1215 54.9958 52.1215 55.046L50.5154 61.2696C50.3774 61.784 50.1641 62.1605 49.888 62.3863C49.612 62.6122 49.2606 62.7376 48.8466 62.7376C48.4576 62.7376 48.1188 62.6247 47.8051 62.3863C47.504 62.1479 47.2907 61.7966 47.1527 61.3072L45.1827 53.8791C45.145 53.6909 45.12 53.5152 45.1451 53.3521C45.1701 53.189 45.2203 53.051 45.3082 52.9255C45.4085 52.8126 45.5089 52.7122 45.647 52.6369C45.7724 52.5616 45.9355 52.524 46.1112 52.524C46.3245 52.524 46.5253 52.5867 46.7135 52.7247C46.9017 52.8502 47.0397 53.0635 47.115 53.3521L48.8466 60.4164C48.8591 60.4665 48.8842 60.4916 48.947 60.4916C48.9846 60.4916 49.0222 60.4665 49.0348 60.4164L50.6534 53.9293C50.7663 53.4776 50.9671 53.1262 51.2557 52.8878C51.5443 52.6494 51.8831 52.524 52.2595 52.524C52.6485 52.524 52.9747 52.6494 53.2633 52.8878C53.5393 53.1388 53.7401 53.4776 53.853 53.9293L55.4591 60.4164C55.4842 60.4665 55.5093 60.4916 55.5595 60.4916C55.6097 60.4916 55.6473 60.4665 55.6599 60.4164L57.3914 53.3646C57.4542 53.1137 57.5797 52.9129 57.7428 52.7498C57.931 52.5992 58.1317 52.5114 58.3701 52.5114C58.734 52.5114 58.9975 52.6494 59.1857 52.9129C59.3739 53.1764 59.4116 53.5027 59.3112 53.8665L57.3162 61.2696C57.1781 61.7715 56.9648 62.1354 56.6762 62.3738C56.3751 62.5996 56.0363 62.7251 55.6222 62.7251C55.2207 62.7251 54.8694 62.6122 54.5682 62.3738C54.2671 62.1354 54.0538 61.7715 53.9409 61.2696L52.3222 55.046Z" fill="#58595B"/>
<path d="M69.2611 57.1541C69.2611 57.5054 69.1607 57.794 68.9725 58.0199C68.7717 58.2457 68.4706 58.3586 68.0565 58.3586H62.7364V58.5845C62.7364 59.3373 62.9622 59.9145 63.4265 60.3161C63.8908 60.7176 64.4805 60.9183 65.2208 60.9183C65.5596 60.9183 65.9235 60.8807 66.2873 60.7929C66.6638 60.7176 67.0276 60.6046 67.3915 60.4666C67.5797 60.3913 67.7679 60.3662 67.9436 60.3788C68.1193 60.4039 68.2573 60.4541 68.3828 60.5294C68.4957 60.6172 68.5835 60.7176 68.6463 60.843C68.709 60.9685 68.7467 61.094 68.7467 61.232C68.7467 61.3826 68.709 61.5332 68.6463 61.6712C68.5835 61.8218 68.4455 61.9472 68.2322 62.0727C68.0691 62.1731 67.8809 62.2609 67.6425 62.3488C67.4166 62.4366 67.1531 62.4993 66.8896 62.5495C66.6261 62.6122 66.3375 62.6499 66.0364 62.675C65.7478 62.7126 65.4592 62.7252 65.1832 62.7252C64.5307 62.7252 63.9409 62.6248 63.4265 62.424C62.8995 62.2233 62.4603 61.9472 62.0839 61.5833C61.7075 61.232 61.4063 60.8054 61.1805 60.3035C60.9672 59.8141 60.8417 59.2621 60.8041 58.6723C60.779 58.4967 60.779 58.2959 60.7664 58.0951C60.7539 57.8818 60.7539 57.6685 60.7539 57.4678C60.7539 57.267 60.7539 57.0662 60.7664 56.8655C60.779 56.6773 60.779 56.5016 60.8041 56.351C60.8417 55.7487 60.9923 55.2092 61.2181 54.7199C61.444 54.2305 61.7451 53.8164 62.1216 53.4651C62.498 53.1263 62.9371 52.8628 63.4516 52.6746C63.9535 52.4989 64.5056 52.3986 65.0953 52.3986C65.7227 52.3986 66.2873 52.4989 66.8018 52.6997C67.3162 52.9005 67.7554 53.1891 68.1193 53.5529C68.4832 53.9294 68.7592 54.3685 68.9725 54.883C69.1607 55.3974 69.2736 55.9746 69.2736 56.602V57.1541M67.0904 56.7776C67.2159 56.7776 67.2911 56.7024 67.3162 56.5518C67.3664 55.8366 67.1908 55.2594 66.7767 54.8328C66.3626 54.4062 65.8105 54.1803 65.0828 54.1803C64.2797 54.1803 63.6775 54.4187 63.2885 54.883C62.887 55.3472 62.7113 55.9872 62.7364 56.7776H67.0904Z" fill="#58595B"/>
<path d="M76.401 52.6242C76.6896 52.712 76.8904 52.8375 77.0033 52.9881C77.1162 53.1512 77.1789 53.3394 77.1789 53.5653C77.1789 53.7786 77.1037 53.9919 76.9531 54.1926C76.8025 54.4059 76.5641 54.5063 76.2379 54.5063C76.0622 54.5063 75.8615 54.4812 75.6356 54.4185C75.4097 54.3558 75.1462 54.3307 74.8326 54.3432C74.3934 54.3558 74.0672 54.4812 73.8539 54.7071C73.6405 54.9329 73.5276 55.3219 73.5276 55.8489V61.6333C73.5276 61.9219 73.4272 62.1603 73.239 62.3485C73.0508 62.5367 72.7999 62.6371 72.5238 62.6371C72.2603 62.6371 72.0345 62.5367 71.8337 62.3485C71.6455 62.1603 71.5451 61.9219 71.5451 61.6333V55.5227C71.5451 54.5691 71.8086 53.8162 72.3481 53.2516C72.8877 52.6995 73.6656 52.4109 74.6945 52.4109C75.0208 52.4109 75.3345 52.436 75.6356 52.4736C75.9493 52.5113 76.1877 52.5615 76.401 52.6242Z" fill="#58595B"/>
<defs>
<linearGradient id="paint0_linear_1_1154" x1="-46.4133" y1="25.2923" x2="138.102" y2="9.14876" gradientUnits="userSpaceOnUse">
<stop stop-color="#00B16B"/>
<stop offset="0.0188793" stop-color="#00AD70"/>
<stop offset="0.241" stop-color="#007FA3"/>
<stop offset="0.35" stop-color="#006DB7"/>
<stop offset="0.4016" stop-color="#225CAD"/>
<stop offset="0.4817" stop-color="#5145A0"/>
<stop offset="0.5527" stop-color="#733597"/>
<stop offset="0.6112" stop-color="#872B91"/>
<stop offset="0.65" stop-color="#8F278F"/>
<stop offset="0.7181" stop-color="#A63076"/>
<stop offset="0.8624" stop-color="#E04735"/>
<stop offset="0.9" stop-color="#F04D23"/>
<stop offset="1" stop-color="#F04D23"/>
</linearGradient>
</defs>
</svg>
