<svg width="29" height="29" viewBox="0 0 29 29" fill="none" xmlns="http://www.w3.org/2000/svg">
<path d="M28.5166 28.9995H0.483332C0.216533 28.9995 0 28.783 0 28.5162V10.1496C0 9.88279 0.216533 9.66626 0.483332 9.66626H28.5166C28.7834 9.66626 28.9999 9.88279 28.9999 10.1496V28.5162C28.9999 28.783 28.7838 28.9995 28.5166 28.9995ZM0.966663 28.0329H28.0332V10.6329H0.966663V28.0329Z" fill="#212121"/>
<path d="M25.1335 10.6329H3.86688C3.60008 10.6329 3.38354 10.4164 3.38354 10.1496V8.21624C3.38354 7.94944 3.60008 7.73291 3.86688 7.73291H25.1335C25.4003 7.73291 25.6168 7.94944 25.6168 8.21624V10.1496C25.6168 10.4164 25.4007 10.6329 25.1335 10.6329ZM4.35021 9.66624H24.6501V8.69957H4.35021V9.66624Z" fill="#212121"/>
<path d="M23.1997 8.69955H5.79974C5.53294 8.69955 5.31641 8.48302 5.31641 8.21622V6.28289C5.31641 6.01609 5.53294 5.79956 5.79974 5.79956H23.1997C23.4665 5.79956 23.683 6.01609 23.683 6.28289V8.21622C23.683 8.48302 23.467 8.69955 23.1997 8.69955ZM6.28307 7.73289H22.7163V6.76622H6.28307V7.73289Z" fill="#212121"/>
<path d="M22.2341 6.7662H6.76751C6.50071 6.7662 6.28418 6.54967 6.28418 6.28287V4.34954C6.28418 4.08274 6.50071 3.86621 6.76751 3.86621H22.2341C22.5009 3.86621 22.7175 4.08274 22.7175 4.34954V6.28287C22.7175 6.54967 22.5014 6.7662 22.2341 6.7662ZM7.25084 5.79954H21.7508V4.83287H7.25084V5.79954Z" fill="#212121"/>
<path d="M17.8836 17.3994H11.1169C10.0507 17.3994 9.18359 16.5323 9.18359 15.466C9.18359 14.3998 10.0507 13.5327 11.1169 13.5327H17.8836C18.9498 13.5327 19.8169 14.3998 19.8169 15.466C19.8169 16.5323 18.9498 17.3994 17.8836 17.3994ZM11.1169 14.4994C10.5838 14.4994 10.1503 14.9329 10.1503 15.466C10.1503 15.9992 10.5838 16.4327 11.1169 16.4327H17.8836C18.4167 16.4327 18.8502 15.9992 18.8502 15.466C18.8502 14.9329 18.4167 14.4994 17.8836 14.4994H11.1169Z" fill="#212121"/>
<path d="M28.5167 10.6328H0.483437C0.322971 10.6328 0.173138 10.5531 0.0832387 10.4206C-0.00666098 10.2882 -0.0250276 10.119 0.0344222 9.97016L3.90107 0.303532C3.97406 0.12035 4.15241 0 4.35009 0H24.65C24.8477 0 25.0251 0.12035 25.0985 0.303532L28.9652 9.97016C29.0251 10.119 29.0068 10.2877 28.9169 10.4206C28.827 10.5535 28.6771 10.6328 28.5167 10.6328ZM1.19732 9.66615H27.8028L24.3228 0.96618H4.67731L1.19732 9.66615Z" fill="#212121"/>
</svg>
