<?xml version="1.0" encoding="utf-8"?>
<!-- Generator: Adobe Illustrator 16.0.2, SVG Export Plug-In . SVG Version: 6.00 Build 0)  -->
<!DOCTYPE svg PUBLIC "-//W3C//DTD SVG 1.1//EN" "http://www.w3.org/Graphics/SVG/1.1/DTD/svg11.dtd">
<svg version="1.1" id="Layer_1" xmlns="http://www.w3.org/2000/svg" xmlns:xlink="http://www.w3.org/1999/xlink" x="0px" y="0px"
	 width="65.668px" height="64.003px" viewBox="371.287 365.354 65.668 64.003"
	 enable-background="new 371.287 365.354 65.668 64.003" xml:space="preserve">
<g>
	<g>
		<linearGradient id="SVGID_1_" gradientUnits="userSpaceOnUse" x1="371.2893" y1="399.9849" x2="423.2688" y2="399.9849">
			<stop  offset="0" style="stop-color:#83b645"/>
			<stop  offset="1" style="stop-color:#83B645"/>
		</linearGradient>
		<path fill="url(#SVGID_1_)" d="M422.054,417.947c-0.332,0.327-0.612,0.7-0.927,1.044c-0.355,0.374-0.717,0.753-1.085,1.109
			c-0.734,0.712-1.498,1.377-2.309,2.001c-1.585,1.23-3.311,2.281-5.112,3.145c-3.748,1.785-7.882,2.695-12.021,2.684
			c-3.644-0.006-7.258-0.724-10.628-2.105c-3.212-1.324-6.174-3.279-8.675-5.689c-2.512-2.427-4.564-5.303-6.027-8.477
			c-1.505-3.244-2.361-6.809-2.513-10.385c-0.163-3.664,0.379-7.328,1.621-10.782c1.161-3.262,2.968-6.313,5.253-8.915
			c2.309-2.637,5.095-4.825,8.208-6.441c3.148-1.64,6.628-2.667,10.167-2.987c0.875-0.076,1.755-0.117,2.629-0.117
			c-0.233-0.239-0.478-0.479-0.711-0.712c0,0.951,0,1.902,0,2.865c0,2.281,0,4.557,0,6.838c0,2.766,0,5.537,0.012,8.302
			c0,2.38,0,4.773,0,7.153c0,0.788,0,1.57,0,2.357c0,0.373-0.029,0.764,0,1.132c0,0.018,0,0.035,0,0.053
			c0.233-0.24,0.472-0.479,0.705-0.712c-0.571,0-0.985,0.8-0.501,1.214c0.723,0.612,1.446,1.225,2.174,1.826
			c1.737,1.464,3.486,2.929,5.224,4.393c2.11,1.774,4.221,3.548,6.331,5.321c1.824,1.534,3.649,3.068,5.479,4.604
			c0.893,0.746,1.772,1.511,2.676,2.246c0.012,0.006,0.023,0.023,0.035,0.029c0.292,0.251,0.717,0.292,1.003,0
			c0.251-0.257,0.297-0.759,0-1.004c-0.723-0.606-1.451-1.219-2.175-1.826c-1.737-1.464-3.486-2.929-5.229-4.394
			c-2.11-1.768-4.215-3.547-6.331-5.314c-1.819-1.535-3.649-3.075-5.474-4.609c-0.606-0.508-1.213-1.021-1.819-1.528
			c-0.286-0.234-0.554-0.502-0.851-0.718c-0.012-0.006-0.03-0.018-0.035-0.029c-0.169,0.408-0.338,0.811-0.507,1.22
			c0.385,0,0.711-0.327,0.711-0.712c0-0.951,0-1.907,0-2.865c0-2.281,0-4.557,0-6.837c0-2.766,0-5.537-0.006-8.302
			c0-2.387,0-4.772,0-7.153c0-1.161,0.041-2.334,0-3.489c0-0.017,0-0.041,0-0.052c0-0.385-0.327-0.711-0.711-0.711
			c-3.754,0-7.521,0.717-11.001,2.141c-3.41,1.394-6.535,3.407-9.205,5.945c-2.659,2.515-4.845,5.537-6.378,8.845
			c-1.603,3.442-2.524,7.153-2.723,10.946c-0.198,3.81,0.355,7.678,1.627,11.272c1.236,3.483,3.119,6.704,5.532,9.492
			c2.384,2.76,5.305,5.07,8.535,6.757c3.341,1.75,6.99,2.83,10.745,3.203c4.227,0.42,8.563-0.094,12.569-1.5
			c3.993-1.412,7.66-3.67,10.703-6.61c0.361-0.35,0.706-0.706,1.05-1.073c0.326-0.351,0.624-0.747,0.956-1.091
			C423.698,418.298,422.701,417.3,422.054,417.947"/>
	</g>
</g>
<linearGradient id="SVGID_2_" gradientUnits="userSpaceOnUse" x1="399.9089" y1="411.4551" x2="436.9553" y2="411.4551">
	<stop  offset="0" style="stop-color:#83b645"/>
	<stop  offset="1" style="stop-color:#83B645"/>
</linearGradient>
<path fill="url(#SVGID_2_)" d="M435.532,400.019c-0.012,6.389-1.767,12.689-5.095,18.139c-0.91,1.494-1.936,2.917-3.062,4.26
	c0.327,0,0.665,0,0.998,0c-1.779-1.494-3.551-2.987-5.323-4.47c-1.084-0.91-2.163-1.832-3.247-2.742
	c-2.408-2.024-4.815-4.043-7.224-6.067c-2.483-2.089-4.961-4.172-7.45-6.267c-0.881-0.735-1.767-1.482-2.647-2.223
	c-0.425-0.362-0.845-0.758-1.294-1.085c-0.017-0.017-0.035-0.035-0.058-0.052c-0.169,0.408-0.332,0.811-0.501,1.213
	c1.178,0,2.355,0,3.545,0c2.833,0,5.666,0,8.506,0c3.434,0,6.867,0,10.295,0c2.962,0,5.93,0,8.896,0c1.435,0,2.88,0.053,4.314,0
	c0.023,0,0.047,0,0.058,0c0.922,0,0.922-1.418,0-1.418c-1.177,0-2.354,0-3.544,0c-2.833,0-5.667,0-8.506,0
	c-3.434,0-6.867,0-10.296,0c-2.961,0-5.929,0-8.89,0c-1.44,0-2.886-0.058-4.32,0c-0.023,0-0.046,0-0.058,0
	c-0.577,0-0.991,0.8-0.507,1.214c1.09,0.91,2.169,1.826,3.253,2.736c2.414,2.036,4.833,4.061,7.246,6.091
	c2.484,2.083,4.968,4.178,7.445,6.261c1.306,1.103,2.611,2.193,3.929,3.296c1.72,1.441,3.44,2.894,5.166,4.335
	c0.069,0.064,0.146,0.122,0.222,0.187c0.273,0.228,0.734,0.315,1.002,0c4.216-5.018,7.072-11.126,8.098-17.614
	c0.31-1.919,0.467-3.856,0.473-5.793C436.955,399.096,435.532,399.096,435.532,400.019"/>
<linearGradient id="SVGID_3_" gradientUnits="userSpaceOnUse" x1="399.8972" y1="383.8945" x2="433.5559" y2="383.8945">
	<stop  offset="0" style="stop-color:#83b645"/>
	<stop  offset="1" style="stop-color:#83B645"/>
</linearGradient>
<path fill="url(#SVGID_3_)" d="M432.14,399.983c0,0.012,0,0.018,0,0.035c0.233-0.24,0.478-0.479,0.711-0.712
	c-1.066,0-2.14,0-3.206,0c-2.56,0-5.136,0-7.695,0c-3.107,0-6.215,0-9.316,0c-2.682,0-5.363,0-8.051,0c-0.88,0-1.749,0-2.635,0
	c-0.408,0-0.852-0.035-1.26,0c-0.023,0-0.04,0-0.058,0c0.233,0.234,0.472,0.473,0.711,0.712c0-1.185,0-2.363,0-3.542
	c0-2.73,0-5.46-0.006-8.197c0-3.08,0-6.155-0.012-9.235c0-2.188,0-4.371,0-6.558c0-1.43,0-2.865,0-4.294c0-0.146,0-0.286,0-0.438
	c-0.233,0.24-0.472,0.479-0.711,0.712c3.27,0,6.518,0.496,9.625,1.487c3.05,0.975,5.94,2.416,8.559,4.265
	c2.554,1.797,4.851,4.002,6.763,6.476c1.953,2.515,3.527,5.345,4.629,8.338c1.137,3.092,1.79,6.354,1.924,9.65
	C432.134,399.114,432.14,399.546,432.14,399.983c0,0.916,1.416,0.916,1.416,0c-0.005-3.46-0.536-6.919-1.608-10.205
	c-1.038-3.168-2.554-6.19-4.489-8.897c-1.941-2.713-4.256-5.093-6.896-7.118c-2.646-2.025-5.597-3.623-8.733-4.761
	c-3.229-1.173-6.646-1.821-10.085-1.937c-0.373-0.012-0.752-0.024-1.131-0.024c-0.379,0-0.706,0.333-0.706,0.712
	c0,1.43,0,2.854,0,4.283c0,1.989,0,3.985,0,5.98c0,3.034,0,6.068,0.005,9.102c0,2.842,0,5.683,0.006,8.519
	c0,1.436-0.047,2.882,0,4.317c0,0.018,0,0.041,0,0.064c0,0.379,0.327,0.706,0.711,0.706c1.067,0,2.14,0,3.201,0
	c2.565,0,5.136,0,7.702,0c3.101,0,6.209,0,9.316,0c2.682,0,5.357,0,8.045,0c1.294,0,2.6,0.053,3.894,0c0.019,0,0.035,0,0.053,0
	c0.391,0,0.712-0.327,0.712-0.706c0-0.018,0-0.023,0-0.035C433.556,399.062,432.14,399.062,432.14,399.983"/>
<g>
	<g>
		<path fill="#FFFFFF" d="M414.187,398.182c0,0.207-0.005,0.414-0.015,0.62c-0.011,0.207-0.025,0.413-0.046,0.618
			s-0.046,0.411-0.076,0.615s-0.065,0.408-0.105,0.611c-0.041,0.203-0.086,0.404-0.136,0.604c-0.051,0.201-0.105,0.4-0.166,0.598
			c-0.06,0.198-0.125,0.394-0.194,0.588c-0.069,0.195-0.144,0.388-0.223,0.579s-0.163,0.38-0.252,0.567
			c-0.088,0.187-0.181,0.371-0.278,0.553s-0.199,0.362-0.306,0.54c-0.106,0.177-0.217,0.352-0.331,0.523
			c-0.115,0.172-0.234,0.341-0.357,0.507s-0.25,0.329-0.381,0.489c-0.132,0.159-0.267,0.315-0.405,0.469s-0.281,0.303-0.428,0.449
			c-0.146,0.146-0.295,0.288-0.448,0.428c-0.153,0.139-0.311,0.273-0.47,0.404c-0.159,0.132-0.323,0.258-0.488,0.382
			c-0.166,0.123-0.335,0.241-0.507,0.356s-0.347,0.226-0.523,0.332c-0.178,0.105-0.357,0.208-0.54,0.306
			c-0.183,0.097-0.367,0.189-0.554,0.278c-0.187,0.088-0.376,0.172-0.566,0.251c-0.191,0.079-0.384,0.154-0.578,0.224
			c-0.195,0.069-0.391,0.134-0.589,0.194c-0.198,0.06-0.397,0.115-0.598,0.165s-0.402,0.096-0.604,0.136
			c-0.203,0.041-0.406,0.075-0.611,0.105c-0.205,0.031-0.41,0.056-0.615,0.076s-0.412,0.035-0.618,0.046
			c-0.207,0.011-0.413,0.016-0.62,0.016s-0.413-0.005-0.62-0.016c-0.206-0.011-0.412-0.025-0.618-0.046
			c-0.205-0.021-0.411-0.045-0.615-0.076c-0.205-0.03-0.408-0.064-0.611-0.105c-0.203-0.04-0.404-0.086-0.605-0.136
			c-0.2-0.05-0.399-0.105-0.597-0.165c-0.198-0.061-0.394-0.125-0.588-0.194c-0.195-0.069-0.388-0.145-0.579-0.224
			s-0.38-0.163-0.567-0.251c-0.187-0.089-0.371-0.182-0.553-0.278c-0.182-0.098-0.362-0.2-0.54-0.306
			c-0.177-0.106-0.352-0.217-0.523-0.332c-0.172-0.115-0.341-0.233-0.507-0.356c-0.167-0.124-0.329-0.25-0.489-0.382
			c-0.16-0.131-0.316-0.266-0.469-0.404c-0.154-0.14-0.303-0.282-0.449-0.428c-0.146-0.146-0.289-0.296-0.427-0.449
			c-0.139-0.153-0.274-0.31-0.405-0.469c-0.131-0.16-0.259-0.323-0.382-0.489s-0.242-0.334-0.357-0.507
			c-0.114-0.172-0.226-0.347-0.332-0.523c-0.106-0.177-0.208-0.357-0.305-0.54c-0.098-0.182-0.191-0.367-0.279-0.553
			c-0.088-0.187-0.172-0.376-0.251-0.567c-0.079-0.191-0.153-0.384-0.223-0.579c-0.07-0.194-0.135-0.391-0.195-0.588
			c-0.06-0.198-0.115-0.397-0.165-0.598c-0.05-0.2-0.096-0.402-0.136-0.604c-0.041-0.203-0.076-0.407-0.106-0.611
			s-0.056-0.41-0.076-0.615c-0.021-0.206-0.036-0.412-0.046-0.618c-0.01-0.206-0.015-0.413-0.015-0.62
			c0-0.207,0.005-0.413,0.015-0.62c0.01-0.207,0.025-0.413,0.046-0.618c0.02-0.206,0.045-0.411,0.076-0.615s0.066-0.408,0.106-0.611
			c0.04-0.203,0.085-0.404,0.136-0.605c0.05-0.2,0.105-0.399,0.165-0.597c0.06-0.198,0.125-0.394,0.195-0.589
			c0.069-0.194,0.144-0.387,0.223-0.578c0.08-0.191,0.163-0.379,0.251-0.567c0.088-0.187,0.181-0.371,0.279-0.554
			c0.097-0.182,0.199-0.362,0.305-0.539c0.106-0.177,0.217-0.352,0.332-0.524c0.115-0.171,0.234-0.34,0.357-0.507
			c0.123-0.166,0.25-0.329,0.382-0.488c0.131-0.16,0.266-0.316,0.405-0.47c0.139-0.153,0.281-0.303,0.427-0.449
			c0.146-0.146,0.295-0.289,0.449-0.427c0.153-0.139,0.31-0.274,0.469-0.405c0.16-0.131,0.322-0.258,0.489-0.381
			c0.166-0.124,0.334-0.242,0.507-0.357c0.171-0.115,0.346-0.225,0.523-0.332c0.177-0.106,0.357-0.208,0.54-0.306
			c0.182-0.097,0.367-0.19,0.553-0.278c0.187-0.088,0.376-0.172,0.567-0.251c0.191-0.08,0.384-0.154,0.579-0.224
			c0.194-0.069,0.39-0.134,0.588-0.194c0.198-0.06,0.397-0.115,0.597-0.165c0.201-0.05,0.402-0.096,0.605-0.136
			c0.203-0.04,0.406-0.075,0.611-0.105c0.204-0.03,0.41-0.056,0.615-0.076c0.206-0.02,0.412-0.035,0.618-0.045
			c0.207-0.01,0.414-0.015,0.62-0.015s0.413,0.005,0.62,0.015c0.206,0.01,0.413,0.025,0.618,0.045
			c0.206,0.021,0.411,0.046,0.615,0.076s0.408,0.065,0.611,0.105c0.203,0.041,0.404,0.086,0.604,0.136
			c0.201,0.05,0.4,0.105,0.598,0.165c0.198,0.061,0.394,0.125,0.589,0.194c0.194,0.07,0.387,0.144,0.578,0.224
			c0.19,0.079,0.38,0.163,0.566,0.251s0.371,0.181,0.554,0.278c0.183,0.098,0.362,0.2,0.54,0.306
			c0.177,0.106,0.352,0.217,0.523,0.332c0.172,0.115,0.341,0.234,0.507,0.357c0.165,0.123,0.329,0.25,0.488,0.381
			c0.159,0.131,0.316,0.266,0.47,0.405c0.153,0.139,0.303,0.281,0.448,0.427c0.146,0.146,0.289,0.296,0.428,0.449
			c0.139,0.153,0.273,0.31,0.405,0.47c0.131,0.16,0.258,0.323,0.381,0.488c0.123,0.167,0.242,0.335,0.357,0.507
			c0.114,0.172,0.225,0.347,0.331,0.524s0.208,0.357,0.306,0.539c0.098,0.183,0.19,0.367,0.278,0.554
			c0.089,0.188,0.173,0.376,0.252,0.567s0.153,0.384,0.223,0.578c0.069,0.195,0.135,0.391,0.194,0.589
			c0.061,0.198,0.115,0.397,0.166,0.597c0.05,0.201,0.095,0.402,0.136,0.605c0.04,0.203,0.075,0.406,0.105,0.611
			s0.056,0.41,0.076,0.615s0.035,0.412,0.046,0.618C414.182,397.769,414.187,397.975,414.187,398.182z"/>
	</g>
</g>
<g>
	<g>
		<linearGradient id="SVGID_4_" gradientUnits="userSpaceOnUse" x1="389.9475" y1="398.1035" x2="413.8147" y2="398.1035">
			<stop  offset="0" style="stop-color:#83b645"/>
			<stop  offset="1" style="stop-color:#83B645"/>
		</linearGradient>
		<path fill="url(#SVGID_4_)" d="M401.882,386.203c-3.185,0-6.184,1.23-8.424,3.488c-3.493,3.467-4.479,8.638-2.506,13.152
			c0.103,0.226,0.328,0.37,0.575,0.37c0.082,0,0.164-0.021,0.247-0.042c0.308-0.144,0.452-0.492,0.329-0.8
			c-1.788-4.063-0.904-8.7,2.219-11.818c2.034-2.011,4.705-3.119,7.561-3.119c2.404,0,4.684,0.78,6.554,2.237l-1.089,0.123
			c-0.329,0.041-0.575,0.349-0.534,0.677c0.041,0.308,0.309,0.534,0.616,0.534h0.082l2.466-0.288
			c0.329-0.041,0.555-0.328,0.534-0.656l-0.144-2.319c-0.021-0.349-0.309-0.595-0.658-0.575c-0.349,0.021-0.596,0.308-0.574,0.657
			l0.041,0.841C407.1,387.085,404.552,386.203,401.882,386.203z M412.208,392.938c-0.081,0.002-0.162,0.02-0.239,0.056
			c-0.308,0.144-0.451,0.493-0.308,0.821c1.787,4.063,0.925,8.72-2.219,11.86c-2.034,1.99-4.705,3.098-7.561,3.098
			c-2.404,0-4.685-0.779-6.554-2.236l1.089-0.123c0.329-0.041,0.575-0.349,0.534-0.677c-0.041-0.329-0.349-0.575-0.678-0.534
			l-2.465,0.287c-0.329,0.041-0.555,0.328-0.534,0.657l0.145,2.318c0.02,0.328,0.288,0.575,0.616,0.575h0.042
			c0.349-0.021,0.596-0.309,0.575-0.657l-0.042-0.842c2.055,1.58,4.603,2.463,7.273,2.463c3.185,0,6.184-1.231,8.424-3.488
			c3.513-3.508,4.479-8.679,2.485-13.213C412.684,393.071,412.448,392.933,412.208,392.938z M399.519,393.589
			c-0.349,0-0.616,0.267-0.616,0.616s0.267,0.615,0.616,0.615h2.014c0.576,0.062,1.048,0.411,1.294,0.821h-3.308
			c-0.349,0-0.616,0.267-0.616,0.616c0,0.349,0.267,0.615,0.616,0.615h3.349c-0.226,0.493-0.719,0.821-1.294,0.821h-2.055
			c-0.247,0-0.493,0.165-0.575,0.39c-0.082,0.246-0.021,0.513,0.165,0.677l4.109,3.693c0.124,0.103,0.267,0.164,0.411,0.164
			c0.164,0,0.328-0.062,0.452-0.205c0.226-0.246,0.206-0.636-0.041-0.862l-2.917-2.626h0.452c1.273,0,2.321-0.882,2.609-2.052h0.062
			c0.349,0,0.617-0.267,0.617-0.615c0-0.349-0.268-0.616-0.617-0.616h-0.082c-0.083-0.287-0.206-0.574-0.391-0.821h0.473
			c0.349,0,0.617-0.267,0.617-0.615s-0.268-0.616-0.617-0.616H399.519z"/>
	</g>
</g>
<g>
	<defs>
		<rect id="SVGID_5_" x="420.012" y="374.54" width="8.167" height="0.042"/>
	</defs>
	<clipPath id="SVGID_6_">
		<use xlink:href="#SVGID_5_"  overflow="visible"/>
	</clipPath>
	<g clip-path="url(#SVGID_6_)">
		<path fill="#2B7F5C" d="M417.628,375.352c3.522,0,6.891,1.268,9.528,3.579l-4.748,4.455c-1.375-1.022-3.059-1.583-4.78-1.583
			c-0.959,0-1.893,0.166-2.78,0.495l-3.071-5.715C413.62,375.765,415.586,375.352,417.628,375.352z M414.319,382.98
			c0.097,0.18,0.313,0.256,0.502,0.177c0.889-0.375,1.833-0.566,2.808-0.566c1.656,0,3.274,0.575,4.555,1.619
			c0.073,0.06,0.161,0.089,0.25,0.089c0.097,0,0.194-0.036,0.271-0.107l5.307-4.979c0.079-0.075,0.124-0.179,0.124-0.289
			c0-0.109-0.046-0.213-0.126-0.288c-2.829-2.627-6.516-4.074-10.38-4.074c-2.3,0-4.509,0.499-6.567,1.481
			c-0.098,0.046-0.172,0.13-0.205,0.232c-0.033,0.103-0.023,0.214,0.027,0.309L414.319,382.98"/>
	</g>
</g>
<g>
	<g>
		<linearGradient id="SVGID_7_" gradientUnits="userSpaceOnUse" x1="420.6409" y1="370.8037" x2="434.261" y2="370.8037">
			<stop  offset="0" style="stop-color:#83b645"/>
			<stop  offset="1" style="stop-color:#83B645"/>
		</linearGradient>
		<path fill="url(#SVGID_7_)" d="M422.903,373.06c-0.813,0-1.473-0.66-1.473-1.471c0-0.811,0.66-1.471,1.473-1.471
			c0.811,0,1.471,0.66,1.471,1.471C424.373,372.4,423.713,373.06,422.903,373.06z M433.866,367.759h-7.504
			c-0.119,0-0.231,0.053-0.306,0.145l-1.644,2.007c-0.4-0.36-0.931-0.58-1.511-0.58c-1.248,0-2.262,1.013-2.262,2.259
			s1.014,2.259,2.262,2.259c1.246,0,2.261-1.013,2.261-2.259c0-0.374-0.092-0.728-0.254-1.039l1.64-2.003h7.317
			c0.218,0,0.395-0.177,0.395-0.394C434.261,367.936,434.084,367.759,433.866,367.759"/>
	</g>
</g>
<g>
	<defs>
		<rect id="SVGID_8_" x="428.611" y="365.354" width="5.649" height="0.875"/>
	</defs>
	<linearGradient id="SVGID_9_" gradientUnits="userSpaceOnUse" x1="428.6106" y1="365.791" x2="434.26" y2="365.791">
		<stop  offset="0" style="stop-color:#83b645"/>
		<stop  offset="1" style="stop-color:#83B645"/>
	</linearGradient>
	<use xlink:href="#SVGID_8_"  overflow="visible" fill="url(#SVGID_9_)"/>
	<clipPath id="SVGID_10_">
		<use xlink:href="#SVGID_8_"  overflow="visible"/>
	</clipPath>
	<g clip-path="url(#SVGID_10_)">
		<linearGradient id="SVGID_11_" gradientUnits="userSpaceOnUse" x1="428.6252" y1="365.751" x2="434.261" y2="365.751">
			<stop  offset="0" style="stop-color:#83b645"/>
			<stop  offset="1" style="stop-color:#83B645"/>
		</linearGradient>
		<path fill="url(#SVGID_11_)" d="M429.02,366.146h4.847c0.218,0,0.395-0.177,0.395-0.395s-0.177-0.395-0.395-0.395h-4.847
			c-0.218,0-0.395,0.177-0.395,0.395S428.802,366.146,429.02,366.146"/>
	</g>
</g>
</svg>
