<svg xmlns="http://www.w3.org/2000/svg" width="375" viewBox="0 0 375 375" height="375" version="1.0"><defs><clipPath id="a"><path d="M 118.027344 219.132812 L 179.527344 219.132812 L 179.527344 280.632812 L 118.027344 280.632812 Z M 118.027344 219.132812"/></clipPath><clipPath id="b"><path d="M 74.65625 57.425781 L 300.40625 57.425781 L 300.40625 332.84375 L 74.65625 332.84375 Z M 74.65625 57.425781"/></clipPath><clipPath id="c"><path d="M 148.710938 101.914062 L 209.460938 101.914062 L 209.460938 167.914062 L 148.710938 167.914062 Z M 148.710938 101.914062"/></clipPath><clipPath id="d"><path d="M 152.96875 97.214844 L 221.96875 97.214844 L 221.96875 202 L 152.96875 202 Z M 152.96875 97.214844"/></clipPath></defs><path fill="#FFF" d="M-37.5 -37.5H412.5V412.5H-37.5z"/><path fill="#FFF" d="M-37.5 -37.5H412.5V412.5H-37.5z"/><g clip-path="url(#a)"><path fill="#FFF" d="M 179.527344 249.882812 C 179.527344 250.890625 179.476562 251.894531 179.378906 252.894531 C 179.28125 253.898438 179.132812 254.894531 178.9375 255.882812 C 178.738281 256.867188 178.496094 257.84375 178.203125 258.808594 C 177.910156 259.773438 177.570312 260.71875 177.1875 261.648438 C 176.800781 262.578125 176.371094 263.488281 175.894531 264.378906 C 175.421875 265.265625 174.902344 266.128906 174.34375 266.964844 C 173.785156 267.804688 173.1875 268.609375 172.546875 269.390625 C 171.90625 270.167969 171.234375 270.914062 170.519531 271.625 C 169.808594 272.335938 169.0625 273.011719 168.285156 273.652344 C 167.507812 274.289062 166.699219 274.890625 165.859375 275.449219 C 165.023438 276.007812 164.160156 276.527344 163.273438 277 C 162.382812 277.476562 161.476562 277.90625 160.542969 278.292969 C 159.613281 278.675781 158.667969 279.015625 157.703125 279.308594 C 156.738281 279.601562 155.761719 279.84375 154.777344 280.042969 C 153.789062 280.238281 152.792969 280.386719 151.789062 280.484375 C 150.789062 280.582031 149.785156 280.632812 148.777344 280.632812 C 147.769531 280.632812 146.765625 280.582031 145.761719 280.484375 C 144.761719 280.386719 143.765625 280.238281 142.777344 280.042969 C 141.789062 279.84375 140.8125 279.601562 139.851562 279.308594 C 138.886719 279.015625 137.941406 278.675781 137.007812 278.292969 C 136.078125 277.90625 135.167969 277.476562 134.28125 277 C 133.394531 276.527344 132.53125 276.007812 131.691406 275.449219 C 130.855469 274.890625 130.046875 274.289062 129.269531 273.652344 C 128.492188 273.011719 127.746094 272.335938 127.035156 271.625 C 126.320312 270.914062 125.644531 270.167969 125.007812 269.390625 C 124.367188 268.609375 123.769531 267.804688 123.210938 266.964844 C 122.648438 266.128906 122.132812 265.265625 121.65625 264.378906 C 121.183594 263.488281 120.753906 262.578125 120.367188 261.648438 C 119.980469 260.71875 119.644531 259.773438 119.351562 258.808594 C 119.058594 257.84375 118.8125 256.867188 118.617188 255.882812 C 118.421875 254.894531 118.273438 253.898438 118.175781 252.894531 C 118.074219 251.894531 118.027344 250.890625 118.027344 249.882812 C 118.027344 248.875 118.074219 247.871094 118.175781 246.867188 C 118.273438 245.867188 118.421875 244.871094 118.617188 243.882812 C 118.8125 242.894531 119.058594 241.917969 119.351562 240.957031 C 119.644531 239.992188 119.980469 239.042969 120.367188 238.113281 C 120.753906 237.183594 121.183594 236.273438 121.65625 235.386719 C 122.132812 234.5 122.648438 233.636719 123.210938 232.796875 C 123.769531 231.960938 124.367188 231.152344 125.007812 230.375 C 125.644531 229.597656 126.320312 228.851562 127.035156 228.136719 C 127.746094 227.425781 128.492188 226.75 129.269531 226.113281 C 130.046875 225.472656 130.855469 224.875 131.691406 224.3125 C 132.53125 223.753906 133.394531 223.238281 134.28125 222.761719 C 135.167969 222.289062 136.078125 221.859375 137.007812 221.472656 C 137.941406 221.085938 138.886719 220.75 139.851562 220.457031 C 140.8125 220.164062 141.789062 219.917969 142.777344 219.722656 C 143.765625 219.527344 144.761719 219.378906 145.761719 219.28125 C 146.765625 219.179688 147.769531 219.132812 148.777344 219.132812 C 149.785156 219.132812 150.789062 219.179688 151.789062 219.28125 C 152.792969 219.378906 153.789062 219.527344 154.777344 219.722656 C 155.761719 219.917969 156.738281 220.164062 157.703125 220.457031 C 158.667969 220.75 159.613281 221.085938 160.542969 221.472656 C 161.476562 221.859375 162.382812 222.289062 163.273438 222.761719 C 164.160156 223.238281 165.023438 223.753906 165.859375 224.3125 C 166.699219 224.875 167.507812 225.472656 168.285156 226.113281 C 169.0625 226.75 169.808594 227.425781 170.519531 228.136719 C 171.234375 228.851562 171.90625 229.597656 172.546875 230.375 C 173.1875 231.152344 173.785156 231.960938 174.34375 232.796875 C 174.902344 233.636719 175.421875 234.5 175.894531 235.386719 C 176.371094 236.273438 176.800781 237.183594 177.1875 238.113281 C 177.570312 239.042969 177.910156 239.992188 178.203125 240.957031 C 178.496094 241.917969 178.738281 242.894531 178.9375 243.882812 C 179.132812 244.871094 179.28125 245.867188 179.378906 246.867188 C 179.476562 247.871094 179.527344 248.875 179.527344 249.882812 Z M 179.527344 249.882812"/></g><g clip-path="url(#b)"><path fill="#2B7F5C" d="M 130.03125 57.425781 C 123.804688 57.425781 115.890625 61.558594 115.351562 66.9375 C 115.203125 68.453125 121.875 69.96875 124.167969 72.855469 C 126.441406 75.742188 125.21875 78.625 121.875 81.511719 C 118.550781 84.398438 119.136719 92.90625 123.707031 95.179688 C 128.25 97.453125 131.277344 100.949219 133.109375 102.613281 C 134.917969 104.300781 129.933594 106.425781 127.957031 107.015625 C 125.976562 107.625 127.199219 114.152344 124.757812 116.132812 C 122.335938 118.113281 112.027344 131.464844 109.292969 136.039062 C 107.191406 139.535156 103.652344 143.863281 100.402344 143.863281 C 99.425781 143.863281 98.472656 143.46875 97.59375 142.566406 C 96.566406 141.488281 95.6875 141.050781 94.832031 141.050781 C 92.609375 141.050781 90.800781 144.203125 88.042969 146.96875 C 84.253906 150.757812 85.917969 153.960938 89.410156 154.71875 C 92.902344 155.476562 93.21875 165.792969 95.320312 169.902344 C 97.105469 173.324219 95.90625 175.796875 91.828125 175.796875 C 91.023438 175.796875 90.117188 175.722656 89.117188 175.5 C 86.867188 175.0625 84.5 174.644531 82.324219 174.644531 C 78.464844 174.644531 75.289062 175.964844 74.703125 180.832031 C 73.800781 188.410156 86.699219 186.457031 88.210938 188.875 C 89.726562 191.296875 80.320312 191.445312 78.953125 193.890625 C 77.585938 196.308594 83.816406 208.316406 93.511719 209.390625 C 93.855469 209.414062 94.195312 209.441406 94.515625 209.441406 C 102.992188 209.441406 103.871094 196.726562 106.070312 196.726562 C 106.117188 196.726562 106.191406 196.75 106.265625 196.773438 C 108.730469 197.679688 107.777344 212.886719 106.703125 218.023438 C 105.652344 223.179688 106.703125 226.996094 107.777344 236.847656 C 108.828125 246.726562 109 257.65625 114.59375 266.632812 C 120.210938 275.605469 117.476562 283.796875 121.898438 290.617188 C 126.292969 297.464844 127.664062 304.75 129.933594 315.238281 C 132.207031 325.703125 135.554688 332.84375 141.148438 332.84375 C 146.765625 332.84375 154.363281 319.789062 155.265625 315.679688 C 156.167969 311.597656 164.207031 309.761719 162.691406 303.992188 C 161.175781 298.222656 166.039062 292.746094 167.554688 288.636719 C 169.066406 284.554688 166.332031 276.972656 166.039062 269.371094 C 165.746094 261.765625 169.214844 261.617188 172.269531 261.324219 C 175.296875 261.03125 172.097656 255.847656 179.695312 255.238281 C 187.265625 254.648438 184.996094 254.015625 185.140625 251.152344 C 185.3125 248.269531 188.953125 247.804688 194.863281 241.570312 C 200.773438 235.332031 204.878906 231.566406 207.003906 226.996094 C 209.128906 222.449219 211.253906 225.160156 215.945312 222.59375 C 220.660156 220.003906 222.929688 213.9375 223.078125 209.539062 C 223.199219 205.894531 228.941406 203.082031 230.917969 203.082031 C 231.332031 203.082031 231.578125 203.203125 231.578125 203.472656 C 231.578125 204.476562 234.339844 205.503906 236.632812 205.503906 C 237.757812 205.503906 238.757812 205.257812 239.320312 204.695312 C 240.984375 202.863281 240.078125 194.648438 239.46875 191.320312 C 238.855469 187.972656 236.4375 186.164062 237.195312 183.421875 C 237.953125 180.683594 235.828125 181.296875 232.945312 177.945312 C 230.0625 174.621094 234.753906 173.253906 236.878906 171.566406 C 239.003906 169.902344 232.015625 167.015625 232.773438 163.226562 C 233.066406 161.808594 233.703125 161.320312 234.632812 161.320312 C 236.195312 161.320312 238.613281 162.761719 241.59375 163.519531 C 246.285156 164.742188 244.621094 168.386719 245.234375 170.511719 C 245.625 171.882812 250.703125 172.25 255.027344 172.25 C 257.375 172.25 259.523438 172.128906 260.550781 172.03125 C 260.671875 172.003906 260.769531 172.003906 260.867188 172.003906 C 263.457031 172.003906 263.847656 175.476562 262.820312 178.410156 C 261.769531 181.441406 257.054688 182.664062 256.296875 187.089844 C 255.859375 189.707031 257.8125 191.175781 259.523438 191.175781 C 260.71875 191.175781 261.769531 190.441406 261.769531 188.875 C 261.769531 186.675781 262.722656 185.453125 263.578125 185.453125 C 264.1875 185.453125 264.726562 186.113281 264.800781 187.507812 C 264.945312 190.613281 266.117188 199.855469 268.953125 199.855469 C 269.171875 199.855469 269.417969 199.78125 269.660156 199.660156 C 273.007812 197.996094 269.195312 194.648438 271.613281 188.582031 C 273.8125 183.128906 272.199219 181.222656 274.59375 181.222656 C 274.863281 181.222656 275.179688 181.246094 275.570312 181.296875 C 275.914062 181.320312 276.230469 181.34375 276.523438 181.34375 C 279.429688 181.34375 279.871094 179.265625 281.800781 174.304688 C 283.925781 168.828125 286.050781 153.640625 291.207031 150.316406 C 296.359375 146.96875 298.019531 145.914062 300.144531 141.34375 C 302.269531 136.796875 293.183594 139.214844 293.625 134.375 C 293.941406 130.925781 288.519531 129.703125 284.171875 129.703125 C 282.363281 129.703125 280.75 129.925781 279.824219 130.265625 C 276.648438 131.488281 267.386719 146.0625 261.746094 146.0625 C 256.101562 146.0625 259.960938 149.851562 261.476562 152.738281 C 262.992188 155.621094 258.128906 154.863281 250.703125 156.085938 C 247.917969 156.550781 245.355469 156.871094 243.253906 156.871094 C 239.761719 156.871094 237.488281 155.941406 237.488281 153.203125 C 237.488281 148.800781 236.4375 144.546875 233.410156 144.546875 C 230.382812 144.546875 231.722656 153.496094 231.722656 155.941406 C 231.722656 158.214844 228.476562 159.4375 222.125 159.4375 C 221.734375 159.4375 221.367188 159.4375 220.953125 159.4375 C 214.136719 159.289062 204.4375 150.5625 198.429688 150.5625 C 198.136719 150.5625 197.867188 150.585938 197.597656 150.609375 C 197.332031 150.660156 197.085938 150.683594 196.792969 150.683594 C 190.367188 150.683594 175.6875 141.195312 170.753906 137.554688 C 165.574219 133.761719 174.980469 128.605469 175.441406 124.351562 C 175.882812 120.09375 158.296875 118.578125 159.515625 112.34375 C 160.640625 106.523438 156.097656 100.707031 156.855469 100.707031 C 156.902344 100.707031 156.976562 100.753906 157.097656 100.804688 C 158.101562 101.367188 160.519531 102.394531 162.617188 102.394531 C 163.960938 102.394531 165.183594 101.976562 165.890625 100.804688 C 167.699219 97.769531 160.566406 91.855469 165.574219 87.304688 C 170.582031 82.734375 173.316406 71.65625 168.164062 70.140625 C 167.480469 69.921875 166.769531 69.847656 166.0625 69.847656 C 161.496094 69.847656 156.730469 73.492188 153.457031 73.636719 C 153.433594 73.636719 153.410156 73.636719 153.386719 73.636719 C 149.550781 73.636719 138.851562 59.039062 132.5 57.671875 C 131.71875 57.5 130.886719 57.425781 130.03125 57.425781 Z M 284.171875 135.304688 C 285.878906 135.304688 287.199219 135.546875 288.03125 135.792969 C 288.347656 138.582031 289.984375 140.730469 292.941406 142.199219 C 291.988281 143.105469 290.621094 143.984375 288.152344 145.597656 C 282.65625 149.144531 280.335938 158.191406 278.285156 166.1875 C 277.648438 168.65625 277.0625 170.976562 276.550781 172.273438 L 275.960938 173.839844 C 275.742188 174.425781 275.472656 175.0625 275.253906 175.625 C 275.035156 175.597656 274.816406 175.597656 274.59375 175.597656 C 272.492188 175.597656 270.027344 176.234375 268.535156 178.875 C 269.417969 175.402344 268.953125 172.03125 267.265625 169.65625 C 265.800781 167.578125 263.457031 166.382812 260.890625 166.382812 C 260.574219 166.382812 260.28125 166.40625 259.960938 166.429688 C 259.253906 166.503906 257.375 166.625 255.027344 166.625 C 253.121094 166.625 251.65625 166.550781 250.582031 166.453125 C 250.410156 165.132812 250.019531 163.519531 249.019531 162.027344 C 249.800781 161.90625 250.679688 161.785156 251.585938 161.613281 C 253.5625 161.296875 255.347656 161.125 256.933594 160.976562 C 261.109375 160.5625 264.703125 160.21875 266.582031 156.746094 C 267.191406 155.621094 267.976562 153.324219 266.582031 150.414062 C 270.710938 148.3125 274.570312 143.910156 278.308594 139.605469 C 279.578125 138.164062 281.261719 136.234375 282.117188 135.449219 C 282.507812 135.402344 283.21875 135.304688 284.171875 135.304688 M 130.03125 63.050781 C 130.519531 63.050781 130.960938 63.101562 131.328125 63.171875 C 133.207031 63.613281 138.09375 68.355469 140.707031 70.898438 C 145.886719 75.914062 149.304688 79.238281 153.386719 79.238281 L 153.652344 79.238281 C 156.167969 79.140625 158.539062 78.113281 160.8125 77.132812 C 162.324219 76.472656 164.011719 75.742188 165.304688 75.519531 C 165.160156 77.574219 163.863281 81.242188 161.8125 83.125 C 157.316406 87.207031 157.855469 92.074219 158.90625 95.472656 C 158.222656 95.230469 157.539062 95.082031 156.855469 95.082031 L 153.652344 95.128906 L 152.015625 97.769531 C 150.28125 100.535156 151.527344 103.078125 152.261719 104.617188 C 153.019531 106.183594 154.433594 109.066406 153.996094 111.269531 C 152.433594 119.289062 161.175781 122.761719 166.40625 124.8125 C 166.96875 125.035156 167.625 125.304688 168.261719 125.574219 C 168.1875 125.671875 168.113281 125.742188 168.042969 125.839844 C 165.84375 128.457031 163.132812 131.710938 163.644531 135.941406 C 163.839844 137.625 164.671875 140.070312 167.40625 142.078125 C 167.601562 142.222656 186.851562 156.28125 196.792969 156.28125 C 197.355469 156.28125 197.917969 156.257812 198.429688 156.183594 C 199.945312 156.183594 203.851562 158.3125 206.441406 159.730469 C 211.132812 162.296875 215.992188 164.9375 220.828125 165.035156 C 221.269531 165.0625 221.710938 165.0625 222.125 165.0625 C 224.003906 165.0625 225.691406 164.9375 227.15625 164.742188 C 227.375 166.796875 228.328125 168.507812 229.355469 169.902344 C 228.035156 171.050781 226.863281 172.617188 226.519531 174.792969 C 226.226562 176.429688 226.398438 178.972656 228.695312 181.613281 C 229.671875 182.789062 230.625 183.621094 231.429688 184.230469 C 231.359375 186.796875 232.382812 188.828125 233.117188 190.292969 C 233.53125 191.101562 233.847656 191.738281 233.949219 192.300781 C 234.289062 194.28125 234.535156 196.652344 234.632812 198.558594 C 233.628906 197.875 232.382812 197.457031 230.917969 197.457031 C 226.449219 197.457031 217.726562 202.078125 217.457031 209.34375 C 217.359375 212.347656 215.773438 216.285156 213.234375 217.65625 C 212.304688 218.191406 211.667969 218.265625 210.667969 218.363281 C 208.519531 218.609375 204.488281 219.074219 201.898438 224.625 C 200.53125 227.582031 197.597656 230.613281 193.570312 234.796875 C 192.6875 235.699219 191.761719 236.679688 190.785156 237.707031 C 188.464844 240.148438 186.558594 241.542969 185.042969 242.691406 C 182.917969 244.257812 180.351562 246.164062 179.695312 249.613281 C 179.546875 249.613281 179.402344 249.636719 179.253906 249.636719 C 172.535156 250.175781 170.140625 253.621094 169.140625 256.066406 C 165.476562 256.851562 160.03125 259.464844 160.421875 269.589844 C 160.542969 272.988281 161.105469 276.265625 161.59375 279.148438 C 162.007812 281.71875 162.667969 285.605469 162.277344 286.707031 C 162.007812 287.464844 161.398438 288.5625 160.761719 289.738281 C 158.613281 293.648438 155.679688 298.980469 157.21875 305.214844 C 156.828125 305.726562 155.851562 306.535156 155.21875 307.046875 C 153.140625 308.785156 150.574219 310.910156 149.792969 314.457031 C 149.109375 317.464844 143.710938 325.925781 140.976562 327.195312 C 140.046875 326.855469 137.605469 324.066406 135.40625 314.015625 L 134.992188 312.035156 C 132.914062 302.402344 131.277344 294.824219 126.613281 287.585938 C 125.195312 285.410156 124.828125 282.71875 124.363281 279.371094 C 123.753906 274.917969 122.972656 269.394531 119.359375 263.648438 C 115.300781 257.167969 114.546875 248.902344 113.8125 240.882812 C 113.664062 239.320312 113.519531 237.777344 113.347656 236.261719 C 113.078125 233.746094 112.8125 231.59375 112.566406 229.734375 C 111.882812 224.304688 111.636719 222.007812 112.226562 219.171875 C 112.859375 216.015625 113.347656 210.566406 113.421875 205.894531 C 113.519531 198.242188 112.6875 193.179688 108.242188 191.515625 C 107.535156 191.25 106.800781 191.101562 106.070312 191.101562 C 101.550781 191.101562 99.863281 195.234375 98.765625 197.949219 C 97.203125 201.761719 96.078125 203.816406 94.515625 203.816406 C 94.390625 203.816406 94.269531 203.816406 94.125 203.792969 C 90.191406 203.375 86.964844 199.683594 85.402344 196.996094 C 85.476562 196.996094 85.523438 196.96875 85.574219 196.96875 C 88.675781 196.113281 92.195312 195.160156 93.5625 191.6875 C 94.292969 189.78125 94.074219 187.679688 92.976562 185.894531 C 91.09375 182.910156 87.75 182.347656 84.5 181.808594 C 83.375 181.613281 81.445312 181.296875 80.394531 180.90625 C 80.445312 180.683594 80.492188 180.539062 80.492188 180.539062 C 80.492188 180.539062 80.910156 180.269531 82.324219 180.269531 C 84.058594 180.269531 86.183594 180.660156 88.042969 181.027344 C 89.386719 181.296875 90.65625 181.417969 91.828125 181.417969 C 97.128906 181.417969 99.570312 178.730469 100.546875 177.140625 C 101.523438 175.527344 102.796875 172.078125 100.328125 167.308594 C 99.863281 166.40625 99.351562 164.105469 98.9375 162.226562 C 97.886719 157.554688 96.714844 152.320312 92.855469 150.074219 C 93.464844 149.4375 94.027344 148.777344 94.515625 148.191406 C 94.660156 148.019531 94.808594 147.871094 94.980469 147.675781 C 96.589844 148.851562 98.421875 149.484375 100.402344 149.484375 C 106.824219 149.484375 111.761719 142.859375 114.128906 138.921875 C 116.71875 134.570312 126.417969 122.148438 128.324219 120.511719 C 131.328125 118.042969 131.792969 114.300781 132.132812 111.5625 C 132.132812 111.539062 132.132812 111.511719 132.15625 111.488281 C 135.210938 110.167969 138.238281 108.089844 138.972656 104.835938 C 139.484375 102.515625 138.730469 100.144531 136.921875 98.480469 C 136.601562 98.1875 136.261719 97.84375 135.871094 97.476562 C 133.820312 95.449219 130.691406 92.390625 126.246094 90.167969 C 125.464844 89.605469 125.074219 86.671875 125.660156 85.667969 C 134.332031 78.089844 130.082031 71.289062 128.566406 69.359375 C 127.101562 67.5 125.050781 66.230469 123.09375 65.203125 C 124.828125 64.078125 127.441406 63.050781 130.03125 63.050781"/></g><g clip-path="url(#c)"><path fill="#FFF" d="M 224.460938 139.789062 C 224.460938 141.027344 224.398438 142.265625 224.277344 143.5 C 224.15625 144.734375 223.976562 145.960938 223.734375 147.175781 C 223.492188 148.394531 223.191406 149.59375 222.828125 150.78125 C 222.46875 151.96875 222.050781 153.136719 221.578125 154.28125 C 221.101562 155.429688 220.574219 156.546875 219.988281 157.640625 C 219.402344 158.734375 218.765625 159.796875 218.078125 160.832031 C 217.386719 161.863281 216.652344 162.855469 215.863281 163.816406 C 215.078125 164.773438 214.246094 165.691406 213.367188 166.570312 C 212.492188 167.445312 211.574219 168.277344 210.613281 169.066406 C 209.65625 169.851562 208.660156 170.589844 207.628906 171.28125 C 206.597656 171.96875 205.535156 172.605469 204.441406 173.191406 C 203.347656 173.777344 202.226562 174.304688 201.078125 174.78125 C 199.933594 175.253906 198.765625 175.671875 197.582031 176.03125 C 196.394531 176.390625 195.191406 176.691406 193.976562 176.933594 C 192.757812 177.175781 191.53125 177.359375 190.296875 177.480469 C 189.0625 177.601562 187.828125 177.664062 186.585938 177.664062 C 185.34375 177.664062 184.109375 177.601562 182.875 177.480469 C 181.640625 177.359375 180.414062 177.175781 179.195312 176.933594 C 177.980469 176.691406 176.777344 176.390625 175.589844 176.03125 C 174.402344 175.671875 173.238281 175.253906 172.089844 174.78125 C 170.945312 174.304688 169.824219 173.777344 168.730469 173.191406 C 167.636719 172.605469 166.574219 171.96875 165.542969 171.28125 C 164.511719 170.589844 163.515625 169.851562 162.558594 169.066406 C 161.597656 168.277344 160.679688 167.445312 159.804688 166.570312 C 158.925781 165.691406 158.09375 164.773438 157.308594 163.816406 C 156.519531 162.855469 155.78125 161.863281 155.09375 160.832031 C 154.40625 159.796875 153.769531 158.734375 153.183594 157.640625 C 152.597656 156.546875 152.070312 155.429688 151.59375 154.28125 C 151.117188 153.136719 150.703125 151.96875 150.339844 150.78125 C 149.980469 149.59375 149.679688 148.394531 149.4375 147.175781 C 149.195312 145.960938 149.015625 144.734375 148.894531 143.5 C 148.773438 142.265625 148.710938 141.027344 148.710938 139.789062 C 148.710938 138.546875 148.773438 137.308594 148.894531 136.074219 C 149.015625 134.839844 149.195312 133.617188 149.4375 132.398438 C 149.679688 131.183594 149.980469 129.980469 150.339844 128.792969 C 150.703125 127.605469 151.117188 126.441406 151.59375 125.292969 C 152.070312 124.148438 152.597656 123.027344 153.183594 121.933594 C 153.769531 120.839844 154.40625 119.777344 155.09375 118.746094 C 155.78125 117.714844 156.519531 116.71875 157.308594 115.761719 C 158.09375 114.800781 158.925781 113.882812 159.804688 113.007812 C 160.679688 112.128906 161.597656 111.296875 162.558594 110.511719 C 163.515625 109.722656 164.511719 108.984375 165.542969 108.296875 C 166.574219 107.605469 167.636719 106.96875 168.730469 106.386719 C 169.824219 105.800781 170.945312 105.269531 172.089844 104.796875 C 173.238281 104.320312 174.402344 103.902344 175.589844 103.542969 C 176.777344 103.183594 177.980469 102.882812 179.195312 102.640625 C 180.414062 102.398438 181.640625 102.21875 182.875 102.09375 C 184.109375 101.972656 185.34375 101.914062 186.585938 101.914062 C 187.828125 101.914062 189.0625 101.972656 190.296875 102.09375 C 191.53125 102.21875 192.757812 102.398438 193.976562 102.640625 C 195.191406 102.882812 196.394531 103.183594 197.582031 103.542969 C 198.765625 103.902344 199.933594 104.320312 201.078125 104.796875 C 202.226562 105.269531 203.347656 105.800781 204.441406 106.386719 C 205.535156 106.96875 206.597656 107.605469 207.628906 108.296875 C 208.660156 108.984375 209.65625 109.722656 210.613281 110.511719 C 211.574219 111.296875 212.492188 112.128906 213.367188 113.007812 C 214.246094 113.882812 215.078125 114.800781 215.863281 115.761719 C 216.652344 116.71875 217.386719 117.714844 218.078125 118.746094 C 218.765625 119.777344 219.402344 120.839844 219.988281 121.933594 C 220.574219 123.027344 221.101562 124.148438 221.578125 125.292969 C 222.050781 126.441406 222.46875 127.605469 222.828125 128.792969 C 223.191406 129.980469 223.492188 131.183594 223.734375 132.398438 C 223.976562 133.617188 224.15625 134.839844 224.277344 136.074219 C 224.398438 137.308594 224.460938 138.546875 224.460938 139.789062 Z M 224.460938 139.789062"/></g><g clip-path="url(#d)"><path fill="#2B7F5C" d="M 187.46875 195.398438 L 216.113281 141.710938 C 216.65625 140.144531 217.058594 138.53125 217.34375 136.890625 C 217.628906 135.230469 217.769531 133.519531 217.769531 131.761719 C 217.769531 123.378906 214.378906 115.78125 208.902344 110.296875 C 203.402344 104.8125 195.839844 101.417969 187.46875 101.417969 C 179.097656 101.417969 171.535156 104.8125 166.03125 110.296875 C 160.554688 115.78125 157.164062 123.378906 157.164062 131.761719 C 157.164062 133.519531 157.308594 135.230469 157.59375 136.890625 C 157.875 138.53125 158.28125 140.144531 158.824219 141.710938 Z M 187.46875 112.886719 C 192.78125 112.886719 197.570312 115.046875 201.03125 118.535156 C 204.515625 122.003906 206.675781 126.800781 206.675781 132.117188 C 206.675781 133.210938 206.578125 134.28125 206.390625 135.347656 C 206.199219 136.417969 205.9375 137.460938 205.582031 138.480469 C 204.253906 142.28125 201.765625 145.535156 198.542969 147.8125 C 195.410156 150.023438 191.59375 151.328125 187.46875 151.328125 C 183.34375 151.328125 179.523438 150.023438 176.394531 147.8125 C 173.171875 145.535156 170.703125 142.28125 169.375 138.480469 L 169.351562 138.507812 C 168.996094 137.484375 168.734375 136.441406 168.546875 135.347656 C 168.355469 134.28125 168.261719 133.210938 168.261719 132.117188 C 168.261719 126.800781 170.417969 122.003906 173.90625 118.535156 C 177.367188 115.046875 182.15625 112.886719 187.46875 112.886719 Z M 198.089844 121.480469 C 195.363281 118.773438 191.617188 117.089844 187.46875 117.089844 C 183.320312 117.089844 179.574219 118.773438 176.84375 121.480469 C 174.140625 124.210938 172.457031 127.964844 172.457031 132.117188 C 172.457031 132.996094 172.53125 133.851562 172.671875 134.660156 C 172.816406 135.492188 173.027344 136.320312 173.289062 137.105469 C 174.332031 140.074219 176.277344 142.613281 178.789062 144.394531 C 181.230469 146.128906 184.21875 147.148438 187.46875 147.148438 C 190.714844 147.148438 193.703125 146.128906 196.148438 144.394531 C 198.660156 142.613281 200.605469 140.074219 201.648438 137.105469 C 201.910156 136.320312 202.121094 135.515625 202.265625 134.660156 C 202.40625 133.851562 202.476562 132.996094 202.476562 132.117188 C 202.476562 127.964844 200.792969 124.210938 198.089844 121.480469 Z M 219.882812 143.492188 L 189.316406 200.789062 C 189.128906 201.167969 188.84375 201.476562 188.441406 201.667969 C 187.445312 202.214844 186.164062 201.832031 185.617188 200.8125 L 155.125 143.636719 C 155.054688 143.492188 154.984375 143.375 154.9375 143.207031 C 154.296875 141.402344 153.796875 139.503906 153.464844 137.578125 C 153.15625 135.65625 152.96875 133.734375 152.96875 131.761719 C 152.96875 122.21875 156.832031 113.597656 163.09375 107.328125 C 169.328125 101.085938 177.9375 97.214844 187.46875 97.214844 C 197 97.214844 205.605469 101.085938 211.84375 107.328125 C 218.101562 113.597656 221.96875 122.21875 221.96875 131.761719 C 221.96875 133.734375 221.777344 135.65625 221.46875 137.578125 C 221.136719 139.503906 220.640625 141.402344 220 143.207031 C 219.976562 143.300781 219.929688 143.398438 219.882812 143.492188 Z M 219.882812 143.492188"/></g></svg>