<?xml version="1.0" encoding="utf-8"?>
<!-- Generator: Adobe Illustrator 25.0.0, SVG Export Plug-In . SVG Version: 6.00 Build 0)  -->
<svg version="1.1" id="Capa_1" xmlns="http://www.w3.org/2000/svg" xmlns:xlink="http://www.w3.org/1999/xlink" x="0px" y="0px"
	 viewBox="0 0 512 512" style="enable-background:new 0 0 512 512;" xml:space="preserve">
<style type="text/css">
	.st0{fill:#83B645;}
</style>
<g>
	<g id="close_1_">
		<path class="st0" d="M48.5,508.8c-12.6,0.7-24.9-3.4-34.4-11.6c-18.8-18.9-18.8-49.5,0-68.4L425.8,17
			c19.6-18.3,50.2-17.3,68.5,2.3c16.5,17.7,17.5,44.9,2.3,63.7L82.5,497.2C73.1,505.2,60.9,509.4,48.5,508.8L48.5,508.8z"/>
		<path class="st0" d="M459.8,508.8c-12.7-0.1-24.9-5.1-33.9-14.1L14.1,83C-3.3,62.6-1,32,19.4,14.6c18.2-15.5,44.9-15.5,63.1,0
			l414.2,411.7c19.6,18.3,20.6,49,2.3,68.5c-0.7,0.8-1.5,1.5-2.3,2.3C486.5,506,473.2,510.2,459.8,508.8L459.8,508.8z"/>
	</g>
</g>
</svg>
