<svg width="1838" height="1277" viewBox="0 0 1838 1277" fill="none" xmlns="http://www.w3.org/2000/svg">
<path opacity="0.3" d="M24.9972 940.612L0.0856135 1036.36L98.4596 1038.89C267.827 1041.09 434.162 1083.39 583.932 1162.35C740.158 1248.48 918.05 1287.22 1096.08 1273.89C1189.79 1268.69 1280.78 1240.04 1360.8 1190.56C1440.81 1141.07 1507.29 1072.32 1554.19 990.564C1614.85 884.971 1647.23 765.469 1648.15 643.751C1603.11 690.744 1554.63 734.275 1503.11 773.979C1388.88 856.786 1254.27 906.511 1114.02 917.704C978.818 928.715 843.039 907.786 717.559 856.595C845.481 882.066 977.374 880.491 1104.84 851.972C1166.18 838.621 1225.6 817.474 1281.66 789.045C1335.95 759.995 1387.1 725.363 1434.29 685.705C1526.79 600.577 1606.34 502.272 1670.39 393.956C1736.26 285.88 1792.12 171.987 1837.25 53.713L1691.12 0.524386C1645.42 104.703 1592.42 205.505 1532.5 302.178C1451.16 210.237 1347.69 140.797 1231.92 100.425C1124.45 61.3972 1010.2 44.4209 895.929 50.5157C252.992 86.873 37.0286 907.555 24.9972 940.612Z" fill="url(#paint0_linear_364_7)" fill-opacity="0.5"/>
<defs>
<linearGradient id="paint0_linear_364_7" x1="677.836" y1="1283.05" x2="1208.56" y2="-175.112" gradientUnits="userSpaceOnUse">
<stop stop-color="#83B645"/>
<stop offset="1" stop-color="#83B645" stop-opacity="0"/>
</linearGradient>
</defs>
</svg>
