<svg width="81" height="80" viewBox="0 0 81 80" fill="none" xmlns="http://www.w3.org/2000/svg">
<path d="M38.8767 0H41.3641C53.4633 0.682275 62.0899 5.27656 68.4856 11.7153C74.8814 18.154 79.609 26.6461 80.2408 38.7966V41.2038C79.6265 53.5485 74.8153 61.696 68.4856 68.3252C61.8363 74.6221 53.6624 79.393 41.324 80H38.8767C26.7791 79.3163 18.1509 74.724 11.7552 68.2849C5.35959 61.8462 0.631761 53.3543 0 41.2038V38.7966C0.0314843 38.7878 0.0468805 38.763 0.0401339 38.7163C0.645082 26.6122 5.39869 18.0318 11.7554 11.6751C18.1413 5.28884 26.8575 0.661689 38.8767 0ZM31.0131 5.73723C28.6292 6.37557 26.4914 7.1862 24.5538 8.14439C18.6558 11.0608 13.792 15.2334 10.3912 20.5817C7.07185 25.8022 4.19779 32.5179 4.614 41.324C4.87643 46.8758 6.14324 51.5458 8.14439 55.5267C12.0964 63.3869 18.113 69.1784 26.4395 72.6984C30.5571 74.439 35.6591 75.66 41.4044 75.3863C46.9154 75.1239 51.6908 73.8851 55.6473 71.8959C63.4014 67.997 69.5123 61.9815 72.8993 53.6812C74.6122 49.4826 75.9076 44.6321 75.6275 38.7563C75.0975 27.6256 70.5698 20.0783 64.5945 14.3229C61.6379 11.4752 58.0778 9.05277 53.8824 7.30193C49.8118 5.60316 44.5125 4.34362 38.8371 4.61383C36.0469 4.74669 33.4149 5.09405 31.0131 5.73723Z" fill="#0083CA"/>
<path d="M36.4295 29.6089C37.7006 30.4507 39.0008 31.2635 40.2009 32.1766C37.4899 33.8788 34.8323 35.6345 32.1367 37.3521C32.546 37.6651 33.0114 37.9218 33.4205 38.2347C36.1385 36.5128 38.8574 34.7919 41.5651 33.0592C42.7795 33.8108 43.975 34.5812 45.0958 35.4264C42.3826 37.14 39.7604 38.9443 37.0716 40.682C37.47 41.006 37.9584 41.2397 38.3954 41.5247C41.1744 39.8236 43.8843 38.0534 46.62 36.3092V30.6119H52.6382V41.9661C54.3364 42.0595 56.2091 41.9794 57.9744 42.0059V47.3422H46.62V41.9256C43.2841 43.9524 39.8654 46.2444 36.5098 48.3851C33.0152 46.116 29.6472 43.7196 26.1587 41.4444C25.1481 44.6476 22.7478 47.0574 18.7763 47.3422C16.2994 47.5193 13.4849 47.2098 10.6319 47.3422V30.6119C14.1986 30.8482 18.1152 30.135 20.9429 31.0131C23.4431 31.7896 25.2157 33.7845 26.0381 36.2689C29.5292 34.0762 32.9643 31.8278 36.4295 29.6089ZM16.369 35.9881V42.0061C17.8026 42.0132 18.8929 42.0964 19.739 41.4446C20.9979 40.4749 21.2515 38.0712 20.1402 36.7904C19.3986 35.9358 18.1465 35.7565 16.4089 35.8677C16.3626 35.8744 16.3655 35.9312 16.369 35.9881ZM59.5388 30.6119H65.5568V42.0061H70.8527V47.3423H59.4983V30.7323C59.4952 30.6754 59.4919 30.6186 59.5388 30.6119Z" fill="#0083CA"/>
</svg>
