<svg width="110" height="110" viewBox="0 0 110 110" fill="none" xmlns="http://www.w3.org/2000/svg">
<g clip-path="url(#clip0_380_209)">
<path opacity="0.3" d="M109.748 6.98237L109.048 0L102.056 2.21662C90.0728 6.17632 77.2761 7.39143 64.706 5.76323C51.4974 3.81376 37.9777 5.54609 25.7825 10.7506C19.3176 13.3687 13.6438 17.4832 9.27783 22.7194C4.91189 27.9555 1.99245 34.1472 0.785327 40.7304C-0.77989 49.235 0.00314159 57.9804 3.0578 66.1109C5.02469 61.8887 7.32308 57.8133 9.9335 53.9194C15.8548 45.6339 24.0594 39.0579 33.6488 34.9118C42.8869 30.9005 52.9846 29.0026 63.1328 29.3702C53.472 30.7751 44.2245 34.0778 35.9795 39.068C32.0025 41.4445 28.3606 44.2937 25.1416 47.5466C22.0631 50.798 19.3486 54.3453 17.0423 58.131C12.7101 66.0444 9.62768 74.5217 7.8941 83.2897C6.02549 92.086 5.01125 101.027 4.86413 110H16.5178C17.0655 101.953 18.2144 93.9527 19.9557 86.0605C28.0401 90.2122 37.1062 92.3296 46.2931 92.2117C54.8614 92.206 63.3414 90.5667 71.2321 87.3905C115.574 69.3803 109.748 9.47607 109.748 6.98237Z" fill="url(#paint0_linear_380_209)"/>
<path d="M49.0381 70.4395H69.8796V79.0621H49.0381V70.4395Z" fill="#343434"/>
<path d="M76.2868 81.0697V83.4025H42.625V81.0697C42.625 79.9601 43.5208 79.0645 44.6304 79.0645H74.2816C75.3912 79.0645 76.2868 79.9668 76.2868 81.0697Z" fill="#3F3F3F"/>
<path d="M91.9129 26.5648V67.098C91.9129 68.9429 90.4157 70.4401 88.5708 70.4401H30.3577C28.5129 70.4401 27.0156 68.9429 27.0156 67.098V26.5648C27.0156 24.7199 28.5129 23.2227 30.3577 23.2227H88.5708C90.4157 23.2227 91.9129 24.7199 91.9129 26.5648Z" fill="#3F3F3F"/>
<path d="M31.0239 27.2324H87.9001V61.2953H31.0239V27.2324Z" fill="white"/>
<path d="M61.4647 65.8666C61.4647 66.9761 60.569 67.8718 59.4593 67.8718C58.3498 67.8718 57.4541 66.9761 57.4541 65.8666C57.4541 64.757 58.3498 63.8613 59.4593 63.8613C60.569 63.8613 61.4647 64.757 61.4647 65.8666Z" fill="#343434"/>
<path d="M61.7974 50.2793H64.4042V55.4329H61.7974V50.2793Z" fill="#5CC1E6"/>
<path d="M65.9106 47.8398H68.5174V55.4265H65.9106V47.8398Z" fill="#FFE200"/>
<path d="M70.0195 44.873H72.6263V55.4341H70.0195V44.873Z" fill="#F15A24"/>
<path d="M74.1392 41.5527H76.746V55.4359H74.1392V41.5527Z" fill="#88D600"/>
<path d="M78.248 48.2617H80.8548V55.434H78.248V48.2617Z" fill="#7668F4"/>
<path d="M82.3613 50.5762H84.9681V55.4356H82.3613V50.5762Z" fill="#FF003B"/>
<path d="M61.7974 57.1367H84.965V58.6942H61.7974V57.1367Z" fill="#343434"/>
<path d="M61.7974 37.3984H84.9716V38.9693H61.7974V37.3984Z" fill="#DDDDDD"/>
<path d="M61.7974 33.6172H84.9716V35.1879H61.7974V33.6172Z" fill="#DDDDDD"/>
<path d="M61.7974 29.832H84.9716V31.4028H61.7974V29.832Z" fill="#DDDDDD"/>
<path d="M32.9668 28.9824H36.9173V32.9328H32.9668V28.9824Z" fill="#7668F4"/>
<path d="M32.9668 35.4082H36.9173V39.3586H32.9668V35.4082Z" fill="#FFE200"/>
<path d="M32.9668 41.832H36.9173V45.7825H32.9668V41.832Z" fill="#FF003B"/>
<path d="M32.9668 48.248H36.9173V52.1984H32.9668V48.248Z" fill="#88D600"/>
<path d="M38.7456 29.5723H58.2034V30.361H38.7456V29.5723Z" fill="#DDDDDD"/>
<path d="M38.7456 31.5645H50.4631V32.3532H38.7456V31.5645Z" fill="#DDDDDD"/>
<path d="M38.7456 35.9941H58.2034V36.7829H38.7456V35.9941Z" fill="#DDDDDD"/>
<path d="M38.7456 37.9824H50.4631V38.7712H38.7456V37.9824Z" fill="#DDDDDD"/>
<path d="M38.7456 42.4121H58.2034V43.2008H38.7456V42.4121Z" fill="#DDDDDD"/>
<path d="M38.7456 44.4062H50.4631V45.195H38.7456V44.4062Z" fill="#DDDDDD"/>
<path d="M38.7456 48.8359H58.2034V49.6247H38.7456V48.8359Z" fill="#DDDDDD"/>
<path d="M38.7456 50.8281H50.4631V51.6169H38.7456V50.8281Z" fill="#DDDDDD"/>
<path d="M32.9668 54.1426H56.1411V58.6945H32.9668V54.1426Z" fill="#DDDDDD"/>
<path d="M99 59.3779V90.0786C99 90.8139 98.3984 91.4154 97.6631 91.4154H72.4301C71.6948 91.4154 71.0933 90.8139 71.0933 90.0786V59.3779C71.0933 58.6426 71.6948 58.041 72.4301 58.041H97.6631C98.3984 58.041 99 58.6426 99 59.3779Z" fill="#E6E6E6"/>
<path d="M85.0528 70C82.4326 70 80.0597 71.0629 78.3418 72.7807L85.0528 79.4916V70Z" fill="#343434"/>
<path d="M78.9435 73.3867C77.3794 74.9508 76.4102 77.1098 76.4102 79.4894C76.4102 81.869 77.3794 84.028 78.9435 85.5921L85.0462 79.4894L78.9435 73.3867Z" fill="#5CC1E6"/>
<path d="M78.9434 85.6008C80.5075 87.1649 82.6665 88.1341 85.0462 88.1341C87.4258 88.1341 89.5848 87.1649 91.1488 85.6008L85.0462 79.498L78.9434 85.6008Z" fill="#FF003B"/>
<path d="M85.0527 70.8633V79.4993L91.1555 85.602C92.7196 84.0379 93.6888 81.8788 93.6888 79.4993C93.6821 74.7334 89.8187 70.8633 85.0527 70.8633Z" fill="#88D600"/>
<path d="M75.5088 66.0273H94.5856V67.0568H75.5088V66.0273Z" fill="#BABABA"/>
<path d="M75.5088 63.541H94.5856V64.5703H75.5088V63.541Z" fill="#BABABA"/>
<path d="M79.2485 61.0625H90.8458V62.0919H79.2485V61.0625Z" fill="#BABABA"/>
<path d="M51.8654 58.4736V90.0767C51.8654 90.812 51.2637 91.4135 50.5285 91.4135H14.7812C14.0459 91.4135 13.4443 90.812 13.4443 90.0767V58.4736C13.4443 57.7383 14.0459 57.1367 14.7812 57.1367H50.5285C51.2637 57.1367 51.8654 57.7383 51.8654 58.4736Z" fill="#E6E6E6"/>
<path d="M51.8654 63.3676V58.4813C51.8654 57.7461 51.2637 57.1445 50.5285 57.1445H14.7812C14.0459 57.1445 13.4443 57.7461 13.4443 58.4813V63.3676H51.8654Z" fill="#7668F4"/>
<path d="M26.5649 59.2305H48.8569V61.2691H26.5649V59.2305Z" fill="white"/>
<path d="M18.4907 60.3937C18.4907 60.9553 18.0362 61.4165 17.468 61.4165C16.9065 61.4165 16.4453 60.9553 16.4453 60.3937C16.4453 59.8256 16.9065 59.3711 17.468 59.3711C18.0362 59.3711 18.4907 59.8256 18.4907 60.3937Z" fill="#343434"/>
<path d="M21.6396 60.3937C21.6396 60.9553 21.1851 61.4165 20.617 61.4165C20.0554 61.4165 19.5942 60.9553 19.5942 60.3937C19.5942 59.8256 20.0554 59.3711 20.617 59.3711C21.1851 59.3711 21.6396 59.8256 21.6396 60.3937Z" fill="#FFE200"/>
<path d="M24.7807 60.3937C24.7807 60.9553 24.3262 61.4165 23.7581 61.4165C23.1967 61.4165 22.7354 60.9553 22.7354 60.3937C22.7354 59.8256 23.1967 59.3711 23.7581 59.3711C24.3262 59.3711 24.7807 59.8256 24.7807 60.3937Z" fill="#FF003B"/>
<path d="M17.8252 67.207H18.7008V88.5031H17.8252V67.207Z" fill="#343434"/>
<path d="M19.873 87.9004H20.2541V89.1035H19.873V87.9004Z" fill="#343434"/>
<path d="M21.7227 87.9004H22.1036V89.1035H21.7227V87.9004Z" fill="#343434"/>
<path d="M23.5708 87.9004H23.9518V89.1035H23.5708V87.9004Z" fill="#343434"/>
<path d="M25.4238 87.9004H25.8049V89.1035H25.4238V87.9004Z" fill="#343434"/>
<path d="M27.2676 87.9004H27.6485V89.1035H27.2676V87.9004Z" fill="#343434"/>
<path d="M29.1201 87.9004H29.5011V89.1035H29.1201V87.9004Z" fill="#343434"/>
<path d="M30.9688 87.9004H31.3498V89.1035H30.9688V87.9004Z" fill="#343434"/>
<path d="M32.8169 87.9004H33.1978V89.1035H32.8169V87.9004Z" fill="#343434"/>
<path d="M34.665 87.9004H35.046V89.1035H34.665V87.9004Z" fill="#343434"/>
<path d="M36.5181 87.9004H36.8991V89.1035H36.5181V87.9004Z" fill="#343434"/>
<path d="M38.3716 87.9004H38.7527V89.1035H38.3716V87.9004Z" fill="#343434"/>
<path d="M40.2153 87.9004H40.5963V89.1035H40.2153V87.9004Z" fill="#343434"/>
<path d="M42.0684 87.9004H42.4494V89.1035H42.0684V87.9004Z" fill="#343434"/>
<path d="M43.918 87.9004H44.299V89.1035H43.918V87.9004Z" fill="#343434"/>
<path d="M45.7661 87.9004H46.1471V89.1035H45.7661V87.9004Z" fill="#343434"/>
<path d="M15.8833 67.207H17.0865V67.5813H15.8833V67.207Z" fill="#343434"/>
<path d="M15.8833 68.9766H17.0865V69.3508H15.8833V68.9766Z" fill="#343434"/>
<path d="M15.8833 70.748H17.0865V71.1224H15.8833V70.748Z" fill="#343434"/>
<path d="M15.8833 72.5137H17.0865V72.8879H15.8833V72.5137Z" fill="#343434"/>
<path d="M15.8833 74.2832H17.0865V74.6576H15.8833V74.2832Z" fill="#343434"/>
<path d="M15.8833 76.0566H17.0865V76.431H15.8833V76.0566Z" fill="#343434"/>
<path d="M15.8833 77.8262H17.0865V78.2004H15.8833V77.8262Z" fill="#343434"/>
<path d="M15.8833 79.5918H17.0865V79.9662H15.8833V79.5918Z" fill="#343434"/>
<path d="M15.8833 81.3633H17.0865V81.7376H15.8833V81.3633Z" fill="#343434"/>
<path d="M15.8833 83.1328H17.0865V83.5072H15.8833V83.1328Z" fill="#343434"/>
<path d="M15.8833 84.8984H17.0865V85.2727H15.8833V84.8984Z" fill="#343434"/>
<path d="M16.4839 86.2871H46.1418V87.1628H16.4839V86.2871Z" fill="#343434"/>
<path d="M43.1228 71.1208C42.4944 71.7691 41.9664 72.6247 41.5252 73.741L41.3983 74.0618C41.1977 74.5832 41.0039 75.0778 40.6831 75.4856C40.3488 75.9134 39.754 76.281 39.1991 76.134C38.5642 75.9735 38.2433 75.2516 38.103 74.8439C38.036 74.6366 37.9759 74.4295 37.9225 74.2156C37.8022 73.7611 37.6751 73.2932 37.4278 72.8654C37.0334 72.1969 36.1913 71.6488 35.4025 71.963C34.5469 72.2971 34.3932 73.3065 34.2661 74.1153L34.2394 74.2824C34.1459 74.8439 33.9854 75.392 33.7515 75.9067C33.6312 76.1741 33.4774 76.4748 33.2368 76.6687C33.0563 76.8158 32.7622 76.916 32.5283 76.8091C32.1607 76.642 32.1004 76.0872 32.0871 75.5056C32.0737 74.8505 32.0136 74.0952 31.6794 73.4134C31.3117 72.6581 30.6366 72.1435 29.9281 72.07C29.1394 71.9964 28.2904 72.4643 27.8159 73.2531C27.368 74.0017 27.2811 74.8706 27.2611 75.5457L27.2544 75.8399C27.2411 76.388 27.2277 76.9093 27.0272 77.3705C26.8199 77.8451 26.2785 78.2529 25.8106 78.1125C25.463 78.0056 25.2224 77.6512 24.9617 77.277C24.6342 76.8091 24.2665 76.2743 23.6181 76.2409C23.05 76.2208 22.5955 76.6219 22.3682 77.0162C22.1877 77.3304 22.0875 77.6646 22.0006 77.9922L21.927 78.2529C21.7065 78.9881 21.379 79.5562 20.9512 79.9373C20.5567 80.2982 20.0554 80.4854 19.5942 80.4787V81.0269H19.6076C20.2025 81.0269 20.8242 80.7794 21.3121 80.3384C21.8135 79.8838 22.1944 79.2354 22.4417 78.4065L22.522 78.1325C22.6088 77.8251 22.689 77.531 22.8361 77.2837C22.9832 77.0364 23.2773 76.7555 23.5981 76.7757C23.9791 76.7957 24.2331 77.1566 24.5205 77.5777C24.8079 77.9922 25.1288 78.4534 25.6502 78.6205C26.4322 78.8678 27.2143 78.2863 27.5218 77.5844C27.7624 77.0297 27.7758 76.428 27.7891 75.8466L27.7958 75.5591C27.8159 74.9509 27.8895 74.162 28.2771 73.5204C28.5845 73.0123 29.1928 72.5312 29.868 72.5913C30.396 72.6448 30.904 73.0459 31.1915 73.634C31.4789 74.2223 31.5323 74.9108 31.5457 75.5056C31.5591 76.0136 31.5791 76.9494 32.301 77.2837C32.6887 77.4641 33.19 77.3772 33.5711 77.0698C33.9052 76.8024 34.1058 76.4147 34.2394 76.1072C34.4867 75.5457 34.6672 74.9575 34.7675 74.3492L34.7943 74.1821C34.9078 73.4737 35.0282 72.6715 35.5963 72.4442C36.0843 72.257 36.6725 72.6381 36.9599 73.1193C37.1738 73.4802 37.2807 73.8947 37.4011 74.3292C37.4612 74.5498 37.5214 74.7704 37.595 74.9909C37.7687 75.5056 38.1898 76.408 39.0722 76.6353C39.921 76.8559 40.6964 76.321 41.1109 75.793C41.4851 75.3184 41.6991 74.7637 41.9063 74.229L42.0265 73.9147C42.4477 72.8654 42.9356 72.07 43.5105 71.4683C44.179 70.7799 44.9944 70.3654 45.8098 70.2719V69.7305C44.8473 69.8507 43.8981 70.3253 43.1228 71.1208Z" fill="#7668F4"/>
<path d="M43.4969 76.6301C43.3165 76.2958 43.1494 75.9483 42.9823 75.6007C42.5946 74.7852 42.1936 73.9496 41.5919 73.2411C40.7497 72.2519 39.2257 71.4565 37.8755 72.0446C36.7593 72.5326 36.2378 73.7157 35.8033 74.8854L34.4599 78.495C34.2059 79.1834 33.9118 79.9655 33.3302 80.4535C32.8222 80.8813 31.9533 81.0082 31.5188 80.5069C31.3317 80.293 31.238 79.9856 31.1311 79.658C30.984 79.1834 30.8169 78.6487 30.3089 78.3947C29.9413 78.2075 29.5403 78.2476 29.1859 78.2878C28.9052 78.3145 28.6446 78.3412 28.424 78.2676C28.0631 78.1407 27.8425 77.7329 27.7288 77.4121C27.682 77.2784 27.6419 77.1448 27.5952 77.011C27.4949 76.6969 27.3946 76.3761 27.2141 76.0819C26.9401 75.6341 26.372 75.2197 25.7703 75.3801C24.9549 75.6007 24.8145 76.5832 24.7143 77.2383C24.3199 79.9321 22.1876 82.285 19.5674 83.0002V83.5549C22.455 82.833 24.8145 80.2663 25.249 77.3186C25.3492 76.6368 25.4763 76.0218 25.9108 75.9015C26.2316 75.8146 26.5724 76.0686 26.7596 76.3626C26.9067 76.6034 26.9935 76.8774 27.0805 77.1715C27.1273 77.3119 27.1674 77.4589 27.2208 77.5993C27.4481 78.2142 27.8024 78.622 28.2436 78.7757C28.5777 78.896 28.9119 78.8559 29.2395 78.8225C29.5469 78.7891 29.8343 78.7557 30.0549 78.876C30.3625 79.0297 30.4761 79.3973 30.6031 79.8251C30.7167 80.1928 30.8304 80.5671 31.0977 80.8679C31.746 81.6099 32.9492 81.4761 33.6644 80.8746C34.3529 80.293 34.6872 79.404 34.9545 78.6888L36.2981 75.0793C36.6924 74.0166 37.1536 72.947 38.0827 72.546C39.1856 72.0647 40.4556 72.7532 41.1775 73.5954C41.7324 74.2505 42.0999 75.0259 42.4943 75.8413C42.6615 76.1956 42.8352 76.5498 43.0157 76.8975C43.7844 78.3279 44.7201 79.2035 45.7964 79.4976V78.9361C44.9341 78.6286 44.1587 77.86 43.4969 76.6301Z" fill="#88D600"/>
<path d="M44.2124 71.2073C43.1896 70.5724 42.0065 70.4521 41.1109 70.8865C40.2419 71.3144 39.6136 72.2836 39.3863 73.5402C39.2861 74.1217 39.266 74.7166 39.246 75.2915C39.2326 75.7193 39.2193 76.1537 39.1657 76.5815C39.0722 77.377 38.7981 78.4531 37.9893 79.0547C37.5749 79.3622 37.0668 79.4691 36.6725 79.3354C36.1177 79.1416 35.8236 78.5199 35.7301 78.0052C35.6565 77.6043 35.6631 77.1898 35.6765 76.7553C35.6833 76.5214 35.6833 76.2874 35.6765 76.0602C35.6364 74.8971 35.2956 73.7674 34.6806 72.7782C34.1525 71.9292 33.4841 71.4548 32.7956 71.4548C32.1807 71.4548 31.5791 71.829 31.1848 72.4507C30.8839 72.9253 30.7303 73.4533 30.5898 73.968L30.5498 74.1084C30.1687 75.4518 29.6674 76.7754 29.0726 78.0387C28.6982 78.8275 28.2637 79.6295 27.602 80.1776C26.9001 80.7592 26.0112 80.9397 25.3361 80.6455C24.5005 80.2779 24.086 79.3087 23.7452 78.3462C23.3575 77.27 22.8962 76.1804 21.8736 75.726C21.3522 75.492 20.7172 75.4987 20.1424 75.7393C19.9419 75.8262 19.7614 75.9466 19.5942 76.0802V76.8489C19.768 76.5882 20.0354 76.3676 20.3496 76.234C20.7907 76.0468 21.2654 76.0401 21.653 76.2139C22.4819 76.5815 22.8896 77.5574 23.2372 78.5266C23.6048 79.556 24.086 80.6857 25.1222 81.1401C25.4029 81.2605 25.7103 81.3206 26.0245 81.3206C26.6795 81.3206 27.368 81.0666 27.9429 80.5921C28.6848 79.9772 29.1594 79.1149 29.5538 78.2726C30.162 76.9826 30.67 75.6323 31.0644 74.2621L31.1045 74.1217C31.2449 73.6204 31.3786 73.1525 31.6392 72.7448C31.8732 72.3838 32.2943 71.9962 32.7956 71.9962C33.4641 71.9962 33.9787 72.6646 34.226 73.0589C34.7876 73.968 35.1017 75.0108 35.1418 76.0735C35.1485 76.2941 35.1418 76.5214 35.1418 76.742C35.1351 77.1831 35.1217 77.6443 35.2086 78.0989C35.329 78.7672 35.7301 79.5761 36.4987 79.8434C37.0668 80.044 37.742 79.9102 38.3102 79.4891C39.2727 78.7807 39.5935 77.5507 39.7005 76.6483C39.754 76.2006 39.7673 75.7527 39.7807 75.3182C39.8007 74.7635 39.8208 74.1886 39.9143 73.6405C40.008 73.1258 40.3288 71.8758 41.3447 71.3745C42.2137 70.9467 43.2432 71.2475 43.9249 71.6686C44.6669 72.1365 45.2484 72.825 45.8031 73.5068V72.6646C45.3486 72.1231 44.8339 71.5951 44.2124 71.2073Z" fill="#FF003B"/>
</g>
<defs>
<linearGradient id="paint0_linear_380_209" x1="55" y1="0" x2="55" y2="110" gradientUnits="userSpaceOnUse">
<stop stop-color="#83B645"/>
<stop offset="1" stop-color="#83B645" stop-opacity="0"/>
</linearGradient>
<clipPath id="clip0_380_209">
<rect width="110" height="110" fill="white"/>
</clipPath>
</defs>
</svg>
