<?xml version="1.0" encoding="utf-8"?>
<!-- Generator: Adobe Illustrator 16.0.2, SVG Export Plug-In . SVG Version: 6.00 Build 0)  -->
<!DOCTYPE svg PUBLIC "-//W3C//DTD SVG 1.1//EN" "http://www.w3.org/Graphics/SVG/1.1/DTD/svg11.dtd">
<svg version="1.1" id="Layer_1" xmlns="http://www.w3.org/2000/svg" xmlns:xlink="http://www.w3.org/1999/xlink" x="0px" y="0px"
	 width="65.348px" height="64px" viewBox="154.795 164.818 65.348 64" enable-background="new 154.795 164.818 65.348 64"
	 xml:space="preserve" fill="#fff">
<g>
	<g>
		<linearGradient id="SVGID_1_" gradientUnits="userSpaceOnUse" x1="165.3333" y1="196.8184" x2="220.1428" y2="196.8184">
			<stop  offset="0" style="stop-color:#fff"/>
			<stop  offset="1" style="stop-color:#fff"/>
		</linearGradient>
		<path fill="url(#SVGID_1_)" d="M220.143,196.813c-0.037-9.425-4.232-18.504-11.486-24.555c-7.554-6.301-17.762-8.803-27.382-6.721
			c-5.98,1.295-11.472,4.347-15.811,8.644c-0.174,0.172-0.173,0.468,0,0.64c2.505,2.504,5.011,5.009,7.517,7.513
			c3.99,3.986,7.979,7.972,11.969,11.959c0.623,0.622,1.246,1.245,1.869,1.868c0.192,0.19,0.645,0.847,0.92,0.918
			c0.158,0.041-0.021-0.283-0.079-0.209c-0.046,0.06,0,0.347,0,0.419c0,0.654,0,1.308,0,1.963c0,5.408,0,10.815,0,16.224
			c0,2.731,0,5.464,0,8.196c0,1.488-0.071,2.996,0,4.483c0.003,0.07,0,0.142,0,0.21c0,0.245,0.208,0.455,0.454,0.453
			c13.299-0.052,25.449-8.463,30.067-20.951C219.487,204.332,220.127,200.578,220.143,196.813c0.003-0.584-0.904-0.585-0.906,0
			c-0.052,12.862-8.187,24.697-20.303,29.171c-3.468,1.279-7.127,1.915-10.821,1.929c0.15,0.151,0.302,0.303,0.454,0.453
			c0-3.592,0-7.185,0-10.777c0-5.7,0-11.401,0-17.103c0-0.839,0-1.678,0-2.518c0-0.354,0.064-0.777,0-1.127
			c-0.061-0.319-0.232-0.448-0.452-0.668c-0.453-0.452-0.905-0.905-1.358-1.358c-3.82-3.815-7.64-7.632-11.46-11.449
			c-1.947-1.947-3.896-3.895-5.845-5.841c-0.681-0.68-1.362-1.36-2.042-2.04c-0.361-0.361-0.724-0.852-1.145-1.145
			c-0.059-0.04-0.108-0.108-0.159-0.159c0,0.213,0,0.427,0,0.64c7.463-7.393,18.318-10.639,28.613-8.407
			c8.779,1.903,16.438,7.658,20.739,15.535c2.49,4.556,3.758,9.679,3.779,14.863C219.239,197.396,220.146,197.396,220.143,196.813"
			/>
	</g>
</g>
<linearGradient id="SVGID_2_" gradientUnits="userSpaceOnUse" x1="195.3059" y1="170.8604" x2="207.4875" y2="170.8604">
	<stop  offset="0" style="stop-color:#fff"/>
	<stop  offset="1" style="stop-color:#fff"/>
</linearGradient>
<path fill="url(#SVGID_2_)" d="M207.373,173.594c-3.421-2.816-7.365-4.865-11.646-6.016c-0.423-0.115-0.604,0.542-0.181,0.655
	c4.163,1.121,8.017,3.103,11.345,5.842C207.227,174.35,207.71,173.872,207.373,173.594"/>
<linearGradient id="SVGID_3_" gradientUnits="userSpaceOnUse" x1="208.0432" y1="175.9111" x2="210.6165" y2="175.9111">
	<stop  offset="0" style="stop-color:#fff"/>
	<stop  offset="1" style="stop-color:#fff"/>
</linearGradient>
<path fill="url(#SVGID_3_)" d="M210.525,176.627c-0.604-0.669-1.236-1.311-1.895-1.928c-0.319-0.299-0.802,0.182-0.481,0.48
	c0.659,0.616,1.291,1.26,1.895,1.929C210.338,177.435,210.818,176.952,210.525,176.627"/>
<g>
	<g>
		<linearGradient id="SVGID_4_" gradientUnits="userSpaceOnUse" x1="155.8977" y1="213.6758" x2="186.2078" y2="213.6758">
			<stop  offset="0" style="stop-color:#fff"/>
			<stop  offset="1" style="stop-color:#fff"/>
		</linearGradient>
		<path fill="url(#SVGID_4_)" d="M186.208,228.365c0-8.565,0-17.134,0-25.7c0-1.227,0-2.453,0-3.679
			c0-0.246-0.208-0.454-0.454-0.454c-8.573,0-17.146,0-25.719,0c-1.227,0-2.456,0-3.683,0c-0.245,0-0.455,0.207-0.454,0.454
			c0.054,12.381,7.884,23.69,19.526,27.997c3.305,1.223,6.811,1.82,10.33,1.835c0.585,0.003,0.585-0.903,0-0.906
			c-12.008-0.051-23.048-7.649-27.186-18.96c-1.169-3.197-1.748-6.564-1.763-9.966c-0.151,0.15-0.302,0.301-0.454,0.452
			c8.573,0,17.147,0,25.72,0c1.228,0,2.455,0,3.682,0c-0.15-0.151-0.302-0.302-0.453-0.452c0,8.565,0,17.132,0,25.699
			c0,1.228,0,2.453,0,3.68C185.301,228.949,186.208,228.949,186.208,228.365"/>
	</g>
</g>
<g>
	<g>
		<linearGradient id="SVGID_5_" gradientUnits="userSpaceOnUse" x1="154.7952" y1="186.2422" x2="185.0994" y2="186.2422">
			<stop  offset="0" style="stop-color:#fff"/>
			<stop  offset="1" style="stop-color:#fff"/>
		</linearGradient>
		<path fill="url(#SVGID_5_)" d="M163.539,175.535c-5.571,5.62-8.705,13.188-8.744,21.096c-0.002,0.245,0.208,0.453,0.453,0.453
			c8.574,0,17.146,0,25.72,0c1.228,0,2.456,0,3.682,0c0.393,0,0.599-0.496,0.322-0.773c-6.063-6.058-12.124-12.116-18.187-18.172
			c-0.868-0.869-1.736-1.735-2.604-2.604c-0.414-0.413-1.055,0.229-0.642,0.642c6.062,6.058,12.124,12.115,18.186,18.173
			c0.869,0.867,1.737,1.734,2.605,2.603c0.106-0.259,0.213-0.517,0.32-0.774c-8.572,0-17.146,0-25.719,0c-1.228,0-2.456,0-3.683,0
			c0.151,0.151,0.302,0.302,0.454,0.453c0.038-7.674,3.075-15.002,8.479-20.455C164.593,175.762,163.951,175.12,163.539,175.535"/>
	</g>
</g>
</svg>
