<svg width="90" height="90" viewBox="0 0 90 90" fill="none" xmlns="http://www.w3.org/2000/svg">
<g clip-path="url(#clip0_379_33)">
<path opacity="0.3" d="M86.7935 5.71285L86.2214 0L80.5005 1.8136C70.6959 5.05335 60.2259 6.04753 49.9413 4.71537C39.1342 3.12035 28.0727 4.53771 18.0948 8.79597C12.8053 10.938 8.1631 14.3044 4.59095 18.5886C1.01882 22.8727 -1.36981 27.9386 -2.35746 33.3249C-3.63809 40.2832 -2.99743 47.4385 -0.49816 54.0907C1.11111 50.6362 2.99161 47.3018 5.12741 44.1159C9.9721 37.3368 16.685 31.9565 24.5308 28.5642C32.0893 25.2822 40.351 23.7294 48.6541 24.0302C40.7498 25.1796 33.1837 27.8818 26.4378 31.9647C23.1839 33.9091 20.2041 36.2403 17.5704 38.9018C15.0516 41.562 12.8307 44.4643 10.9437 47.5617C7.3992 54.0363 4.87719 60.9723 3.45881 68.1461C1.92995 75.3431 1.10011 82.6585 0.97974 90H10.5146C10.9627 83.4159 11.9027 76.8704 13.3274 70.4131C19.9419 73.81 27.3596 75.5424 34.8762 75.4459C41.8866 75.4413 48.8248 74.1 55.2808 71.5013C91.5609 56.7657 86.7935 7.75315 86.7935 5.71285Z" fill="url(#paint0_linear_379_33)"/>
<path d="M38.1221 57.6328H55.1742V64.6877H38.1221V57.6328Z" fill="#343434"/>
<path d="M60.4165 66.3282V68.2368H32.875V66.3282C32.875 65.4203 33.6079 64.6875 34.5158 64.6875H58.7759C59.6837 64.6875 60.4165 65.4258 60.4165 66.3282Z" fill="#3F3F3F"/>
<path d="M73.2013 21.7345V54.898C73.2013 56.4075 71.9763 57.6325 70.4668 57.6325H22.838C21.3285 57.6325 20.1035 56.4075 20.1035 54.898V21.7345C20.1035 20.225 21.3285 19 22.838 19H70.4668C71.9763 19 73.2013 20.225 73.2013 21.7345Z" fill="#3F3F3F"/>
<path d="M23.3828 22.2812H69.9179V50.1509H23.3828V22.2812Z" fill="white"/>
<path d="M48.2892 53.8907C48.2892 54.7985 47.5564 55.5313 46.6485 55.5313C45.7406 55.5313 45.0078 54.7985 45.0078 53.8907C45.0078 52.9828 45.7406 52.25 46.6485 52.25C47.5564 52.25 48.2892 52.9828 48.2892 53.8907Z" fill="#343434"/>
<path d="M48.5615 41.1367H50.6944V45.3533H48.5615V41.1367Z" fill="#5CC1E6"/>
<path d="M51.9268 39.1426H54.0596V45.3498H51.9268V39.1426Z" fill="#FFE200"/>
<path d="M55.2891 36.7148H57.4219V45.3557H55.2891V36.7148Z" fill="#F15A24"/>
<path d="M58.6592 33.9961H60.792V45.3551H58.6592V33.9961Z" fill="#88D600"/>
<path d="M62.0215 39.4863H64.1543V45.3545H62.0215V39.4863Z" fill="#7668F4"/>
<path d="M65.3867 41.3789H67.5196V45.3548H65.3867V41.3789Z" fill="#FF003B"/>
<path d="M48.5615 46.748H67.5168V48.0223H48.5615V46.748Z" fill="#343434"/>
<path d="M48.5615 30.5996H67.5222V31.8849H48.5615V30.5996Z" fill="#DDDDDD"/>
<path d="M48.5615 27.5039H67.5222V28.7891H48.5615V27.5039Z" fill="#DDDDDD"/>
<path d="M48.5615 24.4082H67.5222V25.6934H48.5615V24.4082Z" fill="#DDDDDD"/>
<path d="M24.9727 23.7129H28.2049V26.945H24.9727V23.7129Z" fill="#7668F4"/>
<path d="M24.9727 28.9688H28.2049V32.2009H24.9727V28.9688Z" fill="#FFE200"/>
<path d="M24.9727 34.2266H28.2049V37.4588H24.9727V34.2266Z" fill="#FF003B"/>
<path d="M24.9727 39.4746H28.2049V42.7067H24.9727V39.4746Z" fill="#88D600"/>
<path d="M29.7012 24.1953H45.6212V24.8406H29.7012V24.1953Z" fill="#DDDDDD"/>
<path d="M29.7012 25.8242H39.2882V26.4695H29.7012V25.8242Z" fill="#DDDDDD"/>
<path d="M29.7012 29.4492H45.6212V30.0945H29.7012V29.4492Z" fill="#DDDDDD"/>
<path d="M29.7012 31.0762H39.2882V31.7215H29.7012V31.0762Z" fill="#DDDDDD"/>
<path d="M29.7012 34.7012H45.6212V35.3465H29.7012V34.7012Z" fill="#DDDDDD"/>
<path d="M29.7012 36.332H39.2882V36.9774H29.7012V36.332Z" fill="#DDDDDD"/>
<path d="M29.7012 39.957H45.6212V40.6024H29.7012V39.957Z" fill="#DDDDDD"/>
<path d="M29.7012 41.5859H39.2882V42.2313H29.7012V41.5859Z" fill="#DDDDDD"/>
<path d="M24.9727 44.2988H43.9335V48.0231H24.9727V44.2988Z" fill="#DDDDDD"/>
<path d="M78.9998 48.5821V73.7008C78.9998 74.3025 78.5076 74.7946 77.906 74.7946H57.2608C56.6592 74.7946 56.167 74.3025 56.167 73.7008V48.5821C56.167 47.9805 56.6592 47.4883 57.2608 47.4883H77.906C78.5076 47.4883 78.9998 47.9805 78.9998 48.5821Z" fill="#E6E6E6"/>
<path d="M67.5885 57.2715C65.4447 57.2715 63.5032 58.1411 62.0977 59.5466L67.5885 65.0374V57.2715Z" fill="#343434"/>
<path d="M62.5903 60.043C61.3106 61.3226 60.5176 63.0891 60.5176 65.0361C60.5176 66.983 61.3106 68.7495 62.5903 70.0292L67.5834 65.0361L62.5903 60.043Z" fill="#5CC1E6"/>
<path d="M62.5898 70.0362C63.8696 71.3158 65.6361 72.1088 67.583 72.1088C69.53 72.1088 71.2965 71.3158 72.5761 70.0362L67.583 65.043L62.5898 70.0362Z" fill="#FF003B"/>
<path d="M67.5889 57.9785V65.0444L72.5821 70.0375C73.8617 68.7577 74.6547 66.9912 74.6547 65.0444C74.6492 61.145 71.4883 57.9785 67.5889 57.9785Z" fill="#88D600"/>
<path d="M59.7803 54.0215H75.3885V54.8638H59.7803V54.0215Z" fill="#BABABA"/>
<path d="M59.7803 51.9883H75.3885V52.8305H59.7803V51.9883Z" fill="#BABABA"/>
<path d="M62.8398 49.959H72.3285V50.8013H62.8398V49.959Z" fill="#BABABA"/>
<path d="M40.4354 47.8418V73.6989C40.4354 74.3005 39.9431 74.7927 39.3416 74.7927H10.0938C9.49221 74.7927 9 74.3005 9 73.6989V47.8418C9 47.2402 9.49221 46.748 10.0938 46.748H39.3416C39.9431 46.748 40.4354 47.2402 40.4354 47.8418Z" fill="#E6E6E6"/>
<path d="M40.4354 51.8455V47.8476C40.4354 47.2461 39.9431 46.7539 39.3416 46.7539H10.0938C9.49221 46.7539 9 47.2461 9 47.8476V51.8455H40.4354Z" fill="#7668F4"/>
<path d="M19.7354 48.4609H37.9742V50.1289H19.7354V48.4609Z" fill="white"/>
<path d="M13.1286 49.4129C13.1286 49.8723 12.7567 50.2497 12.2918 50.2497C11.8324 50.2497 11.4551 49.8723 11.4551 49.4129C11.4551 48.948 11.8324 48.5762 12.2918 48.5762C12.7567 48.5762 13.1286 48.948 13.1286 49.4129Z" fill="#343434"/>
<path d="M15.7057 49.4129C15.7057 49.8723 15.3339 50.2497 14.869 50.2497C14.4096 50.2497 14.0322 49.8723 14.0322 49.4129C14.0322 48.948 14.4096 48.5762 14.869 48.5762C15.3339 48.5762 15.7057 48.948 15.7057 49.4129Z" fill="#FFE200"/>
<path d="M18.275 49.4129C18.275 49.8723 17.9032 50.2497 17.4383 50.2497C16.979 50.2497 16.6016 49.8723 16.6016 49.4129C16.6016 48.948 16.979 48.5762 17.4383 48.5762C17.9032 48.5762 18.275 48.948 18.275 49.4129Z" fill="#FF003B"/>
<path d="M12.584 54.9863H13.3004V72.4103H12.584V54.9863Z" fill="#343434"/>
<path d="M14.2598 71.918H14.5716V72.9023H14.2598V71.918Z" fill="#343434"/>
<path d="M15.7734 71.918H16.0851V72.9023H15.7734V71.918Z" fill="#343434"/>
<path d="M17.2852 71.918H17.5968V72.9023H17.2852V71.918Z" fill="#343434"/>
<path d="M18.8018 71.918H19.1135V72.9023H18.8018V71.918Z" fill="#343434"/>
<path d="M20.3096 71.918H20.6213V72.9023H20.3096V71.918Z" fill="#343434"/>
<path d="M21.8262 71.918H22.1379V72.9023H21.8262V71.918Z" fill="#343434"/>
<path d="M23.3379 71.918H23.6497V72.9023H23.3379V71.918Z" fill="#343434"/>
<path d="M24.8506 71.918H25.1623V72.9023H24.8506V71.918Z" fill="#343434"/>
<path d="M26.3623 71.918H26.674V72.9023H26.3623V71.918Z" fill="#343434"/>
<path d="M27.8779 71.918H28.1897V72.9023H27.8779V71.918Z" fill="#343434"/>
<path d="M29.3955 71.918H29.7073V72.9023H29.3955V71.918Z" fill="#343434"/>
<path d="M30.9033 71.918H31.215V72.9023H30.9033V71.918Z" fill="#343434"/>
<path d="M32.4199 71.918H32.7317V72.9023H32.4199V71.918Z" fill="#343434"/>
<path d="M33.9326 71.918H34.2444V72.9023H33.9326V71.918Z" fill="#343434"/>
<path d="M35.4453 71.918H35.757V72.9023H35.4453V71.918Z" fill="#343434"/>
<path d="M10.9951 54.9863H11.9795V55.2925H10.9951V54.9863Z" fill="#343434"/>
<path d="M10.9951 56.4355H11.9795V56.7418H10.9951V56.4355Z" fill="#343434"/>
<path d="M10.9951 57.8828H11.9795V58.1891H10.9951V57.8828Z" fill="#343434"/>
<path d="M10.9951 59.3281H11.9795V59.6343H10.9951V59.3281Z" fill="#343434"/>
<path d="M10.9951 60.7773H11.9795V61.0836H10.9951V60.7773Z" fill="#343434"/>
<path d="M10.9951 62.2266H11.9795V62.5329H10.9951V62.2266Z" fill="#343434"/>
<path d="M10.9951 63.6758H11.9795V63.982H10.9951V63.6758Z" fill="#343434"/>
<path d="M10.9951 65.1211H11.9795V65.4274H10.9951V65.1211Z" fill="#343434"/>
<path d="M10.9951 66.5684H11.9795V66.8747H10.9951V66.5684Z" fill="#343434"/>
<path d="M10.9951 68.0176H11.9795V68.3239H10.9951V68.0176Z" fill="#343434"/>
<path d="M10.9951 69.4629H11.9795V69.7691H10.9951V69.4629Z" fill="#343434"/>
<path d="M11.4863 70.5977H35.7519V71.3141H11.4863V70.5977Z" fill="#343434"/>
<path d="M33.2829 58.1902C32.7687 58.7207 32.3367 59.4207 31.9758 60.334L31.8719 60.5965C31.7078 61.0232 31.5492 61.4278 31.2867 61.7615C31.0133 62.1115 30.5266 62.4123 30.0726 62.292C29.5531 62.1607 29.2906 61.57 29.1757 61.2365C29.121 61.0669 29.0718 60.8974 29.0281 60.7224C28.9296 60.3505 28.8256 59.9677 28.6233 59.6177C28.3006 59.0707 27.6116 58.6223 26.9663 58.8794C26.2662 59.1527 26.1405 59.9786 26.0365 60.6403L26.0147 60.777C25.9381 61.2365 25.8068 61.6849 25.6155 62.106C25.517 62.3248 25.3912 62.5708 25.1943 62.7295C25.0467 62.8498 24.806 62.9318 24.6147 62.8443C24.3138 62.7076 24.2646 62.2537 24.2537 61.7778C24.2427 61.2419 24.1935 60.6239 23.92 60.0661C23.6192 59.4481 23.0669 59.027 22.4872 58.9669C21.8419 58.9067 21.1473 59.2895 20.7591 59.9349C20.3926 60.5474 20.3215 61.2583 20.3051 61.8107L20.2996 62.0513C20.2887 62.4998 20.2778 62.9263 20.1137 63.3037C19.9441 63.692 19.5011 64.0256 19.1183 63.9108C18.834 63.8233 18.6371 63.5333 18.4238 63.2271C18.1558 62.8443 17.855 62.4068 17.3245 62.3795C16.8597 62.363 16.4878 62.6912 16.3018 63.0138C16.1542 63.2708 16.0722 63.5443 16.001 63.8123L15.9409 64.0256C15.7605 64.6271 15.4925 65.092 15.1425 65.4038C14.8197 65.6991 14.4096 65.8522 14.0322 65.8468V66.2952H14.0432C14.5299 66.2952 15.0385 66.0928 15.4377 65.7319C15.848 65.36 16.1597 64.8295 16.362 64.1513L16.4277 63.9271C16.4987 63.6756 16.5643 63.435 16.6847 63.2326C16.805 63.0303 17.0456 62.8005 17.3081 62.817C17.6198 62.8333 17.8277 63.1287 18.0628 63.4732C18.298 63.8123 18.5605 64.1896 18.9871 64.3264C19.627 64.5288 20.2668 64.053 20.5184 63.4787C20.7153 63.0248 20.7262 62.5325 20.7371 62.0568L20.7426 61.8216C20.7591 61.324 20.8192 60.6786 21.1364 60.1536C21.3879 59.7379 21.8856 59.3442 22.438 59.3934C22.87 59.4372 23.2857 59.7653 23.5209 60.2465C23.756 60.7278 23.7997 61.2912 23.8107 61.7778C23.8217 62.1935 23.838 62.9592 24.4287 63.2326C24.7459 63.3803 25.156 63.3092 25.4678 63.0576C25.7412 62.8388 25.9053 62.5216 26.0147 62.27C26.217 61.8107 26.3647 61.3294 26.4467 60.8317L26.4686 60.695C26.5615 60.1153 26.66 59.459 27.1248 59.2731C27.5241 59.1199 28.0053 59.4317 28.2405 59.8254C28.4155 60.1207 28.503 60.4599 28.6015 60.8153C28.6506 60.9958 28.6999 61.1763 28.7601 61.3567C28.9023 61.7778 29.2468 62.5162 29.9687 62.7021C30.6633 62.8826 31.2976 62.445 31.6367 62.013C31.9429 61.6247 32.118 61.1708 32.2875 60.7333L32.3859 60.4762C32.7305 59.6177 33.1297 58.9669 33.6 58.4746C34.147 57.9114 34.8142 57.5722 35.4813 57.4957V57.0527C34.6938 57.1511 33.9172 57.5394 33.2829 58.1902Z" fill="#7668F4"/>
<path d="M33.5885 62.6973C33.4409 62.4239 33.3041 62.1395 33.1674 61.8551C32.8502 61.1879 32.5221 60.5042 32.0298 59.9246C31.3408 59.1152 30.0938 58.4644 28.9892 58.9456C28.0758 59.3449 27.6492 60.3129 27.2937 61.2699L26.1945 64.2231C25.9867 64.7865 25.7461 65.4263 25.2703 65.8256C24.8546 66.1756 24.1437 66.2794 23.7882 65.8693C23.6351 65.6943 23.5585 65.4428 23.471 65.1748C23.3506 64.7865 23.2139 64.349 22.7983 64.1411C22.4975 63.988 22.1694 64.0208 21.8795 64.0536C21.6498 64.0755 21.4366 64.0973 21.2561 64.0372C20.9608 63.9333 20.7803 63.5997 20.6873 63.3372C20.649 63.2278 20.6162 63.1185 20.578 63.009C20.496 62.752 20.4138 62.4895 20.2662 62.2488C20.042 61.8825 19.5772 61.5434 19.0849 61.6747C18.4177 61.8551 18.3029 62.659 18.2208 63.195C17.8982 65.399 16.1536 67.3241 14.0098 67.9092V68.3631C16.3724 67.7724 18.3029 65.6724 18.6584 63.2606C18.7404 62.7028 18.8443 62.1997 19.1998 62.1012C19.4623 62.0301 19.7412 62.238 19.8943 62.4785C20.0147 62.6755 20.0857 62.8997 20.1568 63.1403C20.1951 63.2552 20.228 63.3755 20.2717 63.4903C20.4576 63.9935 20.7475 64.3271 21.1085 64.4528C21.3818 64.5513 21.6553 64.5185 21.9233 64.4911C22.1748 64.4638 22.41 64.4365 22.5905 64.5349C22.8421 64.6606 22.9351 64.9615 23.0389 65.3115C23.1319 65.6123 23.2249 65.9186 23.4436 66.1646C23.9741 66.7717 24.9586 66.6623 25.5437 66.1701C26.107 65.6943 26.3805 64.9669 26.5992 64.3818L27.6985 61.4285C28.0212 60.559 28.3985 59.6839 29.1587 59.3559C30.061 58.9621 31.1001 59.5254 31.6908 60.2144C32.1448 60.7504 32.4455 61.3848 32.7681 62.052C32.9049 62.3418 33.0471 62.6317 33.1948 62.9161C33.8237 64.0865 34.5893 64.8028 35.4699 65.0435V64.5841C34.7644 64.3325 34.1299 63.7036 33.5885 62.6973Z" fill="#88D600"/>
<path d="M34.1743 58.2604C33.3375 57.7409 32.3696 57.6425 31.6367 57.9979C30.9258 58.348 30.4117 59.141 30.2258 60.1691C30.1437 60.6448 30.1273 61.1316 30.1109 61.6019C30.0999 61.9519 30.0891 62.3074 30.0453 62.6574C29.9687 63.3082 29.7445 64.1887 29.0828 64.6809C28.7436 64.9325 28.328 65.02 28.0053 64.9106C27.5515 64.752 27.3108 64.2434 27.2343 63.8223C27.1741 63.4942 27.1795 63.1551 27.1905 62.7996C27.196 62.6082 27.196 62.4168 27.1905 62.2309C27.1577 61.2793 26.8788 60.355 26.3756 59.5456C25.9435 58.851 25.3967 58.4628 24.8334 58.4628C24.3302 58.4628 23.838 58.769 23.5154 59.2776C23.2692 59.666 23.1435 60.098 23.0286 60.5191L22.9959 60.6339C22.6841 61.7331 22.2739 62.8161 21.7872 63.8497C21.4809 64.495 21.1254 65.1512 20.5841 65.5997C20.0098 66.0755 19.2824 66.2232 18.7301 65.9825C18.0465 65.6817 17.7073 64.8887 17.4285 64.1012C17.1113 63.2207 16.7339 62.3293 15.8972 61.9574C15.4705 61.766 14.951 61.7715 14.4807 61.9683C14.3167 62.0394 14.169 62.1379 14.0322 62.2473V62.8762C14.1744 62.6629 14.3932 62.4824 14.6502 62.3731C15.0112 62.2199 15.3995 62.2144 15.7167 62.3566C16.3948 62.6574 16.7285 63.4559 17.0128 64.2489C17.3136 65.0911 17.7073 66.0154 18.5551 66.3872C18.7848 66.4857 19.0363 66.5349 19.2933 66.5349C19.8293 66.5349 20.3926 66.3271 20.8629 65.9388C21.4699 65.4357 21.8583 64.7302 22.1809 64.0411C22.6786 62.9856 23.0942 61.8808 23.4169 60.7598L23.4497 60.6448C23.5646 60.2347 23.674 59.8518 23.8872 59.5183C24.0787 59.223 24.4232 58.9058 24.8334 58.9058C25.3803 58.9058 25.8014 59.4526 26.0037 59.7753C26.4631 60.5191 26.7202 61.3723 26.753 62.2418C26.7585 62.4223 26.753 62.6082 26.753 62.7887C26.7475 63.1496 26.7365 63.5269 26.8077 63.8989C26.9061 64.4457 27.2343 65.1075 27.8631 65.3262C28.328 65.4904 28.8804 65.3809 29.3453 65.0364C30.1328 64.4567 30.3953 63.4504 30.4828 62.7121C30.5266 62.3457 30.5374 61.9793 30.5484 61.6238C30.5648 61.1699 30.5812 60.6996 30.6578 60.2511C30.7344 59.83 30.9969 58.8073 31.8281 58.3972C32.5391 58.0472 33.3813 58.2932 33.9392 58.6378C34.5462 59.0206 35.022 59.5839 35.4759 60.1418V59.4526C35.104 59.0097 34.6829 58.5776 34.1743 58.2604Z" fill="#FF003B"/>
</g>
<defs>
<linearGradient id="paint0_linear_379_33" x1="42" y1="0" x2="42" y2="90" gradientUnits="userSpaceOnUse">
<stop stop-color="#83B645"/>
<stop offset="1" stop-color="#83B645" stop-opacity="0"/>
</linearGradient>
<clipPath id="clip0_379_33">
<rect width="90" height="90" fill="white"/>
</clipPath>
</defs>
</svg>
