<svg width="110" height="110" viewBox="0 0 110 110" fill="none" xmlns="http://www.w3.org/2000/svg">
<g clip-path="url(#clip0_380_311)">
<path opacity="0.3" d="M109.748 6.98237L109.048 0L102.056 2.21662C90.0727 6.17631 77.2761 7.39143 64.7059 5.76322C51.4973 3.81377 37.9777 5.54609 25.7826 10.7506C19.3175 13.3687 13.6437 17.4832 9.27782 22.7193C4.91189 27.9555 1.99245 34.1472 0.785327 40.7305C-0.779889 49.235 0.00314135 57.9803 3.0578 66.1109C5.02469 61.8886 7.32308 57.8134 9.93349 53.9194C15.8547 45.6338 24.0594 39.0579 33.6488 34.9118C42.8869 30.9004 52.9845 29.0026 63.1327 29.3702C53.4718 30.775 44.2246 34.0778 35.9795 39.068C32.0026 41.4445 28.3605 44.2937 25.1416 47.5466C22.063 50.798 19.3487 54.3452 17.0423 58.1309C12.7102 66.0444 9.62767 74.5217 7.89409 83.2897C6.0255 92.086 5.01123 101.027 4.86413 110H16.5178C17.0656 101.953 18.2144 93.9527 19.9556 86.0605C28.0401 90.2122 37.1062 92.3296 46.293 92.2116C54.8614 92.206 63.3415 90.5666 71.232 87.3904C115.575 69.3803 109.748 9.47607 109.748 6.98237Z" fill="url(#paint0_linear_380_311)"/>
<path d="M44.5498 41.9727H65.6249V57.4197H44.5498V41.9727Z" fill="#AB604B"/>
<path d="M44.5498 41.9727H49.9344V57.4197H44.5498V41.9727Z" fill="#8B4F4F"/>
<path d="M70.5936 58.8667V71.1106H39.6021V58.8667C39.6021 54.547 43.108 51.041 47.4378 51.041H62.7578C67.0875 51.041 70.5936 54.547 70.5936 58.8667Z" fill="#46CC6B"/>
<path d="M50.2388 51.0391C45.9154 51.0391 42.4099 54.5445 42.4099 58.868V71.1146H39.6055V58.868C39.6055 54.5445 43.1109 51.0391 47.4344 51.0391H50.2388Z" fill="#179C5F"/>
<path d="M45.7953 63.7632V71.1142H44.4189V63.7632C44.4189 63.3915 44.7305 63.0801 45.1022 63.0801C45.4939 63.0801 45.7953 63.3915 45.7953 63.7632Z" fill="#179C5F"/>
<path d="M65.7684 63.7632V71.1142H64.3921V63.7632C64.3921 63.3915 64.6935 63.0801 65.0752 63.0801C65.4569 63.0801 65.7684 63.3915 65.7684 63.7632Z" fill="#179C5F"/>
<path d="M59.2702 48.9551V51.605C59.2392 53.8675 57.4105 55.6805 55.1482 55.6805C54.2803 55.6805 53.49 55.417 52.8238 54.9521C51.7392 54.2239 51.0264 52.9686 51.0264 51.5586V48.9551H59.2702Z" fill="#EE8778"/>
<path d="M59.2706 51.6055C59.2396 53.8679 57.4111 55.681 55.1487 55.681C54.2808 55.681 53.4905 55.4175 52.8242 54.9525C52.8167 54.8959 52.8091 54.6676 52.802 54.3549C52.7678 52.8489 53.9741 51.6055 55.4805 51.6055H59.2706Z" fill="#FFAF93"/>
<path d="M65.6245 35.0704V39.1769H44.5498V35.0704C44.5498 29.2439 49.2604 24.5176 55.087 24.5176C60.8981 24.5176 65.6245 29.2439 65.6245 35.0704Z" fill="#65B9FF"/>
<path d="M62.5898 35.4414V43.2514C62.5898 47.3889 59.2426 50.7361 55.1051 50.7361C50.9678 50.7361 47.605 47.3889 47.605 43.2514V35.4414H62.5898Z" fill="#FFAF93"/>
<path d="M56.2673 50.6431C55.8955 50.7051 55.508 50.7361 55.1051 50.7361C50.9678 50.7361 47.605 47.3889 47.605 43.2514V35.4414H49.945V43.2514C49.945 46.986 52.6879 50.0853 56.2673 50.6431Z" fill="#EE8778"/>
<path d="M63.8116 34.8856V37.241H46.1924V34.8856C46.1924 30.0198 50.1284 26.0684 55.0098 26.0684C59.8756 26.0684 63.8116 30.0198 63.8116 34.8856Z" fill="#AB604B"/>
<path d="M56.8847 26.2852C52.9023 27.122 49.9425 30.6551 49.9425 34.8856V37.241H46.1924V34.8856C46.1924 30.0198 50.1284 26.0684 55.0098 26.0684C55.6451 26.0684 56.2804 26.1303 56.8847 26.2852Z" fill="#8B4F4F"/>
<path d="M46.1914 37.25H47.6333V43.3518H46.1914V37.25Z" fill="#DEDDFF"/>
<path d="M64.0322 43.35H62.5903V37.248H64.0322V43.35Z" fill="#DEDDFF"/>
<path d="M50.0475 47.3575H47.1653C46.0955 47.3575 45.2256 46.4876 45.2256 45.4177V42.6021C45.2256 42.3474 45.4324 42.1406 45.687 42.1406C45.9417 42.1406 46.1485 42.3474 46.1485 42.6021V45.4177C46.1485 45.9783 46.6048 46.4347 47.1653 46.4347H50.0475C50.3022 46.4347 50.509 46.6415 50.509 46.8961C50.509 47.1507 50.3022 47.3575 50.0475 47.3575Z" fill="#65B9FF"/>
<path d="M63.0278 33.8672C63.0278 36.2618 61.0865 38.2031 58.6919 38.2031H51.4994C49.1049 38.2031 47.1636 36.2618 47.1636 33.8672H63.0278Z" fill="#AB604B"/>
<path d="M50.0179 33.8672H47.1636C47.1636 35.7389 48.3563 37.3191 50.0179 37.9263V33.8672Z" fill="#8B4F4F"/>
<path d="M46.1915 37.2578C44.5346 37.2902 43.1997 38.6381 43.1997 40.3027C43.1997 41.9674 44.5346 43.3153 46.1915 43.3475V37.2578Z" fill="#65B9FF"/>
<path d="M44.0786 40.2962C44.0786 41.6576 44.9669 42.8114 46.1899 43.1923V43.3422C44.5285 43.3191 43.2017 41.9692 43.2017 40.2962C43.2017 38.6347 44.5285 37.2848 46.1899 37.2617V37.4116C44.9669 37.7925 44.0786 38.9463 44.0786 40.2962Z" fill="#3E7FFF"/>
<path d="M64.0332 37.2578C65.6901 37.29 67.025 38.6381 67.025 40.3027C67.025 41.9674 65.6901 43.3153 64.0332 43.3475V37.2578Z" fill="#65B9FF"/>
<path d="M66.1422 40.2962C66.1422 41.6576 65.2539 42.8114 64.0308 43.1923V43.3422C65.6923 43.3191 67.0191 41.9692 67.0191 40.2962C67.0191 38.6347 65.6923 37.2848 64.0308 37.2617V37.4116C65.2539 37.7925 66.1422 38.9463 66.1422 40.2962Z" fill="#3E7FFF"/>
<path d="M55.6552 43.0365V44.0754C55.6552 44.428 55.3698 44.7135 55.0171 44.7135C54.6645 44.7135 54.3789 44.428 54.3789 44.0754V43.0365C54.3789 42.6839 54.6645 42.3984 55.0171 42.3984C55.1938 42.3984 55.3527 42.4695 55.4681 42.5855C55.5835 42.7008 55.6552 42.8605 55.6552 43.0365Z" fill="#EE8778"/>
<path d="M52.8032 46.2012C53.0309 47.248 53.9617 48.0326 55.0767 48.0326C56.1918 48.0326 57.1226 47.248 57.3503 46.2012H52.8032Z" fill="#EE8778"/>
<path d="M53.0226 40.7222C52.8757 40.047 52.2754 39.541 51.5563 39.541C50.8371 39.541 50.2367 40.047 50.0898 40.7222H53.0226Z" fill="#312E4B"/>
<path d="M60.0768 40.7222C59.9299 40.047 59.3296 39.541 58.6105 39.541C57.8913 39.541 57.2909 40.047 57.144 40.7222H60.0768Z" fill="#312E4B"/>
<path d="M50.1686 47.7651C50.614 47.7651 50.975 47.404 50.975 46.9586C50.975 46.5134 50.614 46.1523 50.1686 46.1523C49.7233 46.1523 49.3623 46.5134 49.3623 46.9586C49.3623 47.404 49.7233 47.7651 50.1686 47.7651Z" fill="#312E4B"/>
<path d="M93.2643 31.6059C93.5549 37.7081 88.9344 42.8098 82.9877 43.3203C82.8227 43.3321 82.6694 43.4146 82.5516 43.5325C80.7485 45.3238 78.6272 45.6891 77.5429 45.7481C77.2719 45.7598 77.1187 45.4417 77.2836 45.2295C77.8847 44.4635 78.1086 43.7682 78.144 43.1789C78.1557 42.8726 77.9672 42.6014 77.6843 42.4836C73.6421 40.7865 70.8018 36.7913 70.8018 32.1243C70.8018 25.8194 76.0109 20.7164 82.3749 20.8931C88.1872 21.0484 93.0136 25.8641 93.2643 31.6059Z" fill="#DEDDFF"/>
<path d="M22.0112 31.2439C21.8589 34.4417 23.2701 37.3148 25.5441 39.1727C27.0162 40.3808 28.8538 41.1625 30.8638 41.3351C31.0059 41.3452 31.1379 41.4163 31.2394 41.5178C32.7928 43.0609 34.6201 43.3756 35.5541 43.4264C35.7876 43.4365 35.9196 43.1625 35.7775 42.9797C35.2597 42.3198 35.0668 41.7208 35.0363 41.2132C35.0262 40.9493 35.1887 40.7158 35.4323 40.6142C38.9145 39.1523 41.3611 35.7108 41.3611 31.6905C41.3611 26.2591 36.8739 21.8633 31.3918 22.0156C28.7319 22.0866 26.2954 23.2947 24.5796 25.1628C23.0771 26.7973 22.1127 28.919 22.0112 31.2439Z" fill="#E83D62"/>
<path d="M35.8223 43.0744C35.8816 43.2526 35.7479 43.4308 35.555 43.4308C34.6194 43.3715 32.7928 43.0595 31.2335 41.5152C31.1444 41.4112 31.0109 41.3519 30.8623 41.337C28.8576 41.1588 27.0162 40.3865 25.546 39.1688C23.2739 37.3126 21.8632 34.4465 22.0117 31.239C22.1156 28.9224 23.0809 26.7989 24.5807 25.1653C26.2885 23.2942 28.7387 22.0913 31.3969 22.0171C31.8425 22.0022 32.3028 22.0171 32.7334 22.0765C30.3575 22.3142 28.2041 23.4724 26.645 25.1653C25.145 26.7989 24.1798 28.9224 24.0758 31.239C23.9273 34.4465 25.3382 37.3126 27.6101 39.1688C29.0803 40.3865 30.9217 41.1588 32.9264 41.337C33.0749 41.3519 33.2086 41.4112 33.2977 41.5152C34.1293 42.3319 35.0203 42.8072 35.8223 43.0744Z" fill="#CE2955"/>
<path d="M92.1416 32.1074C92.1416 34.1637 91.5563 36.1152 90.2298 38.0095C88.5313 40.4486 85.4825 42.2443 81.9825 42.2443C78.6797 42.2443 75.6667 40.6018 73.8464 38.1317C73.7575 38.0206 73.6797 37.8984 73.602 37.7761C72.446 36.1088 71.8457 34.1637 71.8457 32.1074C71.8457 26.5167 76.4029 21.9707 81.9936 21.9707C87.5955 21.9707 92.1416 26.5167 92.1416 32.1074Z" fill="#C6C6F7"/>
<path d="M87.7945 24.6922V28.8146H75.8086V24.6922C75.8086 21.3823 78.4917 18.6992 81.8016 18.6992C85.1114 18.6992 87.7945 21.3823 87.7945 24.6922Z" fill="#AB604B"/>
<path d="M77.8462 20.2227C76.6061 21.3207 75.8086 22.9068 75.8086 24.6933V28.8156H77.8462V20.2227Z" fill="#8B4F4F"/>
<path d="M90.4688 37.6657C90.402 37.7879 90.3131 37.8991 90.2352 38.0102C88.5367 40.4495 85.4881 42.245 81.9881 42.245C78.6852 42.245 75.6721 40.6026 73.8519 38.1325C73.7631 38.0214 73.6853 37.8991 73.6074 37.7768C74.052 37.1988 74.6078 36.6876 75.2412 36.2986C76.726 35.3981 78.0236 35.4304 79.943 35.4871H85.0336C85.0956 35.4871 86.6233 35.4929 86.6786 35.5205C88.2605 35.7182 89.7824 36.71 90.402 37.5879C90.4243 37.6101 90.4576 37.6324 90.4688 37.6657Z" fill="#E83D62"/>
<path d="M85.7965 35.4972V35.6662C85.7965 37.7188 84.1285 39.3869 82.0761 39.3869C80.0235 39.3869 78.3555 37.7188 78.3555 35.6662V35.4972C78.9487 35.4767 83.0863 35.4715 85.0277 35.4895C85.3123 35.4895 85.5737 35.4895 85.7965 35.4972Z" fill="#CE2955"/>
<path d="M84.262 33.7793V35.6627C84.262 36.8692 83.284 37.8472 82.0776 37.8472C80.8711 37.8472 79.8931 36.8692 79.8931 35.6627V33.7793C80.5675 34.2522 81.2089 34.5344 82.0776 34.5344C82.9461 34.5344 83.5876 34.2522 84.262 33.7793Z" fill="#FFAF93"/>
<path d="M79.8931 33.7832C80.0139 35.0276 79.5096 36.3801 80.6849 37.3501C80.6542 37.2116 80.6388 37.0656 80.6388 36.9196C80.6388 36.1556 81.333 35.5482 82.0793 35.7121C82.3103 35.7628 82.5553 35.7896 82.8219 35.7896C83.3677 35.7896 83.8288 35.6742 84.2594 35.4743V33.7832C83.5829 34.2522 82.9449 34.5365 82.0762 34.5365C81.2076 34.5365 80.5618 34.2522 79.8931 33.7832Z" fill="#EE8778"/>
<path d="M76.9934 26.543V29.7181C76.1311 29.6997 75.436 28.9972 75.436 28.1306C75.436 27.2639 76.1311 26.5614 76.9934 26.543Z" fill="#EE8778"/>
<path d="M87.0161 26.543V29.7181C87.8784 29.6997 88.5734 28.9972 88.5734 28.1306C88.5734 27.2639 87.8784 26.5614 87.0161 26.543Z" fill="#EE8778"/>
<path d="M87.0163 26.2564V29.9885C87.0163 32.7502 84.777 34.9895 82.0152 34.9895C79.192 34.9895 77.0143 32.7247 77.0143 29.9885V27.9731L76.9956 26.2564C77.1442 26.1871 79.293 25.9073 81.7914 23.7559C81.7914 23.7559 81.922 24.4276 82.6498 25.0621C84.2228 26.5041 86.7902 26.221 87.0163 26.2564Z" fill="#FFAF93"/>
<path d="M85.0286 33.9819C84.1972 34.6056 83.1578 34.9867 82.0146 34.9867C79.1777 34.9867 77.0086 32.7067 77.0086 29.9806V27.9713L76.9912 26.2564C76.9912 26.2564 77.3203 26.2044 77.8574 26.0312L77.8746 27.4517V29.4783C77.8746 33.24 81.8292 35.5383 85.0286 33.9819Z" fill="#EE8778"/>
<path d="M82.4064 29.7743V30.4972C82.4064 30.7427 82.2077 30.9414 81.9622 30.9414C81.7168 30.9414 81.5181 30.7427 81.5181 30.4972V29.7743C81.5181 29.5288 81.7168 29.3301 81.9622 29.3301C82.2102 29.3301 82.4064 29.5319 82.4064 29.7743Z" fill="#EE8778"/>
<path d="M80.4258 32.082C80.5842 32.8107 81.232 33.3566 82.0081 33.3566C82.7842 33.3566 83.432 32.8107 83.5904 32.082H80.4258Z" fill="#EE8778"/>
<path d="M80.5719 27.994C80.4697 27.5241 80.0518 27.1719 79.5513 27.1719C79.0507 27.1719 78.633 27.5241 78.5308 27.994H80.5719Z" fill="#312E4B"/>
<path d="M85.4791 27.994C85.377 27.5241 84.9592 27.1719 84.4586 27.1719C83.9581 27.1719 83.5402 27.5241 83.438 27.994H85.4791Z" fill="#312E4B"/>
<path d="M26.3508 33.3949C27.3121 33.3949 28.0912 32.6157 28.0912 31.6545C28.0912 30.6933 27.3121 29.9141 26.3508 29.9141C25.3896 29.9141 24.6104 30.6933 24.6104 31.6545C24.6104 32.6157 25.3896 33.3949 26.3508 33.3949Z" fill="#DEDDFF"/>
<path d="M31.6799 33.3949C32.6411 33.3949 33.4203 32.6157 33.4203 31.6545C33.4203 30.6933 32.6411 29.9141 31.6799 29.9141C30.7186 29.9141 29.9395 30.6933 29.9395 31.6545C29.9395 32.6157 30.7186 33.3949 31.6799 33.3949Z" fill="#DEDDFF"/>
<path d="M37.008 33.3949C37.9692 33.3949 38.7484 32.6157 38.7484 31.6545C38.7484 30.6933 37.9692 29.9141 37.008 29.9141C36.0468 29.9141 35.2676 30.6933 35.2676 31.6545C35.2676 32.6157 36.0468 33.3949 37.008 33.3949Z" fill="#DEDDFF"/>
<path d="M75.049 87.821C75.049 89.0168 74.0774 89.9735 72.8966 89.9735H39.1302C37.9493 89.9735 36.9927 89.0168 36.9927 87.821C36.9927 86.6403 37.9493 85.6836 39.1302 85.6836H72.8966C74.0774 85.6836 75.049 86.6403 75.049 87.821Z" fill="#5B5E8B"/>
<path d="M44.6079 89.9798H39.1337C37.9437 89.9798 36.9917 89.0138 36.9917 87.8237C36.9917 86.6477 37.9437 85.6816 39.1337 85.6816H44.6079C43.4319 85.6816 42.4798 86.6477 42.4798 87.8237C42.4798 89.0138 43.4319 89.9798 44.6079 89.9798Z" fill="#312E4B"/>
<path d="M72.4548 85.6839H39.4094C38.4786 85.6839 37.7038 84.9691 37.6288 84.0414L35.8624 62.1961C35.7782 61.1561 36.5996 60.2656 37.6431 60.2656H74.2211C75.2646 60.2656 76.0859 61.1561 76.0018 62.1961L74.2354 84.0414C74.1604 84.9691 73.3856 85.6839 72.4548 85.6839Z" fill="#5B5E8B"/>
<path d="M74.3262 83.0082L74.2422 84.0442C74.1672 84.9696 73.3943 85.6823 72.4659 85.6823H39.4092C38.4852 85.6823 37.7012 84.9682 37.6312 84.0442L35.8668 62.1993C35.7828 61.1607 36.6031 60.2715 37.6451 60.2715H39.5353C40.498 73.1237 51.2193 83.0527 64.1075 83.0278L74.3262 83.0082Z" fill="#312E4B"/>
<path d="M55.9378 75.8415C57.5207 75.8415 58.8039 74.5583 58.8039 72.9754C58.8039 71.3925 57.5207 70.1094 55.9378 70.1094C54.3549 70.1094 53.0718 71.3925 53.0718 72.9754C53.0718 74.5583 54.3549 75.8415 55.9378 75.8415Z" fill="#DEDDFF"/>
</g>
<defs>
<linearGradient id="paint0_linear_380_311" x1="55" y1="0" x2="55" y2="110" gradientUnits="userSpaceOnUse">
<stop stop-color="#83B645"/>
<stop offset="1" stop-color="#83B645" stop-opacity="0"/>
</linearGradient>
<clipPath id="clip0_380_311">
<rect width="110" height="110" fill="white"/>
</clipPath>
</defs>
</svg>
