<?xml version="1.0" encoding="utf-8"?>
<!-- Generator: Adobe Illustrator 26.2.1, SVG Export Plug-In . SVG Version: 6.00 Build 0)  -->
<svg version="1.1" id="Layer_1" xmlns="http://www.w3.org/2000/svg" xmlns:xlink="http://www.w3.org/1999/xlink" x="0px" y="0px"
	 width="64px" height="64px" viewBox="0 0 257 257" style="enable-background:new 0 0 257 257;" xml:space="preserve">
<style type="text/css">
	.Drop_x0020_Shadow{fill:none;}
	.Outer_x0020_Glow_x0020_5_x0020_pt{fill:none;}
	.Blue_x0020_Neon{fill:none;stroke:#8AACDA;stroke-width:7;stroke-linecap:round;stroke-linejoin:round;}
	.Chrome_x0020_Highlight{fill:url(#SVGID_1_);stroke:#FFFFFF;stroke-width:0.3629;stroke-miterlimit:1;}
	.Jive_GS{fill:#FFDD00;}
	.Alyssa_GS{fill:#A6D0E4;}
	.st0{clip-path:url(#SVGID_00000049930003754392709050000000722024655921688743_);}
	.st1{fill:#84B645;}
	.st2{clip-path:url(#SVGID_00000037687395930075280550000001076433394188765615_);}
	.st3{fill-rule:evenodd;clip-rule:evenodd;fill:#84B645;}
	.st4{clip-path:url(#SVGID_00000033367592494116186510000001126421660460404156_);}
	.st5{clip-path:url(#SVGID_00000064317053644731852910000003113833137059251107_);}
	.st6{clip-path:url(#SVGID_00000104695181321361732490000009028619743998826150_);}
	.st7{clip-path:url(#SVGID_00000077287565145726501360000013569705229250170549_);}
	.st8{clip-path:url(#SVGID_00000053530217034407550590000005849870007461543553_);}
	.st9{clip-path:url(#SVGID_00000156570447493608891000000009000118425778394267_);}
	.st10{clip-path:url(#SVGID_00000132791686190427436790000009852070998608916892_);}
	.st11{clip-path:url(#SVGID_00000183963846667527837800000015709912281004632993_);}
	.st12{fill:#2B7F5C;}
</style>
<linearGradient id="SVGID_1_" gradientUnits="userSpaceOnUse" x1="-554.2263" y1="-255.7444" x2="-554.2263" y2="-256.7444">
	<stop  offset="0" style="stop-color:#656565"/>
	<stop  offset="0.618" style="stop-color:#1B1B1B"/>
	<stop  offset="0.6292" style="stop-color:#545454"/>
	<stop  offset="0.9831" style="stop-color:#3E3E3E"/>
</linearGradient>
<g>
	<defs>
		<rect id="SVGID_00000145750118653192910130000014385607554461522565_" width="257" height="257"/>
	</defs>
	<clipPath id="SVGID_00000080903586680960858720000001740115182647800209_">
		<use xlink:href="#SVGID_00000145750118653192910130000014385607554461522565_"  style="overflow:visible;"/>
	</clipPath>
	<g style="clip-path:url(#SVGID_00000080903586680960858720000001740115182647800209_);">
		<path class="st1" d="M255.1,125L132.2,2c-2-2-5.2-2-7.2,0l-63,63V36.4c0-2.8-2.3-5.1-5.1-5.1s-5.1,2.3-5.1,5.1v38.9L1.9,125
			c-2,2-2,5.2,0,7.2s5.2,2,7.2,0l22-22v141.4c0,2.8,2.3,5.1,5.1,5.1h184.5c2.8,0,5.1-2.3,5.1-5.1V110.3l22,22c1,1,2.3,1.5,3.6,1.5
			s2.6-0.5,3.6-1.5C257.1,130.2,257.1,127,255.1,125z M215.6,246.5H41.4V100l19-19c0,0,0,0,0,0l68.1-68.1l87.1,87.1V246.5z"/>
	</g>
</g>
<g>
	<defs>
		<rect id="SVGID_00000150813838458931433250000015377994995655114171_" x="135" y="162" width="43" height="63.5"/>
	</defs>
	<clipPath id="SVGID_00000152227830124730381670000002492358396977591726_">
		<use xlink:href="#SVGID_00000150813838458931433250000015377994995655114171_"  style="overflow:visible;"/>
	</clipPath>
	<g style="clip-path:url(#SVGID_00000152227830124730381670000002492358396977591726_);">
		<path class="st3" d="M146.1,211.9c0,2.9,0.1,5.7,0,8.6c-0.1,3.1-2,4.9-5,5c-2.9,0.1-5.3-1.7-5.3-4.7c-0.2-8.4-0.2-16.7,0-25.1
			c0.1-2.8,2.4-4.7,5.4-4.7c3.8-0.1,7.6-0.1,11.3,0c1.8,0,2.6-0.2,2.8-2.4c0.4-5.3,1.3-10.5,2.9-15.5c1.9-6.2,7.3-10.1,13.7-10.1
			c4.5,0,6.4,2.6,5.2,7c-1.8,6.8-3.7,13.5-5.5,20.2c-3,10.8-3,10.8-14.4,10.8c-2.7,0-5.3,0.1-8,0c-2.3-0.2-3.3,0.4-3.1,2.9
			C146.4,206.6,146.2,209.3,146.1,211.9C146.2,211.9,146.2,211.9,146.1,211.9z"/>
	</g>
</g>
<g>
	<defs>
		<rect id="SVGID_00000070832036212331221500000009758568351978587568_" x="71" y="162" width="43" height="63.5"/>
	</defs>
	<clipPath id="SVGID_00000168087292619699252860000017921719053038777265_">
		<use xlink:href="#SVGID_00000070832036212331221500000009758568351978587568_"  style="overflow:visible;"/>
	</clipPath>
	<g style="clip-path:url(#SVGID_00000168087292619699252860000017921719053038777265_);">
		<path class="st3" d="M113.5,208.3c0,3.9,0,7.8,0,11.6c-0.1,3.5-2.2,5.7-5.4,5.6c-3.1-0.1-5-2.1-5-5.7c0-5.3-0.1-10.6,0-15.9
			c0.1-2.2-0.4-3-2.8-2.9c-4.6,0.2-9.2,0.1-13.8,0.1c-4.1,0-6.4-1.8-7.5-5.8c-2.4-8.6-4.8-17.2-7-25.8c-1-3.9,1-6.4,5-6.5
			c6.7-0.2,12.5,4,14.3,10.6c1.3,4.8,2.4,9.7,2.6,14.7c0.1,2,0.6,2.9,2.8,2.8c3.3-0.2,6.5-0.1,9.8-0.1c5.3,0,7,1.7,7,6.9
			C113.5,201.3,113.5,204.8,113.5,208.3z"/>
	</g>
</g>
<path class="st3" d="M124.9,157.5c3.2,0,6.3,0,9.5,0c5.6,0.1,9.6,4,9.7,9.6c0,0.8,0,1.6,0,2.4c0,4.1,0,4-3.9,4.1
	c-2.1,0.1-3-0.4-2.7-2.6c0.1-1,0.6-2.7-0.9-2.8c-1.6-0.1-1.1,1.7-1,2.7c0.3,2.4-0.7,2.8-2.9,2.8c-5.3-0.2-10.6-0.2-15.9,0
	c-2.2,0.1-3-0.6-2.6-2.7c0.1-0.5,0-1,0-1.5c-0.1-0.6-0.2-1.3-1-1.3c-0.7,0-1,0.6-1,1.3c0,0.1,0,0.2,0,0.3c-0.2,1.3,0.7,3.2-0.5,3.6
	c-1.6,0.6-3.6,0.2-5.4,0.2c-0.6,0-0.9-0.4-0.9-0.9c0.1-3.1-0.6-6.4,0.8-9.3c1.7-3.6,4.6-5.7,8.6-5.8
	C118.2,157.4,121.6,157.5,124.9,157.5z"/>
<path class="st3" d="M125.1,183.2c-8.4,0-16.8-0.1-25.1,0.1c-2.5,0.1-2.6-1.1-2.4-2.9c0.2-1.6-0.9-3.6,2.4-3.6
	c16.7,0.1,33.3,0.1,50,0c2.9,0,2.2,1.6,2.2,3.1c-0.1,1.4,1,3.5-2.2,3.4C141.7,183.1,133.4,183.2,125.1,183.2z"/>
<g>
	<defs>
		<rect id="SVGID_00000119116703296756037170000002594859302837039531_" x="150" y="169" width="36.8" height="42"/>
	</defs>
	<clipPath id="SVGID_00000068641723531777319460000017550379502068758159_">
		<use xlink:href="#SVGID_00000119116703296756037170000002594859302837039531_"  style="overflow:visible;"/>
	</clipPath>
	<g style="clip-path:url(#SVGID_00000068641723531777319460000017550379502068758159_);">
		<path class="st3" d="M159,210.8c-1.7,0-3.5,0-5.2,0c-1.8,0-3-0.8-3.1-2.6c-0.1-2,1.3-2.6,3-2.6c2.9,0,5.7,0,8.6,0
			c6.5,0,10.3-2.9,12-9.1c2.2-8.1,4.4-16.2,6.6-24.4c0.5-1.9,1.3-3.5,3.5-2.8c2.1,0.6,2.1,2.4,1.6,4.3c-2.2,8.1-4.2,16.3-6.5,24.4
			c-2.3,8.3-8.5,12.8-17.1,12.8C161.2,210.8,160.1,210.8,159,210.8z"/>
	</g>
</g>
<g>
	<defs>
		<rect id="SVGID_00000017488145141880006070000009923851251150454434_" x="62.3" y="169" width="36.7" height="42"/>
	</defs>
	<clipPath id="SVGID_00000013180861939544261990000013714117455344864651_">
		<use xlink:href="#SVGID_00000017488145141880006070000009923851251150454434_"  style="overflow:visible;"/>
	</clipPath>
	<g style="clip-path:url(#SVGID_00000013180861939544261990000013714117455344864651_);">
		<path class="st3" d="M89.9,210.8c-2.1-0.2-4.5,0.1-7-0.4c-6.8-1.3-11.1-5.4-13-11.8c-2.4-8.3-4.5-16.6-6.7-25
			c-0.5-1.8-0.6-3.7,1.6-4.3c2.2-0.6,3,1,3.5,2.9c2.1,8,4.4,16.1,6.5,24.1c1.7,6.3,5.6,9.3,12.1,9.4c2.9,0,5.7,0,8.6,0
			c1.8,0,3.2,0.6,3.1,2.5c-0.1,1.7-1.3,2.7-3.2,2.6C93.7,210.7,92,210.8,89.9,210.8z"/>
	</g>
</g>
<path class="st3" d="M176.7,151.7c0,4.6-3.7,8.3-8.4,8.3c-4.6,0-8.3-3.7-8.3-8.4c0-4.6,3.7-8.3,8.4-8.3
	C173.1,143.4,176.7,147,176.7,151.7z"/>
<path class="st3" d="M89.1,151.4c0,4.7-3.6,8.4-8.2,8.5c-4.5,0.1-8.4-3.7-8.6-8.2c-0.1-4.6,3.8-8.4,8.6-8.4
	C85.5,143.3,89,146.9,89.1,151.4z"/>
<g>
	<defs>
		<rect id="SVGID_00000039093901644599056170000011041276764497345955_" x="117" y="139.3" width="16" height="15.8"/>
	</defs>
	<clipPath id="SVGID_00000161621481766189015550000008276209613002349241_">
		<use xlink:href="#SVGID_00000039093901644599056170000011041276764497345955_"  style="overflow:visible;"/>
	</clipPath>
	<g style="clip-path:url(#SVGID_00000161621481766189015550000008276209613002349241_);">
		<path class="st3" d="M132.6,147c0,4.4-3.3,7.7-7.7,7.6c-4.3,0-7.8-3.5-7.7-7.7c0.1-4,3.6-7.5,7.7-7.6
			C129.1,139.3,132.6,142.7,132.6,147z"/>
	</g>
</g>
<g>
	<defs>
		<rect id="SVGID_00000049204008515204408160000003396817746594239153_" x="62.3" y="113" width="35.3" height="25.9"/>
	</defs>
	<clipPath id="SVGID_00000038386216796709920470000000232962377279479221_">
		<use xlink:href="#SVGID_00000049204008515204408160000003396817746594239153_"  style="overflow:visible;"/>
	</clipPath>
	<g style="clip-path:url(#SVGID_00000038386216796709920470000000232962377279479221_);">
		<path class="st1" d="M153.6,159c0.6-0.4,1.1-0.9,1.5-1.5c0.5-0.5,0.9-1.1,1.2-1.7c0.3-0.6,0.6-1.3,0.8-1.9
			c0.2-0.7,0.3-1.4,0.4-2.1c0.1-0.7,0-1.4,0-2.1c-0.1-0.7-0.2-1.4-0.5-2c-0.2-0.7-0.5-1.3-0.9-1.9s-0.8-1.2-1.3-1.7
			c-0.5-0.5-1-1-1.6-1.4s-1.2-0.8-1.8-1c-0.6-0.3-1.3-0.5-2-0.6s-1.4-0.2-2.1-0.2c-0.7,0-1.4,0.1-2.1,0.2c-0.7,0.1-1.4,0.4-2,0.6
			c-0.6,0.3-1.3,0.6-1.8,1s-1.1,0.9-1.6,1.4c-0.5,0.5-0.9,1.1-1.3,1.7c-0.4,0.6-0.7,1.2-0.9,1.9c-0.2,0.7-0.4,1.3-0.5,2
			c-0.1,0.7-0.1,1.4,0,2.1c0.1,0.7,0.2,1.4,0.4,2.1c0.2,0.7,0.5,1.3,0.8,1.9c0.3,0.6,0.7,1.2,1.2,1.7c0.5,0.5,1,1,1.5,1.5
			c-2.5,1-4.6,2.4-6.4,4.4l-1-9.2c0-0.2-0.1-0.4-0.2-0.6c-0.1-0.2-0.2-0.3-0.4-0.5s-0.3-0.2-0.5-0.3c-0.2-0.1-0.4-0.1-0.6-0.1h-1.7
			v-5.1c0-0.8-0.1-1.7-0.2-2.5c-0.1-0.8-0.3-1.7-0.6-2.5c-0.2-0.8-0.6-1.6-0.9-2.4c-0.4-0.8-0.8-1.5-1.3-2.2c-0.5-0.7-1-1.4-1.6-2
			c-0.6-0.6-1.2-1.2-1.8-1.7c-0.7-0.5-1.4-1-2.1-1.4s-1.5-0.8-2.3-1.1c0.6-0.4,1.1-0.9,1.5-1.5c0.5-0.5,0.8-1.1,1.2-1.7
			c0.3-0.6,0.6-1.3,0.8-1.9s0.3-1.4,0.4-2.1c0.1-0.7,0-1.4,0-2.1c-0.1-0.7-0.3-1.4-0.5-2c-0.2-0.7-0.5-1.3-0.9-1.9
			c-0.4-0.6-0.8-1.2-1.3-1.7c-0.5-0.5-1-1-1.6-1.4s-1.2-0.8-1.8-1c-0.6-0.3-1.3-0.5-2-0.6c-0.7-0.1-1.4-0.2-2.1-0.2
			s-1.4,0.1-2.1,0.2c-0.7,0.1-1.4,0.4-2,0.6c-0.6,0.3-1.3,0.6-1.8,1c-0.6,0.4-1.1,0.9-1.6,1.4c-0.5,0.5-0.9,1.1-1.3,1.7
			c-0.4,0.6-0.7,1.2-0.9,1.9c-0.2,0.7-0.4,1.4-0.5,2c-0.1,0.7-0.1,1.4,0,2.1c0.1,0.7,0.2,1.4,0.4,2.1s0.5,1.3,0.8,1.9
			c0.3,0.6,0.7,1.2,1.2,1.7s1,1,1.5,1.5c-0.8,0.3-1.5,0.7-2.3,1.1s-1.4,0.9-2.1,1.4c-0.7,0.5-1.3,1.1-1.8,1.7
			c-0.6,0.6-1.1,1.3-1.6,2c-0.5,0.7-0.9,1.4-1.3,2.2c-0.4,0.8-0.7,1.5-0.9,2.4c-0.3,0.8-0.4,1.6-0.6,2.5s-0.2,1.7-0.2,2.5v5.1h-1.7
			c-0.2,0-0.4,0-0.6,0.1c-0.2,0.1-0.4,0.2-0.5,0.3c-0.2,0.1-0.3,0.3-0.4,0.5c-0.1,0.2-0.2,0.4-0.2,0.6l-0.9,9.2
			c-1.8-2-3.9-3.5-6.4-4.5c0.6-0.4,1.1-0.9,1.5-1.5c0.5-0.5,0.8-1.1,1.2-1.7c0.3-0.6,0.6-1.3,0.8-1.9c0.2-0.7,0.3-1.4,0.4-2.1
			c0.1-0.7,0-1.4,0-2.1c-0.1-0.7-0.3-1.4-0.5-2.1c-0.2-0.7-0.5-1.3-0.9-1.9c-0.4-0.6-0.8-1.2-1.3-1.7c-0.5-0.5-1-1-1.6-1.4
			c-0.6-0.4-1.2-0.8-1.8-1s-1.3-0.5-2-0.6c-0.7-0.1-1.4-0.2-2.1-0.2c-0.7,0-1.4,0.1-2.1,0.2c-0.7,0.1-1.4,0.4-2,0.6s-1.3,0.6-1.8,1
			c-0.6,0.4-1.1,0.9-1.6,1.4c-0.5,0.5-0.9,1.1-1.3,1.7c-0.4,0.6-0.7,1.2-0.9,1.9c-0.2,0.7-0.4,1.4-0.5,2.1c-0.1,0.7-0.1,1.4,0,2.1
			c0.1,0.7,0.2,1.4,0.4,2.1s0.5,1.3,0.8,1.9c0.3,0.6,0.7,1.2,1.2,1.7c0.5,0.5,1,1,1.5,1.5c-0.8,0.3-1.5,0.7-2.3,1.1
			s-1.4,0.9-2.1,1.4c-0.7,0.5-1.3,1.1-1.8,1.7c-0.6,0.6-1.1,1.3-1.6,2c-0.5,0.7-0.9,1.4-1.3,2.2c-0.4,0.8-0.7,1.5-0.9,2.4
			c-0.3,0.8-0.4,1.6-0.6,2.5s-0.2,1.7-0.2,2.5v18.7c0,0.2,0,0.4,0.1,0.6c0.1,0.2,0.2,0.4,0.4,0.6c0.2,0.2,0.3,0.3,0.6,0.4
			c0.2,0.1,0.4,0.1,0.6,0.1h98.6c0.2,0,0.4,0,0.6-0.1c0.2-0.1,0.4-0.2,0.6-0.4c0.2-0.2,0.3-0.3,0.4-0.6c0.1-0.2,0.1-0.4,0.1-0.6
			v-18.7c0-0.8-0.1-1.7-0.2-2.5s-0.3-1.7-0.6-2.5c-0.2-0.8-0.6-1.6-0.9-2.4c-0.4-0.8-0.8-1.5-1.3-2.2c-0.5-0.7-1-1.4-1.6-2
			c-0.6-0.6-1.2-1.2-1.8-1.7c-0.7-0.5-1.4-1-2.1-1.4C155.2,159.7,154.4,159.3,153.6,159z M140.5,151c0-0.4,0-0.9,0.1-1.3
			c0.1-0.4,0.2-0.9,0.4-1.3c0.2-0.4,0.4-0.8,0.6-1.2c0.2-0.4,0.5-0.7,0.8-1s0.7-0.6,1-0.8c0.4-0.2,0.8-0.5,1.2-0.6
			c0.4-0.2,0.8-0.3,1.3-0.4c0.4-0.1,0.9-0.1,1.3-0.1s0.9,0,1.3,0.1c0.4,0.1,0.9,0.2,1.3,0.4c0.4,0.2,0.8,0.4,1.2,0.6
			c0.4,0.3,0.7,0.5,1,0.8s0.6,0.7,0.8,1c0.3,0.4,0.5,0.8,0.6,1.2c0.2,0.4,0.3,0.8,0.4,1.3c0.1,0.4,0.1,0.9,0.1,1.3s0,0.9-0.1,1.3
			c-0.1,0.4-0.2,0.9-0.4,1.3c-0.2,0.4-0.4,0.8-0.6,1.2c-0.2,0.4-0.5,0.7-0.8,1s-0.7,0.6-1,0.8c-0.4,0.3-0.8,0.5-1.2,0.6
			c-0.4,0.2-0.8,0.3-1.3,0.4s-0.9,0.1-1.3,0.1s-0.9,0-1.3-0.1c-0.4-0.1-0.9-0.2-1.3-0.4c-0.4-0.2-0.8-0.4-1.2-0.6
			c-0.4-0.2-0.7-0.5-1-0.8s-0.6-0.7-0.8-1c-0.3-0.4-0.5-0.8-0.6-1.2c-0.2-0.4-0.3-0.8-0.4-1.3C140.6,151.9,140.5,151.4,140.5,151z
			 M106.5,123.8c0-0.4,0-0.9,0.1-1.3c0.1-0.4,0.2-0.9,0.4-1.3c0.2-0.4,0.4-0.8,0.6-1.2c0.2-0.4,0.5-0.7,0.8-1c0.3-0.3,0.7-0.6,1-0.8
			c0.4-0.2,0.8-0.5,1.2-0.6c0.4-0.2,0.8-0.3,1.3-0.4c0.4-0.1,0.9-0.1,1.3-0.1s0.9,0,1.3,0.1c0.4,0.1,0.9,0.2,1.3,0.4
			c0.4,0.2,0.8,0.4,1.2,0.6c0.4,0.3,0.7,0.5,1,0.8c0.3,0.3,0.6,0.7,0.8,1c0.3,0.4,0.5,0.8,0.6,1.2c0.2,0.4,0.3,0.8,0.4,1.3
			c0.1,0.4,0.1,0.9,0.1,1.3c0,0.4,0,0.9-0.1,1.3c-0.1,0.4-0.2,0.9-0.4,1.3c-0.2,0.4-0.4,0.8-0.6,1.2c-0.2,0.4-0.5,0.7-0.8,1
			c-0.3,0.3-0.7,0.6-1,0.8c-0.4,0.3-0.8,0.5-1.2,0.6c-0.4,0.2-0.8,0.3-1.3,0.4s-0.9,0.1-1.3,0.1s-0.9,0-1.3-0.1
			c-0.4-0.1-0.9-0.2-1.3-0.4c-0.4-0.2-0.8-0.4-1.2-0.6c-0.4-0.2-0.7-0.5-1-0.8c-0.3-0.3-0.6-0.7-0.8-1c-0.3-0.4-0.5-0.8-0.6-1.2
			c-0.2-0.4-0.3-0.8-0.4-1.3C106.6,124.7,106.5,124.2,106.5,123.8z M99.7,147.6c0-0.9,0.1-1.8,0.3-2.7c0.2-0.9,0.4-1.7,0.8-2.6
			c0.3-0.8,0.8-1.6,1.3-2.4s1.1-1.4,1.7-2.1c0.6-0.6,1.3-1.2,2.1-1.7s1.5-0.9,2.4-1.3c0.8-0.3,1.7-0.6,2.6-0.8
			c0.9-0.2,1.8-0.3,2.7-0.3s1.8,0.1,2.7,0.3c0.9,0.2,1.7,0.4,2.6,0.8c0.8,0.3,1.6,0.8,2.4,1.3s1.4,1.1,2.1,1.7
			c0.6,0.6,1.2,1.3,1.7,2.1s0.9,1.5,1.3,2.4c0.3,0.8,0.6,1.7,0.8,2.6c0.2,0.9,0.3,1.8,0.3,2.7v5.1h-3l1.3-8.2c0-0.2,0-0.5,0-0.7
			c-0.1-0.2-0.2-0.5-0.3-0.6c-0.2-0.2-0.4-0.3-0.6-0.4c-0.2-0.1-0.5-0.2-0.7-0.1h-20.4c-0.3,0-0.5,0-0.7,0.1
			c-0.2,0.1-0.4,0.2-0.6,0.4c-0.2,0.2-0.3,0.4-0.4,0.6c-0.1,0.2-0.1,0.5,0,0.7l1.3,8.2h-3V147.6z M121.6,145.9l-1.5,10.2h-13.4
			l-1.5-10.2H121.6z M103.1,156.1l0.3,2c0,0.2,0.1,0.4,0.2,0.6c0.1,0.2,0.2,0.3,0.4,0.5s0.3,0.2,0.5,0.3c0.2,0.1,0.4,0.1,0.6,0.1
			h16.3c0.2,0,0.4,0,0.6-0.1c0.2-0.1,0.4-0.2,0.5-0.3s0.3-0.3,0.4-0.5c0.1-0.2,0.2-0.4,0.2-0.6l0.4-2h7l1.3,12.3l0.6,6.8l-7.8,3.1
			c-0.3,0.1-0.6,0.3-0.8,0.6s-0.3,0.6-0.3,1v5.1c0,0.5,0.2,1,0.6,1.3c0.3,0.3,0.7,0.4,1.1,0.4h0.3l7.8-1.2l0.5,6.3h-41l0.5-6.3
			l7.8,1.2h0.3c0.4,0,0.8-0.1,1.1-0.4c0.4-0.3,0.6-0.8,0.6-1.3v-5.1c0-0.3-0.1-0.7-0.3-1s-0.5-0.5-0.8-0.6l-7.8-3.1l1.9-19.1H103.1z
			 M72.5,151c0-0.4,0-0.9,0.1-1.3c0.1-0.4,0.2-0.9,0.4-1.3c0.2-0.4,0.4-0.8,0.6-1.2c0.2-0.4,0.5-0.7,0.8-1s0.7-0.6,1-0.8
			c0.4-0.2,0.8-0.5,1.2-0.6c0.4-0.2,0.8-0.3,1.3-0.4c0.4-0.1,0.9-0.1,1.3-0.1s0.9,0,1.3,0.1c0.4,0.1,0.9,0.2,1.3,0.4
			c0.4,0.2,0.8,0.4,1.2,0.6c0.4,0.3,0.7,0.5,1,0.8s0.6,0.7,0.8,1c0.3,0.4,0.5,0.8,0.6,1.2c0.2,0.4,0.3,0.8,0.4,1.3
			c0.1,0.4,0.1,0.9,0.1,1.3s0,0.9-0.1,1.3c-0.1,0.4-0.2,0.9-0.4,1.3c-0.2,0.4-0.4,0.8-0.6,1.2c-0.2,0.4-0.5,0.7-0.8,1
			s-0.7,0.6-1,0.8c-0.4,0.3-0.8,0.5-1.2,0.6c-0.4,0.2-0.8,0.3-1.3,0.4s-0.9,0.1-1.3,0.1s-0.9,0-1.3-0.1c-0.4-0.1-0.9-0.2-1.3-0.4
			c-0.4-0.2-0.8-0.4-1.2-0.6c-0.4-0.2-0.7-0.5-1-0.8s-0.6-0.7-0.8-1c-0.3-0.4-0.5-0.8-0.6-1.2c-0.2-0.4-0.3-0.8-0.4-1.3
			C72.6,151.9,72.5,151.4,72.5,151z M65.7,174.8c0-0.9,0.1-1.8,0.3-2.7c0.2-0.9,0.4-1.7,0.8-2.6c0.3-0.8,0.8-1.6,1.3-2.4
			s1.1-1.4,1.7-2.1c0.6-0.6,1.3-1.2,2.1-1.7s1.5-0.9,2.4-1.3c0.8-0.3,1.7-0.6,2.6-0.8s1.8-0.3,2.7-0.3c1.3,0,2.5,0.2,3.7,0.5
			c1.2,0.3,2.4,0.9,3.4,1.5s2,1.5,2.9,2.4s1.6,2,2.1,3.1l-0.5,5.1l-4.9-1.9V168h-3.4v5.1c0,0.4,0.1,0.7,0.3,1s0.5,0.5,0.8,0.6
			l15.9,6.4v2l-19.3-3l-3-6l-3,1.5l3.4,6.8c0.3,0.5,0.7,0.8,1.3,0.9L90,185l-0.6,6.8H65.7V174.8z M160.9,191.8h-23.7l-0.6-6.8
			l10.9-1.7c0.6-0.1,1-0.4,1.3-0.9l3.4-6.8l-3-1.5l-3,6l-19.3,2.9v-2l15.9-6.4c0.3-0.1,0.6-0.3,0.8-0.6s0.3-0.6,0.3-1V168h-3.4v3.9
			l-4.8,1.9l-0.5-5.3c0.6-1.1,1.3-2.1,2.1-3c0.9-0.9,1.8-1.7,2.9-2.4c1.1-0.7,2.2-1.2,3.4-1.5c1.2-0.3,2.4-0.5,3.7-0.5
			c0.9,0,1.8,0.1,2.7,0.3s1.7,0.4,2.6,0.8c0.8,0.3,1.6,0.8,2.4,1.3s1.4,1.1,2.1,1.7c0.6,0.6,1.2,1.3,1.7,2.1s0.9,1.5,1.3,2.4
			c0.3,0.8,0.6,1.7,0.8,2.6c0.2,0.9,0.3,1.8,0.3,2.7V191.8z"/>
	</g>
</g>
<g>
	<defs>
		<rect id="SVGID_00000126323389020008915340000002517337838120645565_" x="62.3" y="93.2" width="34.7" height="44.8"/>
	</defs>
	<clipPath id="SVGID_00000143613200477409241050000005083796400778074023_">
		<use xlink:href="#SVGID_00000126323389020008915340000002517337838120645565_"  style="overflow:visible;"/>
	</clipPath>
	<g style="clip-path:url(#SVGID_00000143613200477409241050000005083796400778074023_);">
		<path class="st1" d="M64,130.6h9.4l4.6,6.1c0.2,0.2,0.4,0.4,0.6,0.5c0.2,0.1,0.5,0.2,0.8,0.2c0.3,0,0.5-0.1,0.8-0.2
			c0.2-0.1,0.4-0.3,0.6-0.5l4.6-6.1h9.4c0.2,0,0.4,0,0.6-0.1c0.2-0.1,0.4-0.2,0.6-0.4c0.2-0.2,0.3-0.3,0.4-0.6
			c0.1-0.2,0.1-0.4,0.1-0.7v-34c0-0.2,0-0.4-0.1-0.6c-0.1-0.2-0.2-0.4-0.4-0.6c-0.2-0.2-0.3-0.3-0.6-0.4c-0.2-0.1-0.4-0.1-0.6-0.1
			H64c-0.2,0-0.4,0-0.6,0.1c-0.2,0.1-0.4,0.2-0.6,0.4c-0.2,0.2-0.3,0.3-0.4,0.6c-0.1,0.2-0.1,0.4-0.1,0.6v34c0,0.2,0,0.4,0.1,0.7
			c0.1,0.2,0.2,0.4,0.4,0.6c0.2,0.2,0.3,0.3,0.6,0.4C63.6,130.5,63.8,130.6,64,130.6z M65.7,96.6h27.2v30.6h-8.5
			c-0.6,0-1,0.2-1.4,0.7l-3.7,5l-3.7-5c-0.3-0.5-0.8-0.7-1.4-0.7h-8.5V96.6z"/>
	</g>
</g>
<path class="st1" d="M69.1,120.4h20.4v3.4H69.1V120.4z"/>
<path class="st1" d="M69.1,113.6h20.4v3.4H69.1V113.6z"/>
<path class="st1" d="M69.1,106.8h20.4v3.4H69.1V106.8z"/>
<path class="st1" d="M86.1,100h3.4v3.4h-3.4V100z"/>
<path class="st1" d="M75.9,100h6.8v3.4h-6.8V100z"/>
<path class="st1" d="M69.1,100h3.4v3.4h-3.4V100z"/>
<g>
	<defs>
		<rect id="SVGID_00000183965185078829610780000014059136062909722259_" x="151.3" y="113" width="35.3" height="25.9"/>
	</defs>
	<clipPath id="SVGID_00000145772365626435208810000010352463654260568227_">
		<use xlink:href="#SVGID_00000183965185078829610780000014059136062909722259_"  style="overflow:visible;"/>
	</clipPath>
	<g style="clip-path:url(#SVGID_00000145772365626435208810000010352463654260568227_);">
		<path class="st1" d="M242.6,159c0.6-0.4,1.1-0.9,1.5-1.5c0.5-0.5,0.9-1.1,1.2-1.7c0.3-0.6,0.6-1.3,0.8-1.9s0.3-1.4,0.4-2.1
			c0.1-0.7,0-1.4,0-2.1c-0.1-0.7-0.2-1.4-0.5-2c-0.2-0.7-0.5-1.3-0.9-1.9c-0.4-0.6-0.8-1.2-1.3-1.7c-0.5-0.5-1-1-1.6-1.4
			s-1.2-0.8-1.8-1c-0.6-0.3-1.3-0.5-2-0.6c-0.7-0.1-1.4-0.2-2.1-0.2c-0.7,0-1.4,0.1-2.1,0.2c-0.7,0.1-1.4,0.4-2,0.6
			c-0.6,0.3-1.3,0.6-1.8,1s-1.1,0.9-1.6,1.4c-0.5,0.5-0.9,1.1-1.3,1.7c-0.4,0.6-0.7,1.2-0.9,1.9c-0.2,0.7-0.4,1.3-0.5,2
			s-0.1,1.4,0,2.1c0.1,0.7,0.2,1.4,0.4,2.1c0.2,0.7,0.5,1.3,0.8,1.9c0.3,0.6,0.7,1.2,1.2,1.7c0.5,0.5,1,1,1.5,1.5
			c-2.5,1-4.6,2.4-6.4,4.4l-1-9.2c0-0.2-0.1-0.4-0.2-0.6c-0.1-0.2-0.2-0.3-0.4-0.5s-0.3-0.2-0.5-0.3s-0.4-0.1-0.6-0.1h-1.7v-5.1
			c0-0.8-0.1-1.7-0.2-2.5c-0.1-0.8-0.3-1.7-0.6-2.5c-0.3-0.8-0.6-1.6-0.9-2.4s-0.8-1.5-1.3-2.2c-0.5-0.7-1-1.4-1.6-2
			s-1.2-1.2-1.8-1.7c-0.7-0.5-1.4-1-2.1-1.4c-0.7-0.4-1.5-0.8-2.3-1.1c0.6-0.4,1.1-0.9,1.5-1.5s0.8-1.1,1.2-1.7
			c0.3-0.6,0.6-1.3,0.8-1.9s0.3-1.4,0.4-2.1c0.1-0.7,0-1.4,0-2.1c-0.1-0.7-0.2-1.4-0.5-2c-0.2-0.7-0.5-1.3-0.9-1.9
			c-0.4-0.6-0.8-1.2-1.3-1.7c-0.5-0.5-1-1-1.6-1.4s-1.2-0.8-1.8-1c-0.6-0.3-1.3-0.5-2-0.6c-0.7-0.1-1.4-0.2-2.1-0.2
			c-0.7,0-1.4,0.1-2.1,0.2c-0.7,0.1-1.4,0.4-2,0.6c-0.6,0.3-1.3,0.6-1.8,1s-1.1,0.9-1.6,1.4c-0.5,0.5-0.9,1.1-1.3,1.7
			c-0.4,0.6-0.7,1.2-0.9,1.9c-0.2,0.7-0.4,1.4-0.5,2c-0.1,0.7-0.1,1.4,0,2.1c0.1,0.7,0.2,1.4,0.4,2.1s0.5,1.3,0.8,1.9
			c0.3,0.6,0.7,1.2,1.2,1.7s1,1,1.5,1.5c-0.8,0.3-1.5,0.7-2.3,1.1c-0.7,0.4-1.4,0.9-2.1,1.4c-0.7,0.5-1.3,1.1-1.8,1.7
			c-0.6,0.6-1.1,1.3-1.6,2c-0.5,0.7-0.9,1.4-1.3,2.2c-0.4,0.8-0.7,1.5-0.9,2.4c-0.2,0.8-0.4,1.6-0.6,2.5c-0.1,0.8-0.2,1.7-0.2,2.5
			v5.1h-1.7c-0.2,0-0.4,0-0.6,0.1c-0.2,0.1-0.4,0.2-0.5,0.3s-0.3,0.3-0.4,0.5c-0.1,0.2-0.2,0.4-0.2,0.6l-0.9,9.2
			c-1.8-2-3.9-3.5-6.4-4.5c0.6-0.4,1.1-0.9,1.5-1.5c0.5-0.5,0.8-1.1,1.2-1.7c0.3-0.6,0.6-1.3,0.8-1.9s0.3-1.4,0.4-2.1s0-1.4,0-2.1
			c-0.1-0.7-0.2-1.4-0.5-2.1c-0.2-0.7-0.5-1.3-0.9-1.9c-0.4-0.6-0.8-1.2-1.3-1.7c-0.5-0.5-1-1-1.6-1.4c-0.6-0.4-1.2-0.8-1.8-1
			c-0.6-0.3-1.3-0.5-2-0.6c-0.7-0.1-1.4-0.2-2.1-0.2c-0.7,0-1.4,0.1-2.1,0.2s-1.4,0.4-2,0.6c-0.6,0.3-1.3,0.6-1.8,1
			c-0.6,0.4-1.1,0.9-1.6,1.4c-0.5,0.5-0.9,1.1-1.3,1.7c-0.4,0.6-0.7,1.2-0.9,1.9c-0.2,0.7-0.4,1.4-0.5,2.1c-0.1,0.7-0.1,1.4,0,2.1
			c0.1,0.7,0.2,1.4,0.4,2.1c0.2,0.7,0.5,1.3,0.8,1.9c0.3,0.6,0.7,1.2,1.2,1.7c0.5,0.5,1,1,1.5,1.5c-0.8,0.3-1.5,0.7-2.3,1.1
			c-0.7,0.4-1.4,0.9-2.1,1.4c-0.7,0.5-1.3,1.1-1.8,1.7c-0.6,0.6-1.1,1.3-1.6,2c-0.5,0.7-0.9,1.4-1.3,2.2c-0.4,0.8-0.7,1.5-0.9,2.4
			c-0.2,0.8-0.4,1.6-0.6,2.5c-0.1,0.8-0.2,1.7-0.2,2.5v18.7c0,0.2,0,0.4,0.1,0.6c0.1,0.2,0.2,0.4,0.4,0.6c0.2,0.2,0.3,0.3,0.6,0.4
			c0.2,0.1,0.4,0.1,0.7,0.1h98.6c0.2,0,0.4,0,0.7-0.1s0.4-0.2,0.6-0.4c0.2-0.2,0.3-0.3,0.4-0.6c0.1-0.2,0.1-0.4,0.1-0.6v-18.7
			c0-0.8-0.1-1.7-0.2-2.5s-0.3-1.7-0.6-2.5c-0.3-0.8-0.6-1.6-0.9-2.4c-0.4-0.8-0.8-1.5-1.3-2.2c-0.5-0.7-1-1.4-1.6-2
			c-0.6-0.6-1.2-1.2-1.8-1.7c-0.7-0.5-1.4-1-2.1-1.4S243.4,159.3,242.6,159z M229.5,151c0-0.4,0-0.9,0.1-1.3
			c0.1-0.4,0.2-0.9,0.4-1.3c0.2-0.4,0.4-0.8,0.6-1.2c0.3-0.4,0.5-0.7,0.8-1c0.3-0.3,0.7-0.6,1-0.8c0.4-0.2,0.8-0.5,1.2-0.6
			c0.4-0.2,0.8-0.3,1.3-0.4c0.4-0.1,0.9-0.1,1.3-0.1c0.4,0,0.9,0,1.3,0.1c0.4,0.1,0.9,0.2,1.3,0.4c0.4,0.2,0.8,0.4,1.2,0.6
			c0.4,0.3,0.7,0.5,1,0.8c0.3,0.3,0.6,0.7,0.8,1c0.2,0.4,0.5,0.8,0.6,1.2c0.2,0.4,0.3,0.8,0.4,1.3s0.1,0.9,0.1,1.3s0,0.9-0.1,1.3
			c-0.1,0.4-0.2,0.9-0.4,1.3s-0.4,0.8-0.6,1.2c-0.3,0.4-0.5,0.7-0.8,1c-0.3,0.3-0.7,0.6-1,0.8c-0.4,0.3-0.8,0.5-1.2,0.6
			c-0.4,0.2-0.8,0.3-1.3,0.4s-0.9,0.1-1.3,0.1c-0.4,0-0.9,0-1.3-0.1s-0.9-0.2-1.3-0.4c-0.4-0.2-0.8-0.4-1.2-0.6
			c-0.4-0.2-0.7-0.5-1-0.8c-0.3-0.3-0.6-0.7-0.8-1c-0.2-0.4-0.5-0.8-0.6-1.2c-0.2-0.4-0.3-0.8-0.4-1.3
			C229.6,151.9,229.5,151.4,229.5,151z M195.5,123.8c0-0.4,0-0.9,0.1-1.3c0.1-0.4,0.2-0.9,0.4-1.3c0.2-0.4,0.4-0.8,0.6-1.2
			c0.3-0.4,0.5-0.7,0.8-1c0.3-0.3,0.7-0.6,1-0.8c0.4-0.2,0.8-0.5,1.2-0.6c0.4-0.2,0.8-0.3,1.3-0.4c0.4-0.1,0.9-0.1,1.3-0.1
			c0.4,0,0.9,0,1.3,0.1c0.4,0.1,0.9,0.2,1.3,0.4c0.4,0.2,0.8,0.4,1.2,0.6c0.4,0.3,0.7,0.5,1,0.8c0.3,0.3,0.6,0.7,0.8,1
			c0.2,0.4,0.5,0.8,0.6,1.2c0.2,0.4,0.3,0.8,0.4,1.3s0.1,0.9,0.1,1.3c0,0.4,0,0.9-0.1,1.3s-0.2,0.9-0.4,1.3
			c-0.2,0.4-0.4,0.8-0.6,1.2c-0.3,0.4-0.5,0.7-0.8,1c-0.3,0.3-0.7,0.6-1,0.8c-0.4,0.3-0.8,0.5-1.2,0.6c-0.4,0.2-0.8,0.3-1.3,0.4
			s-0.9,0.1-1.3,0.1c-0.4,0-0.9,0-1.3-0.1s-0.9-0.2-1.3-0.4c-0.4-0.2-0.8-0.4-1.2-0.6c-0.4-0.2-0.7-0.5-1-0.8
			c-0.3-0.3-0.6-0.7-0.8-1c-0.2-0.4-0.5-0.8-0.6-1.2c-0.2-0.4-0.3-0.8-0.4-1.3C195.6,124.7,195.5,124.2,195.5,123.8z M188.7,147.6
			c0-0.9,0.1-1.8,0.3-2.7c0.2-0.9,0.4-1.7,0.8-2.6s0.8-1.6,1.3-2.4s1.1-1.4,1.7-2.1c0.6-0.6,1.3-1.2,2.1-1.7s1.5-0.9,2.4-1.3
			c0.8-0.3,1.7-0.6,2.6-0.8c0.9-0.2,1.8-0.3,2.7-0.3c0.9,0,1.8,0.1,2.7,0.3c0.9,0.2,1.7,0.4,2.6,0.8c0.8,0.3,1.6,0.8,2.4,1.3
			s1.4,1.1,2.1,1.7c0.6,0.6,1.2,1.3,1.7,2.1s0.9,1.5,1.3,2.4c0.3,0.8,0.6,1.7,0.8,2.6c0.2,0.9,0.3,1.8,0.3,2.7v5.1h-3l1.3-8.2
			c0-0.2,0-0.5,0-0.7c-0.1-0.2-0.2-0.5-0.4-0.6c-0.2-0.2-0.4-0.3-0.6-0.4s-0.5-0.2-0.7-0.1h-20.4c-0.2,0-0.5,0-0.7,0.1
			s-0.4,0.2-0.6,0.4c-0.2,0.2-0.3,0.4-0.4,0.6c-0.1,0.2-0.1,0.5,0,0.7l1.3,8.2h-3V147.6z M210.5,145.9l-1.5,10.2h-13.4l-1.5-10.2
			H210.5z M192.1,156.1l0.3,2c0,0.2,0.1,0.4,0.2,0.6c0.1,0.2,0.2,0.3,0.4,0.5s0.3,0.2,0.5,0.3c0.2,0.1,0.4,0.1,0.6,0.1h16.3
			c0.2,0,0.4,0,0.6-0.1c0.2-0.1,0.4-0.2,0.5-0.3s0.3-0.3,0.4-0.5c0.1-0.2,0.2-0.4,0.2-0.6l0.4-2h7l1.3,12.3l0.6,6.8l-7.8,3.1
			c-0.3,0.1-0.6,0.3-0.8,0.6s-0.3,0.6-0.3,1v5.1c0,0.5,0.2,1,0.6,1.3c0.3,0.3,0.7,0.4,1.1,0.4h0.3l7.8-1.2l0.5,6.3h-41l0.5-6.3
			l7.8,1.2h0.3c0.4,0,0.8-0.1,1.1-0.4c0.4-0.3,0.6-0.8,0.6-1.3v-5.1c0-0.3-0.1-0.7-0.3-1s-0.5-0.5-0.8-0.6l-7.8-3.1l1.9-19.1H192.1z
			 M161.5,151c0-0.4,0-0.9,0.1-1.3c0.1-0.4,0.2-0.9,0.4-1.3c0.2-0.4,0.4-0.8,0.6-1.2c0.3-0.4,0.5-0.7,0.8-1c0.3-0.3,0.7-0.6,1-0.8
			c0.4-0.2,0.8-0.5,1.2-0.6c0.4-0.2,0.8-0.3,1.3-0.4c0.4-0.1,0.9-0.1,1.3-0.1c0.4,0,0.9,0,1.3,0.1c0.4,0.1,0.9,0.2,1.3,0.4
			c0.4,0.2,0.8,0.4,1.2,0.6c0.4,0.3,0.7,0.5,1,0.8c0.3,0.3,0.6,0.7,0.8,1c0.2,0.4,0.5,0.8,0.6,1.2c0.2,0.4,0.3,0.8,0.4,1.3
			s0.1,0.9,0.1,1.3s0,0.9-0.1,1.3c-0.1,0.4-0.2,0.9-0.4,1.3s-0.4,0.8-0.6,1.2c-0.3,0.4-0.5,0.7-0.8,1c-0.3,0.3-0.7,0.6-1,0.8
			c-0.4,0.3-0.8,0.5-1.2,0.6c-0.4,0.2-0.8,0.3-1.3,0.4s-0.9,0.1-1.3,0.1c-0.4,0-0.9,0-1.3-0.1s-0.9-0.2-1.3-0.4
			c-0.4-0.2-0.8-0.4-1.2-0.6c-0.4-0.2-0.7-0.5-1-0.8c-0.3-0.3-0.6-0.7-0.8-1c-0.2-0.4-0.5-0.8-0.6-1.2c-0.2-0.4-0.3-0.8-0.4-1.3
			C161.6,151.9,161.5,151.4,161.5,151z M154.7,174.8c0-0.9,0.1-1.8,0.3-2.7c0.2-0.9,0.4-1.7,0.8-2.6s0.8-1.6,1.3-2.4
			s1.1-1.4,1.7-2.1c0.6-0.6,1.3-1.2,2.1-1.7s1.5-0.9,2.4-1.3c0.8-0.3,1.7-0.6,2.6-0.8c0.9-0.2,1.8-0.3,2.7-0.3
			c1.3,0,2.5,0.2,3.7,0.5c1.2,0.3,2.4,0.9,3.4,1.5s2,1.5,2.9,2.4s1.6,2,2.1,3.1l-0.5,5.1l-4.9-1.9V168h-3.4v5.1c0,0.4,0.1,0.7,0.3,1
			s0.5,0.5,0.8,0.6l15.9,6.4v2l-19.3-3l-3-6l-3,1.5l3.4,6.8c0.3,0.5,0.7,0.8,1.3,0.9L179,185l-0.6,6.8h-23.7V174.8z M249.9,191.8
			h-23.7l-0.6-6.8l10.9-1.7c0.6-0.1,1-0.4,1.3-0.9l3.4-6.8l-3-1.5l-3,6l-19.3,2.9v-2l15.9-6.4c0.3-0.1,0.6-0.3,0.8-0.6
			s0.3-0.6,0.3-1V168h-3.4v3.9l-4.8,1.9l-0.5-5.3c0.6-1.1,1.3-2.1,2.1-3s1.8-1.7,2.9-2.4c1.1-0.7,2.2-1.2,3.4-1.5
			c1.2-0.3,2.4-0.5,3.7-0.5c0.9,0,1.8,0.1,2.7,0.3s1.7,0.4,2.6,0.8c0.8,0.3,1.6,0.8,2.4,1.3s1.4,1.1,2.1,1.7
			c0.6,0.6,1.2,1.3,1.7,2.1s0.9,1.5,1.3,2.4c0.3,0.8,0.6,1.7,0.8,2.6c0.2,0.9,0.3,1.8,0.3,2.7V191.8z"/>
	</g>
</g>
<g>
	<defs>
		<rect id="SVGID_00000022561324319503788370000000033225288369573306_" x="151.3" y="93.2" width="34.7" height="44.8"/>
	</defs>
	<clipPath id="SVGID_00000038387347364618521130000011709089942263114146_">
		<use xlink:href="#SVGID_00000022561324319503788370000000033225288369573306_"  style="overflow:visible;"/>
	</clipPath>
	<g style="clip-path:url(#SVGID_00000038387347364618521130000011709089942263114146_);">
		<path class="st1" d="M153,130.6h9.3l4.6,6.1c0.2,0.2,0.4,0.4,0.6,0.5c0.2,0.1,0.5,0.2,0.8,0.2c0.3,0,0.5-0.1,0.8-0.2
			c0.2-0.1,0.4-0.3,0.6-0.5l4.6-6.1h9.3c0.2,0,0.4,0,0.7-0.1s0.4-0.2,0.6-0.4s0.3-0.3,0.4-0.6c0.1-0.2,0.1-0.4,0.1-0.7v-34
			c0-0.2,0-0.4-0.1-0.6c-0.1-0.2-0.2-0.4-0.4-0.6c-0.2-0.2-0.3-0.3-0.6-0.4s-0.4-0.1-0.7-0.1H153c-0.2,0-0.4,0-0.7,0.1
			c-0.2,0.1-0.4,0.2-0.6,0.4c-0.2,0.2-0.3,0.3-0.4,0.6c-0.1,0.2-0.1,0.4-0.1,0.6v34c0,0.2,0,0.4,0.1,0.7c0.1,0.2,0.2,0.4,0.4,0.6
			s0.3,0.3,0.6,0.4C152.6,130.5,152.8,130.6,153,130.6z M154.7,96.6h27.2v30.6h-8.5c-0.6,0-1,0.2-1.4,0.7l-3.7,5l-3.7-5
			c-0.3-0.5-0.8-0.7-1.4-0.7h-8.5V96.6z"/>
	</g>
</g>
<path class="st1" d="M158.1,120.4h20.4v3.4h-20.4V120.4z"/>
<path class="st1" d="M158.1,113.6h20.4v3.4h-20.4V113.6z"/>
<path class="st1" d="M158.1,106.8h20.4v3.4h-20.4V106.8z"/>
<path class="st1" d="M175.1,100h3.4v3.4h-3.4V100z"/>
<path class="st1" d="M164.9,100h6.8v3.4h-6.8V100z"/>
<path class="st12" d="M158.1,100h3.4v3.4h-3.4V100z"/>
</svg>
