<?xml version="1.0" encoding="utf-8"?>
<!-- Generator: Adobe Illustrator 16.0.2, SVG Export Plug-In . SVG Version: 6.00 Build 0)  -->
<!DOCTYPE svg PUBLIC "-//W3C//DTD SVG 1.1//EN" "http://www.w3.org/Graphics/SVG/1.1/DTD/svg11.dtd">
<svg version="1.1" id="Layer_1" xmlns="http://www.w3.org/2000/svg" xmlns:xlink="http://www.w3.org/1999/xlink" x="0px" y="0px"
	 width="63.999px" height="63.999px" viewBox="151.532 155.626 63.999 63.999"
	 enable-background="new 151.532 155.626 63.999 63.999" xml:space="preserve" fill="#fff">
<g>
	<g>
		<linearGradient id="SVGID_1_" gradientUnits="userSpaceOnUse" x1="151.5325" y1="187.6255" x2="215.5315" y2="187.6255">
			<stop  offset="0" style="stop-color:#fff"/>
			<stop  offset="1" style="stop-color:#fff"/>
		</linearGradient>
		<path fill="url(#SVGID_1_)" d="M215.157,186.721l-30.72-30.72c-0.5-0.5-1.309-0.5-1.81,0l-15.735,15.735v-7.15
			c0-0.706-0.574-1.28-1.28-1.28s-1.28,0.574-1.28,1.28v9.71l-12.424,12.424c-0.5,0.5-0.5,1.31,0,1.811c0.5,0.5,1.309,0.5,1.81,0
			l5.495-5.496v35.311c0,0.707,0.573,1.278,1.279,1.278h46.081c0.707,0,1.279-0.571,1.279-1.278v-35.311l5.495,5.496
			c0.249,0.249,0.577,0.374,0.905,0.374c0.327,0,0.655-0.125,0.905-0.374C215.656,188.03,215.656,187.221,215.157,186.721z
			 M205.292,217.066h-43.521v-36.591l4.745-4.745c0,0,0,0,0.002-0.001l17.014-17.013l21.76,21.759V217.066z"/>
	</g>
</g>
<g>
	<g>
		<linearGradient id="SVGID_2_" gradientUnits="userSpaceOnUse" x1="185.3201" y1="204.0195" x2="195.7561" y2="204.0195">
			<stop  offset="0" style="stop-color:#fff"/>
			<stop  offset="1" style="stop-color:#fff"/>
		</linearGradient>
		<path fill="fff" d="M187.932,208.438c0,0.712,0.021,1.425-0.006,2.138c-0.03,0.779-0.508,1.235-1.247,1.253
			c-0.73,0.017-1.313-0.427-1.328-1.178c-0.043-2.087-0.041-4.175-0.003-6.261c0.013-0.704,0.587-1.162,1.345-1.181
			c0.943-0.022,1.888-0.025,2.832-0.001c0.453,0.012,0.649-0.059,0.688-0.601c0.092-1.315,0.322-2.618,0.719-3.883
			c0.48-1.54,1.825-2.525,3.43-2.515c1.12,0.008,1.606,0.641,1.31,1.758c-0.447,1.689-0.918,3.371-1.384,5.055
			c-0.75,2.706-0.752,2.705-3.598,2.705c-0.663,0-1.33,0.035-1.989-0.011c-0.578-0.041-0.835,0.097-0.776,0.736
			c0.061,0.656,0.014,1.322,0.014,1.984C187.936,208.438,187.934,208.438,187.932,208.438z"/>
	</g>
</g>
<g>
	<g>
		<linearGradient id="SVGID_3_" gradientUnits="userSpaceOnUse" x1="169.3264" y1="204.0176" x2="179.7761" y2="204.0176">
			<stop  offset="0" style="stop-color:#fff"/>
			<stop  offset="1" style="stop-color:#fff"/>
		</linearGradient>
		<path fill="fff" d="M179.772,207.52c0,0.969,0.012,1.937-0.004,2.903c-0.015,0.885-0.549,1.421-1.359,1.403
			c-0.778-0.017-1.247-0.533-1.253-1.412c-0.01-1.324-0.03-2.649,0.011-3.973c0.017-0.55-0.096-0.758-0.699-0.729
			c-1.146,0.053-2.298,0.023-3.446,0.013c-1.025-0.01-1.586-0.438-1.868-1.446c-0.598-2.147-1.188-4.299-1.76-6.453
			c-0.256-0.966,0.247-1.591,1.251-1.615c1.68-0.041,3.115,0.991,3.578,2.644c0.335,1.198,0.587,2.422,0.642,3.669
			c0.022,0.506,0.154,0.724,0.708,0.691c0.814-0.049,1.633-0.016,2.45-0.013c1.312,0.006,1.748,0.436,1.75,1.722
			C179.773,205.788,179.772,206.654,179.772,207.52z"/>
	</g>
</g>
<linearGradient id="SVGID_4_" gradientUnits="userSpaceOnUse" x1="177.7473" y1="196.8506" x2="187.4412" y2="196.8506">
	<stop  offset="0" style="stop-color:#fff"/>
	<stop  offset="1" style="stop-color:#fff"/>
</linearGradient>
<path fill="fff" d="M182.635,194.833c0.791,0,1.58-0.009,2.371,0.001c1.387,0.018,2.39,1.01,2.432,2.396
	c0.007,0.204,0.002,0.406,0.002,0.61c0.001,1.017-0.001,0.987-0.983,1.019c-0.513,0.017-0.75-0.095-0.686-0.655
	c0.028-0.243,0.149-0.687-0.217-0.7c-0.407-0.017-0.27,0.434-0.239,0.666c0.081,0.601-0.171,0.708-0.718,0.691
	c-1.325-0.041-2.652-0.041-3.976,0c-0.545,0.017-0.743-0.151-0.658-0.678c0.021-0.124,0.007-0.255-0.006-0.381
	c-0.014-0.154-0.046-0.336-0.239-0.325c-0.167,0.01-0.251,0.152-0.24,0.329c0.001,0.025,0.004,0.051,0,0.076
	c-0.048,0.314,0.167,0.804-0.125,0.911c-0.404,0.149-0.902,0.046-1.36,0.051c-0.159,0.001-0.228-0.09-0.222-0.236
	c0.035-0.78-0.161-1.592,0.188-2.333c0.419-0.894,1.137-1.416,2.152-1.438C180.951,194.817,181.793,194.833,182.635,194.833z"/>
<linearGradient id="SVGID_5_" gradientUnits="userSpaceOnUse" x1="175.7903" y1="200.4668" x2="189.4534" y2="200.4668">
	<stop  offset="0" style="stop-color:#fff"/>
	<stop  offset="1" style="stop-color:#fff"/>
</linearGradient>
<path fill="fff" d="M182.683,201.261c-2.094,0-4.188-0.029-6.281,0.018c-0.635,0.014-0.641-0.284-0.594-0.726
	c0.041-0.399-0.224-0.903,0.594-0.896c4.161,0.034,8.324,0.033,12.485-0.002c0.717-0.007,0.557,0.405,0.537,0.773
	c-0.019,0.36,0.251,0.867-0.537,0.849C186.82,201.229,184.751,201.261,182.683,201.261z"/>
<g>
	<g>
		<linearGradient id="SVGID_6_" gradientUnits="userSpaceOnUse" x1="189.0569" y1="202.9414" x2="197.9446" y2="202.9414">
			<stop  offset="0" style="stop-color:#fff"/>
			<stop  offset="1" style="stop-color:#fff"/>
		</linearGradient>
		<path fill="fff" d="M191.139,208.142c-0.434,0-0.868-0.003-1.302,0c-0.452,0.004-0.757-0.205-0.779-0.658
			c-0.024-0.494,0.322-0.638,0.762-0.637c0.714,0.003,1.429,0.004,2.144,0c1.617-0.008,2.568-0.724,2.999-2.278
			c0.56-2.026,1.11-4.054,1.652-6.084c0.123-0.468,0.326-0.868,0.871-0.707c0.522,0.153,0.515,0.59,0.387,1.062
			c-0.55,2.029-1.058,4.071-1.619,6.098c-0.572,2.061-2.123,3.201-4.271,3.205C191.7,208.142,191.419,208.142,191.139,208.142z"/>
	</g>
</g>
<g>
	<g>
		<linearGradient id="SVGID_7_" gradientUnits="userSpaceOnUse" x1="167.1516" y1="202.9414" x2="176.0647" y2="202.9414">
			<stop  offset="0" style="stop-color:#fff"/>
			<stop  offset="1" style="stop-color:#fff"/>
		</linearGradient>
		<path fill="fff" d="M173.883,208.142c-0.518-0.041-1.124,0.026-1.739-0.095c-1.698-0.334-2.777-1.346-3.249-2.955
			c-0.605-2.067-1.124-4.159-1.672-6.241c-0.117-0.443-0.152-0.926,0.395-1.077c0.544-0.151,0.744,0.245,0.869,0.717
			c0.532,2.008,1.087,4.01,1.626,6.016c0.422,1.574,1.4,2.335,3.031,2.341c0.715,0.003,1.429,0.003,2.145,0.001
			c0.438-0.002,0.8,0.162,0.775,0.634c-0.021,0.423-0.331,0.666-0.788,0.661C174.841,208.138,174.407,208.142,173.883,208.142z"/>
	</g>
</g>
<linearGradient id="SVGID_8_" gradientUnits="userSpaceOnUse" x1="191.4084" y1="193.3789" x2="195.5657" y2="193.3789">
	<stop  offset="0" style="stop-color:#fff"/>
	<stop  offset="1" style="stop-color:#fff"/>
</linearGradient>
<path fill="fff" d="M195.566,193.382c-0.002,1.156-0.93,2.077-2.087,2.072c-1.159-0.006-2.075-0.929-2.07-2.089
	c0.005-1.157,0.926-2.065,2.09-2.062C194.666,191.309,195.567,192.213,195.566,193.382z"/>
<linearGradient id="SVGID_9_" gradientUnits="userSpaceOnUse" x1="169.4988" y1="193.373" x2="173.6794" y2="193.373">
	<stop  offset="0" style="stop-color:#fff"/>
	<stop  offset="1" style="stop-color:#fff"/>
</linearGradient>
<path fill="fff" d="M173.679,193.326c0.01,1.169-0.887,2.102-2.042,2.125c-1.121,0.021-2.11-0.931-2.138-2.06
	c-0.028-1.157,0.938-2.099,2.151-2.096C172.784,191.3,173.67,192.185,173.679,193.326z"/>
<g>
	<g>
		<linearGradient id="SVGID_10_" gradientUnits="userSpaceOnUse" x1="180.6897" y1="192.2227" x2="184.5437" y2="192.2227">
			<stop  offset="0" style="stop-color:#fff"/>
			<stop  offset="1" style="stop-color:#fff"/>
		</linearGradient>
		<path fill="fff" d="M184.544,192.224c0.005,1.093-0.828,1.917-1.926,1.909c-1.073-0.008-1.944-0.882-1.928-1.935
			c0.015-1.01,0.889-1.871,1.914-1.887C183.679,190.294,184.54,191.141,184.544,192.224z"/>
	</g>
</g>
<g>
	<g>
		<linearGradient id="SVGID_11_" gradientUnits="userSpaceOnUse" x1="166.9998" y1="184.291" x2="175.4919" y2="184.291">
			<stop  offset="0" style="stop-color:#fff"/>
			<stop  offset="1" style="stop-color:#fff"/>
		</linearGradient>
		<path fill="fff" d="M167.424,188.112h2.336l1.146,1.529c0.04,0.054,0.089,0.095,0.149,0.124
			c0.061,0.03,0.124,0.045,0.19,0.045c0.067,0,0.13-0.015,0.19-0.045c0.059-0.029,0.109-0.07,0.149-0.124l1.146-1.529h2.336
			c0.057,0,0.11-0.011,0.162-0.032c0.053-0.021,0.099-0.052,0.139-0.092c0.039-0.04,0.07-0.086,0.091-0.138
			c0.021-0.053,0.032-0.106,0.032-0.163v-8.493c0-0.057-0.011-0.11-0.032-0.162c-0.021-0.053-0.053-0.099-0.091-0.139
			c-0.04-0.039-0.086-0.07-0.139-0.091c-0.052-0.021-0.105-0.032-0.162-0.032h-7.644c-0.056,0-0.11,0.011-0.162,0.032
			c-0.053,0.021-0.099,0.053-0.138,0.091c-0.04,0.04-0.071,0.086-0.092,0.139c-0.021,0.052-0.032,0.105-0.032,0.162v8.493
			c0,0.057,0.011,0.11,0.032,0.163c0.021,0.052,0.052,0.098,0.092,0.138c0.039,0.04,0.085,0.07,0.138,0.092
			C167.314,188.102,167.368,188.112,167.424,188.112z M167.848,179.62h6.795v7.644h-2.123c-0.142,0-0.255,0.057-0.341,0.17
			l-0.934,1.244l-0.934-1.244c-0.085-0.113-0.198-0.17-0.341-0.17h-2.123V179.62z"/>
	</g>
</g>
<linearGradient id="SVGID_12_" gradientUnits="userSpaceOnUse" x1="168.6985" y1="185.9893" x2="173.7932" y2="185.9893">
	<stop  offset="0" style="stop-color:#fff"/>
	<stop  offset="1" style="stop-color:#fff"/>
</linearGradient>
<path fill="fff" d="M168.698,185.564h5.095v0.85h-5.095V185.564z"/>
<linearGradient id="SVGID_13_" gradientUnits="userSpaceOnUse" x1="168.6985" y1="184.291" x2="173.7932" y2="184.291">
	<stop  offset="0" style="stop-color:#fff"/>
	<stop  offset="1" style="stop-color:#fff"/>
</linearGradient>
<path fill="fff" d="M168.698,183.866h5.095v0.85h-5.095V183.866z"/>
<linearGradient id="SVGID_14_" gradientUnits="userSpaceOnUse" x1="168.6985" y1="182.5928" x2="173.7932" y2="182.5928">
	<stop  offset="0" style="stop-color:#fff"/>
	<stop  offset="1" style="stop-color:#fff"/>
</linearGradient>
<path fill="fff" d="M168.698,182.168h5.095v0.849h-5.095V182.168z"/>
<linearGradient id="SVGID_15_" gradientUnits="userSpaceOnUse" x1="172.9446" y1="180.894" x2="173.7932" y2="180.894">
	<stop  offset="0" style="stop-color:#fff"/>
	<stop  offset="1" style="stop-color:#fff"/>
</linearGradient>
<path fill="fff" d="M172.945,180.47h0.849v0.849h-0.849V180.47z"/>
<linearGradient id="SVGID_16_" gradientUnits="userSpaceOnUse" x1="170.3967" y1="180.894" x2="172.0945" y2="180.894">
	<stop  offset="0" style="stop-color:#fff"/>
	<stop  offset="1" style="stop-color:#fff"/>
</linearGradient>
<path fill="fff" d="M170.397,180.47h1.698v0.849h-1.698V180.47z"/>
<linearGradient id="SVGID_17_" gradientUnits="userSpaceOnUse" x1="168.6985" y1="180.894" x2="169.5471" y2="180.894">
	<stop  offset="0" style="stop-color:#fff"/>
	<stop  offset="1" style="stop-color:#fff"/>
</linearGradient>
<path fill="fff" d="M168.698,180.47h0.849v0.849h-0.849V180.47z"/>
<g>
	<g>
		<linearGradient id="SVGID_18_" gradientUnits="userSpaceOnUse" x1="189.2229" y1="184.291" x2="197.7161" y2="184.291">
			<stop  offset="0" style="stop-color:#fff"/>
			<stop  offset="1" style="stop-color:#fff"/>
		</linearGradient>
		<path fill="fff" d="M189.648,188.112h2.335l1.146,1.529c0.041,0.054,0.091,0.095,0.15,0.124
			c0.06,0.03,0.122,0.045,0.189,0.045c0.066,0,0.13-0.015,0.189-0.045c0.06-0.029,0.11-0.07,0.15-0.124l1.146-1.529h2.335
			c0.057,0,0.111-0.011,0.163-0.032s0.098-0.052,0.138-0.092s0.07-0.086,0.092-0.138c0.022-0.053,0.033-0.106,0.033-0.163v-8.493
			c0-0.057-0.011-0.11-0.033-0.162c-0.021-0.053-0.052-0.099-0.092-0.139c-0.04-0.039-0.086-0.07-0.138-0.091
			s-0.106-0.032-0.163-0.032h-7.643c-0.057,0-0.11,0.011-0.163,0.032c-0.052,0.021-0.098,0.053-0.138,0.091
			c-0.04,0.04-0.07,0.086-0.092,0.139c-0.021,0.052-0.032,0.105-0.032,0.162v8.493c0,0.057,0.011,0.11,0.032,0.163
			c0.021,0.052,0.052,0.098,0.092,0.138s0.086,0.07,0.138,0.092C189.537,188.102,189.591,188.112,189.648,188.112z M190.072,179.62
			h6.794v7.644h-2.123c-0.142,0-0.254,0.057-0.339,0.17l-0.935,1.244l-0.935-1.244c-0.085-0.113-0.198-0.17-0.339-0.17h-2.124
			V179.62z"/>
	</g>
</g>
<linearGradient id="SVGID_19_" gradientUnits="userSpaceOnUse" x1="190.9211" y1="185.9893" x2="196.0168" y2="185.9893">
	<stop  offset="0" style="stop-color:#fff"/>
	<stop  offset="1" style="stop-color:#fff"/>
</linearGradient>
<path fill="fff" d="M190.921,185.564h5.096v0.85h-5.096V185.564z"/>
<linearGradient id="SVGID_20_" gradientUnits="userSpaceOnUse" x1="190.9211" y1="184.291" x2="196.0168" y2="184.291">
	<stop  offset="0" style="stop-color:#fff"/>
	<stop  offset="1" style="stop-color:#fff"/>
</linearGradient>
<path fill="fff" d="M190.921,183.866h5.096v0.85h-5.096V183.866z"/>
<linearGradient id="SVGID_21_" gradientUnits="userSpaceOnUse" x1="190.9211" y1="182.5928" x2="196.0168" y2="182.5928">
	<stop  offset="0" style="stop-color:#fff"/>
	<stop  offset="1" style="stop-color:#fff"/>
</linearGradient>
<path fill="fff" d="M190.921,182.168h5.096v0.849h-5.096V182.168z"/>
<linearGradient id="SVGID_22_" gradientUnits="userSpaceOnUse" x1="195.1672" y1="180.894" x2="196.0168" y2="180.894">
	<stop  offset="0" style="stop-color:#fff"/>
	<stop  offset="1" style="stop-color:#fff"/>
</linearGradient>
<path fill="fff" d="M195.167,180.47h0.85v0.849h-0.85V180.47z"/>
<linearGradient id="SVGID_23_" gradientUnits="userSpaceOnUse" x1="192.6194" y1="180.894" x2="194.3186" y2="180.894">
	<stop  offset="0" style="stop-color:#fff"/>
	<stop  offset="1" style="stop-color:#fff"/>
</linearGradient>
<path fill="fff" d="M192.619,180.47h1.699v0.849h-1.699V180.47z"/>
<linearGradient id="SVGID_24_" gradientUnits="userSpaceOnUse" x1="190.9211" y1="180.894" x2="191.7708" y2="180.894">
	<stop  offset="0" style="stop-color:#fff"/>
	<stop  offset="1" style="stop-color:#fff"/>
</linearGradient>
<path fill="fff" d="M190.921,180.47h0.85v0.849h-0.85V180.47z"/>
</svg>
