<svg width="43" height="40" viewBox="0 0 43 40" fill="none" xmlns="http://www.w3.org/2000/svg">
<path d="M9.85485 10.9167H29.5632C30.0584 10.9167 30.4591 10.516 30.4591 10.0209C30.4591 9.52569 30.0584 9.125 29.5632 9.125H9.85485C9.35967 9.125 8.95898 9.52569 8.95898 10.0209C8.95907 10.5161 9.35976 10.9167 9.85485 10.9167Z" fill="white"/>
<path d="M20.6048 19.875H9.85485C9.35967 19.875 8.95898 20.2757 8.95898 20.7709C8.95898 21.266 9.35967 21.6667 9.85485 21.6667H20.6048C21.1 21.6667 21.5007 21.266 21.5007 20.7709C21.5007 20.2757 21.1 19.875 20.6048 19.875Z" fill="white"/>
<path d="M39.5707 3.74999C39.5188 3.74999 39.4685 3.763 39.4167 3.76544V3.74999C39.4167 1.77375 37.8088 0.166626 35.8334 0.166626H3.58336C1.60796 0.166626 0 1.77375 0 3.74999V38.6875C0 39.0497 0.218695 39.3768 0.552869 39.5151C0.663141 39.5614 0.780299 39.5833 0.895777 39.5833C1.1285 39.5833 1.35769 39.4924 1.52919 39.3209L10.2251 30.625H35.8334C37.8088 30.625 39.4167 29.0179 39.4167 27.0416V12.1829L41.9957 9.60437C41.9957 9.60437 41.9957 9.60437 41.9957 9.60353C42.6343 8.96491 43 8.08131 43 7.17932C43 5.28799 41.4621 3.74999 39.5707 3.74999ZM37.625 27.0416C37.625 28.0293 36.8219 28.8333 35.8334 28.8333H9.85414C9.61621 28.8333 9.3887 28.9277 9.22073 29.0957L1.79164 36.5249V3.74999C1.79164 2.76233 2.59478 1.95835 3.58328 1.95835H35.8333C36.8219 1.95835 37.625 2.76233 37.625 3.74999V4.3619C37.4549 4.4788 37.2923 4.60738 37.1456 4.75427L27.3984 14.5H9.85414C9.35897 14.5 8.95828 14.9007 8.95828 15.3959C8.95828 15.891 9.35897 16.2917 9.85414 16.2917H25.9611L25.1008 20.5951C25.0414 20.889 25.1341 21.1926 25.3458 21.4043C25.5155 21.574 25.7447 21.6667 25.9792 21.6667C26.037 21.6667 26.0965 21.6606 26.1542 21.6492L30.6316 20.7534C30.8066 20.7184 30.9658 20.6335 31.09 20.5084L37.625 13.9744V27.0416ZM30.0157 19.05L27.1217 19.6292L27.7009 16.7317L35.8329 8.59967L38.1498 10.9165L30.0157 19.05ZM40.7289 8.33763L39.4166 9.64989L37.0996 7.33284L38.4123 6.02017C38.7167 5.71657 39.1384 5.54163 39.5706 5.54163C40.4734 5.54163 41.2083 6.27649 41.2083 7.17932C41.2084 7.60974 41.0333 8.03235 40.7289 8.33763Z" fill="white"/>
</svg>
