<svg width="271" height="245" viewBox="0 0 271 245" fill="none" xmlns="http://www.w3.org/2000/svg">
<path d="M64.4158 158.463L53 161C56.5874 157.086 61.2459 154.314 66.3964 153.026L70.5 152L68.5 150L64.9378 145.688C61.0131 140.937 58.0004 135.501 56.0517 129.655L55.5 128L61.2536 135.524C65.9787 141.703 72.4262 146.346 79.7844 148.869C83.8998 150.28 88.2203 151 92.5708 151H98L96.5 147.5L91.5 133.5L88.5 121L86.6284 115.572C84.5753 109.618 81.0684 104.271 76.4258 100.015C73.1672 97.0282 69.4102 94.6353 65.3255 92.9451L57 89.5L52 87L60.4359 87.3124C63.7908 87.4367 67.1049 88.0913 70.2551 89.2519C73.3986 90.41 76.3395 92.0575 78.9689 94.1333L84.5 98.5L84 93L84.3149 85.4414C84.4379 82.4895 84.8876 79.5604 85.6556 76.7076L88 68V80.5L88.3851 92.0519C88.4615 94.3464 88.7354 96.63 89.2036 98.8775L91 107.5L95 122L100.373 134.179C101.787 137.384 103.534 140.432 105.585 143.272L109 148L106.815 137.439C106.273 134.817 105.942 132.156 105.825 129.481L105.5 122V111.264C105.5 108.095 105.801 104.934 106.4 101.822L110.5 80.5L111.184 74.9138C112.711 62.4428 111.61 49.7903 107.952 37.7705L106.5 33L119 53.5L132.5 37L122 58L117.982 70.9826C116.335 76.3016 115.437 81.824 115.314 87.3906L114.67 116.343C114.557 121.418 115.218 126.481 116.63 131.357L120 143L128 162.5L135.5 176L138.018 172.432C140.331 169.156 142.241 165.613 143.708 161.881L145.282 157.872C146.425 154.964 147.292 151.955 147.873 148.884L149.443 140.587C150.145 136.877 150.381 133.093 150.145 129.325C149.717 122.476 148.32 115.723 145.996 109.267L145 106.5L140 95.5L136.5 87.5L138.736 89.6292C144.213 94.8454 148.855 100.873 152.5 107.5L152.842 108.356C155.272 114.429 156.947 120.777 157.831 127.258L158 128.5L160.434 120.894C161.475 117.64 162.18 114.288 162.538 110.89L162.693 109.42C162.897 107.476 162.959 105.52 162.878 103.567L162.5 94.5L161 83.5L159 73L158 66L161.2 70.7995C162.392 72.5881 163.288 74.5573 163.854 76.6312L164.5 79L166 76L169.04 69.5409C169.678 68.1843 170.461 66.9006 171.375 65.7122L172.395 64.3861C174.098 62.1729 176.386 60.4804 179 59.5L173.543 69.5744C172.85 70.8543 172.298 72.2061 171.898 73.6057L169.654 81.46C168.888 84.1403 168.5 86.9142 168.5 89.7016V100L169 109.5L177.5 101L181.945 96.5549C183.971 94.5287 186.277 92.8033 188.793 91.4312L190.601 90.4449C194.163 88.5018 198.083 87.3016 202.122 86.9169L206.5 86.5L195.808 92.257C194.272 93.0841 192.811 94.0436 191.442 95.1246L184 101L178.412 106.588C175.817 109.183 173.59 112.124 171.797 115.328L170.186 118.203C168.401 121.391 166.97 124.766 165.92 128.266L163 138L161 149L172 145L184 141.5L197.408 136.52C200.104 135.518 202.553 133.947 204.587 131.913L207.5 129L211.5 124L210.471 127.912C209.51 131.563 207.535 134.867 204.775 137.443L201.5 140.5L195 145L200.687 148.5C201.228 148.833 201.736 149.216 202.203 149.645L206.139 153.252C207.039 154.077 207.78 155.06 208.326 156.152L210 159.5L207.5 158.5L198.38 152.572C197.796 152.193 197.162 151.898 196.495 151.698L195.973 151.542C190.414 149.874 184.525 149.638 178.851 150.853C175.306 151.613 171.903 152.927 168.768 154.748L164.615 157.159C160.294 159.668 156.776 163.354 154.471 167.787C152.519 171.54 151.5 175.709 151.5 179.94V183.159C151.5 184.048 151.63 184.933 151.885 185.785C153.619 191.563 156.201 197.052 159.547 202.071L162.091 205.887C164.36 209.291 166.365 212.863 168.088 216.574L169.029 218.602C171.006 222.859 172.604 227.282 173.805 231.819L176.5 242H168.099C161.387 242 154.697 242.751 148.153 244.238L147 244.5L142.193 227.12C141.066 223.046 139.618 219.068 137.863 215.224L133.121 204.837C131.045 200.289 128.547 195.946 125.66 191.864L119.186 182.711C116.738 179.251 113.861 176.116 110.624 173.382L104.694 168.375C97.0968 161.96 87.6503 158.135 77.7292 157.459C73.2662 157.155 68.7826 157.493 64.4158 158.463Z" fill="white"/>
<path d="M39.7941 157.112L40.0179 157.086C43.1936 156.713 46.3809 157.684 48.8088 159.765C50.8691 161.531 52.2353 163.971 52.664 166.65L53.0525 169.078C53.6678 172.924 53.03 176.865 51.2333 180.321L50.4056 181.912C48.5019 185.573 45.6709 188.671 42.1953 190.895L36.9614 194.245C35.6558 195.08 34.4169 196.016 33.2558 197.043L22 207L20.8634 198.286C20.6217 196.433 20.5537 194.561 20.6603 192.695L21.2805 181.841C21.4262 179.292 21.9091 176.773 22.7167 174.35L23.1988 172.904C24.6989 168.403 27.5045 164.451 31.2583 161.55L33.8755 159.528C35.5928 158.201 37.6387 157.366 39.7941 157.112Z" fill="white"/>
<path d="M49.0099 85.6319L49.1862 85.7723C51.6876 87.7643 53.2422 90.7113 53.4739 93.9006C53.6706 96.607 52.8998 99.2953 51.299 101.486L49.8484 103.472C47.5509 106.616 44.303 108.939 40.5844 110.096L38.8714 110.629C34.9313 111.855 30.7385 112.025 26.7118 111.123L20.648 109.765C19.1354 109.427 17.5987 109.206 16.0519 109.104L1.05614 108.123L6.44341 101.18C7.58934 99.7034 8.87077 98.337 10.271 97.0987L18.4145 89.8972C20.3276 88.2055 22.4565 86.7747 24.7455 85.6423L26.1117 84.9664C30.3638 82.8628 35.1457 82.0723 39.8485 82.6954L43.1273 83.1299C45.2788 83.415 47.3122 84.2799 49.0099 85.6319Z" fill="white"/>
<path d="M110.218 30.8019L110.249 31.0252C110.678 34.1939 109.763 37.3977 107.725 39.8617C105.995 41.9527 103.579 43.3615 100.908 43.8372L98.4869 44.2682C94.6528 44.9509 90.7007 44.3823 87.2145 42.6465L85.6086 41.8469C81.9147 40.0077 78.7681 37.2315 76.4831 33.7955L73.0421 28.6211C72.1837 27.3304 71.2266 26.1081 70.1793 24.9652L60.0263 13.8859L68.7187 12.5966C70.5676 12.3223 72.4382 12.2215 74.3059 12.2954L85.1684 12.725C87.7203 12.826 90.2474 13.2646 92.684 14.0296L94.1383 14.4862C98.6644 15.9071 102.665 18.643 105.631 22.3453L107.699 24.9265C109.056 26.6203 109.927 28.6512 110.218 30.8019Z" fill="white"/>
<path d="M129.5 29.41V30.4475C129.5 32.7702 130.145 35.0474 131.362 37.0255C132.752 39.2837 134.821 41.0438 137.272 42.0533L137.725 42.2396C140.502 43.383 143.572 43.607 146.486 42.8786L149.891 42.0274C153.9 41.0251 157.593 39.0341 160.635 36.2363L162.323 34.683C166.379 30.9512 169.459 26.2824 171.294 21.0848L172.459 17.782C173.812 13.9497 175.741 10.3459 178.179 7.09478L183.5 0L167.138 1.11559C163.398 1.3706 159.712 2.1501 156.189 3.43121L151.474 5.14565C147.192 6.70306 143.216 9.00212 139.73 11.9376L138.147 13.2713C136.391 14.7496 134.854 16.4693 133.581 18.3789L132.224 20.4146C130.448 23.0785 129.5 26.2084 129.5 29.41Z" fill="white"/>
<path d="M210.683 76.9995L209.994 77.7755C208.453 79.513 207.424 81.6441 207.021 83.9318C206.562 86.5432 206.942 89.2329 208.106 91.6153L208.321 92.0547C209.639 94.7531 211.787 96.9583 214.45 98.3471L217.562 99.9702C221.226 101.881 225.31 102.843 229.442 102.769L231.736 102.727C237.247 102.628 242.649 101.18 247.471 98.5091L250.535 96.8121C254.09 94.8432 257.924 93.4274 261.906 92.6138L270.595 90.8381L257.615 80.8136C254.648 78.5222 251.374 76.6592 247.888 75.2794L243.224 73.4329C238.987 71.7554 234.487 70.8369 229.931 70.7192L227.862 70.6658C225.567 70.6065 223.276 70.8726 221.056 71.4562L218.69 72.0782C215.594 72.8923 212.808 74.6046 210.683 76.9995Z" fill="white"/>
<path d="M219.101 162.554L218.241 162.266C216.315 161.621 214.248 161.522 212.27 161.982C210.012 162.506 207.978 163.732 206.46 165.484L206.18 165.807C204.46 167.792 203.421 170.275 203.215 172.892L202.975 175.952C202.692 179.554 203.316 183.169 204.79 186.468L205.608 188.299C207.575 192.698 210.589 196.549 214.388 199.514L216.292 201C219.431 203.45 222.179 206.365 224.44 209.643L228.475 215.492L231.918 202.306C232.865 198.678 233.297 194.936 233.202 191.189L233.109 187.514C233.008 183.53 232.207 179.596 230.742 175.891L230.077 174.207C229.339 172.341 228.341 170.589 227.111 169.003L225.801 167.312C224.086 165.099 221.755 163.444 219.101 162.554Z" fill="white"/>
<path d="M181.285 54.5938L181.041 55.2406C180.525 56.6134 180.394 58.1014 180.663 59.5431C180.976 61.2139 181.81 62.7425 183.047 63.9086L183.227 64.0783C184.613 65.3853 186.386 66.2065 188.279 66.4181L190.469 66.6628C193.045 66.9507 195.652 66.583 198.048 65.5938L199.466 65.0084C202.672 63.6848 205.507 61.6003 207.727 58.9351L208.907 57.5181C210.764 55.2879 212.947 53.3511 215.383 51.7733L219.711 48.9701L211.134 46.403C208.005 45.4662 204.757 44.9805 201.491 44.9603L199.729 44.9495C196.831 44.9316 193.952 45.4279 191.227 46.4152L190.036 46.8468C188.652 47.3479 187.347 48.0421 186.158 48.9088L184.927 49.807C183.272 51.0134 182.006 52.6772 181.285 54.5938Z" fill="white"/>
<path d="M60.8474 110.058L60.5 104.5L55.4222 108.562C53.8202 109.844 52.455 111.408 51.3994 113.168C50.4749 114.708 49.7942 116.392 49.3901 118.143L49.0279 119.712C48.6805 121.218 48.6805 122.782 49.0279 124.288L49.4733 126.218C49.8099 127.676 50.725 128.935 52.0086 129.705C53.8353 130.801 56.1301 130.747 57.9027 129.565L58.3744 129.25C59.1166 128.756 59.7474 128.111 60.2263 127.359L61.2226 125.793C62.3834 123.969 63 121.852 63 119.689C63 118.243 62.724 116.81 62.1869 115.467L61.9088 114.772C61.3068 113.267 60.9485 111.676 60.8474 110.058Z" fill="white"/>
<path d="M84.0792 51.6342L84.4138 46.5L89.3771 50.3078C90.8836 51.4636 92.171 52.8799 93.1781 54.4897L93.2264 54.5669C94.1042 55.9698 94.7491 57.5056 95.1363 59.1146L95.4805 60.5448C95.822 61.9638 95.822 63.4436 95.4805 64.8626L95.0922 66.476C94.7472 67.91 93.8276 69.1389 92.5492 69.8744C90.8132 70.8734 88.6655 70.8232 86.978 69.7443L86.5006 69.4391C85.7612 68.9664 85.1287 68.3445 84.6435 67.6133L83.6924 66.1801C82.5887 64.5168 82 62.5649 82 60.5687C82 59.2276 82.2658 57.8997 82.7821 56.6619L83.0541 56.0099C83.6347 54.6178 83.9811 53.1393 84.0792 51.6342Z" fill="white"/>
<path d="M209.337 114.785L209.552 111.5L212.747 113.94C213.712 114.678 214.538 115.582 215.185 116.611L215.219 116.665C215.782 117.561 216.196 118.543 216.444 119.572L216.665 120.486C216.885 121.396 216.885 122.345 216.665 123.255L216.419 124.275C216.195 125.199 215.602 125.99 214.777 126.462C213.663 127.1 212.287 127.068 211.204 126.379L210.896 126.182C210.419 125.879 210.01 125.479 209.697 125.009L209.086 124.093C208.378 123.03 208 121.781 208 120.504C208 119.646 208.171 118.796 208.503 118.004L208.678 117.586C209.051 116.695 209.274 115.749 209.337 114.785Z" fill="white"/>
<path d="M128.469 80.8215L120 80.5L127.046 89.8889C128.411 92.107 130.899 93.3782 133.497 93.1844L135.225 93.0554C135.553 93.0309 135.878 92.9746 136.195 92.8873L136.801 92.7208C138.439 92.2704 139.639 90.8696 139.833 89.1818C139.941 88.2373 139.723 87.2842 139.214 86.4809L138.045 84.6347C137.727 84.1323 137.294 83.7124 136.783 83.4094L136.311 83.1301C133.93 81.72 131.235 80.9265 128.469 80.8215Z" fill="white"/>
<path d="M146.15 53.0415L132 52.5L142.217 66.2222C144.195 69.4618 147.82 71.3208 151.605 71.036L154.07 70.8506C154.55 70.8145 155.025 70.7316 155.489 70.603L155.595 70.5736C158.434 69.7868 160.511 67.355 160.844 64.4279C160.945 63.5395 160.741 62.6431 160.265 61.886L158.902 59.716C157.956 58.2107 156.668 56.9509 155.141 56.0397L154.034 55.3785C151.643 53.9515 148.932 53.1479 146.15 53.0415Z" fill="white"/>
<path d="M217.949 83.0725L228.424 77.5029L230.776 78.1707L229.607 82.2858C229.312 83.3243 229.396 84.3171 229.858 85.264C230.319 86.2099 231.028 86.9031 231.982 87.3437L234.637 77.9967L236.988 78.6644L234.434 87.6588C235.215 87.5204 235.919 87.1859 236.546 86.6551C237.173 86.1234 237.604 85.446 237.837 84.623L239.34 79.3322L241.691 80L237.685 94.1088L235.333 93.441L236.418 89.6199C236.007 89.7996 235.575 89.9416 235.122 90.0458C234.669 90.1501 234.2 90.197 233.716 90.1866L232.982 92.7732L230.63 92.1054L231.306 89.7246C229.685 89.0948 228.484 88.0125 227.703 86.4777C226.921 84.9427 226.772 83.3228 227.256 81.618L227.498 80.7656L217.022 86.3351L217.949 83.0725Z" fill="white"/>
<path d="M142.232 30.255L144.721 17.0047L146.982 15.3912L149.805 19.3482C150.518 20.3469 151.459 20.9771 152.627 21.2387C153.794 21.5002 154.912 21.3634 155.98 20.8284L149.567 11.8405L151.828 10.227L158 18.8758C158.43 18.0849 158.633 17.2226 158.607 16.2889C158.58 15.3551 158.284 14.4924 157.719 13.701L154.089 8.61348L156.35 7L166.031 20.5668L163.77 22.1803L161.148 18.5059C161.016 18.9983 160.835 19.4826 160.607 19.9588C160.378 20.435 160.087 20.8842 159.734 21.3065L161.509 23.7938L159.248 25.4072L157.614 23.1178C155.905 24.11 154.092 24.4084 152.175 24.013C150.258 23.6181 148.714 22.601 147.544 20.9617L146.959 20.142L144.471 33.3923L142.232 30.255Z" fill="white"/>
<path d="M99.9049 35.3688L88.6086 36.1724L86.8155 34.6794L89.4284 31.5414C90.0878 30.7495 90.3992 29.851 90.3627 28.8459C90.3262 27.8419 89.9767 26.9628 89.3142 26.2088L83.3793 33.3364L81.5862 31.8433L87.2971 24.9847C86.5626 24.8032 85.8188 24.8225 85.0658 25.0426C84.3128 25.2638 83.675 25.6882 83.1525 26.3158L79.7931 30.3503L78 28.8572L86.9583 18.0986L88.7514 19.5916L86.3252 22.5054C86.7534 22.5077 87.1854 22.5511 87.6211 22.6356C88.0568 22.7201 88.4838 22.8606 88.9022 23.0571L90.5445 21.0846L92.3376 22.5777L90.8259 24.3932C91.9965 25.5703 92.6255 26.9797 92.713 28.6213C92.8011 30.2634 92.3039 31.7345 91.2215 33.0345L90.6803 33.6845L101.977 32.8808L99.9049 35.3688Z" fill="white"/>
<path d="M17.4271 98.2711L27.4061 90.029L30.0653 90.2289L29.7156 94.8824C29.6273 96.0569 29.9336 97.0996 30.6344 98.0107C31.3344 98.9208 32.2428 99.507 33.3596 99.7692L34.154 89.199L36.8131 89.3989L36.0488 99.5702C36.8527 99.2517 37.532 98.7403 38.0868 98.0359C38.6408 97.3306 38.9527 96.5125 39.0227 95.5818L39.4723 89.5987L42.1315 89.7985L40.9325 105.754L38.2733 105.554L38.598 101.233C38.198 101.514 37.7672 101.761 37.3057 101.971C36.8442 102.182 36.3536 102.334 35.8339 102.429L35.6141 105.354L32.955 105.154L33.1573 102.462C31.287 102.143 29.7667 101.249 28.5962 99.7789C27.4248 98.3093 26.9115 96.6105 27.0564 94.6826L27.1289 93.7186L17.1498 101.961L17.4271 98.2711Z" fill="white"/>
<path d="M28.001 186.868L28.752 173.947L30.708 172.135L33.88 175.557C34.6805 176.421 35.653 176.906 36.7975 177.013C37.9408 177.119 38.9884 176.853 39.9405 176.213L32.7356 168.438L34.6915 166.625L41.6246 174.107C41.9383 173.301 42.0258 172.455 41.8872 171.569C41.7473 170.683 41.3601 169.898 40.7257 169.213L36.6475 164.813L38.6034 163L49.4788 174.736L47.5229 176.548L44.5775 173.37C44.5118 173.855 44.3991 174.338 44.2393 174.819C44.0794 175.301 43.8574 175.764 43.5731 176.209L45.5669 178.361L43.611 180.173L41.7758 178.193C40.2695 179.346 38.5796 179.852 36.7062 179.71C34.8322 179.568 33.2381 178.788 31.924 177.37L31.267 176.661L30.5159 189.582L28.001 186.868Z" fill="white"/>
<path d="M211.373 168.904L223.208 174.142L224.218 176.61L219.9 178.379C218.81 178.825 218.014 179.565 217.513 180.6C217.012 181.633 216.894 182.708 217.159 183.824L226.968 179.806L227.979 182.274L218.54 186.14C219.184 186.716 219.945 187.095 220.823 187.276C221.702 187.456 222.573 187.37 223.437 187.016L228.989 184.742L230 187.21L215.194 193.273L214.183 190.806L218.193 189.163C217.762 188.932 217.349 188.657 216.954 188.338C216.56 188.019 216.204 187.649 215.887 187.226L213.172 188.338L212.162 185.87L214.66 184.847C214.109 183.032 214.229 181.272 215.02 179.568C215.81 177.863 217.1 176.644 218.889 175.911L219.784 175.545L207.949 170.306L211.373 168.904Z" fill="white"/>
<path d="M186.015 57.297L191.9 51.7476L193.567 51.7632L193.539 54.6797C193.533 55.4158 193.766 56.0536 194.241 56.593C194.715 57.1319 195.305 57.4602 196.013 57.578L196.074 50.9533L197.741 50.9688L197.681 57.3436C198.17 57.112 198.572 56.7652 198.89 56.3031C199.206 55.8405 199.367 55.3176 199.373 54.7343L199.408 50.9844L201.074 51L200.981 60.9996L199.314 60.984L199.339 58.2758C199.102 58.468 198.843 58.6392 198.564 58.7894C198.285 58.9395 197.985 59.0548 197.665 59.1351L197.648 60.9684L195.981 60.9528L195.997 59.2654C194.817 59.1433 193.832 58.6479 193.042 57.7794C192.251 56.9108 191.862 55.8724 191.873 54.6641L191.879 54.06L185.993 59.6094L186.015 57.297Z" fill="white"/>
</svg>
