<svg xmlns="http://www.w3.org/2000/svg" width="375" viewBox="0 0 375 375" height="375" version="1.0"><defs><clipPath id="a"><path d="M 48 50 L 326 50 L 326 327 L 48 327 Z M 48 50"/></clipPath></defs><path fill="#FFF" d="M-37.5 -37.5H412.5V412.5H-37.5z"/><path fill="#FFF" d="M-37.5 -37.5H412.5V412.5H-37.5z"/><path fill="#FFF" d="M-37.5 -37.5H412.5V412.5H-37.5z"/><path fill="#2B7F5C" d="M 177.242188 124.578125 L 187.039062 114.761719 L 196.835938 124.578125 C 204.847656 132.589844 210.40625 142.621094 212.875 153.609375 C 217.566406 173.875 211.578125 194.769531 196.835938 209.511719 L 191.65625 214.6875 L 191.65625 191.195312 L 208.277344 178.726562 C 210.332031 177.195312 210.746094 174.304688 209.214844 172.25 C 207.679688 170.210938 204.792969 169.796875 202.753906 171.328125 L 191.65625 179.648438 L 191.65625 159.023438 L 203.457031 151.15625 C 205.585938 149.75 206.164062 146.878906 204.738281 144.75 C 203.332031 142.621094 200.460938 142.042969 198.332031 143.46875 L 191.65625 147.925781 L 191.65625 133.457031 C 191.65625 130.910156 189.582031 128.835938 187.039062 128.835938 C 184.492188 128.835938 182.417969 130.910156 182.417969 133.457031 L 182.417969 147.925781 L 175.742188 143.46875 C 173.613281 142.042969 170.746094 142.621094 169.335938 144.75 C 167.929688 146.878906 168.488281 149.75 170.617188 151.15625 L 182.417969 159.023438 L 182.417969 179.648438 L 171.339844 171.328125 C 169.28125 169.796875 166.394531 170.226562 164.863281 172.25 C 163.328125 174.304688 163.742188 177.195312 165.78125 178.726562 L 182.417969 191.195312 L 182.417969 214.6875 L 177.242188 209.511719 C 153.820312 186.089844 153.820312 147.980469 177.242188 124.578125 Z M 187.039062 230.457031 C 188.230469 230.457031 189.402344 230.007812 190.304688 229.105469 L 203.367188 216.042969 C 220.382812 199.042969 227.292969 174.917969 221.898438 151.554688 C 219.03125 138.886719 212.625 127.285156 203.367188 118.046875 L 190.304688 104.964844 C 188.5 103.160156 185.578125 103.160156 183.773438 104.964844 L 170.707031 118.046875 C 143.679688 145.058594 143.679688 189.011719 170.707031 216.042969 L 183.773438 229.105469 C 184.675781 230.007812 185.847656 230.457031 187.039062 230.457031"/><path fill="#2B7F5C" d="M 230.109375 188.578125 C 229.746094 186.054688 227.382812 184.285156 224.875 184.664062 C 222.351562 185.023438 220.597656 187.351562 220.960938 189.878906 L 222.132812 198.070312 L 211.488281 208.714844 C 209.683594 210.519531 209.683594 213.441406 211.488281 215.246094 C 212.390625 216.148438 213.5625 216.601562 214.753906 216.601562 C 215.945312 216.601562 217.117188 216.148438 218.019531 215.246094 L 228.664062 204.601562 L 249.234375 207.542969 C 249.453125 207.578125 249.667969 207.597656 249.882812 207.597656 C 252.15625 207.597656 254.144531 205.9375 254.46875 203.628906 C 254.828125 201.101562 253.058594 198.773438 250.535156 198.394531 L 236.820312 196.445312 L 251.398438 181.867188 L 265.3125 184.644531 C 265.617188 184.699219 265.925781 184.734375 266.230469 184.734375 C 268.378906 184.734375 270.308594 183.21875 270.742188 181.019531 C 271.25 178.511719 269.625 176.074219 267.132812 175.585938 L 259.265625 174.019531 L 269.480469 163.785156 C 271.285156 161.984375 271.285156 159.058594 269.480469 157.253906 C 267.695312 155.449219 264.769531 155.449219 262.949219 157.253906 L 252.71875 167.484375 L 251.148438 159.601562 C 250.660156 157.109375 248.242188 155.488281 245.714844 155.992188 C 243.207031 156.480469 241.585938 158.914062 242.089844 161.421875 L 244.886719 175.335938 L 230.289062 189.914062 L 230.109375 188.578125"/><path fill="#2B7F5C" d="M 288.660156 161.171875 L 288.660156 142.695312 C 288.660156 140.148438 286.585938 138.074219 284.042969 138.074219 L 265.566406 138.074219 C 252.5 138.074219 239.78125 141.738281 228.773438 148.667969 C 226.625 150.039062 225.976562 152.886719 227.328125 155.035156 C 228.699219 157.199219 231.550781 157.851562 233.699219 156.480469 C 243.226562 150.488281 254.25 147.3125 265.566406 147.3125 L 279.421875 147.3125 L 279.421875 161.171875 C 279.421875 194.28125 252.484375 221.21875 219.371094 221.21875 L 205.515625 221.21875 C 202.972656 221.21875 200.894531 223.296875 200.894531 225.839844 C 200.894531 228.382812 202.972656 230.457031 205.515625 230.457031 L 219.371094 230.457031 C 257.589844 230.457031 288.660156 199.371094 288.660156 161.171875"/><path fill="#2B7F5C" d="M 149.199219 184.664062 C 146.675781 184.300781 144.328125 186.054688 143.96875 188.578125 L 143.789062 189.914062 L 129.207031 175.335938 L 131.988281 161.421875 C 132.492188 158.914062 130.867188 156.480469 128.359375 155.992188 C 125.851562 155.488281 123.414062 157.109375 122.929688 159.601562 L 121.359375 167.46875 L 111.128906 157.253906 C 109.324219 155.449219 106.402344 155.449219 104.597656 157.253906 C 102.792969 159.058594 102.792969 161.984375 104.597656 163.785156 L 114.808594 174.019531 L 106.941406 175.585938 C 104.453125 176.074219 102.828125 178.511719 103.332031 181.019531 C 103.765625 183.21875 105.695312 184.734375 107.84375 184.734375 C 108.152344 184.734375 108.457031 184.699219 108.765625 184.644531 L 122.675781 181.867188 L 137.253906 196.445312 L 123.542969 198.394531 C 121.015625 198.773438 119.246094 201.101562 119.609375 203.628906 C 119.953125 205.9375 121.917969 207.597656 124.171875 207.597656 C 124.40625 207.597656 124.625 207.578125 124.839844 207.542969 L 145.410156 204.601562 L 156.058594 215.246094 C 156.960938 216.148438 158.132812 216.601562 159.324219 216.601562 C 160.515625 216.601562 161.6875 216.148438 162.589844 215.246094 C 164.394531 213.441406 164.394531 210.519531 162.589844 208.714844 L 151.941406 198.070312 L 153.117188 189.878906 C 153.476562 187.351562 151.726562 185.023438 149.199219 184.664062"/><path fill="#2B7F5C" d="M 145.304688 148.667969 C 134.296875 141.738281 121.574219 138.074219 108.511719 138.074219 L 90.035156 138.074219 C 87.492188 138.074219 85.414062 140.148438 85.414062 142.695312 L 85.414062 161.171875 C 85.414062 199.371094 116.503906 230.457031 154.703125 230.457031 L 168.5625 230.457031 C 171.105469 230.457031 173.179688 228.382812 173.179688 225.839844 C 173.179688 223.296875 171.105469 221.21875 168.5625 221.21875 L 154.703125 221.21875 C 121.59375 221.21875 94.652344 194.28125 94.652344 161.171875 L 94.652344 147.3125 L 108.511719 147.3125 C 119.824219 147.3125 130.851562 150.488281 140.375 156.480469 C 142.523438 157.832031 145.375 157.199219 146.746094 155.035156 C 148.101562 152.886719 147.449219 150.039062 145.304688 148.667969"/><g clip-path="url(#a)"><path fill="#2B7F5C" d="M 299.253906 276.417969 L 289.453125 286.214844 L 269.859375 266.617188 L 279.65625 256.820312 C 285.050781 251.425781 293.839844 251.425781 299.253906 256.820312 C 301.867188 259.4375 303.3125 262.917969 303.3125 266.617188 C 303.3125 270.316406 301.867188 273.800781 299.253906 276.417969 Z M 282.921875 305.808594 L 250.261719 273.148438 L 256.796875 266.617188 L 289.453125 299.277344 Z M 325.507812 183.652344 C 322.945312 113.605469 266.195312 55.164062 196.332031 50.617188 C 157.410156 48.109375 120.546875 61.261719 92.308594 87.730469 C 64.429688 113.839844 48.460938 150.707031 48.460938 188.886719 C 48.460938 261.152344 104.847656 321.851562 176.824219 327.082031 C 177.167969 327.117188 177.492188 327.117188 177.816406 327.117188 C 181.28125 327.117188 184.65625 325.800781 187.21875 323.421875 C 190.035156 320.804688 191.65625 317.085938 191.65625 313.242188 L 191.65625 239.695312 C 191.65625 237.152344 189.582031 235.078125 187.039062 235.078125 C 184.492188 235.078125 182.417969 237.152344 182.417969 239.695312 L 182.417969 313.242188 C 182.417969 314.542969 181.894531 315.769531 180.921875 316.652344 C 179.984375 317.539062 178.773438 317.988281 177.511719 317.878906 C 110.335938 312.992188 57.699219 256.332031 57.699219 188.886719 C 57.699219 152.726562 72.226562 119.199219 98.625 94.480469 C 124.984375 69.777344 159.503906 57.472656 195.71875 59.835938 C 260.925781 64.078125 313.886719 118.625 316.285156 183.996094 C 317.097656 206.171875 312.226562 227.96875 302.300781 247.457031 C 293.332031 241.429688 281.027344 242.367188 273.125 250.289062 L 263.328125 260.085938 L 260.0625 256.820312 C 258.328125 255.089844 255.261719 255.089844 253.53125 256.820312 L 240.464844 269.882812 C 238.660156 271.6875 238.660156 274.613281 240.464844 276.417969 L 246.996094 282.949219 L 233.933594 296.011719 C 232.128906 297.816406 232.128906 300.738281 233.933594 302.542969 C 234.816406 303.445312 236.007812 303.898438 237.183594 303.898438 C 238.371094 303.898438 239.546875 303.445312 240.464844 302.542969 L 253.53125 289.480469 L 266.59375 302.542969 L 253.53125 315.605469 C 251.726562 317.410156 251.726562 320.335938 253.53125 322.140625 C 254.429688 323.042969 255.605469 323.492188 256.796875 323.492188 C 257.96875 323.492188 259.160156 323.042969 260.0625 322.140625 L 273.125 309.074219 L 279.65625 315.605469 C 280.523438 316.472656 281.695312 316.960938 282.921875 316.960938 C 284.148438 316.960938 285.324219 316.472656 286.1875 315.605469 L 299.253906 302.542969 C 301.058594 300.738281 301.058594 297.816406 299.253906 296.011719 L 295.988281 292.746094 L 305.785156 282.949219 C 310.152344 278.582031 312.550781 272.789062 312.550781 266.617188 C 312.550781 262.25 311.289062 258.101562 309.050781 254.492188 C 320.6875 232.894531 326.425781 208.480469 325.507812 183.652344"/></g></svg>