<svg xmlns="http://www.w3.org/2000/svg" width="216.514" height="35.316" viewBox="0 0 216.514 35.316">
  <g id="Group_2" data-name="Group 2" transform="translate(85.203 481.881)">
    <g id="Group_1" data-name="Group 1" transform="translate(-85.203 -481.881)">
      <path id="Path_1" data-name="Path 1" d="M-67.545-481.881a17.658,17.658,0,0,1,17.658,17.658,17.658,17.658,0,0,1-17.658,17.658A17.658,17.658,0,0,1-85.2-464.223a17.658,17.658,0,0,1,17.658-17.658Z" transform="translate(85.203 481.881)" fill="#ef5713"/>
      <path id="Path_2" data-name="Path 2" d="M-65.783-460.336l.716-1.681h-1.89l1.174,1.681Zm-.308-3.45,1.024,1.768.754-1.768Zm0,0,1.046-2.139h-2.276l1.23,2.139Zm-5.76-2.139,2.259,4.4,2.271-4.4Zm2.259,4.4-2.384,4.6h4.743l-1.132-2.213-1.227-2.389Zm1.166-2.258,1.13,2.46.338-.692h0l.866-1.768Zm1.13,2.46-1.07,2.186h2.072l-1-2.186Zm1.513.989-.511,1.2h1.347l-.836-1.2Zm-1.445,3.41h1.947l-1.013-2.213-.939,2.213Zm2.109,4.105-2.113-4.105-1.753,4.105Zm1.719-4.105h0l-.336-.482-1.209-1.731h3.092l-1.546,2.213Zm-5.873-12.359,3.214-4.192H-71.7l2.426,4.192Zm3.7,0h-3.7l1.953,3.361,1.748-3.361Zm-6.278,3.361,2.577-3.361h-4.3l1.726,3.361Zm0,0h-6.682l3.255,4.468,3.426-4.468Zm-.125,9-2.127,4.105h5.118l-2.991-4.105Zm-6.776,0h6.776l-3.3-4.531-3.475,4.531Zm8.341,7.45h3.864l-2.438-3.345-1.426,3.345Zm9.392-10.86-.716-1.681h1.891l-1.174,1.681Zm.309-3.45-1.025,1.768-.754-1.768Zm0,0-1.046-2.139h2.276l-1.229,2.139Zm5.76-2.139-2.259,4.4-2.271-4.4Zm-2.259,4.4,2.384,4.6h-4.743l1.132-2.213,1.227-2.389Zm-1.166-2.258-1.13,2.46-.338-.692h0l-.866-1.768Zm-1.13,2.46,1.07,2.186h-2.072l1-2.186Zm-1.513.989.511,1.2h-1.347l.836-1.2Zm1.446,3.41H-61.52l1.012-2.213.939,2.213Zm-2.109,4.105,2.113-4.105,1.753,4.105ZM-63.4-463.785h.911l-.911-2.139h0l-.912,2.139h.912Zm0,4.646h0l.23-.4,1.435-2.479h-3.332l1.666,2.878h0Zm0,6.317h0l1.88-4.105h-3.76l1.45,3.168.429.938h0Zm5.873-16.464-3.214-4.192h5.64l-2.426,4.192Zm-3.7,0h3.7l-1.953,3.361-1.748-3.361Zm6.279,3.361-2.577-3.361h4.3l-1.726,3.361Zm0,0h6.682l-3.255,4.468-3.426-4.468Zm.125,9,2.127,4.105h-5.118l2.991-4.105Zm6.776,0h-6.776l3.3-4.531,3.475,4.531Zm-8.341,7.45h-3.863l2.438-3.345,1.426,3.345Zm-7.01-24h2.658l-2.658-3.466h0l-2.659,3.466H-63.4Zm0,4.192h2.172l-2.172-4.192h0l-2.172,4.192H-63.4Zm0,3.361h1.644l-.992-2.028-.652-1.333h0l-1.645,3.361H-63.4Zm0,16.448h0l.443-.864,1.275-2.481h-3.437l1.719,3.345Zm0,4.318h0l3.146-4.318h-6.293l3.146,4.318Z" transform="translate(81.059 478.709)" fill="#fff"/>
      <path id="Path_3" data-name="Path 3" d="M42.1-465.091H38.3a2.212,2.212,0,0,0-2.205,2.205v21.1h3.8a2.212,2.212,0,0,0,2.205-2.205v-21.1Zm6.345,0H61.316v3.895a2.116,2.116,0,0,1-2.111,2.109h-6.9v2.99h7.5v3.895a2.116,2.116,0,0,1-2.111,2.109H52.31v6.171a2.148,2.148,0,0,1-2.142,2.141H46.306v-21.168a2.147,2.147,0,0,1,2.142-2.14Zm-16.551,0H28.1a2.212,2.212,0,0,0-2.205,2.205v21.1h3.8a2.212,2.212,0,0,0,2.205-2.205v-21.1Zm38.751,0H66.786a2.147,2.147,0,0,0-2.142,2.14v21.168H75.83a2.116,2.116,0,0,0,2.11-2.109v-3.895H70.648v-17.3Z" transform="translate(13.834 471.095)" fill="#131845"/>
      <path id="Path_4" data-name="Path 4" d="M405.356-442.5v-.008l0,.008Z" transform="translate(-229.937 456.588)" fill="#131845"/>
      <path id="Path_5" data-name="Path 5" d="M339.533-445.136h0s.006,0,0,0Z" transform="translate(-187.652 458.276)" fill="#131845"/>
      <path id="Path_6" data-name="Path 6" d="M255.355-445.138h0Z" transform="translate(-133.574 458.278)" fill="#131845"/>
      <path id="Path_7" data-name="Path 7" d="M255.36-445.136h0Z" transform="translate(-133.578 458.276)" fill="#131845"/>
      <path id="Path_8" data-name="Path 8" d="M233.765-449.1h6.259a.835.835,0,0,1,.833.833v1.64a.835.835,0,0,1-.833.833h-5.4a.908.908,0,0,0-.906.906v2.95h6.311a.835.835,0,0,1,.833.833v1.64a.835.835,0,0,1-.833.833h-6.311v2.95a.908.908,0,0,0,.906.905h5.4a.836.836,0,0,1,.833.833v1.639a.835.835,0,0,1-.833.833h-6.259a3.367,3.367,0,0,1-3.357-3.357v-10.913a3.367,3.367,0,0,1,3.357-3.357Z" transform="translate(-117.55 460.819)" fill="#131845"/>
      <path id="Path_9" data-name="Path 9" d="M456.3-449.1h6.259a.836.836,0,0,1,.833.833v1.64a.836.836,0,0,1-.833.833h-5.4a.908.908,0,0,0-.906.906v2.95h6.311a.836.836,0,0,1,.833.833v1.64a.836.836,0,0,1-.833.833h-6.311v2.95a.908.908,0,0,0,.906.905h5.4a.836.836,0,0,1,.833.833v1.639a.836.836,0,0,1-.833.833H456.3a3.366,3.366,0,0,1-3.357-3.357v-10.913A3.367,3.367,0,0,1,456.3-449.1Z" transform="translate(-260.508 460.819)" fill="#131845"/>
      <path id="Path_10" data-name="Path 10" d="M381.991-448.262V-432.3a.835.835,0,0,0,.833.833h1.64a.835.835,0,0,0,.833-.833v-15.961a.835.835,0,0,0-.833-.833h-1.64a.835.835,0,0,0-.833.833Z" transform="translate(-214.928 460.819)" fill="#131845"/>
      <path id="Path_11" data-name="Path 11" d="M343.2-448.262V-432.3a.836.836,0,0,0,.833.833h1.639a.836.836,0,0,0,.833-.833v-6.186h1.717l3.759,6.4a1.515,1.515,0,0,0,1.2.619h1.8c.664,0,.829-.653.513-1.19l-3.711-6.319a5.3,5.3,0,0,0,3.063-4.787v-.052a5.294,5.294,0,0,0-5.278-5.278h-5.536a.836.836,0,0,0-.833.833Zm3.306,6.51v-4.078h3.018a2.051,2.051,0,0,1,2.033,2.039,2.051,2.051,0,0,1-2.033,2.039Z" transform="translate(-190.007 460.819)" fill="#131845"/>
      <path id="Path_12" data-name="Path 12" d="M302.012-448.262v10.375c0,.022,0,.043,0,.065v.187a6.186,6.186,0,0,0,6.168,6.168h0a6.186,6.186,0,0,0,6.168-6.168v-10.627a.835.835,0,0,0-.833-.833h-1.64a.835.835,0,0,0-.833.833v10.375c0,.022,0,.043,0,.065v.2a2.873,2.873,0,0,1-2.865,2.865h0a2.873,2.873,0,0,1-2.865-2.865v-10.639a.835.835,0,0,0-.833-.833h-1.64a.835.835,0,0,0-.833.833Z" transform="translate(-163.549 460.819)" fill="#131845"/>
      <path id="Path_13" data-name="Path 13" d="M408.308-449.1H397.464a.835.835,0,0,0-.833.833v1.64a.835.835,0,0,0,.833.833h3.769V-432.3a.836.836,0,0,0,.833.833h1.639a.836.836,0,0,0,.833-.833V-445.79h3.769a.835.835,0,0,0,.833-.833v-1.64a.835.835,0,0,0-.833-.833Z" transform="translate(-224.333 460.819)" fill="#131845"/>
      <path id="Path_14" data-name="Path 14" d="M437.083-448.262V-432.3a.835.835,0,0,0,.833.833h1.64a.835.835,0,0,0,.833-.833v-15.961a.835.835,0,0,0-.833-.833h-1.64a.835.835,0,0,0-.833.833Z" transform="translate(-250.32 460.819)" fill="#131845"/>
      <path id="Path_15" data-name="Path 15" d="M275.861-449.094h-3.313l-.051,0h-.166a7.05,7.05,0,0,0-1.608.178,5.749,5.749,0,0,0-1.634.649,5.1,5.1,0,0,0-1.444,1.291,6.327,6.327,0,0,0-1.016,2.072,10.4,10.4,0,0,0-.383,2.97v3.307a10.206,10.206,0,0,0,.384,2.936,6.365,6.365,0,0,0,1.016,2.064,5.224,5.224,0,0,0,1.442,1.3,5.756,5.756,0,0,0,1.634.669,6.825,6.825,0,0,0,1.611.19h.165l.052,0h3.313a.835.835,0,0,0,.833-.833v-1.64a.835.835,0,0,0-.833-.833h-3.5a2.591,2.591,0,0,1-1.413-.288,2.431,2.431,0,0,1-.943-1.2,6.435,6.435,0,0,1-.369-2.369v-3.307a7.483,7.483,0,0,1,.213-1.928,2.308,2.308,0,0,1,2.513-1.928h3.5a.835.835,0,0,0,.833-.833v-1.64a.835.835,0,0,0-.833-.833Z" transform="translate(-140.572 460.818)" fill="#131845"/>
      <path id="Path_16" data-name="Path 16" d="M201.344-449.1h-4.372c-2.2,0-4.606.663-5.581,2.97a4.955,4.955,0,0,0,1.362,5.934,6.585,6.585,0,0,0,1.827.889c.7.219,1.4.411,2.109.565a10.458,10.458,0,0,1,1.079.283,2.77,2.77,0,0,1,.772.382,1.913,1.913,0,0,1-.051,2.869,3.276,3.276,0,0,1-1.829.372h-4.8a.828.828,0,0,0-.8.848v1.669a.828.828,0,0,0,.8.848h4.8a10.231,10.231,0,0,0,2.243-.273,5.893,5.893,0,0,0,2.041-.886,4.433,4.433,0,0,0,1.4-1.628,5.5,5.5,0,0,0,.528-2.529,5.285,5.285,0,0,0-.49-2.436A4.177,4.177,0,0,0,201.1-440.7a6.321,6.321,0,0,0-1.825-.875,22.891,22.891,0,0,1-3.909-1.135,1.773,1.773,0,0,1,.051-2.662,2.957,2.957,0,0,1,1.593-.354h4.328a.828.828,0,0,0,.8-.848v-1.669a.828.828,0,0,0-.8-.848Z" transform="translate(-92.205 460.819)" fill="#131845"/>
      <path id="Path_17" data-name="Path 17" d="M497.337-449.1h-4.372c-2.2,0-4.606.663-5.581,2.97a4.955,4.955,0,0,0,1.362,5.934,6.589,6.589,0,0,0,1.827.889c.7.219,1.4.411,2.109.565a10.425,10.425,0,0,1,1.079.283,2.772,2.772,0,0,1,.772.382,1.913,1.913,0,0,1-.051,2.869,3.278,3.278,0,0,1-1.829.372h-4.8a.828.828,0,0,0-.8.848v1.669a.828.828,0,0,0,.8.848h4.8a10.234,10.234,0,0,0,2.243-.273,5.9,5.9,0,0,0,2.041-.886,4.44,4.44,0,0,0,1.4-1.628,5.5,5.5,0,0,0,.528-2.529,5.285,5.285,0,0,0-.49-2.436A4.177,4.177,0,0,0,497.1-440.7a6.321,6.321,0,0,0-1.825-.875,22.9,22.9,0,0,1-3.909-1.135,1.774,1.774,0,0,1,.051-2.662,2.957,2.957,0,0,1,1.594-.354h4.328a.828.828,0,0,0,.8-.848v-1.669a.828.828,0,0,0-.8-.848Z" transform="translate(-282.355 460.819)" fill="#131845"/>
    </g>
  </g>
</svg>
