<svg width="27" height="27" viewBox="0 0 27 27" fill="none" xmlns="http://www.w3.org/2000/svg">
<path d="M1.94153 27H25.0585C26.1291 27 27 26.1291 27 25.0585V1.94148C27 0.870951 26.1291 0 25.0585 0H1.94153C0.870951 0 0 0.870951 0 1.94148V25.0585C0 26.1291 0.870951 27 1.94153 27ZM25.0585 26.1563H1.94153C1.33627 26.1563 0.843738 25.6638 0.843738 25.0585V5.70782H26.1563V25.0585C26.1563 25.6638 25.6638 26.1563 25.0585 26.1563ZM1.94153 0.843738H25.0585C25.6638 0.843738 26.1563 1.33616 26.1563 1.94148V4.86408H0.843738V1.94148C0.843738 1.33616 1.33622 0.843738 1.94153 0.843738ZM2.87089 2.85394C2.87089 2.62093 3.05978 2.43204 3.29279 2.43204H5.45982C5.69283 2.43204 5.88172 2.62093 5.88172 2.85394C5.88172 3.08694 5.69283 3.27583 5.45982 3.27583H3.29279C3.05973 3.27583 2.87089 3.08689 2.87089 2.85394ZM7.01485 2.85394C7.01485 2.62093 7.20375 2.43204 7.43675 2.43204H9.79385C10.0269 2.43204 10.2157 2.62093 10.2157 2.85394C10.2157 3.08694 10.0269 3.27583 9.79385 3.27583H7.43675C7.20375 3.27583 7.01485 3.08689 7.01485 2.85394ZM11.3489 2.85394C11.3489 2.62093 11.5378 2.43204 11.7708 2.43204H22.91C23.143 2.43204 23.3319 2.62093 23.3319 2.85394C23.3319 3.08694 23.143 3.27583 22.91 3.27583H11.7708C11.5378 3.27583 11.3489 3.08689 11.3489 2.85394ZM22.0087 9.58949C21.5808 9.3424 21.0809 9.27703 20.601 9.40576C20.1212 9.53432 19.7209 9.84078 19.4739 10.2686L14.4856 18.9086C14.4529 18.9653 14.4338 19.0288 14.4299 19.0943L14.2616 21.8978H4.48651C4.2535 21.8978 4.06461 22.0867 4.06461 22.3197C4.06461 22.5527 4.2535 22.7416 4.48651 22.7416H14.6589C14.7415 22.7416 14.8224 22.7174 14.8914 22.6718L17.5667 20.9054C17.6214 20.8693 17.6668 20.8209 17.6996 20.7643L22.6879 12.1243C23.1994 11.2381 22.8947 10.101 22.0087 9.58949ZM15.1305 21.5028L15.2311 19.8262L16.5321 20.5773L15.1305 21.5028ZM17.1798 19.977L15.4272 18.9651L18.7839 13.1512L20.5365 14.1631L17.1798 19.977ZM21.9572 11.7024L20.9584 13.4323L19.2058 12.4204L20.2045 10.6905C20.3389 10.4577 20.5572 10.291 20.8194 10.2207C21.0816 10.1504 21.3541 10.1858 21.5868 10.3201C22.07 10.5991 22.2362 11.2192 21.9572 11.7024ZM4.06461 18.0613C4.06461 17.8283 4.2535 17.6394 4.48651 17.6394H13.59C13.823 17.6394 14.0119 17.8283 14.0119 18.0613C14.0119 18.2943 13.823 18.4832 13.59 18.4832H4.48651C4.25345 18.4832 4.06461 18.2942 4.06461 18.0613ZM4.06461 13.8028C4.06461 13.5698 4.2535 13.3809 4.48651 13.3809H14.6589C14.8919 13.3809 15.0808 13.5698 15.0808 13.8028C15.0808 14.0358 14.8919 14.2247 14.6589 14.2247H4.48651C4.25345 14.2247 4.06461 14.0358 4.06461 13.8028ZM4.06461 9.54442C4.06461 9.31142 4.2535 9.12253 4.48651 9.12253H14.6589C14.8919 9.12253 15.0808 9.31142 15.0808 9.54442C15.0808 9.77743 14.8919 9.96632 14.6589 9.96632H4.48651C4.25345 9.96626 4.06461 9.77737 4.06461 9.54442Z" fill="#212121"/>
</svg>
