<svg width="124" height="131" viewBox="0 0 124 131" fill="none" xmlns="http://www.w3.org/2000/svg">
<path opacity="0.3" d="M123.715 8.31536L122.927 0L115.045 2.6398C101.537 7.35543 87.1112 8.80252 72.9413 6.86348C58.0516 4.54185 42.8112 6.60489 29.064 12.803C21.7761 15.9209 15.3803 20.8208 10.4586 27.0567C5.53704 33.2925 2.24604 40.6661 0.885278 48.5063C-0.879148 58.6345 0.00354082 69.0494 3.44698 78.732C5.66419 73.7038 8.25511 68.8504 11.1978 64.2131C17.8726 54.3458 27.1215 46.5144 37.9314 41.5768C48.3453 36.7996 59.7281 34.5394 71.1678 34.9773C60.2774 36.6503 49.8532 40.5835 40.5588 46.5264C36.0756 49.3566 31.9701 52.7498 28.3414 56.6237C24.8711 60.4958 21.8112 64.7202 19.2113 69.2287C14.3278 78.6529 10.853 88.7485 8.8988 99.1904C6.79238 109.666 5.64903 120.314 5.4832 131H18.6201C19.2376 121.416 20.5326 111.889 22.4955 102.49C31.6088 107.435 41.8288 109.956 52.185 109.816C61.8437 109.809 71.4031 107.857 80.298 104.074C130.284 82.6257 123.715 11.2851 123.715 8.31536Z" fill="url(#paint0_linear_11_948)"/>
<defs>
<linearGradient id="paint0_linear_11_948" x1="62" y1="0" x2="62" y2="131" gradientUnits="userSpaceOnUse">
<stop stop-color="#83B645"/>
<stop offset="1" stop-color="#83B645" stop-opacity="0"/>
</linearGradient>
</defs>
</svg>
