<svg xmlns="http://www.w3.org/2000/svg" width="375" viewBox="0 0 375 375" height="375" version="1.0"><defs><clipPath id="a"><path d="M 37.5 43.332031 L 325.5 43.332031 L 325.5 331.332031 L 37.5 331.332031 Z M 37.5 43.332031"/></clipPath><clipPath id="b"><path d="M 0 291 L 0.246094 291 L 0.246094 294.75 L 0 294.75 Z M 0 291"/></clipPath><clipPath id="c"><path d="M 181.667969 233 L 240 233 L 240 291.476562 L 181.667969 291.476562 Z M 181.667969 233"/></clipPath><clipPath id="d"><path d="M 181.667969 233 L 208 233 L 208 260 L 181.667969 260 Z M 181.667969 233"/></clipPath><clipPath id="e"><path d="M 214 265 L 240 265 L 240 291.476562 L 214 291.476562 Z M 214 265"/></clipPath><clipPath id="f"><path d="M 70.480469 159 L 88 159 L 88 187.308594 L 70.480469 187.308594 Z M 70.480469 159"/></clipPath><clipPath id="g"><path d="M 91 153 L 109 153 L 109 187.308594 L 91 187.308594 Z M 91 153"/></clipPath><clipPath id="h"><path d="M 111 142 L 129 142 L 129 187.308594 L 111 187.308594 Z M 111 142"/></clipPath><clipPath id="i"><path d="M 132 129 L 149.230469 129 L 149.230469 187.308594 L 132 187.308594 Z M 132 129"/></clipPath><clipPath id="j"><path d="M 70.480469 108.558594 L 139 108.558594 L 139 147 L 70.480469 147 Z M 70.480469 108.558594"/></clipPath><clipPath id="k"><path d="M 40.980469 223.226562 L 149.730469 223.226562 L 149.730469 331.976562 L 40.980469 331.976562 Z M 40.980469 223.226562"/></clipPath><clipPath id="l"><path d="M 41.054688 206.082031 L 166.890625 206.082031 L 166.890625 331.320312 L 41.054688 331.320312 Z M 41.054688 206.082031"/></clipPath></defs><path fill="#FFF" d="M-37.5 -37.5H412.5V412.5H-37.5z"/><path fill="#FFF" d="M-37.5 -37.5H412.5V412.5H-37.5z"/><g clip-path="url(#a)"><path fill="#2B7F5C" d="M 181.5 43.332031 C 101.96875 43.332031 37.5 107.804688 37.5 187.332031 C 37.5 266.855469 101.976562 331.332031 181.496094 331.332031 C 181.496094 331.332031 181.492188 331.332031 181.5 331.332031 C 261.023438 331.332031 325.5 266.855469 325.5 187.332031 C 325.5 107.804688 261.023438 43.332031 181.5 43.332031 Z M 298.71875 248.082031 L 289.5 242.757812 L 305.101562 233.757812 C 304.476562 235.410156 303.824219 237.070312 303.132812 238.714844 C 301.777344 241.90625 300.3125 245.023438 298.71875 248.082031 Z M 310.171875 216.96875 L 277.492188 235.832031 L 265.496094 228.90625 L 312.730469 201.632812 C 312.175781 206.808594 311.324219 211.925781 310.171875 216.96875 Z M 310.910156 161.121094 L 229.496094 208.121094 L 217.5 201.183594 L 307.851562 149.023438 C 309.0625 153.007812 310.085938 157.042969 310.910156 161.121094 Z M 312.828125 173.867188 C 313.265625 178.316406 313.496094 182.808594 313.496094 187.332031 L 253.5 221.980469 L 241.492188 215.046875 Z M 303.773438 137.527344 L 205.492188 194.257812 L 193.496094 187.332031 L 298.71875 126.582031 C 300.300781 129.640625 301.777344 132.765625 303.132812 135.957031 C 303.351562 136.480469 303.5625 137.003906 303.773438 137.527344 Z M 187.492188 163.085938 L 285.757812 106.355469 C 288.234375 109.53125 290.554688 112.8125 292.71875 116.191406 L 187.496094 176.941406 L 187.496094 163.085938 Z M 187.492188 107.660156 L 247.523438 73 C 251.417969 75.25 255.1875 77.699219 258.828125 80.335938 L 187.496094 121.515625 L 187.496094 107.660156 Z M 187.492188 55.472656 C 192.75 55.703125 197.953125 56.25 203.085938 57.09375 L 187.492188 66.089844 Z M 277.8125 97.082031 L 187.496094 149.226562 L 187.496094 135.371094 L 268.863281 88.394531 C 270.902344 90.195312 272.898438 92.058594 274.839844 93.992188 C 275.851562 95.007812 276.84375 96.042969 277.8125 97.082031 Z M 234.742188 66.523438 L 187.492188 93.800781 L 187.492188 79.949219 L 220.171875 61.082031 C 224.460938 62.402344 228.707031 63.9375 232.882812 65.703125 C 233.503906 65.96875 234.128906 66.246094 234.742188 66.523438 Z M 274.839844 280.671875 C 262.710938 292.800781 248.597656 302.3125 232.882812 308.964844 C 216.601562 315.847656 199.324219 319.328125 181.496094 319.328125 C 163.675781 319.328125 146.386719 315.847656 130.125 308.964844 C 114.410156 302.3125 100.289062 292.800781 88.160156 280.671875 C 76.035156 268.542969 66.515625 254.429688 59.867188 238.707031 C 52.984375 222.4375 49.496094 205.15625 49.496094 187.332031 C 49.496094 169.507812 52.984375 152.222656 59.867188 135.957031 C 66.511719 120.242188 76.03125 106.121094 88.160156 93.992188 C 100.285156 81.867188 114.40625 72.351562 130.121094 65.699219 C 144.554688 59.597656 159.796875 56.167969 175.496094 55.46875 L 175.496094 187.332031 C 175.496094 189.546875 176.710938 191.480469 178.5 192.527344 L 292.71875 258.472656 C 287.609375 266.453125 281.632812 273.871094 274.839844 280.671875 Z M 274.839844 280.671875"/></g><g clip-path="url(#b)"><path fill="#008037" d="M -1.476562 294.738281 L -88.875 294.738281 C -89.753906 294.738281 -90.464844 294.027344 -90.464844 293.152344 C -90.464844 292.277344 -89.753906 291.566406 -88.875 291.566406 L -1.476562 291.566406 C -0.597656 291.566406 0.113281 292.277344 0.113281 293.152344 C 0.113281 294.027344 -0.597656 294.738281 -1.476562 294.738281 Z M -1.476562 294.738281"/></g><g clip-path="url(#c)"><path fill="#2B7F5C" d="M 184.613281 291.363281 C 183.933594 291.363281 183.207031 291.089844 182.710938 290.546875 C 181.667969 289.503906 181.667969 287.78125 182.710938 286.691406 L 235.269531 234.132812 C 236.3125 233.089844 238.082031 233.089844 239.125 234.132812 C 240.167969 235.175781 240.167969 236.898438 239.125 237.988281 L 186.5625 290.546875 C 186.019531 291.089844 185.339844 291.363281 184.613281 291.363281 Z M 184.613281 291.363281"/></g><g clip-path="url(#d)"><path fill="#2B7F5C" d="M 194.816406 259.210938 C 187.699219 259.210938 181.894531 253.40625 181.894531 246.285156 C 181.894531 239.167969 187.699219 233.363281 194.816406 233.363281 C 201.9375 233.363281 207.742188 239.167969 207.742188 246.285156 C 207.742188 253.40625 201.984375 259.210938 194.816406 259.210938 Z M 194.816406 238.804688 C 190.691406 238.804688 187.335938 242.160156 187.335938 246.285156 C 187.335938 250.414062 190.691406 253.769531 194.816406 253.769531 C 198.945312 253.769531 202.300781 250.414062 202.300781 246.285156 C 202.300781 242.160156 198.945312 238.804688 194.816406 238.804688 Z M 194.816406 238.804688"/></g><g clip-path="url(#e)"><path fill="#2B7F5C" d="M 227.015625 291.363281 C 219.894531 291.363281 214.089844 285.558594 214.089844 278.4375 C 214.089844 271.320312 219.894531 265.515625 227.015625 265.515625 C 234.136719 265.515625 239.941406 271.273438 239.941406 278.394531 C 239.941406 285.511719 234.136719 291.363281 227.015625 291.363281 Z M 227.015625 270.910156 C 222.890625 270.910156 219.53125 274.265625 219.53125 278.394531 C 219.53125 282.519531 222.890625 285.921875 227.015625 285.921875 C 231.140625 285.921875 234.5 282.566406 234.5 278.4375 C 234.5 274.3125 231.140625 270.910156 227.015625 270.910156 Z M 227.015625 270.910156"/></g><g clip-path="url(#f)"><path fill="#2B7F5C" d="M 85.886719 159.917969 L 72.191406 159.917969 C 71.246094 159.917969 70.480469 160.683594 70.480469 161.628906 L 70.480469 185.597656 C 70.480469 186.542969 71.246094 187.308594 72.191406 187.308594 L 85.886719 187.308594 C 86.832031 187.308594 87.601562 186.542969 87.601562 185.597656 L 87.601562 161.628906 C 87.601562 160.683594 86.832031 159.917969 85.886719 159.917969 Z M 84.175781 183.886719 L 73.902344 183.886719 L 73.902344 163.339844 L 84.175781 163.339844 Z M 84.175781 183.886719"/></g><g clip-path="url(#g)"><path fill="#2B7F5C" d="M 106.429688 153.070312 L 92.734375 153.070312 C 91.789062 153.070312 91.023438 153.835938 91.023438 154.78125 L 91.023438 185.597656 C 91.023438 186.542969 91.789062 187.308594 92.734375 187.308594 L 106.429688 187.308594 C 107.375 187.308594 108.144531 186.542969 108.144531 185.597656 L 108.144531 154.78125 C 108.144531 153.835938 107.375 153.070312 106.429688 153.070312 Z M 104.71875 183.886719 L 94.449219 183.886719 L 94.449219 156.492188 L 104.71875 156.492188 Z M 104.71875 183.886719"/></g><g clip-path="url(#h)"><path fill="#2B7F5C" d="M 126.976562 142.796875 L 113.277344 142.796875 C 112.332031 142.796875 111.566406 143.566406 111.566406 144.511719 L 111.566406 185.597656 C 111.566406 186.542969 112.332031 187.308594 113.277344 187.308594 L 126.976562 187.308594 C 127.921875 187.308594 128.6875 186.542969 128.6875 185.597656 L 128.6875 144.511719 C 128.6875 143.566406 127.921875 142.796875 126.976562 142.796875 Z M 125.261719 183.886719 L 114.992188 183.886719 L 114.992188 146.222656 L 125.261719 146.222656 Z M 125.261719 183.886719"/></g><g clip-path="url(#i)"><path fill="#2B7F5C" d="M 147.519531 129.101562 L 133.824219 129.101562 C 132.875 129.101562 132.109375 129.871094 132.109375 130.8125 L 132.109375 185.597656 C 132.109375 186.542969 132.875 187.308594 133.824219 187.308594 L 147.519531 187.308594 C 148.464844 187.308594 149.230469 186.542969 149.230469 185.597656 L 149.230469 130.8125 C 149.230469 129.871094 148.464844 129.101562 147.519531 129.101562 Z M 145.804688 183.886719 L 135.535156 183.886719 L 135.535156 132.527344 L 145.804688 132.527344 Z M 145.804688 183.886719"/></g><g clip-path="url(#j)"><path fill="#2B7F5C" d="M 136.78125 122.253906 C 137.730469 122.253906 138.496094 121.488281 138.496094 120.542969 L 138.496094 110.269531 C 138.496094 110.234375 138.476562 110.207031 138.472656 110.171875 C 138.46875 110.054688 138.4375 109.941406 138.402344 109.828125 C 138.375 109.722656 138.355469 109.621094 138.308594 109.527344 C 138.261719 109.433594 138.199219 109.355469 138.136719 109.273438 C 138.0625 109.175781 137.992188 109.082031 137.902344 109 C 137.875 108.976562 137.863281 108.945312 137.835938 108.925781 C 137.78125 108.878906 137.710938 108.867188 137.652344 108.832031 C 137.546875 108.769531 137.449219 108.710938 137.332031 108.671875 C 137.21875 108.632812 137.109375 108.617188 136.992188 108.601562 C 136.921875 108.59375 136.855469 108.558594 136.78125 108.558594 L 126.976562 108.558594 C 126.027344 108.558594 125.261719 109.324219 125.261719 110.269531 C 125.261719 111.214844 126.027344 111.984375 126.976562 111.984375 L 133.121094 111.984375 C 122.566406 123.996094 99.203125 142.796875 72.191406 142.796875 C 71.246094 142.796875 70.480469 143.566406 70.480469 144.511719 C 70.480469 145.453125 71.246094 146.222656 72.191406 146.222656 C 99.867188 146.222656 123.796875 127.445312 135.070312 114.945312 L 135.070312 120.542969 C 135.070312 121.488281 135.835938 122.253906 136.78125 122.253906 Z M 136.78125 122.253906"/></g><g clip-path="url(#k)"><path fill="#FFF" d="M 149.730469 277.601562 C 149.730469 279.382812 149.644531 281.15625 149.46875 282.929688 C 149.292969 284.703125 149.03125 286.460938 148.683594 288.207031 C 148.335938 289.953125 147.90625 291.679688 147.386719 293.382812 C 146.871094 295.089844 146.273438 296.761719 145.589844 298.410156 C 144.910156 300.054688 144.148438 301.660156 143.308594 303.234375 C 142.46875 304.804688 141.554688 306.328125 140.566406 307.808594 C 139.578125 309.289062 138.515625 310.71875 137.386719 312.09375 C 136.257812 313.472656 135.0625 314.789062 133.804688 316.050781 C 132.542969 317.308594 131.226562 318.503906 129.851562 319.632812 C 128.472656 320.761719 127.042969 321.820312 125.5625 322.8125 C 124.082031 323.800781 122.558594 324.714844 120.988281 325.554688 C 119.417969 326.394531 117.808594 327.15625 116.164062 327.835938 C 114.519531 328.519531 112.84375 329.117188 111.140625 329.632812 C 109.433594 330.152344 107.710938 330.582031 105.964844 330.929688 C 104.214844 331.277344 102.457031 331.539062 100.683594 331.714844 C 98.914062 331.886719 97.136719 331.976562 95.355469 331.976562 C 93.574219 331.976562 91.796875 331.886719 90.023438 331.714844 C 88.253906 331.539062 86.492188 331.277344 84.746094 330.929688 C 83 330.582031 81.273438 330.152344 79.570312 329.632812 C 77.867188 329.117188 76.191406 328.519531 74.546875 327.835938 C 72.902344 327.15625 71.292969 326.394531 69.722656 325.554688 C 68.152344 324.714844 66.625 323.800781 65.144531 322.8125 C 63.664062 321.820312 62.238281 320.761719 60.859375 319.632812 C 59.484375 318.503906 58.164062 317.308594 56.90625 316.050781 C 55.648438 314.789062 54.453125 313.472656 53.324219 312.09375 C 52.191406 310.71875 51.132812 309.289062 50.144531 307.808594 C 49.15625 306.328125 48.238281 304.804688 47.402344 303.234375 C 46.5625 301.660156 45.800781 300.054688 45.117188 298.410156 C 44.4375 296.761719 43.839844 295.089844 43.320312 293.382812 C 42.804688 291.679688 42.371094 289.953125 42.023438 288.207031 C 41.675781 286.460938 41.417969 284.703125 41.242188 282.929688 C 41.066406 281.15625 40.980469 279.382812 40.980469 277.601562 C 40.980469 275.820312 41.066406 274.042969 41.242188 272.269531 C 41.417969 270.5 41.675781 268.738281 42.023438 266.992188 C 42.371094 265.246094 42.804688 263.519531 43.320312 261.816406 C 43.839844 260.113281 44.4375 258.4375 45.117188 256.792969 C 45.800781 255.148438 46.5625 253.539062 47.402344 251.96875 C 48.238281 250.398438 49.15625 248.871094 50.144531 247.390625 C 51.132812 245.910156 52.191406 244.480469 53.324219 243.105469 C 54.453125 241.730469 55.648438 240.410156 56.90625 239.152344 C 58.164062 237.890625 59.484375 236.699219 60.859375 235.566406 C 62.238281 234.4375 63.664062 233.378906 65.144531 232.390625 C 66.625 231.398438 68.152344 230.484375 69.722656 229.644531 C 71.292969 228.804688 72.902344 228.046875 74.546875 227.363281 C 76.191406 226.683594 77.867188 226.082031 79.570312 225.566406 C 81.273438 225.050781 83 224.617188 84.746094 224.269531 C 86.492188 223.921875 88.253906 223.660156 90.023438 223.488281 C 91.796875 223.3125 93.574219 223.226562 95.355469 223.226562 C 97.136719 223.226562 98.914062 223.3125 100.683594 223.488281 C 102.457031 223.660156 104.214844 223.921875 105.964844 224.269531 C 107.710938 224.617188 109.433594 225.050781 111.140625 225.566406 C 112.84375 226.082031 114.519531 226.683594 116.164062 227.363281 C 117.808594 228.046875 119.417969 228.804688 120.988281 229.644531 C 122.558594 230.484375 124.082031 231.398438 125.5625 232.390625 C 127.042969 233.378906 128.472656 234.4375 129.851562 235.566406 C 131.226562 236.699219 132.542969 237.890625 133.804688 239.152344 C 135.0625 240.410156 136.257812 241.730469 137.386719 243.105469 C 138.515625 244.480469 139.578125 245.910156 140.566406 247.390625 C 141.554688 248.871094 142.46875 250.398438 143.308594 251.96875 C 144.148438 253.539062 144.910156 255.148438 145.589844 256.792969 C 146.273438 258.4375 146.871094 260.113281 147.386719 261.816406 C 147.90625 263.519531 148.335938 265.246094 148.683594 266.992188 C 149.03125 268.738281 149.292969 270.5 149.46875 272.269531 C 149.644531 274.042969 149.730469 275.820312 149.730469 277.601562 Z M 149.730469 277.601562"/></g><path fill="#2B7F5C" d="M 125.667969 239.730469 L 125.667969 245.546875 L 112.882812 245.546875 C 113.046875 245.714844 113.207031 245.886719 113.363281 246.066406 C 113.734375 246.488281 114.085938 246.941406 114.414062 247.429688 L 114.410156 247.429688 C 114.761719 247.941406 115.078125 248.484375 115.351562 249.0625 C 115.503906 249.378906 115.644531 249.710938 115.773438 250.050781 L 125.667969 250.050781 L 125.667969 257.226562 L 116.648438 257.226562 C 116.523438 258.335938 116.296875 259.394531 115.96875 260.398438 C 115.519531 261.78125 114.886719 263.054688 114.070312 264.21875 C 113.273438 265.359375 112.316406 266.40625 111.207031 267.355469 C 110.105469 268.296875 108.859375 269.136719 107.472656 269.878906 L 107.464844 269.882812 C 106.101562 270.601562 104.621094 271.230469 103.023438 271.765625 C 102.035156 272.09375 101.011719 272.386719 99.945312 272.640625 L 101.375 274.539062 L 101.375 274.542969 C 101.894531 275.238281 102.453125 275.96875 103.054688 276.742188 C 103.613281 277.457031 104.253906 278.265625 104.96875 279.15625 L 104.972656 279.164062 C 105.640625 280.007812 106.324219 280.839844 107.019531 281.667969 C 107.761719 282.546875 108.484375 283.382812 109.195312 284.175781 L 109.214844 284.199219 C 109.9375 285.042969 110.582031 285.777344 111.152344 286.398438 C 111.734375 287.03125 112.296875 287.617188 112.847656 288.152344 C 113.363281 288.65625 113.863281 289.113281 114.347656 289.527344 C 114.832031 289.941406 115.300781 290.304688 115.742188 290.617188 L 115.742188 290.621094 C 116.171875 290.910156 116.605469 291.171875 117.042969 291.402344 C 117.472656 291.632812 117.910156 291.828125 118.34375 291.992188 L 118.375 292 C 118.808594 292.175781 119.273438 292.328125 119.761719 292.464844 C 120.242188 292.59375 120.773438 292.714844 121.34375 292.828125 L 122.523438 293.058594 L 122.339844 294.234375 L 121.785156 297.851562 L 121.625 298.914062 L 120.546875 298.90625 C 119.050781 298.898438 117.675781 298.867188 116.425781 298.8125 C 115.125 298.757812 113.917969 298.679688 112.804688 298.578125 L 112.789062 298.578125 C 111.6875 298.472656 110.65625 298.328125 109.699219 298.148438 C 108.710938 297.960938 107.804688 297.742188 106.984375 297.480469 C 106.152344 297.21875 105.339844 296.894531 104.554688 296.507812 C 103.777344 296.128906 103.039062 295.691406 102.335938 295.199219 C 101.660156 294.726562 100.96875 294.171875 100.265625 293.539062 C 99.597656 292.9375 98.933594 292.269531 98.277344 291.539062 L 98.273438 291.542969 C 97.753906 290.984375 97.222656 290.386719 96.683594 289.753906 C 96.140625 289.121094 95.59375 288.453125 95.035156 287.753906 C 94.515625 287.113281 93.960938 286.417969 93.355469 285.644531 C 92.730469 284.855469 92.160156 284.121094 91.664062 283.460938 C 91.199219 282.855469 90.625 282.101562 90.011719 281.289062 C 88.789062 279.667969 88.597656 279.414062 88.441406 279.207031 L 88.4375 279.199219 C 87.847656 278.398438 87.378906 277.773438 87.003906 277.269531 C 86.433594 276.503906 86.039062 275.980469 85.734375 275.578125 C 85.277344 274.984375 84.914062 274.515625 84.671875 274.207031 C 84.386719 273.851562 84.128906 273.53125 83.882812 273.25 L 83.582031 272.445312 L 83.582031 268.796875 L 84.71875 268.695312 C 86.457031 268.535156 88.0625 268.320312 89.53125 268.050781 C 90.976562 267.785156 92.28125 267.464844 93.445312 267.089844 C 94.609375 266.71875 95.644531 266.296875 96.554688 265.832031 C 97.429688 265.386719 98.195312 264.890625 98.847656 264.347656 L 98.851562 264.34375 C 99.503906 263.800781 100.066406 263.230469 100.527344 262.617188 C 100.988281 262.015625 101.355469 261.375 101.628906 260.703125 C 101.917969 259.988281 102.136719 259.238281 102.277344 258.457031 C 102.351562 258.054688 102.402344 257.644531 102.4375 257.226562 L 82.277344 257.226562 L 82.277344 250.050781 L 100.886719 250.050781 L 100.84375 249.984375 C 100.492188 249.460938 100.078125 248.984375 99.601562 248.558594 L 99.597656 248.558594 C 99.105469 248.121094 98.53125 247.730469 97.878906 247.394531 C 97.207031 247.050781 96.457031 246.757812 95.621094 246.527344 L 95.605469 246.523438 C 94.757812 246.277344 93.785156 246.09375 92.699219 245.96875 C 91.609375 245.839844 90.402344 245.777344 89.078125 245.777344 C 88.339844 245.777344 87.902344 245.777344 87.648438 245.785156 C 87.242188 245.789062 86.855469 245.800781 86.511719 245.808594 C 86.21875 245.820312 85.9375 245.828125 85.628906 245.839844 C 85.421875 245.851562 85.199219 245.863281 84.9375 245.886719 L 84.933594 245.886719 C 83.945312 245.96875 83.792969 245.980469 83.644531 245.996094 L 83.640625 245.996094 L 82.277344 246.121094 L 82.277344 238.484375 L 125.667969 238.484375 L 125.667969 239.730469"/><g clip-path="url(#l)"><path fill="#2B7F5C" d="M 166.890625 268.699219 C 166.890625 251.410156 159.847656 235.753906 148.460938 224.421875 C 137.074219 213.089844 121.347656 206.082031 103.972656 206.082031 C 86.597656 206.082031 70.871094 213.089844 59.484375 224.421875 C 48.097656 235.753906 41.054688 251.410156 41.054688 268.699219 C 41.054688 285.992188 48.097656 301.644531 59.484375 312.976562 C 70.871094 324.308594 86.597656 331.320312 103.972656 331.320312 C 121.347656 331.320312 137.074219 324.308594 148.460938 312.976562 C 159.847656 301.644531 166.890625 285.992188 166.890625 268.699219 Z M 103.972656 217.292969 C 118.238281 217.292969 131.152344 223.046875 140.5 232.347656 C 149.847656 241.652344 155.628906 254.503906 155.628906 268.699219 C 155.628906 282.898438 149.847656 295.75 140.5 305.050781 C 131.152344 314.355469 118.238281 320.109375 103.972656 320.109375 C 89.707031 320.109375 76.796875 314.355469 67.449219 305.050781 C 58.101562 295.75 52.320312 282.898438 52.320312 268.699219 C 52.320312 254.503906 58.101562 241.652344 67.449219 232.347656 C 76.796875 223.046875 89.707031 217.292969 103.972656 217.292969" fill-rule="evenodd"/></g></svg>