<svg xmlns="http://www.w3.org/2000/svg" xmlns:xlink="http://www.w3.org/1999/xlink" width="135.305" height="46.089" xmlns:v="https://vecta.io/nano"><style><![CDATA[.B{fill:#fff}.C{opacity:.3}.D{fill:#263238}.E{fill:#ae7461}.F{fill:#db4743}.G{opacity:.4}.H{fill:#6f4439}.I{fill:#0d0d0d}.J{fill:#3c9f3d}.K{fill-rule:evenodd}.L{stroke-linejoin:round}.M{stroke-linecap:round}]]></style><g class="F K"><path d="M12.301 37.918H3.748v-2.9h.851c.378 0 .5-.213.5-.567v-7.226c0-.354-.142-.567-.5-.567h-.851v-2.976h7.587v2.153a4.57 4.57 0 0 1 4.41-2.451c2.771 0 3.766 1.062 4.088 2.72a4.49 4.49 0 0 1 4.522-2.72c3.528 0 4.2 1.714 4.2 4.253v6.818c0 .354.167.567.588.567h.729v2.889h-8.413v-2.889h.35c.35 0 .5-.213.5-.567v-6.166c0-1.175-.267-1.544-1.077-1.544-1.077 0-1.289.892-1.289 2.281v5.411c0 .383.169.6.5.6h.462v2.889h-8.063v-2.9h.35c.35 0 .5-.213.5-.567v-6.17c0-1.175-.266-1.544-1.077-1.544-1.077 0-1.289.892-1.289 2.281v5.411c0 .383.142.6.5.6h.462zm19.403-10.695c0-.354-.142-.567-.5-.567h-.851v-2.977h7.582v10.75c0 .383.142.6.5.6h.812v2.889h-8.9v-2.89h.851c.378 0 .5-.213.5-.567zm16.562 10.694h-8.548v-2.9h.851c.378 0 .5-.213.5-.567v-7.225c0-.354-.142-.567-.5-.567h-.851v-2.975h7.588v2.182c.858-1.723 2.71-2.717 4.62-2.479 3.248 0 4.088 1.714 4.088 4.253v6.818c0 .354.142.567.567.567h.756v2.889h-8.525v-2.892h.462c.35 0 .5-.213.5-.567v-6.171c0-1.175-.293-1.544-1.077-1.544-1.077 0-1.4.892-1.4 2.281v5.413c0 .383.142.6.5.6h.462z"/><path d="M56.441 23.681l1.512-.089.237-3.239h5.75v3.314h2.427V26.6H63.94v6.175c0 1.685.322 2.224 2.156 2.224h.405v2.889c-1.224.132-2.455.194-3.686.184-3.333 0-4.844-1.005-5.082-3.867v-7.577h-1.278v-2.947z"/></g><path d="M74.088 46.09c4.774 0 7.684-1.79 7.684-4.924 0-6.267-11.413-3.581-11.413-6.414.117-.663.529-1.237 1.12-1.559a7.3 7.3 0 0 0 2.723.448c4.4 0 6.267-2.984 6.267-5.782a5.3 5.3 0 0 0-1.456-3.738l3.693.075v-1.748h-5.934a7.76 7.76 0 0 0-2.57-.411c-1.625-.152-3.238.395-4.435 1.505s-1.862 2.678-1.831 4.31a5.63 5.63 0 0 0 2.35 4.7 3.61 3.61 0 0 0-1.866 2.837 2.11 2.11 0 0 0 1.3 1.941c-1.632.808-2.701 2.434-2.795 4.252 0 2.499 2.089 4.508 7.163 4.508zm.115-22.376a3.96 3.96 0 0 1 4.256 4.138 3.96 3.96 0 0 1-4.26 4.144 3.98 3.98 0 0 1-4.249-4.144 3.98 3.98 0 0 1 4.253-4.141zm-.154 20.703c-3.469 0-5.185-1.269-5.185-3.134a4.09 4.09 0 0 1 2.426-3.431c3.32.746 8.356.41 8.356 3.395 0 1.866-2.053 3.17-5.597 3.17zm15.481-5.745c1.94-.002 3.844-.518 5.521-1.493v-1.862c-1.595 1.017-3.442 1.571-5.334 1.6-3.619 0-5.707-2.313-5.857-6.043h11.899a5.1 5.1 0 0 0 .075-1.045c0-3.619-1.9-7.8-6.827-7.8-4.477 0-7.312 3.395-7.312 8.393.002 4.895 2.764 8.25 7.835 8.25zm-.521-14.92c3.32 0 4.589 2.76 4.737 5.483h-9.848c.298-3.209 2.088-5.483 5.111-5.483zm6.639 14.51h8.057v-1.753h-2.946v-9.886a9.11 9.11 0 0 1 5.745-2.76c2.275 0 3.022 1.454 3.022 3.581v9.065h-2.947v1.753h8.057v-1.753h-2.947v-9.326c0-3.395-1.79-5.148-4.625-5.148-2.402.119-4.668 1.145-6.342 2.872v-2.461h-5.074v1.79h2.947v12.273h-2.947zm17.98 0h8.061v-1.753h-2.95V22.446h-5.111v1.79h2.947v12.273h-2.947zm15.369.411c1.94-.002 3.844-.518 5.521-1.493v-1.863c-1.595 1.017-3.442 1.571-5.334 1.6-3.619 0-5.707-2.313-5.857-6.043h11.9a5.1 5.1 0 0 0 .075-1.045c0-3.619-1.9-7.8-6.827-7.8-4.477 0-7.312 3.395-7.312 8.393 0 4.886 2.761 8.241 7.833 8.241zm-.522-14.921c3.32 0 4.589 2.76 4.737 5.483h-9.847c.294-3.209 2.088-5.483 5.11-5.483z" class="J"/><g fill="none" stroke-width="2"><path stroke="#3c9f3d" d="M3.748 42.721h60.82"/><path stroke="#db4743" d="M84.032 42.721h51.222"/></g><path d="M119.99 15.384l.792-.983a13.46 13.46 0 0 1 3.717-3.361 8.12 8.12 0 0 1 5.875-.752l-.026.1c-1.958-.492-4.029-.228-5.8.741a13.39 13.39 0 0 0-3.687 3.34l-.791.983c-.769.972-.848.895-.08-.068z" class="J"/><use xlink:href="#B" class="E"/><use xlink:href="#B" class="C"/><use xlink:href="#B" class="E"/><use xlink:href="#B" class="C"/><use xlink:href="#C" class="E"/><use xlink:href="#C" class="C"/><g class="H"><path d="M121.226 1.105c.126.388.287.764.479 1.124a1.39 1.39 0 0 0 1.074.637 4.32 4.32 0 0 1-.436-1.885c.042.065.076.135.1.209l.58 1.225c.052.1.172.167.3.287.099-.532.113-1.077.041-1.613a1.14 1.14 0 0 1 .12.3l.353 1.442c.06.214.158.416.29.595.381.501.901.881 1.495 1.091a1.2 1.2 0 0 0 .551.046c.103-.002.198-.053.257-.137s.075-.191.043-.289l-.248-1.209-.056-.227a2.18 2.18 0 0 1 .56 1.053 7.72 7.72 0 0 0 .244.8.6.6 0 0 0 .286.313l.616.255c.939.076 1.174-.076 1.174-.076l.381-.051.165.344-.9.7-.772-.271c-.094-.053-.191-.1-.291-.139l-.095-.037-.209-.076c-.517-.308-1.099-.49-1.7-.53-.016-.001-.033-.006-.047-.014a3.65 3.65 0 0 1-1.442-.835c-.454-.526-1.075-.879-1.759-1a1.63 1.63 0 0 1-1.154-2.032z"/><path d="M126.433 2.09a5.14 5.14 0 0 1-1.165-1.8l.065-.033.186.247a5.28 5.28 0 0 0 1.313 1.333c.074.06.171.086.265.071.073-.062.111-.156.1-.251l-.243-1.124c-.06-.167-.132-.33-.216-.486l.1-.046a.61.61 0 0 0 .074.156 2.83 2.83 0 0 1 .626 1.686c.119.713.48 1.362 1.024 1.838.242.242.411.178.593-.117.237-.434.267-.952.081-1.41l-.1-.384.1-.042.1.183c.45.603.452 1.429.005 2.034a.41.41 0 0 0-.065.51 2.01 2.01 0 0 0 .614-1.245c.115.491.016 1.008-.273 1.422a.61.61 0 0 0 .222-.13l.829-.85c.296-.288.432-.703.365-1.111-.005-.052-.005-.105 0-.157l.064-.016c.058.111.108.225.149.343.103.454-.044.928-.385 1.245l-1.264 1.5-.579-.123c-.09-.159-.386-.872-.483-.991l-1.394-1.7c-.139-.18-.359-.278-.585-.261a2.64 2.64 0 0 1-1.5-.33 2.16 2.16 0 0 1-.859-1.191 2.52 2.52 0 0 0 2.236 1.23z"/></g><path d="M115.087 23.241a2.28 2.28 0 0 0 .683-.4c.909-.706 1.044-2.472 1.279-3.6h0c.568-.592.947-1.34 1.087-2.149a10.41 10.41 0 0 0 .282-1.461 2.95 2.95 0 0 1 .021-.48c.022-.2-.073-.288-.359-.4-.82-.324-.844-.89-.693-1.573.055-.244.258-.3.451-.135.116.117.226.239.329.367.257.312.698.402 1.057.215.157-.071.3-.177.45-.258a6.08 6.08 0 0 1 .731-.355c.891-.242 1.814-.346 2.737-.307a9.28 9.28 0 0 0 1.737-.183 5.23 5.23 0 0 0 2.791-1.854c.393-.47.557-1.089.449-1.692-.073-.587-.1-1.181-.127-1.775-.008-.2-.042-.273-.256-.281a1.31 1.31 0 0 1-1.01-.626c-.082-.114-.119-.293.064-.313.353-.047.714-.035 1.072-.051.077-.008.153-.021.229-.037l1.4-.466c.162-.055.334-.079.505-.071a.76.76 0 0 1 .217.032l1.461.59c.333.12.685.184 1.025.284.112.019.211.084.272.179s.081.212.053.321c-.055.364-.331.655-.691.731l-1.319.313c-.333.085-.447.26-.346.587a3.88 3.88 0 0 0 .337.766c.778 1.333.914 2.946.37 4.391a1.93 1.93 0 0 0-.156.382c.251-.069.563-.192.763-.255l1.079-.348c.305-.1.638.041.778.33.19.246.182.59-.019.827l-.259.332a4.02 4.02 0 0 0-.842 1.579 1.93 1.93 0 0 1-.4.861 4.23 4.23 0 0 1-1.182.835c-.294.136-.55.342-.746.6-.072.09-.155.172-.232.258a.81.81 0 0 1-.693.17c-.036 0-.1-.121-.1-.177l.175-1.024a.48.48 0 0 1 .445-.43 3.23 3.23 0 0 0 1.068-.431c.378-.174.653-.515.742-.922.077-.3.2-.6.313-.93a1.11 1.11 0 0 0-.157.04l-2.308 1.075a8.35 8.35 0 0 1-3.758.814l-3.37-.128c-.208-.002-.4.114-.494.3l-.145.287c-.803 1.466-2.247 2.47-3.9 2.714h0c-.38.522-.959 2.465-1.33 3-.055.08-.111.209-.209.209-.932.068-.637.661-.722 1.135a.71.71 0 0 1-.426.532l-.47-1.661a.48.48 0 0 1 .267-.283z" class="E"/><path d="M126.736 11.591a3.4 3.4 0 0 1-1.837 1.879 5.73 5.73 0 0 1-2.675.384 16.22 16.22 0 0 1-2.6-.457c.296-.182.611-.331.939-.447a11.6 11.6 0 0 1 2.743-.248c.491-.005.98-.058 1.461-.158a5.38 5.38 0 0 0 1.969-.953z" fill="#9b5f50"/><path d="M130.051 7.994c.216-.028.434-.036.651-.025.014.039-.289.1.313 1.148a5.12 5.12 0 0 1 .371 4.393c-.065.121-.118.249-.156.382l-1.173-.549a3.4 3.4 0 0 0 .876-2.493c-.186-.982-.482-1.94-.882-2.856z" class="B G"/><g class="C B"><path d="M128.059 6.736a2.27 2.27 0 0 1-.616-.066 1.16 1.16 0 0 1-.4-.17.6.6 0 0 1-.245-.348c-.008-.018-.008-.039 0-.057.014-.014.032-.022.052-.023a1.67 1.67 0 0 1 .694 0c.226.057.306.158.539.37-.166 0-.319.025-.486.026a3.27 3.27 0 0 0 .4.242"/></g><g class="C"><path d="M131.21 13.937c-1.681-.432-3.258-1.197-4.638-2.249z"/></g><path d="M131.209 13.938l-4.665-2.262.908-.873 4.158 1.853c-.03.453-.168.893-.401 1.282z" class="I"/><path d="M128.73 5.405c-.134.153.128.463.3.57l-.279.227c-.348-.096-.663-.283-.914-.542z" class="H"/><path d="M133.031 6.706s-.019.2-.052.224c-.075.059-.547-.325-.462-.462a.36.36 0 0 1 .271-.2.4.4 0 0 1 .243.438z" class="D"/><g class="C B"><path d="M130.648 6.48a.52.52 0 0 0 .133-.222c.027-.055.038-.116.033-.177a.3.3 0 0 0-.127-.148c-.182-.123-.401-.18-.62-.163a.28.28 0 0 0-.183.069c-.052.077-.067.172-.041.261a.95.95 0 0 0 .127.383.4.4 0 0 0 .336.194.62.62 0 0 0 .407-.269"/></g><path d="M130.142 6.342c.005.073.053.136.122.16s.146.003.194-.052.059-.134.026-.2-.102-.105-.175-.1c-.099.007-.174.093-.168.192z" class="D"/><path d="M128.928 16.636s0-.528-1.775-.426l-4.9.234-.227.841s.244-.273.475-.263l4.434.1c.69-.029 1.367-.195 1.993-.486z" class="B G"/><g class="C"><path d="M127.149 16.25a4.3 4.3 0 0 1-1.1-1.5 12.84 12.84 0 0 1-.626-1.768z"/></g><path d="M128.998 16.577l-2.842-4.616-1.094.489 2.568 4.626c.482-.084.945-.253 1.368-.499z" class="I"/><g class="B"><path d="M127.602 15.957c-.001.112.078.209.187.231s.22-.035.264-.138.009-.223-.084-.286-.217-.053-.297.026c-.045.044-.07.104-.071.167zm-.731-1.214c-.002.131.103.238.234.24s.238-.103.24-.234-.103-.238-.234-.24c-.063-.001-.123.023-.168.067a.24.24 0 0 0-.072.167zm-.592-1.021c-.001.096.056.183.144.221s.19.019.259-.049.09-.169.054-.258-.122-.148-.218-.148c-.131-.001-.237.103-.239.234zm-.681-1.037c-.002.113.076.211.186.234s.222-.034.266-.137.01-.224-.082-.288-.217-.054-.298.024c-.045.044-.071.103-.072.166zm5.138.441c-.001.117.08.219.195.243s.231-.036.277-.143.01-.233-.086-.3-.227-.056-.311.026c-.047.046-.074.108-.075.174z"/><use xlink:href="#D"/><path d="M128.755 12.219c0 .117.082.217.196.241s.229-.037.275-.145.009-.232-.087-.298-.226-.055-.309.027c-.047.046-.074.109-.074.175z"/><use xlink:href="#D" x="-1.98" y="-0.905"/><g class="G"><path d="M118.792 13.728a.6.6 0 0 1-.41.158c-.288-.028-.556-.158-.757-.366a.61.61 0 0 1-.163-.361c-.006-.05.004-.1.03-.143a.22.22 0 0 1 .245-.052.7.7 0 0 1 .323.261 2.22 2.22 0 0 0 .266.326.72.72 0 0 0 .468.18"/></g><path d="M123.072 13.386a.73.73 0 0 1 .188-.062c.066-.011.134.005.188.044a.15.15 0 0 1 .045.177c-.031.045-.076.078-.128.094a.47.47 0 0 1-.192.046c-.068.001-.131-.034-.164-.093-.034-.076-.006-.165.064-.209m-1.106-.353h0a1.27 1.27 0 0 1 .244.307.1.1 0 0 1 .018.091c-.02.046-.086.045-.132.024-.076-.035-.136-.097-.167-.175s-.042-.239.037-.247zm1.49-.104h0c.108-.026.22-.035.331-.026.028-.001.054.01.073.03.023.035-.01.081-.046.1a.27.27 0 0 1-.2.034c-.069-.015-.19-.08-.158-.138zm1.145.08h0a1.07 1.07 0 0 1 .331-.026c.028-.001.054.01.073.03.023.035-.01.081-.046.1a.28.28 0 0 1-.2.036c-.071-.015-.189-.083-.158-.14z"/><path d="M122.419 12.823c.17.003.336.053.479.144.022.012.041.03.055.051s.01.051-.007.071c-.012.009-.025.015-.04.017a.46.46 0 0 1-.3-.026c-.091-.045-.2-.156-.19-.257"/></g><path d="M118.499 14.951a1.87 1.87 0 0 1-1.461-1.2.69.69 0 0 0 .29.209c-.139-.282-.128-.615.029-.888a2.3 2.3 0 0 0 .187.731" class="E"/><path d="M129.982 6.089c-.025-.027-.022-.077.018-.132.113-.134.304-.172.46-.091.057.035.078.08.066.116s-.052.056-.1.074a1.11 1.11 0 0 1-.162.041c-.054.012-.109.02-.165.023-.042.007-.084-.004-.117-.031z" class="D"/><g stroke="#263238" stroke-width=".5" class="L"><path d="M14.215 11.249a3.81 3.81 0 0 0 1.782-1.015c.345-.375.539-.865.543-1.375l3.221.107c.01 1.363-.169 2.721-.533 4.035a4.15 4.15 0 0 1-2.531 2.026s.023-.667-.913-1.3-1.805-.678-1.946-1.3a1 1 0 0 1 .377-1.178z" class="F"/><path d="M22.633 21.131v2.235s.865-.728 1.238-.65.353.486.144.842c-.461.696-1.16 1.2-1.967 1.417-.45.11-.906.195-1.366.256 0 0 .19.052.073.182-.225.224-.57.273-.849.121-.45-.184-.354-1.264-.354-1.264l-1.34-2.441 4.358-1.112z" class="D"/><path d="M20.802 17.769s1.129.284 1.461.977c.203.571.268 1.181.189 1.782 0 0 .014.146-1.723.525-.859.215-1.741.327-2.626.334 0 0-1.067-3.292-.821-3.662s3.52.044 3.52.044z" class="F"/><path d="M17.765 20.669c1.081-.028 2.155-.182 3.2-.458 1.763-.46 1.719-.448 1.8-.118s.285.8-.136 1.039c-.9.445-1.864.749-2.857.9-1.119.136-1.651.136-1.831-.271-.211-.322-.275-.72-.176-1.092z" class="B"/><path d="M19.076 22.634l.935 2.035s.484-1.023.856-1.107.5.217.46.553c-.117.868-.533 1.668-1.177 2.261a12.7 12.7 0 0 1-1.135.8c0 0 .193-.033.136.136a.72.72 0 0 1-.72.463c-.486.02-.849-1-.849-1l-2.229-1.664 3.5-2.821z" class="D"/><path d="M16.008 20.335a2.5 2.5 0 0 1 1.735.279c.422.436.735.965.914 1.545 0 0 .075.128-1.348 1.194-.692.553-1.447 1.023-2.249 1.4 0 0-2.34-2.549-2.267-2.984s3.215-1.434 3.215-1.434z" fill="#92e3a9"/><path d="M14.455 24.239a14 14 0 0 0 2.713-1.747c1.413-1.152 1.375-1.122 1.591-.857s.594.613.313 1c-.635.777-1.386 1.451-2.226 2-.959.594-1.446.8-1.78.511s-.627-.58-.611-.907z" class="B"/><path d="M17.807 15.457c-.761.876-1.604 1.676-2.517 2.391a23.92 23.92 0 0 1-5.888 3.14c-1.288.361-2.597.643-3.92.844 0 0 .591 3.5 1.346 3.917.716.393 6.223-1.048 8.21-2.344a5.49 5.49 0 0 0 2.186-1.643 4.11 4.11 0 0 0 .526-3.445c0 0 .228 0 .663.027.816.105 1.636-.162 2.234-.726a2.23 2.23 0 0 0 .4-1.763z" class="F"/><path d="M16.894 14.555l.913.9a7.99 7.99 0 0 1-1.691 2.3 21.2 21.2 0 0 1-4.562 3.419 7.48 7.48 0 0 1-1.8.635l-.528-1.254c3.026-1.314 5.665-3.379 7.668-6z" class="D"/><g class="F"><path d="M14.494 12.554a2.24 2.24 0 0 1 1.618.4 1.94 1.94 0 0 1 .781 1.606c-1.404 1.925-3.151 3.574-5.154 4.864-3.1 1.892-5.386 1.933-6.485 1s-.361-4.282 1.556-5.639c2.231-1.6 4.943-2.387 7.684-2.231z"/><path d="M5.626 13.877s-2.672 2.248-2.908 4.883 2.077 3.67 4.461 3.475a6.96 6.96 0 0 0 3.778-1.413l-.463-2.512s-2.226.543-3.12-.632-.258-1.875-.258-1.875c.347-.558.279-1.279-.165-1.763-.769-.814-1.325-.163-1.325-.163z"/></g><g class="B"><path d="M5.865 11.058a10.05 10.05 0 0 0-.711 2.937c.148.655.97.373.97.373s-.834 1.515-.122 2.448 2.253.06 2.253.06a1.93 1.93 0 0 0 2.262.439c1.485-.566 1.492-1.664 1.492-1.664.828.315 1.764.089 2.356-.57a1.73 1.73 0 0 0 .24-2.254 1.2 1.2 0 0 0 .3-1.667c-.267-.66-1.003-.998-1.678-.77 0 0 .136-.616-.686-1.006a3.15 3.15 0 0 0-1.424-.35 2.63 2.63 0 0 0-1.393-.414 3.7 3.7 0 0 0-3.859 2.438z"/><path d="M5.688 11.238a3.29 3.29 0 0 0 2.132 2.261 3.33 3.33 0 0 0 3.58-1.716c.309-.855.094-1.811-.551-2.451a3.04 3.04 0 0 0-1-.568 4.03 4.03 0 0 0-2.408.2c-.826.537-1.444 1.339-1.753 2.274z"/><ellipse cx="1.126" cy="1.115" rx="1.126" ry="1.115" transform="matrix(.968 -.252 .252 .968 .305 9.04)"/></g><path d="M10.25 7.721a10.27 10.27 0 0 0-2.763-1.763 2 2 0 0 0-2.265.233c-.728 1.08-1.4 2.197-2.014 3.346 0 0-1.6-.03-1.473.183a2.59 2.59 0 0 0 1.628.425c.306-.076.569-.271.73-.543.1.682.268 1.351.5 2 .213.3 1.356-2.455 2.653-2.952s2.991-.11 3.1-.271-.096-.658-.096-.658z" class="F"/><path d="M4.142 8.521l.075-.434m-.121 1.508c-.017-.267-.012-.534.015-.8" fill="none" class="M"/><path d="M4.743 10.745a4.81 4.81 0 0 0-.491 1.259c.052.214.793 1.154 1.137.9s.628-2.623 1.974-3.433 3.7-.407 3.755-.439a3.3 3.3 0 0 0-.031-1.253c-1.463-.325-2.993-.167-4.359.449a6.14 6.14 0 0 0-1.985 2.517z" class="B"/></g><path d="M8.22 10.468c.085.092.106.213.045.271s-.18.029-.271-.064-.106-.212-.045-.271.185-.027.271.064zm.895-.404c.053.114.034.235-.042.271s-.18-.03-.233-.144-.033-.235.043-.271.179.035.232.144z" class="D"/><g stroke="#263238" stroke-width=".5" class="L"><path d="M7.475 9.522c.108-.047.235-.01.301.088s.054.229-.03.312a1.73 1.73 0 0 0-.384.476c-.107.271-.11.521-.331.445s-.218-.627.053-1c.104-.135.238-.245.391-.321z" fill="none"/><path d="M8.484 8.952c-.112.048-.172.17-.142.287s.142.196.263.184c.203-.032.411-.025.612.019.271.1.467.255.553.037s-.334-.574-.792-.609c-.169-.009-.337.019-.494.082z" class="B"/><path d="M9.667 13.286s.882.464 1.043.309-.043-1.107-.043-1.107-.665-.319-.8-.171a2.99 2.99 0 0 0-.2.969z" class="D"/><path d="M8.641 11.674c-.085.415-.374.76-.768.916-.669.271-.9-.033-.749-.3s.349-.381.012-.383-.852.849-.7 1.5a1.81 1.81 0 0 0 2.442.773c.634-.265 1.078-.848 1.164-1.53a1.6 1.6 0 0 0 1.641-.227 1.49 1.49 0 0 0 .084-1.991c-.342-.537-.977-.483-1.063-.3s.21.034.349.222a.56.56 0 0 1-.407.734 7.08 7.08 0 0 1-1.1-.094.79.79 0 0 0-.905.68z" class="B"/><path d="M9.925 11.094a.8.8 0 0 0-1.548.406.8.8 0 0 0 1.465.202.8.8 0 0 0 .083-.608z" fill="#ff6346"/><g class="B"><path d="M11.579 18.016s.574-.914 1.019-.983a7.14 7.14 0 0 1 1.328.024c0 0 .18-.372.351-.161.149.204.112.489-.085.648a2.44 2.44 0 0 1-.465.26c0 0 1.245-.024 1.384.149s-.033.5-.136.567a2.7 2.7 0 0 0-.227.2s.155.237-.407.754a1.72 1.72 0 0 1-1.386.64l-.838-.106z"/><path d="M9.84 18.178l.51 2.21c.21.679.395.884.757.757s.97-.319 1.1-.714-.458-1.757-.543-2.226-.486-.6-1.017-.492a1.04 1.04 0 0 0-.807.465zm5.183-1.457l1.089 1.042 1.065-1.2-.982-1.027zm2.259 1.007c.949.346 2.01.155 2.779-.5 1.423-1.112.567-1.545.567-1.545s.336-.458.863.031a1.82 1.82 0 0 1 .441 1.468 1.83 1.83 0 0 1-.834 1.287c-.584.469-1.345.657-2.08.514a2.55 2.55 0 0 1-1.736-1.257z"/><path d="M17.282 17.728a3.72 3.72 0 0 1-.024 2.744 5.62 5.62 0 0 1-2.281 2.291 16.05 16.05 0 0 1-5.762 2.143c-.973.225-1.979.271-2.968.136-.096.054-.144.164-.118.271a5.51 5.51 0 0 0 .517 1.054c.136.164.65.294 2.4.079a18.72 18.72 0 0 0 4.8-1.34 3.03 3.03 0 0 0 .271-.151 11.53 11.53 0 0 0 3.364-2.318 3.19 3.19 0 0 0-.199-4.909zm-.558-10.195a2.58 2.58 0 0 1-.632-1.244l-.027-1.534c-.008-.197.543-.271.678-.043.065.112.119.231.159.355 0 0 .34-1.564.722-1.708s1.032-.094 1.5 1.194a6.68 6.68 0 0 1 .328 2.777l-.018.271s-2.122.33-2.71-.068z"/></g><path d="M16.895 5.067l.062.578a.94.94 0 0 1 .425.528 3.28 3.28 0 0 1 .176.593m.876-1.286s-.473.719-.34 1.058a1.17 1.17 0 0 0 .3.472" fill="none" class="M"/><path d="M16.675 7.353s-.423-.022-.457.184c-.033.566-.033 1.134 0 1.7.034.212.909.445 2.1.464s1.569-.233 1.609-.419a8.91 8.91 0 0 0 .026-1.5c-.041-.407-.29-.52-.511-.439a6.07 6.07 0 0 1-2.767.01z" class="B"/></g><use xlink:href="#E" class="E"/><use xlink:href="#E" class="C"/><use xlink:href="#E" class="E"/><use xlink:href="#E" class="C"/><use xlink:href="#F" class="E"/><use xlink:href="#F" class="C"/><g class="H"><path d="M96.702 3.106a8.07 8.07 0 0 0 .677 1.261c.316.404.803.635 1.316.626-.396-.656-.638-1.393-.707-2.156a1.1 1.1 0 0 1 .146.23l.807 1.369c.071.114.219.177.383.3a6 6 0 0 0-.122-1.885c.073.102.131.215.171.334l.563 1.646c.092.244.228.468.4.664.498.546 1.145.935 1.861 1.118a1.42 1.42 0 0 0 .65 0 .38.38 0 0 0 .3-.529l-.418-1.385-.089-.258a2.59 2.59 0 0 1 .763 1.171 9.18 9.18 0 0 0 .367.91.69.69 0 0 0 .367.339l.745.232c1.1-.009 1.363-.212 1.363-.212l.439-.1.229.385-.979.915-.93-.236c-.115-.052-.234-.096-.355-.131l-.115-.033-.254-.067c-.636-.303-1.334-.454-2.038-.439-.02 0-.039-.003-.057-.011a4.28 4.28 0 0 1-1.772-.83 3.54 3.54 0 0 0-2.157-.979c-.507-.087-.957-.375-1.249-.798s-.402-.946-.305-1.451z"/><path d="M102.878 3.699a6.04 6.04 0 0 1-1.549-1.981l.072-.045.245.269a6.16 6.16 0 0 0 1.676 1.414.4.4 0 0 0 .317.055.34.34 0 0 0 .086-.3l-.4-1.287c-.086-.189-.187-.372-.3-.546l.108-.064a.7.7 0 0 0 .1.174c.501.518.82 1.185.91 1.9a3.66 3.66 0 0 0 1.389 2.037c.307.258.5.165.68-.2a1.93 1.93 0 0 0-.054-1.654l-.157-.438.122-.06.131.2a2 2 0 0 1 .219 2.375.48.48 0 0 0-.021.6c.37-.42.577-.958.585-1.518.187.561.128 1.175-.164 1.69.093-.041.176-.101.245-.175l.878-1.08a1.48 1.48 0 0 0 .308-1.334c-.011-.061-.016-.122-.015-.184l.072-.026c.079.123.15.252.21.385.169.519.047 1.089-.319 1.494l-1.316 1.889-.689-.082c-.122-.176-.543-.979-.668-1.1l-1.807-1.835a.79.79 0 0 0-.708-.245c-.604.103-1.226.024-1.785-.228a2.56 2.56 0 0 1-1.129-1.3 2.93 2.93 0 0 0 2.728 1.2z"/></g><path d="M91.865 29.587c.281-.133.536-.314.755-.535.987-.92.959-3 1.115-4.335h0a4.85 4.85 0 0 0 1.041-2.624 12.33 12.33 0 0 0 .175-1.732c-.024-.186-.033-.374-.026-.562 0-.234-.115-.329-.461-.431-.992-.291-1.079-.951-.979-1.763.038-.291.268-.38.511-.2.147.124.288.255.422.393a1 1 0 0 0 1.257.141c.176-.1.328-.245.5-.349.26-.181.531-.344.812-.489 1.013-.379 2.08-.598 3.161-.647.685-.068 1.362-.201 2.022-.398 1.263-.459 2.338-1.323 3.059-2.457.407-.591.533-1.331.345-2.024a24.96 24.96 0 0 1-.335-2.054c-.029-.228-.077-.316-.327-.3-.493.004-.957-.23-1.247-.628-.108-.122-.17-.329.04-.377.407-.092.829-.115 1.246-.173.089-.017.177-.039.264-.066l1.58-.691c.184-.081.381-.126.582-.135.086-.008.173-.003.257.015l1.768.535c.4.105.817.142 1.224.223.132.01.254.075.336.179s.117.238.096.369c-.024.432-.315.803-.728.931q-.759.245-1.507.5c-.38.135-.5.351-.343.722.126.302.286.589.475.856 1.049 1.474 1.377 3.343.894 5.087-.063.149-.111.303-.141.462.284-.106.636-.284.864-.378l1.223-.52c.345-.153.749-.024.942.3a.77.77 0 0 1 .065.967l-.267.415a4.72 4.72 0 0 0-.817 1.932 2.27 2.27 0 0 1-.377 1.049c-.364.438-.801.81-1.291 1.1-.329.191-.606.461-.807.784-.076.113-.163.217-.245.324-.2.268-.507.253-.792.272-.043 0-.139-.13-.136-.2l.1-1.214a.56.56 0 0 1 .473-.548 3.9 3.9 0 0 0 1.2-.612 1.55 1.55 0 0 0 .77-1.154c.059-.367.173-.719.272-1.119a1.28 1.28 0 0 0-.179.062l-2.582 1.5a9.78 9.78 0 0 1-4.305 1.346l-3.947.2a.64.64 0 0 0-.544.406l-.14.351a6.22 6.22 0 0 1-4.27 3.574h0c-.387.656-.856 2.978-1.236 3.641-.056.1-.108.245-.219.268-1.08.177-.674.838-.723 1.4a.83.83 0 0 1-.442.667l-.728-1.877a.56.56 0 0 1 .295-.379z" class="E"/><path d="M104.236 14.761a3.99 3.99 0 0 1-1.948 2.4c-.955.485-2.011.736-3.082.734a18.44 18.44 0 0 1-3.088-.261 5.79 5.79 0 0 1 1.046-.619 13.7 13.7 0 0 1 3.181-.58 8.81 8.81 0 0 0 1.695-.338 6.47 6.47 0 0 0 2.196-1.336z" fill="#9b5f50"/><path d="M107.726 10.211a4.28 4.28 0 0 1 .757-.1c.023.043-.324.159.489 1.312a6 6 0 0 1 .894 5.087c-.063.149-.111.303-.141.462l-1.428-.516c.647-.857.921-1.938.76-3a15.54 15.54 0 0 0-1.331-3.245z" class="B G"/><g class="C B"><path d="M105.27 8.96a2.62 2.62 0 0 1-.726-.012c-.169-.021-.333-.075-.482-.157a.7.7 0 0 1-.323-.381c-.009-.021-.009-.045 0-.066.014-.019.036-.031.059-.033a1.98 1.98 0 0 1 .811-.069 1.37 1.37 0 0 1 .667.376c-.195.018-.367.062-.565.081a3.65 3.65 0 0 0 .489.245"/></g><g class="C"><path d="M109.706 17.035a15.22 15.22 0 0 1-5.651-2.137z"/></g><path d="M109.705 17.035l-5.684-2.15.968-1.115 5.049 1.725c.012.532-.102 1.06-.333 1.54z" class="I"/><path d="M105.911 7.329c-.139.195.2.529.411.635l-.3.292c-.416-.074-.804-.259-1.124-.535z" class="H"/><path d="M111.07 8.396s0 .234-.037.268c-.082.076-.673-.322-.589-.489s.215-.268.3-.261a.46.46 0 0 1 .326.482z" class="D"/><g class="C B"><path d="M108.264 8.383c.066-.079.111-.173.132-.273a.41.41 0 0 0 .02-.212c-.035-.07-.093-.126-.165-.159-.224-.122-.483-.165-.734-.122a.32.32 0 0 0-.207.1.36.36 0 0 0-.021.308 1.12 1.12 0 0 0 .19.433c.096.13.252.202.413.192.191-.053.352-.182.445-.357"/></g><path d="M107.659 8.273a.21.21 0 0 0 .411.009.21.21 0 0 0-.375-.169c-.033.046-.046.104-.036.16z" class="D"/><path d="M107.325 20.42s-.054-.618-2.117-.311l-5.692.789-.174 1.007s.257-.345.527-.357l5.188-.35c.8-.108 1.57-.372 2.268-.778z" class="B G"/><path d="M107.402 20.34l-3.793-5.089-1.223.685 3.486 5.139a4.78 4.78 0 0 0 1.53-.735z" class="I"/><g class="B"><path d="M105.707 19.769c.013.153.146.267.299.254s.267-.146.255-.299-.145-.267-.298-.256c-.074.006-.142.04-.19.097s-.072.129-.066.203z"/><use xlink:href="#G"/><use xlink:href="#G" x="-0.799" y="-1.13"/><path d="M103.022 16.158c.01.131.111.238.241.254s.255-.062.296-.187-.012-.262-.126-.327-.259-.04-.345.06a.28.28 0 0 0-.066.2zm6.042-.026a.29.29 0 0 0 .254.264.29.29 0 0 0 .309-.198.29.29 0 0 0-.495-.276.29.29 0 0 0-.068.21zm-1.2-.424a.29.29 0 0 0 .254.264.29.29 0 1 0-.185-.475.29.29 0 0 0-.069.211z"/><circle cx=".29" cy=".29" transform="matrix(.651 -.759 .759 .651 106.537 15.291)" r=".29"/><path d="M105.457 14.866a.29.29 0 0 0 .31.265.29.29 0 0 0 .266-.31.29.29 0 0 0-.507-.167.29.29 0 0 0-.069.211z"/><g class="G"><path d="M95.192 18.094a.71.71 0 0 1-.462.226 1.41 1.41 0 0 1-.521-.1c-.146-.058-.282-.141-.4-.245s-.2-.245-.23-.4a.22.22 0 0 1 .3-.257c.157.048.297.142.4.27s.219.246.345.352c.163.119.363.176.565.162"/></g><path d="M100.149 17.242a.86.86 0 0 1 .213-.092.29.29 0 0 1 .224.032c.065.044.094.125.071.2-.031.056-.08.099-.139.122a.57.57 0 0 1-.219.075c-.077.01-.154-.028-.2-.092a.2.2 0 0 1 .054-.245m-1.334-.299h0a1.5 1.5 0 0 1 .318.333.13.13 0 0 1 .031.1c-.018.056-.1.061-.152.042-.093-.032-.169-.099-.213-.187s-.073-.27.016-.288zm1.729-.275h0c.124-.042.253-.064.384-.065a.1.1 0 0 1 .088.027c.031.039 0 .1-.043.122-.067.05-.15.072-.233.062s-.225-.078-.196-.146zm1.347-.033h0a1.2 1.2 0 0 1 .383-.066c.032-.005.064.006.088.028.031.038 0 .1-.042.122-.067.05-.151.072-.234.062s-.226-.075-.195-.146z"/><path d="M99.321 16.653a1.07 1.07 0 0 1 .574.122.17.17 0 0 1 .07.054c.019.025.019.058 0 .083a.1.1 0 0 1-.045.023c-.113.039-.237.039-.35 0s-.245-.161-.245-.28"/></g><path d="M94.98 19.55a2.19 2.19 0 0 1-1.829-1.254.81.81 0 0 0 .361.218 1.11 1.11 0 0 1-.059-1.04c.051.294.15.577.295.838" class="E"/><path d="M107.446 7.997c-.032-.029-.034-.088 0-.155a.44.44 0 0 1 .529-.154c.071.034.1.086.089.122a.2.2 0 0 1-.106.1 1.35 1.35 0 0 1-.185.066 1.56 1.56 0 0 1-.191.044c-.047.011-.096.003-.136-.023z" class="D"/><path d="M13.091 17.92c11.339 1.777 28.8.219 41.427 1.829 31.086 3.963 53.239-.359 53.474-.367 2.233-.068 3.837 2.692 7.643 1.59 3.5-1.014 7.7-7.573 7.78-7.846l.091.032a24.83 24.83 0 0 1-2.615 3.68c-1.367 1.646-3.383 3.718-5.232 4.253-3.685 1.065-5.069-1.675-7.7-1.585 0 0-21.4 4.724-53.44.651-12.208-1.552-29.471 0-41.035-1.86-.858-.075-.348-.38-.393-.377zm102.521-1.404a1.75 1.75 0 0 0 1.721 1.76 1.76 1.76 0 0 0 1.76-1.76 1.75 1.75 0 0 0-1.76-1.721 1.74 1.74 0 0 0-1.721 1.721z" class="J"/><path d="M34.468 16.352a3.22 3.22 0 0 1 2.356 5.468 3.22 3.22 0 0 1-5.518-2.236 3.22 3.22 0 0 1 3.162-3.232z" class="F K"/><defs ><path id="B" d="M120.065 15.387a10.28 10.28 0 0 1-.282 1.461 4.1 4.1 0 0 1-1.086 2.15c-.234 1.126-.369 2.893-1.279 3.6a2.28 2.28 0 0 1-.683.4.48.48 0 0 0-.277.3l.47 1.661a.71.71 0 0 0 .426-.532c.086-.474-.209-1.067.722-1.135.1-.007.151-.13.209-.209.371-.534.95-2.472 1.33-3a5.31 5.31 0 0 0 3.9-2.714l.145-.287c.094-.186.285-.303.494-.3z"/><path id="C" d="M133.366 12.587a.65.65 0 0 0-.778-.331l-1.079.349-.763.255-1.572 2.4 2.308-1.075a.98.98 0 0 1 .157-.04l-.313.93a1.32 1.32 0 0 1-.742.921 3.23 3.23 0 0 1-1.068.432.48.48 0 0 0-.445.43l-.175 1.024c-.008.055.064.175.1.176.243.006.5.043.693-.17l.232-.257c.196-.259.452-.467.746-.605a4.19 4.19 0 0 0 1.182-.835 1.96 1.96 0 0 0 .4-.862 4.02 4.02 0 0 1 .842-1.578c.091-.1.174-.22.259-.332.202-.239.206-.588.011-.832z"/><path id="D" d="M129.745 12.674c-.002.1.057.191.149.231s.198.02.27-.05.094-.176.057-.269-.126-.154-.226-.155c-.136-.002-.248.107-.25.243z"/><path id="E" d="M96.843 19.896a12.3 12.3 0 0 1-.175 1.731c-.079.959-.441 1.872-1.041 2.624-.155 1.34-.122 3.416-1.115 4.336a2.69 2.69 0 0 1-.755.533.56.56 0 0 0-.291.379l.723 1.889a.83.83 0 0 0 .442-.667c.049-.562-.357-1.223.723-1.4.111-.018.163-.169.219-.268.377-.663.849-2.985 1.236-3.641a6.23 6.23 0 0 0 4.27-3.575l.139-.35a.64.64 0 0 1 .544-.406z"/><path id="F" d="M112.076 15.219a.76.76 0 0 0-.941-.3l-1.223.52-.865.378-1.582 2.967 2.582-1.5a1.22 1.22 0 0 1 .179-.062l-.272 1.118a1.56 1.56 0 0 1-.77 1.155 3.65 3.65 0 0 1-1.2.612.56.56 0 0 0-.473.549l-.1 1.214c0 .066.093.2.137.2.285-.018.59 0 .79-.272l.245-.325a2.36 2.36 0 0 1 .807-.784 4.94 4.94 0 0 0 1.292-1.1 2.27 2.27 0 0 0 .377-1.047c.123-.697.402-1.358.817-1.932l.267-.415a.77.77 0 0 0-.067-.976z"/><path id="G" d="M104.726 18.425c.009.132.111.239.242.255s.256-.062.297-.188-.012-.263-.127-.328-.26-.039-.346.061c-.047.055-.071.127-.066.2z"/></defs></svg>