<?xml version="1.0" encoding="utf-8"?>
<!-- Generator: Adobe Illustrator 16.0.2, SVG Export Plug-In . SVG Version: 6.00 Build 0)  -->
<!DOCTYPE svg PUBLIC "-//W3C//DTD SVG 1.1//EN" "http://www.w3.org/Graphics/SVG/1.1/DTD/svg11.dtd">
<svg version="1.1" id="Layer_1" xmlns="http://www.w3.org/2000/svg" xmlns:xlink="http://www.w3.org/1999/xlink" x="0px" y="0px"
	 width="64px" height="64px" viewBox="218 218 64 64" enable-background="new 218 218 64 64" xml:space="preserve">
<g>
</g>
<g>
	<linearGradient id="SVGID_1_" gradientUnits="userSpaceOnUse" x1="264.5354" y1="236.6973" x2="276.7317" y2="236.6973">
		<stop  offset="0" style="stop-color:#234930"/>
		<stop  offset="1" style="stop-color:#83B645"/>
	</linearGradient>
	<path fill="url(#SVGID_1_)" d="M265.339,236.556l10.227,2.295c0.05,0,0.149,0,0.199,0c0.449,0,0.848-0.3,0.947-0.798
		c0.101-0.549-0.199-1.048-0.748-1.197l-10.226-2.294c-0.549-0.101-1.048,0.199-1.197,0.748
		C264.491,235.908,264.791,236.457,265.339,236.556z"/>
	<linearGradient id="SVGID_2_" gradientUnits="userSpaceOnUse" x1="263.4749" y1="241.4922" x2="275.634" y2="241.4922">
		<stop  offset="0" style="stop-color:#234930"/>
		<stop  offset="1" style="stop-color:#83B645"/>
	</linearGradient>
	<path fill="url(#SVGID_2_)" d="M263.493,240.147c-0.099,0.549,0.2,1.048,0.749,1.198l10.226,2.294c0.05,0,0.149,0,0.2,0
		c0.448,0,0.848-0.299,0.947-0.798c0.1-0.548-0.199-1.047-0.748-1.196l-10.227-2.295C264.143,239.3,263.594,239.649,263.493,240.147
		z"/>
	<linearGradient id="SVGID_3_" gradientUnits="userSpaceOnUse" x1="262.3274" y1="246.2813" x2="274.4866" y2="246.2813">
		<stop  offset="0" style="stop-color:#234930"/>
		<stop  offset="1" style="stop-color:#83B645"/>
	</linearGradient>
	<path fill="url(#SVGID_3_)" d="M262.346,244.937c-0.1,0.549,0.199,1.048,0.748,1.198l10.227,2.294c0.05,0,0.149,0,0.199,0
		c0.449,0,0.849-0.299,0.948-0.798c0.1-0.549-0.2-1.047-0.749-1.197l-10.226-2.294C262.994,244.089,262.495,244.438,262.346,244.937
		z"/>
	<linearGradient id="SVGID_4_" gradientUnits="userSpaceOnUse" x1="261.2297" y1="251.1299" x2="273.3889" y2="251.1299">
		<stop  offset="0" style="stop-color:#234930"/>
		<stop  offset="1" style="stop-color:#83B645"/>
	</linearGradient>
	<path fill="url(#SVGID_4_)" d="M261.248,249.775c-0.1,0.549,0.2,1.048,0.749,1.197l10.226,2.295c0.05,0,0.149,0,0.199,0
		c0.449,0,0.849-0.299,0.948-0.799c0.1-0.549-0.2-1.047-0.748-1.197l-10.177-2.244C261.897,248.878,261.349,249.227,261.248,249.775
		z"/>
	<linearGradient id="SVGID_5_" gradientUnits="userSpaceOnUse" x1="258.8049" y1="262.3965" x2="269.7483" y2="262.3965">
		<stop  offset="0" style="stop-color:#234930"/>
		<stop  offset="1" style="stop-color:#83B645"/>
	</linearGradient>
	<path fill="url(#SVGID_5_)" d="M261.747,262.994l6.835,1.547c0.049,0,0.149,0,0.199,0c0.449,0,0.848-0.299,0.948-0.798
		c0.1-0.549-0.2-1.048-0.749-1.198l-10.176-2.294l1.745,1.247C261.149,261.896,261.498,262.396,261.747,262.994z"/>
	<linearGradient id="SVGID_6_" gradientUnits="userSpaceOnUse" x1="261.8967" y1="267.6836" x2="268.6663" y2="267.6836">
		<stop  offset="0" style="stop-color:#234930"/>
		<stop  offset="1" style="stop-color:#83B645"/>
	</linearGradient>
	<path fill="url(#SVGID_6_)" d="M267.883,267.384l-5.986-1.347v2.046l5.587,1.247c0.05,0,0.15,0,0.2,0
		c0.448,0,0.848-0.299,0.947-0.799C268.781,268.032,268.432,267.533,267.883,267.384z"/>
	<linearGradient id="SVGID_7_" gradientUnits="userSpaceOnUse" x1="256.9084" y1="257.2578" x2="270.8948" y2="257.2578">
		<stop  offset="0" style="stop-color:#234930"/>
		<stop  offset="1" style="stop-color:#83B645"/>
	</linearGradient>
	<path fill="url(#SVGID_7_)" d="M269.929,259.752c0.448,0,0.848-0.299,0.947-0.798c0.1-0.549-0.199-1.048-0.748-1.197l-13.22-2.993
		v2.045l12.771,2.894C269.78,259.752,269.829,259.752,269.929,259.752z"/>
	<linearGradient id="SVGID_8_" gradientUnits="userSpaceOnUse" x1="252.4192" y1="233.1362" x2="258.4612" y2="233.1362">
		<stop  offset="0" style="stop-color:#234930"/>
		<stop  offset="1" style="stop-color:#83B645"/>
	</linearGradient>
	<path fill="url(#SVGID_8_)" d="M254.066,235.908l0.848,0.3c0.549,0.199,1.048,0.599,1.396,1.047
		c0.998-0.598,1.797-1.596,2.046-2.793c0.25-1.146,0.05-2.344-0.549-3.341c-0.648-0.998-1.646-1.747-2.843-1.996
		c-0.898-0.199-1.746-0.1-2.545,0.149c0.299,0.549,0.449,1.198,0.449,1.846v0.1c0.35-0.149,0.699-0.25,1.098-0.25
		c0.199,0,0.399,0,0.549,0.051c0.648,0.149,1.197,0.548,1.546,1.097c0.35,0.549,0.449,1.198,0.3,1.846
		C256.21,235.159,255.163,235.908,254.066,235.908z"/>
	<linearGradient id="SVGID_9_" gradientUnits="userSpaceOnUse" x1="256.9084" y1="246.7832" x2="260.1565" y2="246.7832">
		<stop  offset="0" style="stop-color:#234930"/>
		<stop  offset="1" style="stop-color:#83B645"/>
	</linearGradient>
	<path fill="url(#SVGID_9_)" d="M256.908,250.773v2.046l0.549,0.1c0.05,0,0.149,0,0.199,0c0.45,0,0.85-0.301,0.949-0.749
		l1.446-6.235c0.249-1.147,0.05-2.345-0.549-3.342c-0.599-0.947-1.546-1.646-2.595-1.945v2.145c0.35,0.2,0.698,0.5,0.898,0.848
		c0.35,0.549,0.449,1.197,0.3,1.846L256.908,250.773z"/>
	<g>
		<defs>
			<rect id="SVGID_10_" x="218" y="218" width="64" height="64"/>
		</defs>
		<clipPath id="SVGID_11_">
			<use xlink:href="#SVGID_10_"  overflow="visible"/>
		</clipPath>
		<g clip-path="url(#SVGID_11_)">
			<linearGradient id="SVGID_12_" gradientUnits="userSpaceOnUse" x1="218.0002" y1="250" x2="281.8879" y2="250">
				<stop  offset="0" style="stop-color:#234930"/>
				<stop  offset="1" style="stop-color:#83B645"/>
			</linearGradient>
			<path fill="url(#SVGID_12_)" d="M219.297,271.226l28.932,10.575c0.199,0.1,0.449,0.1,0.699,0.1c0.399,0,0.798-0.1,1.147-0.35
				c0.548-0.349,0.848-0.997,0.848-1.646v-2.146l2.594,1.098c0.101,0.05,0.25,0.101,0.399,0.101c0.199,0,0.399-0.051,0.549-0.151
				c0.299-0.199,0.448-0.498,0.448-0.848v-2.893h3.991c0.549,0,0.998-0.449,0.998-0.997v-10.077c0-0.35-0.15-0.648-0.449-0.798
				l-4.54-3.192v-20.951c0-0.399-0.249-0.798-0.647-0.947l-3.343-1.198v-5.736c0-0.848-0.499-1.597-1.297-1.896l-25.191-9.178
				h32.274v3.891h5.188v2.643l-15.463-3.492c-0.25-0.05-0.449-0.05-0.699-0.05c-1.196,0-2.195,0.698-2.693,1.696l1.895,0.699
				c0.2-0.25,0.499-0.399,0.798-0.399c0.05,0,0.15,0,0.2,0.05l33.122,7.482c0.55,0.1,0.898,0.649,0.749,1.197l-9.777,42.151
				l-8.132-1.846c0,0.699-0.299,1.397-0.748,1.896l8.431,1.896c0.15,0.05,0.3,0.05,0.449,0.05c0.897,0,1.745-0.599,1.945-1.546
				l9.827-42.201c0.199-0.798,0.05-1.596-0.399-2.245c-0.448-0.698-1.097-1.147-1.896-1.347l-15.613-3.492v-3.093
				c0-1.098-0.898-1.995-1.996-1.995h-3.191v-1.946c0-1.098-0.898-1.996-1.996-1.996h-36.713c-1.098,0-1.996,0.897-1.996,1.996
				v0.199c0,0.1,0,0.2,0,0.3v48.786C218,270.228,218.499,270.976,219.297,271.226z M250.923,239.001l1.996,0.748V260.5
				c0,0.35,0.149,0.648,0.448,0.799l4.539,3.192v8.529h-3.99c-0.549,0-0.997,0.449-0.997,0.999v2.394l-1.996-0.848V239.001z
				 M219.996,220.594l28.932,10.575v48.786l-28.932-10.575V220.594z"/>
		</g>
	</g>
	<linearGradient id="SVGID_13_" gradientUnits="userSpaceOnUse" x1="226.3044" y1="245.3442" x2="240.3914" y2="245.3442">
		<stop  offset="0" style="stop-color:#234930"/>
		<stop  offset="1" style="stop-color:#83B645"/>
	</linearGradient>
	<polygon fill="url(#SVGID_13_)" points="226.304,245.479 233.566,241.696 240.391,245.217 233.348,248.993 	"/>
	<polygon fill="#FFFFFF" points="230.064,245.407 233.449,243.643 236.632,245.285 233.348,247.045 	"/>
	<linearGradient id="SVGID_14_" gradientUnits="userSpaceOnUse" x1="233.9714" y1="252.334" x2="241.3914" y2="252.334">
		<stop  offset="0" style="stop-color:#234930"/>
		<stop  offset="1" style="stop-color:#83B645"/>
	</linearGradient>
	<polygon fill="url(#SVGID_14_)" points="233.971,250.002 241.247,246.464 241.391,254.551 233.971,258.203 	"/>
	<g>
		<path fill="#FFFFFF" d="M238.774,253.098c-0.663,1.053-1.809,1.534-2.547,1.068c-0.738-0.465-0.8-1.706-0.137-2.758
			c0.663-1.053,1.809-1.534,2.547-1.069C239.374,250.805,239.436,252.046,238.774,253.098z"/>
	</g>
	<linearGradient id="SVGID_15_" gradientUnits="userSpaceOnUse" x1="227.4207" y1="252.8828" x2="230.8987" y2="252.8828">
		<stop  offset="0" style="stop-color:#234930"/>
		<stop  offset="1" style="stop-color:#83B645"/>
	</linearGradient>
	<polygon fill="url(#SVGID_15_)" points="229.276,250.754 230.899,255.012 227.421,253.565 	"/>
</g>
</svg>
