<?xml version="1.0" encoding="utf-8"?>
<!-- Generator: Adobe Illustrator 16.0.2, SVG Export Plug-In . SVG Version: 6.00 Build 0)  -->
<!DOCTYPE svg PUBLIC "-//W3C//DTD SVG 1.1//EN" "http://www.w3.org/Graphics/SVG/1.1/DTD/svg11.dtd">
<svg version="1.1" id="Layer_1" xmlns="http://www.w3.org/2000/svg" xmlns:xlink="http://www.w3.org/1999/xlink" x="0px" y="0px"
	 width="53.396px" height="64px" viewBox="186.888 224 53.396 64" enable-background="new 186.888 224 53.396 64"
	 xml:space="preserve">
<g>
	<linearGradient id="SVGID_1_" gradientUnits="userSpaceOnUse" x1="186.8879" y1="262.7305" x2="240.2844" y2="262.7305">
		<stop  offset="0" style="stop-color:#83b645"/>
		<stop  offset="1" style="stop-color:#83B645"/>
	</linearGradient>
	<path fill="url(#SVGID_1_)" d="M232.196,270.58l-10.781-2.995c-0.083-0.022-0.168-0.034-0.254-0.034h-2.083v-2.879
		c3.498-1.666,6.126-4.871,7.004-8.735h1.264c1.914,0,3.472-1.557,3.472-3.471v-1.768c0-1.016-0.438-1.931-1.136-2.566v-4.124
		c0-0.523-0.424-0.947-0.947-0.947h-19.757c-0.523,0-0.947,0.424-0.947,0.947c0,0.522,0.424,0.947,0.947,0.947h15.529v8.142
		c0,6.021-4.898,10.919-10.919,10.919c-6.021,0-10.919-4.898-10.919-10.919v-8.142h1.894c0.523,0,0.947-0.424,0.947-0.947
		c0-0.523-0.424-0.947-0.947-0.947h-6.123c-0.522,0-0.947,0.424-0.947,0.947v4.124c-0.697,0.635-1.136,1.55-1.136,2.566v1.768
		c0,1.914,1.557,3.471,3.471,3.471h1.265c0.877,3.864,3.506,7.069,7.003,8.735v2.879h-2.083c-0.086,0-0.171,0.012-0.254,0.034
		l-10.781,2.995c-4.763,1.322-8.089,5.698-8.089,10.643v0.229c0,0.523,0.424,0.947,0.947,0.947s0.947-0.424,0.947-0.947v-0.229
		c0-4.097,2.756-7.723,6.703-8.818l8.693-2.414c0.319,2.025,1.28,3.891,2.776,5.344c1.789,1.737,4.144,2.693,6.632,2.693
		s4.844-0.956,6.632-2.693c1.497-1.453,2.458-3.318,2.776-5.344l8.694,2.414c3.946,1.096,6.702,4.722,6.702,8.818v0.229
		c0,0.523,0.424,0.947,0.947,0.947s0.947-0.424,0.947-0.947v-0.229C240.284,276.278,236.958,271.902,232.196,270.58z
		 M228.924,252.465c0,0.87-0.708,1.578-1.578,1.578h-0.981c0.023-0.313,0.035-0.628,0.035-0.947v-3.977h0.946
		c0.87,0,1.578,0.708,1.578,1.578V252.465z M227.787,247.256c-0.145-0.019-0.292-0.029-0.442-0.029h-0.947v-2.272h1.389V247.256z
		 M199.385,244.955h1.389v2.272h-0.947c-0.15,0-0.297,0.01-0.442,0.029V244.955z M199.827,254.043c-0.87,0-1.578-0.708-1.578-1.578
		v-1.767c0-0.87,0.708-1.578,1.578-1.578h0.947v3.976c0,0.318,0.012,0.634,0.035,0.947H199.827z M213.586,265.909
		c1.249,0,2.456-0.181,3.598-0.515v3.103c0,1.983-1.614,3.598-3.598,3.598c-1.983,0-3.598-1.614-3.598-3.598v-3.103
		C211.131,265.729,212.338,265.909,213.586,265.909z M221.158,269.479c-0.479,3.786-3.674,6.655-7.572,6.655
		c-3.897,0-7.093-2.869-7.572-6.655l0.127-0.036h2.037c0.45,2.578,2.703,4.545,5.408,4.545c2.705,0,4.958-1.967,5.408-4.545h2.037
		L221.158,269.479z"/>
	<linearGradient id="SVGID_2_" gradientUnits="userSpaceOnUse" x1="186.8879" y1="284.7178" x2="240.2844" y2="284.7178">
		<stop  offset="0" style="stop-color:#83b645"/>
		<stop  offset="1" style="stop-color:#83B645"/>
	</linearGradient>
	<path fill="url(#SVGID_2_)" d="M239.338,284.939c-0.523,0-0.947,0.424-0.947,0.946v0.221h-8.205v-3.724
		c0-0.523-0.424-0.947-0.947-0.947c-0.522,0-0.947,0.424-0.947,0.947v3.724H198.88v-3.724c0-0.523-0.424-0.947-0.947-0.947
		s-0.947,0.424-0.947,0.947v3.724h-8.205v-0.221c0-0.522-0.424-0.946-0.947-0.946s-0.947,0.424-0.947,0.946v1.167
		c0,0.523,0.424,0.947,0.947,0.947h51.503c0.523,0,0.947-0.424,0.947-0.947v-1.167C240.284,285.363,239.861,284.939,239.338,284.939
		z"/>
	<linearGradient id="SVGID_3_" gradientUnits="userSpaceOnUse" x1="199.7639" y1="232.5205" x2="227.4089" y2="232.5205">
		<stop  offset="0" style="stop-color:#83b645"/>
		<stop  offset="1" style="stop-color:#83B645"/>
	</linearGradient>
	<path fill="url(#SVGID_3_)" d="M208.284,241.042c2.002,0,3.844-0.696,5.3-1.856c1.504,1.202,3.358,1.856,5.304,1.856
		c4.698,0,8.521-3.822,8.521-8.521c0-4.698-3.822-8.521-8.521-8.521c-2.002,0-3.844,0.696-5.3,1.856
		c-1.504-1.202-3.357-1.856-5.304-1.856c-4.698,0-8.521,3.822-8.521,8.521C199.764,237.219,203.586,241.042,208.284,241.042z
		 M208.284,225.894c1.44,0,2.813,0.461,3.952,1.312c-0.558,0.696-1.009,1.481-1.328,2.331c-0.701-0.617-1.619-0.992-2.624-0.992
		c-2.192,0-3.976,1.784-3.976,3.976c0,2.193,1.784,3.977,3.976,3.977c2.193,0,3.977-1.784,3.977-3.977
		c0-3.654,2.973-6.627,6.627-6.627c3.654,0,6.627,2.973,6.627,6.627c0,3.654-2.973,6.627-6.627,6.627
		c-1.439,0-2.813-0.461-3.952-1.312c0.558-0.697,1.009-1.481,1.328-2.332c0.701,0.617,1.619,0.992,2.624,0.992
		c2.192,0,3.976-1.784,3.976-3.977c0-2.192-1.784-3.976-3.976-3.976c-2.193,0-3.977,1.784-3.977,3.976
		c0,3.654-2.973,6.627-6.627,6.627s-6.627-2.973-6.627-6.627C201.657,228.867,204.63,225.894,208.284,225.894z M210.367,232.521
		c0,1.149-0.935,2.083-2.083,2.083s-2.083-0.934-2.083-2.083c0-1.148,0.934-2.083,2.083-2.083S210.367,231.372,210.367,232.521z
		 M216.805,232.521c0-1.148,0.934-2.083,2.083-2.083s2.083,0.934,2.083,2.083c0,1.149-0.935,2.083-2.083,2.083
		S216.805,233.669,216.805,232.521z"/>
</g>
</svg>
