<svg width="17" height="22" viewBox="0 0 17 22" fill="none" xmlns="http://www.w3.org/2000/svg">
<path d="M15.3 21.08H1.7C0.76262 21.08 0 20.3174 0 19.38V1.70001C0 0.762626 0.76262 6.26308e-06 1.7 6.26308e-06H8.61679C8.8401 -0.000601953 9.06131 0.0430941 9.26762 0.128565C9.47393 0.214035 9.66123 0.339582 9.81869 0.497936L16.5021 7.18131C16.6604 7.33877 16.786 7.52607 16.8714 7.73238C16.9569 7.93869 17.0006 8.1599 17 8.38321V19.38C17 20.3174 16.2374 21.08 15.3 21.08ZM1.7 0.680006C1.13747 0.680006 0.68 1.13748 0.68 1.70001V19.38C0.68 19.9425 1.13747 20.4 1.7 20.4H15.3C15.8625 20.4 16.32 19.9425 16.32 19.38V8.38321C16.3192 8.1129 16.2119 7.85381 16.0213 7.66207L9.33793 0.978696C9.24344 0.883702 9.13106 0.80839 9.00727 0.75712C8.88349 0.70585 8.75077 0.67964 8.61679 0.680006H1.7Z" fill="#FD4233"/>
<path d="M13.8059 13.3143C13.794 13.2276 13.7243 13.1188 13.6495 13.0457C13.4353 12.8349 12.9644 12.7244 12.247 12.7142C11.7608 12.7091 11.176 12.7516 10.5606 12.8383C10.2852 12.6802 10.0013 12.5068 9.7786 12.2977C9.1785 11.7384 8.6787 10.9615 8.3659 10.1064C8.3863 10.0265 8.4033 9.95678 8.4203 9.88538C8.4203 9.88538 8.7569 7.96778 8.6685 7.31838C8.6566 7.22998 8.6481 7.20448 8.6243 7.13478L8.5954 7.05998C8.5036 6.84748 8.3234 6.62308 8.0412 6.63498L7.8746 6.62988H7.8712C7.555 6.62988 7.3 6.79138 7.232 7.03108C7.028 7.78588 7.2388 8.91638 7.6213 10.3784L7.5227 10.6164C7.249 11.2862 6.9056 11.9594 6.603 12.5527L6.5639 12.6292C6.2443 13.2531 5.9553 13.7835 5.6918 14.2323L5.4215 14.3751C5.4011 14.3853 4.937 14.6318 4.8282 14.6964C3.9051 15.2489 3.2931 15.8745 3.1911 16.3709C3.1588 16.5307 3.1826 16.733 3.3475 16.8265L3.6093 16.9591C3.7232 17.0152 3.8439 17.0441 3.9663 17.0441C4.6242 17.0441 5.3875 16.2247 6.4398 14.3887C7.6536 13.9943 9.0374 13.6645 10.2495 13.4843C11.1726 14.0028 12.3082 14.3649 13.0256 14.3649C13.1531 14.3649 13.2636 14.353 13.352 14.3292C13.4897 14.2918 13.6053 14.2136 13.6767 14.1082C13.8161 13.8991 13.8433 13.6101 13.8059 13.3143ZM3.8235 16.546C3.9425 16.2179 4.4185 15.5685 5.1206 14.9939C5.1648 14.9582 5.2736 14.8562 5.3722 14.761C4.6378 15.9323 4.1465 16.3981 3.8235 16.546ZM7.9817 6.96988C8.1925 6.96988 8.3132 7.50198 8.3234 8.00178C8.3336 8.50158 8.2163 8.85178 8.0718 9.11188C7.9511 8.72768 7.8933 8.12248 7.8933 7.72638C7.8933 7.72638 7.8848 6.96988 7.9817 6.96988ZM6.7407 13.7937C6.8886 13.5302 7.0416 13.2514 7.198 12.9573C7.5805 12.2348 7.8219 11.6704 8.0004 11.2063C8.3574 11.8557 8.8028 12.4082 9.3247 12.8502C9.391 12.9046 9.4607 12.9607 9.5321 13.0168C8.4696 13.2259 7.5499 13.4826 6.7407 13.7937ZM13.4438 13.7342C13.3792 13.7733 13.1939 13.7971 13.0749 13.7971C12.6907 13.7971 12.213 13.622 11.5449 13.3347C11.8016 13.316 12.0379 13.3058 12.2487 13.3058C12.6346 13.3058 12.7485 13.3041 13.1276 13.401C13.505 13.4979 13.5101 13.6934 13.4438 13.7342Z" fill="#FF402F"/>
</svg>
