<?xml version="1.0" encoding="utf-8"?>
<!-- Generator: Adobe Illustrator 16.0.2, SVG Export Plug-In . SVG Version: 6.00 Build 0)  -->
<!DOCTYPE svg PUBLIC "-//W3C//DTD SVG 1.1//EN" "http://www.w3.org/Graphics/SVG/1.1/DTD/svg11.dtd">
<svg version="1.1" id="Layer_1" xmlns="http://www.w3.org/2000/svg" xmlns:xlink="http://www.w3.org/1999/xlink" x="0px" y="0px"
	 width="82.251px" height="63.999px" viewBox="364.118 388.68 82.251 63.999" enable-background="new 364.118 388.68 82.251 63.999"
	 xml:space="preserve">
<g>
	<linearGradient id="SVGID_1_" gradientUnits="userSpaceOnUse" x1="383.8601" y1="427.5723" x2="423.1946" y2="427.5723">
		<stop  offset="0" style="stop-color:#fff"/>
		<stop  offset="1" style="stop-color:#83B645"/>
	</linearGradient>
	<path fill="url(#SVGID_1_)" d="M396.106,418.632c-7.555,1.404-12.246,4.711-12.246,8.628c0,5.206,8.638,9.286,19.667,9.286
		c11.028,0,19.667-4.08,19.667-9.286c0-3.937-4.727-7.249-12.334-8.645c-0.624-0.109-1.208,0.298-1.321,0.914
		c-0.112,0.618,0.296,1.211,0.912,1.324c6.166,1.132,10.472,3.766,10.472,6.406c0,3.315-7.144,7.011-17.396,7.011
		s-17.396-3.695-17.396-7.011c0-2.624,4.273-5.253,10.39-6.392c0.616-0.114,1.024-0.708,0.909-1.326
		C397.315,418.926,396.724,418.517,396.106,418.632"/>
	<linearGradient id="SVGID_2_" gradientUnits="userSpaceOnUse" x1="373.4104" y1="426.6621" x2="416.6252" y2="426.6621">
		<stop  offset="0" style="stop-color:#fff"/>
		<stop  offset="1" style="stop-color:#83B645"/>
	</linearGradient>
	<path fill="url(#SVGID_2_)" d="M392.094,439.09c-9.816-2.108-16.412-6.862-16.412-11.83c0-7.047,12.751-13,27.845-13
		c4.089,0,8.031,0.413,11.717,1.229c0.617,0.132,1.219-0.252,1.354-0.866c0.135-0.613-0.253-1.22-0.865-1.355
		c-3.845-0.851-7.952-1.283-12.206-1.283c-16.888,0-30.117,6.709-30.117,15.275c0,6.163,7.148,11.68,18.208,14.056
		c0.08,0.018,0.161,0.025,0.239,0.025c0.523,0,0.995-0.366,1.109-0.898C393.099,439.827,392.709,439.223,392.094,439.09"/>
	<linearGradient id="SVGID_3_" gradientUnits="userSpaceOnUse" x1="402.3923" y1="430.0557" x2="433.6428" y2="430.0557">
		<stop  offset="0" style="stop-color:#fff"/>
		<stop  offset="1" style="stop-color:#fff"/>
	</linearGradient>
	<path fill="url(#SVGID_3_)" d="M425.664,418.104c-0.338,0.528-0.185,1.232,0.344,1.571c2.447,1.572,5.364,4.163,5.364,7.585
		c0,7.046-12.751,12.998-27.845,12.998c-0.627,0-1.135,0.51-1.135,1.138c0,0.629,0.508,1.138,1.135,1.138
		c16.887,0,30.115-6.708,30.115-15.273c0-3.522-2.216-6.807-6.409-9.501C426.706,417.419,426.005,417.573,425.664,418.104"/>
	<linearGradient id="SVGID_4_" gradientUnits="userSpaceOnUse" x1="364.1184" y1="443.5244" x2="390.6008" y2="443.5244">
		<stop  offset="0" style="stop-color:#fff"/>
		<stop  offset="1" style="stop-color:#fff"/>
	</linearGradient>
	<path fill="url(#SVGID_4_)" d="M389.697,449.014c-10.54-2.198-19.118-6.854-23.534-12.771c-0.374-0.504-1.085-0.606-1.589-0.23
		c-0.501,0.376-0.605,1.088-0.23,1.591c4.743,6.359,13.814,11.329,24.889,13.639c0.078,0.016,0.157,0.022,0.233,0.022
		c0.527,0,0.999-0.369,1.11-0.905C390.704,449.744,390.311,449.141,389.697,449.014"/>
	<g>
		<g>
			<linearGradient id="SVGID_5_" gradientUnits="userSpaceOnUse" x1="402.3923" y1="439.4004" x2="446.3694" y2="439.4004">
				<stop  offset="0" style="stop-color:#fff"/>
				<stop  offset="1" style="stop-color:#fff"/>
			</linearGradient>
			<path fill="url(#SVGID_5_)" d="M445.234,426.122c-0.627,0-1.135,0.509-1.135,1.138c0,12.762-18.201,23.145-40.571,23.145
				c-0.627,0-1.135,0.509-1.135,1.137c0,0.629,0.508,1.138,1.135,1.138c23.623,0,42.842-11.402,42.842-25.419
				C446.369,426.631,445.861,426.122,445.234,426.122"/>
		</g>
	</g>
	<g>
		<g>
			<linearGradient id="SVGID_6_" gradientUnits="userSpaceOnUse" x1="390.8997" y1="417.9004" x2="417.3518" y2="417.9004">
				<stop  offset="0" style="stop-color:#fff"/>
				<stop  offset="1" style="stop-color:#fff"/>
			</linearGradient>
			<path fill="url(#SVGID_6_)" d="M394.937,426.738c-0.762,0.556-1.663,0.901-2.703,0.971c-0.485,0.069-0.971,0.347-1.178,0.764
				c-0.208,0.416-0.208,0.97,0,1.387c0.693,1.247,1.872,1.593,2.635,1.802c2.703,0.832,5.476,1.04,8.249,1.108
				c0.762,0,1.525,0.07,2.287,0.07c2.565,0,5.061-0.208,7.486-0.555c1.248-0.208,2.634-0.486,4.021-1.109
				c0.416-0.208,1.316-0.624,1.595-1.803c0.068-0.416,0-0.831-0.278-1.178c-0.276-0.347-0.623-0.556-1.108-0.556
				c-1.595-0.068-2.911-0.831-4.367-2.564c-1.248-1.456-2.287-3.951-3.119-5.962c-0.208-0.416-0.347-0.832-0.555-1.248
				c-1.039-2.356-1.802-5.962-2.219-7.973c1.387-0.693,2.219-2.218,2.011-3.743c-0.277-1.872-1.802-3.189-3.674-3.189
				c-1.872,0-3.396,1.317-3.674,3.12c-0.277,1.595,0.624,3.188,1.941,3.813c-0.555,2.773-1.941,9.151-4.021,12.618
				C397.294,424.451,396.185,425.769,394.937,426.738z M404.156,405.872c0.416,0,0.763,0.277,0.832,0.763
				c0.069,0.277-0.139,0.693-0.485,0.763c-0.069,0-0.555,0-0.624,0c-0.277-0.069-0.555-0.485-0.485-0.832
				C403.394,406.149,403.741,405.872,404.156,405.872z M404.156,415.439c0.347,1.247,0.763,2.495,1.248,3.604
				c0.139,0.416,0.346,0.763,0.486,1.248c0.901,2.219,2.079,4.922,3.604,6.724c0.624,0.763,1.524,1.664,2.634,2.357
				c-0.277,0.069-0.485,0.069-0.763,0.14c-2.98,0.415-6.03,0.554-9.219,0.484c-2.01-0.069-3.951-0.208-5.823-0.555
				c0.139-0.069,0.277-0.208,0.417-0.276c1.594-1.18,2.98-2.774,4.298-4.992C402.077,422.095,403.117,419.252,404.156,415.439z"/>
		</g>
	</g>
	<g>
		<g>
			<linearGradient id="SVGID_7_" gradientUnits="userSpaceOnUse" x1="399.3738" y1="393.4629" x2="408.9397" y2="393.4629">
				<stop  offset="0" style="stop-color:#fff"/>
				<stop  offset="1" style="stop-color:#fff"/>
			</linearGradient>
			<path fill="url(#SVGID_7_)" d="M404.156,398.247c2.635,0,4.783-2.149,4.783-4.714c0-1.317-0.485-2.496-1.387-3.466
				c-0.901-0.901-2.08-1.387-3.396-1.387c-2.634,0-4.783,2.08-4.783,4.645c0,1.317,0.485,2.565,1.456,3.536
				C401.661,397.761,402.84,398.247,404.156,398.247z M404.156,391.591c0.485,0,0.97,0.208,1.317,0.555
				c0.347,0.347,0.554,0.833,0.554,1.387c0,0.971-0.901,1.802-1.871,1.802c-0.485,0-0.97-0.208-1.317-0.555
				s-0.554-0.901-0.554-1.456C402.285,392.354,403.117,391.591,404.156,391.591z"/>
		</g>
	</g>
</g>
</svg>
