<?xml version="1.0" encoding="utf-8"?>
<!-- Generator: Adobe Illustrator 16.0.2, SVG Export Plug-In . SVG Version: 6.00 Build 0)  -->
<!DOCTYPE svg PUBLIC "-//W3C//DTD SVG 1.1//EN" "http://www.w3.org/Graphics/SVG/1.1/DTD/svg11.dtd">
<svg version="1.1" id="Layer_1" xmlns="http://www.w3.org/2000/svg" xmlns:xlink="http://www.w3.org/1999/xlink" x="0px" y="0px"
	 width="64.086px" height="64px" viewBox="155.214 155.5 64.086 64" enable-background="new 155.214 155.5 64.086 64"
	 xml:space="preserve" fill="#fff">
<filter  id="a" xlink:show="other" height="100%" xlink:actuate="onLoad" xlink:type="simple" width="100%" y="0%" x="0%">
	<feColorMatrix  values="0 0 0 0 1 0 0 0 0 1 0 0 0 0 1 0 0 0 1 0" color-interpolation-filters="sRGB"></feColorMatrix>
</filter>
<linearGradient id="SVGID_1_" gradientUnits="userSpaceOnUse" x1="201.8948" y1="174.1553" x2="214.1292" y2="174.1553">
	<stop  offset="0" style="stop-color:#fff"/>
	<stop  offset="1" style="stop-color:#fff"/>
</linearGradient>
<path fill="url(#SVGID_1_)" d="M202.7,174.014l10.259,2.302c0.05,0,0.149,0,0.199,0c0.451,0,0.851-0.301,0.951-0.8
	c0.101-0.551-0.2-1.051-0.751-1.201l-10.258-2.302c-0.551-0.101-1.051,0.2-1.201,0.75C201.85,173.364,202.151,173.914,202.7,174.014
	z"/>
<linearGradient id="SVGID_2_" gradientUnits="userSpaceOnUse" x1="200.8303" y1="178.9658" x2="213.0276" y2="178.9658">
	<stop  offset="0" style="stop-color:#fff"/>
	<stop  offset="1" style="stop-color:#fff"/>
</linearGradient>
<path fill="url(#SVGID_2_)" d="M200.85,177.617c-0.101,0.551,0.199,1.051,0.75,1.201l10.258,2.302c0.05,0,0.149,0,0.201,0
	c0.449,0,0.85-0.3,0.95-0.8c0.1-0.55-0.2-1.051-0.751-1.201L202,176.816C201.5,176.767,200.949,177.117,200.85,177.617z"/>
<linearGradient id="SVGID_3_" gradientUnits="userSpaceOnUse" x1="199.679" y1="183.7695" x2="211.8762" y2="183.7695">
	<stop  offset="0" style="stop-color:#fff"/>
	<stop  offset="1" style="stop-color:#fff"/>
</linearGradient>
<path fill="url(#SVGID_3_)" d="M199.698,182.421c-0.101,0.55,0.2,1.051,0.75,1.201l10.259,2.301c0.05,0,0.15,0,0.2,0
	c0.45,0,0.851-0.3,0.95-0.8c0.1-0.551-0.2-1.05-0.751-1.201l-10.257-2.302C200.349,181.57,199.848,181.921,199.698,182.421z"/>
<linearGradient id="SVGID_4_" gradientUnits="userSpaceOnUse" x1="198.5784" y1="188.6328" x2="210.7766" y2="188.6328">
	<stop  offset="0" style="stop-color:#fff"/>
	<stop  offset="1" style="stop-color:#fff"/>
</linearGradient>
<path fill="url(#SVGID_4_)" d="M198.597,187.274c-0.1,0.551,0.201,1.052,0.752,1.201l10.257,2.302c0.05,0,0.15,0,0.2,0
	c0.45,0,0.852-0.3,0.951-0.801c0.101-0.55-0.2-1.05-0.75-1.201l-10.209-2.251C199.247,186.374,198.698,186.724,198.597,187.274z"/>
<linearGradient id="SVGID_5_" gradientUnits="userSpaceOnUse" x1="196.1458" y1="199.9346" x2="207.1233" y2="199.9346">
	<stop  offset="0" style="stop-color:#fff"/>
	<stop  offset="1" style="stop-color:#fff"/>
</linearGradient>
<path fill="url(#SVGID_5_)" d="M199.098,200.535l6.855,1.551c0.05,0,0.149,0,0.2,0c0.45,0,0.851-0.3,0.951-0.8
	c0.1-0.551-0.201-1.051-0.752-1.202l-10.207-2.301l1.751,1.251C198.497,199.434,198.848,199.935,199.098,200.535z"/>
<linearGradient id="SVGID_6_" gradientUnits="userSpaceOnUse" x1="199.2473" y1="205.2383" x2="206.0383" y2="205.2383">
	<stop  offset="0" style="stop-color:#fff"/>
	<stop  offset="1" style="stop-color:#fff"/>
</linearGradient>
<path fill="url(#SVGID_6_)" d="M205.253,204.938l-6.006-1.352v2.052l5.604,1.251c0.05,0,0.151,0,0.201,0c0.449,0,0.851-0.3,0.95-0.8
	C206.154,205.589,205.803,205.088,205.253,204.938z"/>
<linearGradient id="SVGID_7_" gradientUnits="userSpaceOnUse" x1="194.2434" y1="194.7803" x2="208.2737" y2="194.7803">
	<stop  offset="0" style="stop-color:#fff"/>
	<stop  offset="1" style="stop-color:#fff"/>
</linearGradient>
<path fill="url(#SVGID_7_)" d="M207.305,197.282c0.449,0,0.85-0.3,0.95-0.801c0.1-0.55-0.2-1.05-0.751-1.2l-13.261-3.003v2.052
	l12.811,2.902C207.155,197.282,207.204,197.282,207.305,197.282z"/>
<linearGradient id="SVGID_8_" gradientUnits="userSpaceOnUse" x1="189.7405" y1="170.584" x2="195.8" y2="170.584">
	<stop  offset="0" style="stop-color:#fff"/>
	<stop  offset="1" style="stop-color:#fff"/>
</linearGradient>
<path fill="url(#SVGID_8_)" d="M191.392,173.364l0.851,0.301c0.551,0.2,1.051,0.601,1.4,1.05c1.002-0.6,1.803-1.601,2.052-2.802
	c0.251-1.15,0.051-2.352-0.55-3.352c-0.65-1.001-1.651-1.752-2.852-2.001c-0.901-0.2-1.752-0.1-2.553,0.15
	c0.3,0.55,0.451,1.201,0.451,1.852v0.1c0.35-0.15,0.7-0.251,1.1-0.251c0.2,0,0.401,0,0.551,0.051c0.651,0.15,1.201,0.55,1.552,1.101
	s0.45,1.201,0.301,1.852C193.543,172.613,192.493,173.364,191.392,173.364z"/>
<linearGradient id="SVGID_9_" gradientUnits="userSpaceOnUse" x1="194.2434" y1="184.2725" x2="197.5022" y2="184.2725">
	<stop  offset="0" style="stop-color:#fff"/>
	<stop  offset="1" style="stop-color:#fff"/>
</linearGradient>
<path fill="url(#SVGID_9_)" d="M194.243,188.276v2.052l0.551,0.1c0.05,0,0.15,0,0.2,0c0.451,0,0.852-0.301,0.951-0.751l1.451-6.255
	c0.25-1.151,0.05-2.352-0.551-3.353c-0.601-0.951-1.551-1.651-2.603-1.952v2.151c0.352,0.201,0.701,0.501,0.901,0.851
	c0.351,0.551,0.45,1.201,0.301,1.852L194.243,188.276z"/>
<g>
	<g>
		<linearGradient id="SVGID_10_" gradientUnits="userSpaceOnUse" x1="155.2136" y1="187.5" x2="219.3" y2="187.5">
			<stop  offset="0" style="stop-color:#fff"/>
			<stop  offset="1" style="stop-color:#fff"/>
		</linearGradient>
		<path fill="url(#SVGID_10_)" d="M156.515,208.792l29.022,10.608c0.2,0.1,0.451,0.1,0.701,0.1c0.4,0,0.8-0.1,1.151-0.351
			c0.549-0.35,0.85-1.001,0.85-1.651v-2.151l2.602,1.102c0.101,0.05,0.251,0.1,0.4,0.1c0.2,0,0.401-0.05,0.551-0.15
			c0.3-0.2,0.45-0.5,0.45-0.851v-2.902h4.003c0.551,0,1.002-0.451,1.002-1.001v-10.108c0-0.35-0.151-0.65-0.451-0.8l-4.554-3.202
			v-21.017c0-0.401-0.25-0.801-0.65-0.951l-3.353-1.201v-5.754c0-0.85-0.5-1.602-1.301-1.901l-25.27-9.207h32.375v3.903h5.203v2.651
			l-15.512-3.503c-0.25-0.05-0.45-0.05-0.701-0.05c-1.2,0-2.202,0.701-2.701,1.702l1.901,0.701c0.201-0.251,0.5-0.401,0.8-0.401
			c0.05,0,0.151,0,0.201,0.05l33.225,7.506c0.551,0.1,0.9,0.651,0.751,1.2l-9.808,42.283l-8.157-1.851c0,0.7-0.3,1.4-0.75,1.9
			l8.456,1.901c0.151,0.051,0.301,0.051,0.451,0.051c0.9,0,1.751-0.601,1.951-1.552l9.858-42.333c0.199-0.8,0.05-1.601-0.401-2.251
			c-0.449-0.701-1.1-1.151-1.901-1.351l-15.662-3.503v-3.102c0-1.101-0.9-2.001-2.002-2.001h-3.201v-1.952
			c0-1.102-0.901-2.002-2.002-2.002h-36.829c-1.101,0-2.002,0.9-2.002,2.002v0.2c0,0.1,0,0.201,0,0.301v48.938
			C155.214,207.791,155.715,208.541,156.515,208.792z M188.24,176.467l2.002,0.75v20.816c0,0.351,0.149,0.65,0.449,0.801
			l4.555,3.202v8.557h-4.004c-0.551,0-1,0.45-1,1.001v2.401l-2.002-0.85V176.467z M157.216,158.002l29.022,10.608v48.938
			l-29.022-10.607V158.002z"/>
	</g>
</g>
<g>
	<g>
		<defs>
			<filter id="Adobe_OpacityMaskFilter" filterUnits="userSpaceOnUse" x="162.166" y="177.718" width="19.539" height="19.539">
				<feColorMatrix  type="matrix" values="1 0 0 0 0  0 1 0 0 0  0 0 1 0 0  0 0 0 1 0"/>
			</filter>
		</defs>
		<mask maskUnits="userSpaceOnUse" x="162.166" y="177.718" width="19.539" height="19.539" id="e">
			<g filter="url(#a)">
				<g transform="matrix(.27097 0 0 .27097 79.39 145.445)">
					
						<image overflow="visible" width="20" height="20" xlink:href="64F18030.png"  transform="matrix(3.6904 0 0 3.6904 305.4813 119.101)">
					</image>
				</g>
			</g>
		</mask>
		<g mask="url(#e)">
			<g transform="matrix(.27097 0 0 .27097 79.39 145.445)">
				<g transform="matrix(1 0 0 1 0 0)">
					
						<image overflow="visible" width="310" height="310" xlink:href="64F18031.png"  transform="matrix(0.2326 0 0 0.2326 305.4813 119.101)">
					</image>
				</g>
				<linearGradient id="SVGID_11_" gradientUnits="userSpaceOnUse" x1="398.975" y1="155.2017" x2="398.975" y2="155.2017">
					<stop  offset="0" style="stop-color:#fff"/>
					<stop  offset="1" style="stop-color:#fff"/>
				</linearGradient>
				<path fill="url(#SVGID_11_)" enable-background="new    " d="z"/>
			</g>
		</g>
	</g>
</g>
</svg>
