<svg width="72" height="81" viewBox="0 0 72 81" fill="none" xmlns="http://www.w3.org/2000/svg">
<path d="M17.7712 45.0472C17.1405 47.3408 16.8008 49.755 16.8008 52.249C16.8008 67.2156 28.9336 79.3484 43.9002 79.3484C58.8668 79.3484 70.9998 67.2156 70.9998 52.249C70.9998 37.2825 58.8668 25.1494 43.9002 25.1494C41.1666 25.1494 38.5288 25.557 36.041 26.3098" stroke="white" stroke-width="2" stroke-miterlimit="10" stroke-linecap="round" stroke-linejoin="round"/>
<path d="M24.6004 45.0471C24.0639 46.4839 23.6834 47.9963 23.4785 49.564" stroke="white" stroke-width="2" stroke-miterlimit="10" stroke-linecap="round" stroke-linejoin="round"/>
<path d="M23.6025 55.7561C25.2675 65.4604 33.721 72.8453 43.9004 72.8453C55.2755 72.8453 64.497 63.624 64.497 52.2487C64.497 40.8734 55.2755 31.6521 43.9004 31.6521C41.1169 31.6521 38.4631 32.2057 36.0411 33.2065" stroke="white" stroke-width="2" stroke-miterlimit="10" stroke-linecap="round" stroke-linejoin="round"/>
<path d="M43.9004 37.7334V52.2486H56.4379" stroke="white" stroke-width="2" stroke-miterlimit="10" stroke-linecap="round" stroke-linejoin="round"/>
<path d="M1 26.0339V43.2779C1 44.2551 1.79206 45.0471 2.76918 45.0471H34.2719C35.249 45.0471 36.0411 44.2551 36.0411 43.2779V8.69116H1V26.0339Z" stroke="white" stroke-width="2" stroke-miterlimit="10" stroke-linecap="round" stroke-linejoin="round"/>
<path d="M36.0411 8.69116H1V2.76918C1 1.79206 1.79206 1 2.76918 1H34.2719C35.249 1 36.0411 1.79206 36.0411 2.76918V8.69116Z" stroke="white" stroke-width="2" stroke-miterlimit="10" stroke-linecap="round" stroke-linejoin="round"/>
<path d="M27.7148 36.9143L7.93359 36.9446" stroke="white" stroke-width="2" stroke-miterlimit="10" stroke-linecap="round" stroke-linejoin="round"/>
<path d="M29.1081 36.9446H25.2527" stroke="white" stroke-width="2" stroke-miterlimit="10" stroke-linecap="round" stroke-linejoin="round"/>
<path d="M7.93359 31.8413H29.108" stroke="white" stroke-width="2" stroke-miterlimit="10" stroke-linecap="round" stroke-linejoin="round"/>
<path d="M7.93359 26.5732H29.108" stroke="white" stroke-width="2" stroke-miterlimit="10" stroke-linecap="round" stroke-linejoin="round"/>
<path d="M7.89941 21.3457H29.0739" stroke="white" stroke-width="2" stroke-miterlimit="10" stroke-linecap="round" stroke-linejoin="round"/>
<path d="M7.89941 16.2148H29.0739" stroke="white" stroke-width="2" stroke-miterlimit="10" stroke-linecap="round" stroke-linejoin="round"/>
<path d="M46.4663 21.134L41.613 16.281L46.4663 11.4277" stroke="white" stroke-width="2" stroke-miterlimit="10" stroke-linecap="round" stroke-linejoin="round"/>
<path d="M43.8083 16.3672H64.1149" stroke="white" stroke-width="2" stroke-linecap="round"/>
</svg>
