<svg width="77" height="78" viewBox="0 0 77 78" fill="none" xmlns="http://www.w3.org/2000/svg">
<path d="M63.1891 50.3226C56.0921 50.3226 50.2515 55.8606 49.6233 62.9032H29.0967C28.73 61.6213 28.2034 60.3871 27.5306 59.2246L30.3134 55.6933C31.5388 54.137 32.2141 52.1833 32.2141 50.1917V40.2581H37.2333C37.8615 47.3007 43.7021 52.8387 50.7991 52.8387C58.3137 52.8387 64.4281 46.6302 64.4281 39C64.4281 31.3698 58.3137 25.1613 50.7991 25.1613C43.7021 25.1613 37.8615 30.6993 37.2333 37.7419H32.2141V37.1909C32.2141 35.456 31.0556 33.9501 29.3991 33.5299L27.2581 32.9865L22.3021 31.7271L19.824 31.0981L17.346 30.4691V22.6452H30.9751C33.0244 22.6452 34.6921 20.9518 34.6921 18.871V15.0968H49.6233C50.2515 22.1394 56.0921 27.6774 63.1891 27.6774C70.7037 27.6774 76.8182 21.4689 76.8182 13.8387C76.8182 6.20855 70.7037 0 63.1891 0C56.0921 0 50.2515 5.538 49.6233 12.5806H34.6921V8.80645C34.6921 6.72561 33.0244 5.03226 30.9751 5.03226H3.71701C1.6677 5.03226 0 6.72561 0 8.80645V18.871C0 20.9518 1.6677 22.6452 3.71701 22.6452H9.91202V35.5152C8.76347 34.5628 7.31755 33.9677 5.72172 33.9677C3.9326 33.9677 2.47801 35.446 2.47801 37.2614C2.47801 37.7696 2.59695 38.2804 2.81997 38.7345L4.30182 41.7438C4.72927 42.6119 4.95601 43.5856 4.95601 44.5556V50.1905C4.95601 52.1833 5.63127 54.137 6.85664 55.692L9.63944 59.2234C8.19848 61.7156 7.43402 64.5349 7.43402 67.4386V78H29.7361V67.4386C29.7361 66.7592 29.6853 66.0861 29.6035 65.4194H49.6233C50.2515 72.462 56.0921 78 63.1891 78C70.7037 78 76.8182 71.7915 76.8182 64.1613C76.8182 56.5311 70.7037 50.3226 63.1891 50.3226ZM43.8211 47.8178C44.8581 44.8223 47.6186 42.7742 50.7991 42.7742C53.9796 42.7742 56.7401 44.8223 57.7772 47.8178C55.8642 49.3815 53.4394 50.3226 50.7991 50.3226C48.1588 50.3226 45.7341 49.3815 43.8211 47.8178ZM47.0821 36.4839C47.0821 34.403 48.7498 32.7097 50.7991 32.7097C52.8484 32.7097 54.5161 34.403 54.5161 36.4839C54.5161 38.5647 52.8484 40.2581 50.7991 40.2581C48.7498 40.2581 47.0821 38.5647 47.0821 36.4839ZM50.7991 27.6774C56.9471 27.6774 61.9501 32.7562 61.9501 39C61.9501 41.5727 61.0903 43.9404 59.6617 45.8439C58.6432 43.7542 56.9557 42.1074 54.9027 41.1601C56.1752 40.0077 56.9941 38.3483 56.9941 36.4839C56.9941 33.0154 54.215 30.1935 50.7991 30.1935C47.3832 30.1935 44.6041 33.0154 44.6041 36.4839C44.6041 38.3483 45.4231 40.0077 46.6955 41.1601C44.6425 42.1074 42.955 43.7542 41.9365 45.8439C40.508 43.9404 39.6481 41.5727 39.6481 39C39.6481 32.7562 44.6512 27.6774 50.7991 27.6774ZM56.2111 22.6565C57.2481 19.661 60.0086 17.6129 63.1891 17.6129C66.3697 17.6129 69.1302 19.661 70.1672 22.6565C68.2542 24.2203 65.8295 25.1613 63.1891 25.1613C60.5488 25.1613 58.1241 24.2203 56.2111 22.6565ZM59.4721 11.3226C59.4721 9.24174 61.1398 7.54839 63.1891 7.54839C65.2385 7.54839 66.9062 9.24174 66.9062 11.3226C66.9062 13.4034 65.2385 15.0968 63.1891 15.0968C61.1398 15.0968 59.4721 13.4034 59.4721 11.3226ZM63.1891 2.51613C69.3371 2.51613 74.3402 7.59494 74.3402 13.8387C74.3402 16.4115 73.4803 18.7791 72.0517 20.6826C71.0333 18.5929 69.3458 16.9461 67.2927 15.9988C68.5652 14.8464 69.3842 13.187 69.3842 11.3226C69.3842 7.8541 66.6051 5.03226 63.1891 5.03226C59.7732 5.03226 56.9941 7.8541 56.9941 11.3226C56.9941 13.187 57.8131 14.8464 59.0856 15.9988C57.0325 16.9461 55.345 18.5929 54.3266 20.6826C52.898 18.7791 52.0381 16.4115 52.0381 13.8387C52.0381 7.59494 57.0412 2.51613 63.1891 2.51613ZM3.71701 20.129C3.03432 20.129 2.47801 19.5654 2.47801 18.871V8.80645C2.47801 8.112 3.03432 7.54839 3.71701 7.54839H30.9751C31.6578 7.54839 32.2141 8.112 32.2141 8.80645V18.871C32.2141 19.5654 31.6578 20.129 30.9751 20.129H17.346V18.871C17.346 16.7901 15.6783 15.0968 13.629 15.0968C11.5797 15.0968 9.91202 16.7901 9.91202 18.871V20.129H3.71701ZM7.43402 50.1917V44.5569C7.43402 43.1969 7.11807 41.8357 6.51839 40.6191L5.03655 37.6098C4.98327 37.5029 4.95601 37.3821 4.95601 37.2614C4.95601 36.8324 5.29922 36.4839 5.72172 36.4839C8.03246 36.4839 9.91202 38.3936 9.91202 40.7386V42.7742V46.5484H12.39V42.7742V40.7386V18.871C12.39 18.1765 12.9463 17.6129 13.629 17.6129C14.3117 17.6129 14.868 18.1765 14.868 18.871V29.84V46.5484H17.346V33.0632L19.824 33.6922V46.5484H22.3021V34.3213L24.7801 34.9503V46.5484H27.2581V35.5781L28.7969 35.9693C29.3495 36.1102 29.7361 36.6122 29.7361 37.1909V50.1917C29.7361 51.6146 29.2541 53.0098 28.3781 54.1207L25.4231 57.871H11.747L8.79196 54.1207C7.91599 53.0098 7.43402 51.6134 7.43402 50.1917ZM27.2581 75.4839H9.91202V67.4386C9.91202 64.9426 10.5737 62.517 11.8325 60.3871H25.3376C26.5964 62.517 27.2581 64.9426 27.2581 67.4386V75.4839ZM56.2111 72.9791C57.2481 69.9836 60.0086 67.9355 63.1891 67.9355C66.3697 67.9355 69.1302 69.9836 70.1672 72.9791C68.2542 74.5428 65.8295 75.4839 63.1891 75.4839C60.5488 75.4839 58.1241 74.5428 56.2111 72.9791ZM59.4721 61.6452C59.4721 59.5643 61.1398 57.871 63.1891 57.871C65.2385 57.871 66.9062 59.5643 66.9062 61.6452C66.9062 63.726 65.2385 65.4194 63.1891 65.4194C61.1398 65.4194 59.4721 63.726 59.4721 61.6452ZM72.0517 71.0052C71.0333 68.9155 69.3458 67.2687 67.2927 66.3214C68.5652 65.169 69.3842 63.5096 69.3842 61.6452C69.3842 58.1767 66.6051 55.3548 63.1891 55.3548C59.7732 55.3548 56.9941 58.1767 56.9941 61.6452C56.9941 63.5096 57.8131 65.169 59.0856 66.3214C57.0325 67.2687 55.345 68.9155 54.3266 71.0052C52.898 69.1017 52.0381 66.734 52.0381 64.1613C52.0381 57.9175 57.0412 52.8387 63.1891 52.8387C69.3371 52.8387 74.3402 57.9175 74.3402 64.1613C74.3402 66.734 73.4803 69.1017 72.0517 71.0052Z" fill="white"/>
</svg>
