<svg width="70" height="76" viewBox="0 0 70 76" fill="none" xmlns="http://www.w3.org/2000/svg">
<path d="M34.9999 14.4014C24.9376 14.4014 16.75 22.5889 16.75 32.6513C16.75 42.7167 24.936 50.9058 34.9999 50.9058C45.0653 50.9058 53.2544 42.7167 53.2544 32.6513C53.2528 22.5874 45.0638 14.4014 34.9999 14.4014ZM34.9999 48.7669C26.1162 48.7669 18.8889 41.5381 18.8889 32.6513C18.8889 23.7675 26.1162 16.5402 34.9999 16.5402C43.8867 16.5402 51.1155 23.7675 51.1155 32.6513C51.1155 41.5365 43.8852 48.7669 34.9999 48.7669Z" fill="white"/>
<path d="M48.3239 30.352C48.3239 28.7657 47.0323 27.4742 45.4461 27.4742H40.9317V24.2498C40.9317 22.0041 39.2707 20.4057 37.7196 20.3217C36.6326 20.2637 35.7914 20.9675 35.6753 22.0331L35.3028 25.3948L33.3884 27.2559C33.2861 27.2238 33.1762 27.2055 33.0632 27.2055H27.6588C27.0679 27.2055 26.5901 27.6833 26.5901 28.2742V39.4647C26.5901 40.0555 27.0679 40.5334 27.6588 40.5334H33.0632C33.654 40.5334 34.1319 40.0555 34.1319 39.4647C34.1319 39.4021 34.1258 39.3426 34.1151 39.283L34.7502 39.2952L34.7654 39.3823C34.8708 40.0494 35.4357 40.5334 36.1242 40.5334L44.2339 40.4601C44.3408 40.4586 44.4476 40.4418 44.5499 40.4097C45.4217 40.1303 45.9636 39.3868 45.9636 38.4693C45.9636 38.3441 45.9529 38.2082 45.927 38.0663C46.4445 37.68 46.7819 37.0617 46.7819 36.3671C46.7819 36.0999 46.7499 35.848 46.6888 35.6175C47.0659 35.2877 47.356 34.8541 47.504 34.3534C47.5758 34.1091 47.6124 33.8511 47.6124 33.5885C47.6124 33.1992 47.53 32.8237 47.3758 32.4817C47.5361 32.3351 47.6827 32.1702 47.8079 31.9886C48.1468 31.5031 48.3239 30.9367 48.3239 30.352ZM28.729 29.3444H31.9961V38.1945C31.9961 38.2647 32.0037 38.3319 32.0159 38.3976H28.729V29.3444ZM46.0537 30.7718C45.9316 30.9458 45.7453 31.0619 45.5392 31.0878C45.0751 31.1458 44.7041 31.4985 44.6201 31.958C44.5362 32.4176 44.7621 32.8786 45.1759 33.0954C45.3224 33.1717 45.4781 33.3427 45.4781 33.59C45.4781 33.6481 45.4705 33.703 45.4568 33.7488C45.3881 33.9809 45.1636 34.1488 44.924 34.1488C44.3331 34.1488 43.8553 34.6267 43.8553 35.2175C43.8553 35.7091 44.1881 36.1243 44.6415 36.248C44.6446 36.277 44.6476 36.3121 44.6476 36.3503C44.6339 36.3503 44.6217 36.3503 44.6079 36.3518L44.1194 36.3778C43.5515 36.4083 43.1072 36.877 43.1072 37.4449C43.1072 37.7029 43.1927 38.0525 43.5713 38.3289L36.77 38.3915L36.7562 38.3121C36.7547 38.306 36.7547 38.3014 36.7532 38.2968C36.6356 37.6541 36.0982 37.193 35.4326 37.1732L34.1349 37.1472V29.5153L36.8921 26.836C37.3532 26.3872 37.4127 25.8132 37.431 25.633L37.7776 22.4987C37.8875 22.5415 38.031 22.6193 38.1791 22.7522C38.4096 22.9583 38.7959 23.427 38.7959 24.2514V27.7215C38.7959 28.7642 39.6447 29.6131 40.6874 29.6131H45.4476C45.8552 29.6131 46.188 29.9443 46.188 30.3535C46.1865 30.5397 46.1132 30.6848 46.0537 30.7718Z" fill="white"/>
<path d="M68.5781 29.4345L63.5019 25.5002C62.8897 25.0269 62.7248 24.1964 63.1126 23.5247L65.2209 19.8591C65.8285 18.7996 65.8774 17.56 65.3553 16.4546C64.8347 15.3524 63.8423 14.6074 62.6301 14.4074L55.6609 13.2746C54.9311 13.154 54.4013 12.557 54.3739 11.8212L54.2014 7.34801C54.1525 6.16484 53.5907 5.14349 52.6197 4.47328C51.6472 3.80307 50.493 3.63971 49.3664 4.01528L42.333 6.37247C41.6627 6.59536 40.9727 6.36178 40.5758 5.77706L37.7422 1.61076C37.0965 0.656585 36.1087 0.0886613 34.9667 0.0108007C33.8202 -0.0746932 32.7637 0.349723 31.9912 1.20008L27.1807 6.47781C26.7089 6.99382 26.0006 7.1297 25.3746 6.82284L20.5351 4.45496C19.4817 3.94047 18.326 3.94658 17.2832 4.47175C16.239 4.99082 15.5398 5.90988 15.3153 7.06252L14.091 13.4562C13.9505 14.1784 13.3658 14.6791 12.6345 14.7035L7.48197 14.873C6.26215 14.9158 5.2179 15.502 4.54006 16.5264C3.8668 17.5523 3.74313 18.7462 4.19198 19.8897L6.45146 25.6147C6.73237 26.3261 6.45451 27.1215 5.79041 27.5032L1.83173 29.7856C0.756953 30.41 0.092849 31.4772 0.0088817 32.7153C-0.0750856 33.9595 0.439405 35.1076 1.42106 35.8663L6.50184 39.8006C7.11404 40.2739 7.27892 41.1044 6.89114 41.7761L4.78433 45.4401C4.16602 46.5134 4.11717 47.7225 4.64845 48.8462C5.17363 49.9561 6.1675 50.7026 7.37205 50.8934L14.3459 52.0323C15.0711 52.1499 15.5993 52.7483 15.6298 53.4857L15.8024 57.9543C15.8329 58.6917 16.0588 59.3589 16.4604 59.9237L12.1353 69.2349C11.9689 69.5952 12.0147 70.0181 12.2544 70.3326C12.4956 70.6486 12.891 70.8044 13.2818 70.7387L19.2526 69.7342L22.1717 74.8745C22.3625 75.2104 22.7182 75.4149 23.1014 75.4149C23.1151 75.4149 23.1304 75.4149 23.1441 75.4134C23.5441 75.3966 23.9014 75.16 24.0693 74.7966L30.4737 61.0626L32.2615 63.6946C32.9057 64.6412 33.892 65.2076 35.04 65.2931C35.1301 65.2992 35.2202 65.3022 35.3087 65.3022C36.3469 65.3022 37.298 64.8824 38.0109 64.1022L39.9697 61.9512L45.9588 74.7951C46.1283 75.1569 46.4855 75.3951 46.884 75.4119C46.8977 75.4119 46.913 75.4134 46.9267 75.4134C47.3099 75.4134 47.6656 75.2073 47.8565 74.873L50.7755 69.7326L56.7463 70.7372C57.1371 70.8028 57.5326 70.6471 57.7738 70.3311C58.015 70.0151 58.0608 69.5922 57.8929 69.2319L53.6731 60.1482C54.1907 59.6382 54.5403 58.9833 54.6838 58.2337L55.9082 51.84C56.0471 51.1194 56.6333 50.6186 57.3646 50.5927L62.5126 50.4232C63.74 50.3805 64.7858 49.7927 65.4575 48.7714C66.1247 47.7607 66.2514 46.5348 65.8072 45.4096L63.5477 39.6846C63.2668 38.9731 63.5446 38.1777 64.2087 37.7945L68.1628 35.5106C69.2391 34.8908 69.9063 33.8221 69.9902 32.5794C70.0788 31.3382 69.5612 30.1886 68.5781 29.4345ZM23.0098 72.0181L20.7442 68.0289C20.5228 67.638 20.0801 67.4289 19.6374 67.5022L14.9322 68.2945L18.6069 60.3817C18.6893 60.2672 18.7473 60.142 18.7794 60.0108L22.9457 51.04C25.4174 52.6659 28.2341 53.8063 31.26 54.3269L29.3455 58.4337C29.3348 58.4535 29.3257 58.4749 29.3165 58.4948L23.0098 72.0181ZM35.0003 52.5102C24.0495 52.5102 15.1413 43.602 15.1413 32.6512C15.1413 21.7003 24.0495 12.7906 35.0003 12.7906C45.9527 12.7906 54.8639 21.6988 54.8639 32.6496C54.8639 43.6005 45.9527 52.5102 35.0003 52.5102ZM36.4354 62.6641C36.0965 63.0336 35.6889 63.1969 35.1957 63.1633C34.7011 63.1267 34.3103 62.9023 34.0324 62.4947L31.5287 58.8093L33.4935 54.5956C33.9912 54.6292 34.4935 54.6475 35.0003 54.6475C35.5179 54.6475 36.0324 54.6277 36.5407 54.5926L38.9941 59.8535L36.4354 62.6641ZM50.3969 67.5022C49.9541 67.4274 49.5114 67.638 49.29 68.0289L47.0244 72.0181L38.7727 54.3223C41.7971 53.7972 44.6108 52.6522 47.0794 51.0247L51.3007 60.113C51.322 60.1894 51.351 60.2627 51.3892 60.3359C51.406 60.3665 51.4243 60.3939 51.4426 60.4214L55.1006 68.2945L50.3969 67.5022ZM67.8621 32.439C67.8254 32.9733 67.5628 33.3962 67.1002 33.6634L63.1446 35.9473C61.5569 36.8633 60.8913 38.767 61.563 40.4723L63.8225 46.1989C64.0133 46.6813 63.9629 47.1653 63.6759 47.5989C63.3858 48.0385 62.9721 48.2721 62.4439 48.2905L57.2959 48.4599C55.5723 48.521 54.1403 49.7454 53.812 51.4385L52.5907 57.8154L48.8381 49.7362C53.8136 45.6997 56.9997 39.5395 56.9997 32.6496C56.9997 20.5202 47.1298 10.6517 34.9988 10.6517C22.8693 10.6517 13.0024 20.5202 13.0024 32.6496C13.0024 39.5502 16.1978 45.718 21.1839 49.753L17.8985 56.8261L17.7657 53.3987C17.6924 51.6323 16.4268 50.2019 14.6894 49.9209L7.71402 48.782C7.19037 48.6981 6.81023 48.4126 6.58275 47.9317C6.35375 47.4477 6.37207 46.9683 6.63771 46.5073L8.74453 42.8433C9.67122 41.2372 9.27734 39.2464 7.8102 38.1106L2.72942 34.1763C2.30958 33.8511 2.10654 33.3962 2.14318 32.8618C2.17982 32.3214 2.43782 31.9092 2.90499 31.6375L6.86061 29.3566C8.44835 28.4406 9.11399 26.5368 8.44225 24.8315L6.18429 19.1065C5.9904 18.6149 6.03926 18.1416 6.3278 17.7035C6.61939 17.2607 7.03465 17.0287 7.55678 17.0104L12.7047 16.8409C14.4283 16.7859 15.8634 15.5615 16.1917 13.8623L17.4161 7.47015C17.5122 6.97398 17.7886 6.61063 18.2405 6.38621C18.6893 6.16026 19.1458 6.15873 19.5977 6.37857L24.4357 8.74492C25.9105 9.46704 27.6478 9.13575 28.7593 7.92052L33.5729 2.63974C33.9042 2.27486 34.321 2.10693 34.8156 2.14357C35.3072 2.17716 35.6965 2.40158 35.9743 2.81225L38.8079 6.97856C39.7407 8.35409 41.4276 8.92507 43.0093 8.39989L50.0442 6.0427C50.5297 5.88088 50.9877 5.945 51.406 6.23354C51.8228 6.52055 52.0442 6.92512 52.0655 7.43351L52.238 11.9036C52.3052 13.6654 53.5708 15.0974 55.3158 15.3844L62.2851 16.5172C62.8072 16.6027 63.1996 16.8974 63.4225 17.3691C63.6484 17.8454 63.6286 18.3386 63.3675 18.7935L61.2607 22.4575C60.334 24.0636 60.7279 26.0544 62.195 27.1902L67.2743 31.126C67.6941 31.4497 67.8987 31.9046 67.8621 32.439Z" fill="white"/>
</svg>
