<svg width="93" height="78" viewBox="0 0 93 78" fill="none" xmlns="http://www.w3.org/2000/svg">
<path d="M72.9083 58.6759L64.4273 41.4626L82.7086 33.4371L81.6155 31.1755L62.2411 39.7538C62.0924 39.8262 61.9595 39.9272 61.8499 40.0511C61.7403 40.1749 61.6563 40.3192 61.6026 40.4756C61.5489 40.632 61.5266 40.7975 61.537 40.9626C61.5474 41.1276 61.5903 41.289 61.6632 41.4374L62.304 42.6939C60.4947 42.8572 57.3787 42.5305 52.2524 40.4574C50.3727 39.6233 48.3106 39.2846 46.2629 39.4738C44.2151 39.6629 42.25 40.3736 40.5549 41.538C38.9193 42.6801 37.4842 44.0854 36.3081 45.6968C35.0919 45.345 33.9325 44.8203 32.8655 44.1388L33.167 43.6237C33.2497 43.4806 33.3034 43.3226 33.325 43.1587C33.3465 42.9949 33.3355 42.8284 33.2926 42.6688C33.2498 42.5083 33.1755 42.358 33.0741 42.2264C32.9728 42.0949 32.8463 41.9847 32.7021 41.9023L13.5068 30.4939L12.2503 32.6676L30.3651 43.4603L20.6654 60.1208L1.25644 48.3982L0 50.5719L20.4518 62.9226C20.7403 63.0865 21.0819 63.1295 21.402 63.0424C21.7221 62.9553 21.9948 62.7451 22.1605 62.4578L22.4621 61.9426L24.8619 63.7142L24.598 64.1037C24.3472 64.4665 24.1704 64.8752 24.0777 65.3064C23.985 65.7375 23.9782 66.1828 24.0578 66.6166C24.1355 67.0611 24.3011 67.4856 24.5448 67.8653C24.7886 68.245 25.1057 68.5723 25.4776 68.8279L26.0681 69.23C26.6334 69.6203 27.3035 69.8306 27.9904 69.8331C28.0867 69.8392 28.1832 69.8392 28.2794 69.8331C28.4645 70.5823 28.9098 71.2414 29.5359 71.6926L30.1264 72.1073C30.6882 72.4936 31.3544 72.6996 32.0362 72.6978C32.2452 72.7169 32.4555 72.7169 32.6644 72.6978C32.9067 72.6491 33.1427 72.5732 33.368 72.4716C33.6196 72.8973 33.9577 73.2655 34.3606 73.5522L34.9512 73.9542C35.5119 74.3443 36.1779 74.5546 36.861 74.5573H37.1625C37.3684 75.3104 37.8362 75.9653 38.4818 76.4043L39.0597 76.8064C39.6215 77.1927 40.2877 77.3987 40.9695 77.3969C41.5226 77.3979 42.0676 77.2646 42.5578 77.0086C43.048 76.7525 43.4688 76.3813 43.784 75.9269L44.1358 75.4117L47.5282 77.4597C48.1087 77.8094 48.7728 77.996 49.4505 78C50.1001 78.0003 50.7388 77.8327 51.3045 77.5135C51.8703 77.1943 52.344 76.7343 52.6796 76.1781C52.9117 75.792 53.0694 75.3659 53.1445 74.9217C53.479 75.0208 53.8259 75.0716 54.1748 75.0725C54.8244 75.0728 55.463 74.9052 56.0288 74.586C56.5945 74.2668 57.0682 73.8068 57.4038 73.2506C57.642 72.8436 57.8038 72.3965 57.8813 71.9314C58.211 72.0323 58.5541 72.0831 58.899 72.0821C59.5465 72.0803 60.1825 71.9117 60.7459 71.5926C61.3093 71.2735 61.781 70.8146 62.1155 70.2603C62.3337 69.8959 62.4868 69.4962 62.5678 69.0792L62.7563 69.1923C63.3405 69.5441 64.0092 69.7308 64.6912 69.7326C65.3408 69.7329 65.9795 69.5653 66.5452 69.2461C67.111 68.9269 67.5846 68.4669 67.9203 67.9107C68.2677 67.3252 68.45 66.6566 68.448 65.9758C68.4504 65.4425 68.3397 64.9148 68.1231 64.4275C67.9066 63.9401 67.589 63.5043 67.1915 63.1488C68.0325 61.7725 69.1335 60.5733 70.4332 59.6182L71.1493 61.0631C71.2529 61.2746 71.4139 61.4527 71.6138 61.5771C71.8138 61.7015 72.0446 61.7672 72.2801 61.7667C72.4673 61.7656 72.6519 61.7227 72.8204 61.6411L92.1068 52.9905L91.0137 50.7289L72.9083 58.6759ZM28.7694 66.9307C28.7027 67.0292 28.617 67.1133 28.5173 67.1782C28.4176 67.2431 28.3059 67.2874 28.1889 67.3084C28.0718 67.3295 27.9517 67.327 27.8356 67.3009C27.7196 67.2749 27.6099 67.2259 27.513 67.1569L26.9225 66.7548C26.824 66.6881 26.7398 66.6024 26.675 66.5027C26.6101 66.403 26.5658 66.2913 26.5447 66.1742C26.5237 66.0571 26.5262 65.937 26.5523 65.821C26.5783 65.7049 26.6273 65.5952 26.6963 65.4984L28.5433 62.8221C28.676 62.6306 28.8794 62.4995 29.1087 62.4578C29.2241 62.4379 29.3424 62.441 29.4566 62.4669C29.5709 62.4928 29.6789 62.5409 29.7746 62.6085L30.3526 63.0106C30.4511 63.0723 30.5348 63.1549 30.5978 63.2527C30.6608 63.3504 30.7014 63.4608 30.7169 63.576C30.7415 63.6905 30.7419 63.8089 30.7181 63.9235C30.6943 64.0382 30.6468 64.1466 30.5787 64.2419L28.7694 66.9307ZM32.878 69.7703C32.7453 69.9618 32.5419 70.0929 32.3126 70.1346C32.0812 70.1719 31.8442 70.1227 31.6467 69.9964L31.0562 69.5944C30.9577 69.5277 30.8735 69.4419 30.8087 69.3422C30.7438 69.2425 30.6995 69.1309 30.6784 69.0138C30.6574 68.8967 30.6599 68.7766 30.686 68.6605C30.712 68.5445 30.761 68.4348 30.83 68.3379L33.3429 64.6565C33.407 64.5602 33.4903 64.4781 33.5876 64.4154C33.6849 64.3527 33.7941 64.3108 33.9083 64.2922H34.0716C34.2504 64.2917 34.4253 64.3441 34.5742 64.4429L35.1522 64.845C35.3456 64.9783 35.4805 65.1806 35.5291 65.4104C35.5496 65.5259 35.5469 65.6442 35.521 65.7586C35.4951 65.873 35.4466 65.981 35.3783 66.0763L32.878 69.7703ZM37.7028 71.6172C37.6361 71.7157 37.5503 71.7999 37.4506 71.8648C37.3509 71.9296 37.2393 71.9739 37.1222 71.995C37.0051 72.016 36.885 72.0135 36.7689 71.9875C36.6529 71.9614 36.5432 71.9125 36.4463 71.8434L35.8558 71.4413C35.6671 71.3058 35.5369 71.1037 35.4914 70.8759C35.4542 70.6445 35.5034 70.4075 35.6296 70.21L37.4515 67.5715C37.5865 67.3733 37.7947 67.2368 38.0303 67.192C38.2659 67.1473 38.5096 67.1979 38.7079 67.3328L39.2985 67.7474C39.3969 67.8141 39.4811 67.8998 39.546 67.9995C39.6108 68.0992 39.6551 68.2109 39.6762 68.328C39.6973 68.4451 39.6947 68.5652 39.6687 68.6812C39.6426 68.7973 39.5937 68.907 39.5246 69.0038L37.7028 71.6172ZM42.9296 72.8737L41.8113 74.4066C41.6723 74.6001 41.4634 74.7319 41.2289 74.7741C40.9944 74.8163 40.7527 74.7656 40.5549 74.6327L39.9644 74.2307C39.8659 74.164 39.7817 74.0782 39.7169 73.9785C39.652 73.8788 39.6077 73.7671 39.5866 73.6501C39.5656 73.533 39.5681 73.4129 39.5942 73.2968C39.6202 73.1808 39.6692 73.0711 39.7382 72.9742L40.8564 71.3534C40.9231 71.2549 41.0089 71.1707 41.1086 71.1059C41.2083 71.041 41.32 70.9967 41.437 70.9757C41.5541 70.9546 41.6742 70.9571 41.7903 70.9832C41.9063 71.0092 42.016 71.0582 42.1129 71.1272L42.6909 71.5293C42.7903 71.595 42.8756 71.68 42.9417 71.7793C43.0078 71.8785 43.0533 71.99 43.0755 72.1071C43.0978 72.2242 43.0963 72.3446 43.0713 72.4612C43.0462 72.5778 42.998 72.6881 42.9296 72.7857V72.8737ZM65.8723 66.5915C65.7009 66.8732 65.4256 67.0763 65.1058 67.1569C64.7858 67.2362 64.4473 67.1866 64.1635 67.0187L56.6248 62.508L55.3684 64.6565L59.6529 67.1694C59.9346 67.3408 60.1377 67.6161 60.2183 67.9359C60.2976 68.2559 60.248 68.5944 60.0801 68.8782C59.9087 69.1599 59.6334 69.363 59.3136 69.4436C58.9935 69.523 58.6551 69.4733 58.3713 69.3054L53.0188 66.0763L51.7624 68.2248L54.9789 70.1598C55.2554 70.3368 55.4567 70.6098 55.5443 70.9262C55.5981 71.1639 55.5817 71.412 55.497 71.6405C55.4123 71.869 55.263 72.0679 55.0673 72.2131C54.8715 72.3582 54.6378 72.4433 54.3946 72.458C54.1513 72.4726 53.9091 72.4163 53.6973 72.2957L48.3449 69.0667L47.0884 71.2152L50.3175 73.1752C50.5278 73.3709 50.6647 73.6327 50.7055 73.917C50.7462 74.2013 50.6883 74.4911 50.5414 74.7379C50.3945 74.9847 50.1674 75.1738 49.8981 75.2735C49.6287 75.3732 49.3333 75.3777 49.061 75.2861L45.4927 73.125C45.6297 72.6345 45.6597 72.1203 45.5807 71.6172C45.5014 71.1782 45.3363 70.7591 45.0948 70.384C44.8533 70.0088 44.5403 69.685 44.1735 69.431L43.5452 69.1044C43.1387 68.8257 42.6751 68.6411 42.1883 68.5641C42.2132 68.3218 42.2132 68.0776 42.1883 67.8353C42.1108 67.3942 41.9452 66.9732 41.7012 66.5975C41.4573 66.2219 41.14 65.8993 40.7685 65.6491L40.1905 65.2471C39.5429 64.8035 38.7611 64.5991 37.9792 64.6691C37.7545 63.9113 37.2695 63.2572 36.6097 62.8221L36.0191 62.4201C35.2859 61.9148 34.3824 61.7205 33.5062 61.8798C33.2654 61.9284 33.0298 61.9999 32.8026 62.0934C32.5506 61.6715 32.2123 61.3076 31.81 61.0254L31.2195 60.6234C30.4774 60.1141 29.5638 59.9195 28.6785 60.0819C27.7932 60.2444 27.0083 60.7507 26.4953 61.4903L26.3696 61.6788L23.8567 59.7941L31.6216 46.3501C32.643 46.9926 33.7349 47.5153 34.8758 47.9081C33.6447 49.7564 32.8105 51.8399 32.4257 54.027C32.4573 54.6756 32.7102 55.2938 33.1423 55.7785C33.5745 56.2632 34.1597 56.5851 34.8004 56.6907C37.0871 57.2938 41.4093 56.3766 44.5755 51.6649L65.4325 64.7445C65.6182 64.8546 65.7725 65.0107 65.8803 65.1978C65.9882 65.3849 66.046 65.5966 66.0482 65.8125C66.0481 66.038 65.9873 66.2593 65.8723 66.4533V66.5915ZM65.1435 61.5657L55.8961 55.7735C57.2566 54.9884 58.4142 53.8954 59.2759 52.5821L57.0897 51.3257C56.1761 52.6245 54.9 53.6252 53.4209 54.2029L44.8394 48.8253C44.6948 48.735 44.5333 48.6751 44.3649 48.6492C44.1964 48.6233 44.0244 48.6319 43.8593 48.6746C43.6966 48.716 43.5439 48.7895 43.4101 48.891C43.2763 48.9924 43.1642 49.1196 43.0803 49.2651C40.9821 52.9716 38.0546 54.2909 36.2076 54.2909C35.7631 54.3365 35.3171 54.2205 34.9512 53.9642C36.0144 49.8128 38.4608 46.1478 41.8867 43.5734C43.2364 42.6312 44.8083 42.0568 46.4474 41.907C48.0866 41.7572 49.7366 42.0371 51.2347 42.719C56.3861 44.8173 60.4695 45.5711 63.3971 45.0057L69.3652 57.1304C67.6715 58.307 66.2351 59.816 65.1435 61.5657Z" fill="white"/>
<path d="M73.7256 53.3115L76.2276 52.0814L77.3358 54.3355L74.8338 55.5656L73.7256 53.3115Z" fill="white"/>
<path d="M71.9658 36.9866V10.0516C71.9668 9.88622 71.9351 9.7223 71.8725 9.56922C71.81 9.41614 71.7179 9.27691 71.6014 9.1595L62.8063 0.36439C62.6889 0.247941 62.5497 0.155812 62.3966 0.0932853C62.2435 0.0307589 62.0796 -0.00093502 61.9142 2.10006e-05H24.2209C23.5544 2.10006e-05 22.9153 0.264771 22.444 0.736029C21.9728 1.20729 21.708 1.84645 21.708 2.51291V36.9866H24.2209V2.51291H60.6578V8.79513C60.6578 9.46159 60.9225 10.1008 61.3938 10.572C61.8651 11.0433 62.5042 11.308 63.1707 11.308H69.4529V36.9866H71.9658ZM63.1707 8.79513V4.2845L67.6813 8.79513H63.1707Z" fill="white"/>
<path d="M34.2725 20.103C34.2725 22.588 35.0094 25.0172 36.39 27.0835C37.7706 29.1497 39.7329 30.7601 42.0287 31.7111C44.3246 32.662 46.8508 32.9109 49.2881 32.426C51.7254 31.9412 53.9641 30.7446 55.7213 28.9874C57.4785 27.2303 58.6751 24.9915 59.1599 22.5542C59.6447 20.117 59.3959 17.5907 58.4449 15.2948C57.494 12.999 55.8836 11.0367 53.8173 9.65607C51.7511 8.27547 49.3219 7.53857 46.8369 7.53857C43.5046 7.53857 40.3088 8.86232 37.9525 11.2186C35.5962 13.5749 34.2725 16.7707 34.2725 20.103ZM56.8885 20.103C56.8885 22.091 56.299 24.0344 55.1945 25.6874C54.09 27.3403 52.5202 28.6287 50.6835 29.3895C48.8468 30.1502 46.8258 30.3493 44.8759 29.9614C42.9261 29.5736 41.1351 28.6163 39.7294 27.2105C38.3236 25.8048 37.3663 24.0138 36.9785 22.064C36.5906 20.1142 36.7897 18.0931 37.5505 16.2565C38.3113 14.4198 39.5996 12.8499 41.2526 11.7455C42.9055 10.641 44.8489 10.0515 46.8369 10.0515C49.5027 10.0515 52.0594 11.1105 53.9444 12.9955C55.8295 14.8805 56.8885 17.4372 56.8885 20.103Z" fill="white"/>
<path d="M42.1755 19.9147L40.3914 21.6989L43.5073 24.8023C43.7428 25.0363 44.0612 25.1676 44.3931 25.1676C44.7251 25.1676 45.0435 25.0363 45.2789 24.8023L53.2825 16.8113L51.4983 15.0774L44.3994 22.1889L42.1755 19.9147Z" fill="white"/>
</svg>
