<?xml version="1.0" encoding="utf-8"?>
<!-- Generator: Adobe Illustrator 26.2.1, SVG Export Plug-In . SVG Version: 6.00 Build 0)  -->
<svg version="1.1" id="Layer_1" xmlns="http://www.w3.org/2000/svg" xmlns:xlink="http://www.w3.org/1999/xlink" x="0px" y="0px"
	 width="68px" height="64px" viewBox="0 0 48.3 45.4" style="enable-background:new 0 0 48.3 45.4;" xml:space="preserve">
<style type="text/css">
	.Drop_x0020_Shadow{fill:none;}
	.Outer_x0020_Glow_x0020_5_x0020_pt{fill:none;}
	.Blue_x0020_Neon{fill:none;stroke:#8AACDA;stroke-width:7;stroke-linecap:round;stroke-linejoin:round;}
	.Chrome_x0020_Highlight{fill:url(#SVGID_1_);stroke:#FFFFFF;stroke-width:0.3629;stroke-miterlimit:1;}
	.Jive_GS{fill:#FFDD00;}
	.Alyssa_GS{fill:#A6D0E4;}
	.st0{fill:#FFFFFF;}
	.st1{clip-path:url(#SVGID_00000056421427972549505730000003882909005404407445_);}
	.st2{fill:#84B645;}
	.st3{clip-path:url(#SVGID_00000085212846918380228480000012738740055784237236_);}
	.st4{clip-path:url(#SVGID_00000167382080956385458420000006392408938181648810_);}
	.st5{clip-path:url(#SVGID_00000109735711413099958760000008321643889688097689_);}
	.st6{clip-path:url(#SVGID_00000119834297718250261590000010373156322621352583_);}
	.st7{fill-rule:evenodd;clip-rule:evenodd;fill:#84B645;}
	.st8{clip-path:url(#SVGID_00000160188573023451357370000006197064788903007919_);}
	.st9{clip-path:url(#SVGID_00000107564252234023196210000002364679529208754872_);}
	.st10{clip-path:url(#SVGID_00000000914808541144339980000006251755994950603675_);}
	.st11{clip-path:url(#SVGID_00000005240576416014252590000002262864190321555096_);}
	.st12{clip-path:url(#SVGID_00000024697967692345779280000005880798134451395002_);}
	.st13{clip-path:url(#SVGID_00000039833528462648845200000009668749593796372612_);}
	.st14{filter:url(#Adobe_OpacityMaskFilter);}
	.st15{fill-opacity:0.6;}
	.st16{mask:url(#m_00000103236713264030828520000002508788179615452845_);}
	.st17{clip-path:url(#SVGID_00000074434427591122027790000007712675569198097086_);}
	.st18{clip-path:url(#SVGID_00000160903289585081246040000012821591550888372375_);}
</style>
<linearGradient id="SVGID_1_" gradientUnits="userSpaceOnUse" x1="-658.3162" y1="-361.5224" x2="-658.3162" y2="-362.5224">
	<stop  offset="0" style="stop-color:#656565"/>
	<stop  offset="0.618" style="stop-color:#1B1B1B"/>
	<stop  offset="0.6292" style="stop-color:#545454"/>
	<stop  offset="0.9831" style="stop-color:#3E3E3E"/>
</linearGradient>
<path class="st0" d="M14.7,4.4V0.2H34v23.5l-5.7,0.5L14.7,4.4"/>
<path class="st0" d="M9.8,8.7V4.4h19.3v19.3l-5.1,0L9.8,8.7"/>
<path class="st0" d="M4.6,20.1v-11h19.3v15L4.6,20.1"/>
<path class="st0" d="M18.9,24l-4.3-3.7c-0.1-0.1-0.3-0.2-0.4-0.2H1.3c-0.4,0-0.7,0.3-0.7,0.7v23.3c0,0.4,0.3,0.7,0.7,0.7h34.8
	c0.4,0,0.7-0.3,0.7-0.7V24.8c0-0.4-0.3-0.7-0.7-0.7H19.3C19.1,24.1,19,24.1,18.9,24"/>
<g>
	<defs>
		<rect id="SVGID_00000130645903882060780670000011002675018726148794_" y="19.5" width="37.4" height="26"/>
	</defs>
	<clipPath id="SVGID_00000103225862696721803820000002058137009874939066_">
		<use xlink:href="#SVGID_00000130645903882060780670000011002675018726148794_"  style="overflow:visible;"/>
	</clipPath>
	<g style="clip-path:url(#SVGID_00000103225862696721803820000002058137009874939066_);">
		<path class="st2" d="M1.3,20.8C1.3,20.8,1.2,20.8,1.3,20.8l0,23.4c0,0,0,0,0,0h34.8c0,0,0,0,0,0V24.8c0,0,0,0,0,0H19.3
			c-0.3,0-0.6-0.1-0.8-0.3l-4.3-3.7c0,0,0,0,0,0H1.3z M36.1,45.4H1.3c-0.7,0-1.3-0.6-1.3-1.3V20.8c0-0.7,0.6-1.3,1.3-1.3h12.9
			c0.3,0,0.6,0.1,0.8,0.3l4.3,3.7c0,0,0,0,0,0h16.8c0.7,0,1.3,0.6,1.3,1.3v19.3C37.4,44.9,36.8,45.4,36.1,45.4"/>
	</g>
</g>
<path class="st2" d="M23.9,24.8c-0.3,0-0.6-0.3-0.6-0.6V9.8H5.2v10.4c0,0.3-0.3,0.6-0.6,0.6c-0.3,0-0.6-0.3-0.6-0.6v-11
	c0-0.3,0.3-0.6,0.6-0.6h19.3c0.3,0,0.6,0.3,0.6,0.6v15C24.5,24.5,24.2,24.8,23.9,24.8"/>
<path class="st2" d="M28.7,24.8h-7c-0.3,0-0.6-0.3-0.6-0.6c0-0.3,0.3-0.6,0.6-0.6h6.4v-18H10.1v3.6c0,0.3-0.3,0.6-0.6,0.6
	c-0.3,0-0.6-0.3-0.6-0.6V4.9c0-0.3,0.3-0.6,0.6-0.6h19.3c0.3,0,0.6,0.3,0.6,0.6v19.3C29.4,24.5,29.1,24.8,28.7,24.8"/>
<g>
	<defs>
		<rect id="SVGID_00000022519183787681848130000012224952469971017621_" x="13.6" width="20.7" height="24.9"/>
	</defs>
	<clipPath id="SVGID_00000111889804272572060370000009621729136150574730_">
		<use xlink:href="#SVGID_00000022519183787681848130000012224952469971017621_"  style="overflow:visible;"/>
	</clipPath>
	<g style="clip-path:url(#SVGID_00000111889804272572060370000009621729136150574730_);">
		<path class="st2" d="M33.6,24.8c-0.3,0-0.6-0.3-0.6-0.6V1.2H15v3.6c0,0.3-0.3,0.6-0.6,0.6c-0.3,0-0.6-0.3-0.6-0.6V0.6
			C13.7,0.3,14,0,14.4,0h19.3c0.3,0,0.6,0.3,0.6,0.6v23.5C34.3,24.5,34,24.8,33.6,24.8"/>
	</g>
</g>
<path class="st2" d="M20.2,14.1H8.2c-0.3,0-0.6-0.3-0.6-0.6c0-0.3,0.3-0.6,0.6-0.6h12.1c0.3,0,0.6,0.3,0.6,0.6
	C20.9,13.8,20.6,14.1,20.2,14.1"/>
<path class="st2" d="M20.2,17.9H8.2c-0.3,0-0.6-0.3-0.6-0.6c0-0.3,0.3-0.6,0.6-0.6h12.1c0.3,0,0.6,0.3,0.6,0.6
	C20.9,17.6,20.6,17.9,20.2,17.9"/>
<path class="st2" d="M20.2,21.7h-4.7c-0.3,0-0.6-0.3-0.6-0.6c0-0.3,0.3-0.6,0.6-0.6h4.7c0.3,0,0.6,0.3,0.6,0.6
	C20.9,21.4,20.6,21.7,20.2,21.7"/>
<g>
	<defs>
		<rect id="SVGID_00000156565367419643018720000002423288730357711032_" x="21.3" y="12.3" width="20.7" height="20.7"/>
	</defs>
	<clipPath id="SVGID_00000040557173429186907420000003052505190093069463_">
		<use xlink:href="#SVGID_00000156565367419643018720000002423288730357711032_"  style="overflow:visible;"/>
	</clipPath>
	<g style="clip-path:url(#SVGID_00000040557173429186907420000003052505190093069463_);">
		<g>
			<defs>
				
					<rect id="SVGID_00000031889922345431909570000003967641247224198582_" x="20.7" y="10.8" transform="matrix(0.9852 -0.1715 0.1715 0.9852 -4.0065 6.1448)" width="25.7" height="31"/>
			</defs>
			<clipPath id="SVGID_00000038400588855687654570000005928607966646387634_">
				<use xlink:href="#SVGID_00000031889922345431909570000003967641247224198582_"  style="overflow:visible;"/>
			</clipPath>
			<g style="clip-path:url(#SVGID_00000038400588855687654570000005928607966646387634_);">
				<g>
					<defs>
						
							<rect id="SVGID_00000133524816801672229390000006876615717308696496_" x="20.7" y="10.8" transform="matrix(0.9852 -0.1715 0.1715 0.9852 -4.0065 6.1448)" width="25.7" height="31"/>
					</defs>
					<clipPath id="SVGID_00000164474416161078802680000017908463388960519053_">
						<use xlink:href="#SVGID_00000133524816801672229390000006876615717308696496_"  style="overflow:visible;"/>
					</clipPath>
					<g style="clip-path:url(#SVGID_00000164474416161078802680000017908463388960519053_);">
						<path class="st7" d="M24.4,15.5c4-4,10.5-4.1,14.5-0.1S43,25.8,39,29.8c-4,4-10.5,4.1-14.5,0.1C20.5,26,20.4,19.5,24.4,15.5z
							 M25.7,16.7c3.3-3.3,8.6-3.4,12-0.1s3.4,8.6,0.1,12c-3.3,3.3-8.6,3.4-12,0.1C22.4,25.4,22.4,20,25.7,16.7z"/>
					</g>
				</g>
			</g>
		</g>
	</g>
</g>
<g>
	<defs>
		<rect id="SVGID_00000055670045135120341970000001963487245103362451_" x="35.8" y="27.2" width="12.5" height="12.8"/>
	</defs>
	<clipPath id="SVGID_00000150804638691341531640000013949480340060221082_">
		<use xlink:href="#SVGID_00000055670045135120341970000001963487245103362451_"  style="overflow:visible;"/>
	</clipPath>
	<g style="clip-path:url(#SVGID_00000150804638691341531640000013949480340060221082_);">
		<g>
			<defs>
				
					<rect id="SVGID_00000143605525231964845990000016380437318481303184_" x="20.7" y="10.8" transform="matrix(0.9852 -0.1715 0.1715 0.9852 -4.0065 6.1448)" width="25.7" height="31"/>
			</defs>
			<clipPath id="SVGID_00000034799853225826831690000014114094146155750072_">
				<use xlink:href="#SVGID_00000143605525231964845990000016380437318481303184_"  style="overflow:visible;"/>
			</clipPath>
			<g style="clip-path:url(#SVGID_00000034799853225826831690000014114094146155750072_);">
				<g>
					<defs>
						
							<rect id="SVGID_00000010287356885552718740000014780165179889804165_" x="20.7" y="10.8" transform="matrix(0.9852 -0.1715 0.1715 0.9852 -4.0065 6.1448)" width="25.7" height="31"/>
					</defs>
					<clipPath id="SVGID_00000123414836069483969530000006812623664833417887_">
						<use xlink:href="#SVGID_00000010287356885552718740000014780165179889804165_"  style="overflow:visible;"/>
					</clipPath>
					<g style="clip-path:url(#SVGID_00000123414836069483969530000006812623664833417887_);">
						<path class="st7" d="M36.1,30.4l3.2-3c0,0,0.1,0,0.1-0.1c0,0,0.1,0,0.1,0c0,0,0.1,0,0.1,0c0,0,0.1,0,0.1,0.1l8.5,9
							c0,0,0,0.1,0.1,0.1c0,0,0,0.1,0,0.1c0,0,0,0.1,0,0.1c0,0,0,0.1-0.1,0.1l-3.2,3c0,0-0.1,0-0.1,0.1c0,0-0.1,0-0.1,0
							c0,0-0.1,0-0.1,0c0,0-0.1,0-0.1-0.1l-8.5-9c0,0,0-0.1-0.1-0.1c0,0,0-0.1,0-0.1C36,30.5,36,30.5,36.1,30.4
							C36,30.4,36,30.4,36.1,30.4z"/>
					</g>
				</g>
			</g>
		</g>
	</g>
</g>
<g>
	<defs>
		<rect id="SVGID_00000123413941520362292580000005465556965148421016_" x="24" y="15" width="6.8" height="6.5"/>
	</defs>
	<clipPath id="SVGID_00000046325379604378240330000016081069297918123438_">
		<use xlink:href="#SVGID_00000123413941520362292580000005465556965148421016_"  style="overflow:visible;"/>
	</clipPath>
	<g style="clip-path:url(#SVGID_00000046325379604378240330000016081069297918123438_);">
		<g>
			<defs>
				
					<rect id="SVGID_00000128471983552168576180000008728549764928502453_" x="20.7" y="10.8" transform="matrix(0.9852 -0.1715 0.1715 0.9852 -4.0065 6.1448)" width="25.7" height="31"/>
			</defs>
			<clipPath id="SVGID_00000172434318837525176200000016994755121367263136_">
				<use xlink:href="#SVGID_00000128471983552168576180000008728549764928502453_"  style="overflow:visible;"/>
			</clipPath>
			<g style="clip-path:url(#SVGID_00000172434318837525176200000016994755121367263136_);">
				<g>
					<defs>
						
							<rect id="SVGID_00000183235372509292440240000013796242529571979954_" x="20.7" y="10.8" transform="matrix(0.9852 -0.1715 0.1715 0.9852 -4.0065 6.1448)" width="25.7" height="31"/>
					</defs>
					<clipPath id="SVGID_00000111162954092018761530000000136769557981606808_">
						<use xlink:href="#SVGID_00000183235372509292440240000013796242529571979954_"  style="overflow:visible;"/>
					</clipPath>
					<g style="clip-path:url(#SVGID_00000111162954092018761530000000136769557981606808_);">
						<path class="st7" d="M24.2,21.5c1.2-2.6,3.9-5.6,6.7-6.4C26.7,15,24.1,19.1,24.2,21.5z"/>
					</g>
				</g>
			</g>
		</g>
	</g>
</g>
<defs>
	<filter id="Adobe_OpacityMaskFilter" filterUnits="userSpaceOnUse" x="23.2" y="14" width="17.2" height="17.4">
		<feColorMatrix  type="matrix" values="1 0 0 0 0  0 1 0 0 0  0 0 1 0 0  0 0 0 1 0"/>
	</filter>
</defs>
<mask maskUnits="userSpaceOnUse" x="23.2" y="14" width="17.2" height="17.4" id="m_00000103236713264030828520000002508788179615452845_">
	<g class="st14">
		<path class="st15" d="M-15.1-14.1h76.8v76.8h-76.8V-14.1z"/>
	</g>
</mask>
<g class="st16">
	<g>
		<g>
			<defs>
				<rect id="SVGID_00000131326011215437494680000004472091557653574273_" x="23.2" y="14" width="17.2" height="17.4"/>
			</defs>
			<clipPath id="SVGID_00000007400780264767639210000008962564050872125573_">
				<use xlink:href="#SVGID_00000131326011215437494680000004472091557653574273_"  style="overflow:visible;"/>
			</clipPath>
			<g transform="translate(187 127)" style="clip-path:url(#SVGID_00000007400780264767639210000008962564050872125573_);">
				<g>
					<defs>
						<rect id="SVGID_00000123416610151138745400000012336961449087446959_" x="-163.7" y="-112.9" width="17.2" height="17.2"/>
					</defs>
					<clipPath id="SVGID_00000181071935854791393130000000405213063084197300_">
						<use xlink:href="#SVGID_00000123416610151138745400000012336961449087446959_"  style="overflow:visible;"/>
					</clipPath>
					<g style="clip-path:url(#SVGID_00000181071935854791393130000000405213063084197300_);">
						<path class="st0" d="M-146.6-104.3c0,0.3,0,0.6,0,0.8c0,0.3-0.1,0.6-0.1,0.8c-0.1,0.3-0.1,0.5-0.2,0.8
							c-0.1,0.3-0.2,0.5-0.3,0.8c-0.1,0.3-0.2,0.5-0.4,0.8c-0.1,0.2-0.3,0.5-0.4,0.7c-0.2,0.2-0.3,0.5-0.5,0.7
							c-0.2,0.2-0.4,0.4-0.6,0.6c-0.2,0.2-0.4,0.4-0.6,0.6s-0.4,0.3-0.7,0.5c-0.2,0.2-0.5,0.3-0.7,0.4c-0.2,0.1-0.5,0.3-0.8,0.4
							c-0.3,0.1-0.5,0.2-0.8,0.3c-0.3,0.1-0.5,0.1-0.8,0.2c-0.3,0.1-0.6,0.1-0.8,0.1c-0.3,0-0.6,0-0.8,0c-0.3,0-0.6,0-0.8,0
							c-0.3,0-0.6-0.1-0.8-0.1c-0.3-0.1-0.5-0.1-0.8-0.2c-0.3-0.1-0.5-0.2-0.8-0.3c-0.3-0.1-0.5-0.2-0.8-0.4s-0.5-0.3-0.7-0.4
							c-0.2-0.2-0.5-0.3-0.7-0.5s-0.4-0.4-0.6-0.6c-0.2-0.2-0.4-0.4-0.6-0.6c-0.2-0.2-0.3-0.4-0.5-0.7c-0.2-0.2-0.3-0.5-0.4-0.7
							c-0.1-0.2-0.3-0.5-0.4-0.8c-0.1-0.3-0.2-0.5-0.3-0.8c-0.1-0.3-0.1-0.5-0.2-0.8c-0.1-0.3-0.1-0.6-0.1-0.8c0-0.3,0-0.6,0-0.8
							c0-0.3,0-0.6,0-0.8c0-0.3,0.1-0.6,0.1-0.8c0.1-0.3,0.1-0.5,0.2-0.8c0.1-0.3,0.2-0.5,0.3-0.8c0.1-0.3,0.2-0.5,0.4-0.8
							c0.1-0.2,0.3-0.5,0.4-0.7c0.2-0.2,0.3-0.5,0.5-0.7c0.2-0.2,0.4-0.4,0.6-0.6c0.2-0.2,0.4-0.4,0.6-0.6s0.4-0.3,0.7-0.5
							s0.5-0.3,0.7-0.4c0.2-0.1,0.5-0.3,0.8-0.4c0.3-0.1,0.5-0.2,0.8-0.3c0.3-0.1,0.5-0.2,0.8-0.2c0.3-0.1,0.6-0.1,0.8-0.1
							c0.3,0,0.6,0,0.8,0c0.3,0,0.6,0,0.8,0c0.3,0,0.6,0.1,0.8,0.1c0.3,0.1,0.5,0.1,0.8,0.2c0.3,0.1,0.5,0.2,0.8,0.3
							c0.3,0.1,0.5,0.2,0.8,0.4c0.2,0.1,0.5,0.3,0.7,0.4c0.2,0.2,0.5,0.3,0.7,0.5s0.4,0.4,0.6,0.6c0.2,0.2,0.4,0.4,0.6,0.6
							c0.2,0.2,0.3,0.4,0.5,0.7c0.2,0.2,0.3,0.5,0.4,0.7c0.1,0.2,0.3,0.5,0.4,0.8c0.1,0.3,0.2,0.5,0.3,0.8c0.1,0.3,0.2,0.5,0.2,0.8
							c0.1,0.3,0.1,0.6,0.1,0.8C-146.6-104.9-146.6-104.6-146.6-104.3z"/>
					</g>
				</g>
			</g>
		</g>
	</g>
</g>
</svg>
