<svg width="110" height="110" viewBox="0 0 110 110" fill="none" xmlns="http://www.w3.org/2000/svg">
<g clip-path="url(#clip0_380_367)">
<path opacity="0.3" d="M109.748 6.98237L109.048 0L102.056 2.21662C90.0727 6.17631 77.2761 7.39143 64.7059 5.76322C51.4973 3.81377 37.9777 5.54609 25.7826 10.7506C19.3175 13.3687 13.6437 17.4832 9.27782 22.7193C4.91189 27.9555 1.99245 34.1472 0.785327 40.7305C-0.779889 49.235 0.00314135 57.9803 3.0578 66.1109C5.02469 61.8886 7.32308 57.8134 9.93349 53.9194C15.8547 45.6338 24.0594 39.0579 33.6488 34.9118C42.8869 30.9004 52.9845 29.0026 63.1327 29.3702C53.4718 30.775 44.2246 34.0778 35.9795 39.068C32.0026 41.4445 28.3605 44.2937 25.1416 47.5466C22.063 50.798 19.3487 54.3452 17.0423 58.1309C12.7102 66.0444 9.62767 74.5217 7.89409 83.2897C6.0255 92.086 5.01123 101.027 4.86413 110H16.5178C17.0656 101.953 18.2144 93.9527 19.9556 86.0605C28.0401 90.2122 37.1062 92.3296 46.293 92.2116C54.8614 92.206 63.3415 90.5666 71.232 87.3904C115.575 69.3803 109.748 9.47607 109.748 6.98237Z" fill="url(#paint0_linear_380_367)"/>
<path d="M90.7538 61.055C90.0257 61.7832 88.8451 61.7832 88.1171 61.055L75.8999 48.8379L78.5366 46.2012L90.7536 58.4182C91.482 59.1464 91.482 60.3269 90.7538 61.055Z" fill="#484B63"/>
<path d="M73.1016 90.2015H28.0691C27.7549 90.2015 27.5 89.9467 27.5 89.6324V25.985C27.5 25.6708 27.7549 25.416 28.0691 25.416H73.1016C73.416 25.416 73.6707 25.6708 73.6707 25.985V89.6324C73.6707 89.9467 73.416 90.2015 73.1016 90.2015Z" fill="#D8D5ED"/>
<path d="M40.4894 85.1043H32.8332C32.5189 85.1043 32.2642 84.8494 32.2642 84.5352V61.9285C32.2642 61.6142 32.5189 61.3594 32.8332 61.3594H40.4894C40.8038 61.3594 41.0586 61.6142 41.0586 61.9285V84.5352C41.0586 84.8497 40.8038 85.1043 40.4894 85.1043Z" fill="#FF2C5C"/>
<path d="M54.2663 85.1057H46.61C46.2958 85.1057 46.041 84.8509 46.041 84.5366V53.1354C46.041 52.8212 46.2958 52.5664 46.61 52.5664H54.2663C54.5806 52.5664 54.8354 52.8212 54.8354 53.1354V84.5366C54.8354 84.8511 54.5806 85.1057 54.2663 85.1057Z" fill="#FFD659"/>
<path d="M68.3386 85.1037H60.6824C60.3681 85.1037 60.1133 84.8489 60.1133 84.5346V56.3581C60.1133 56.0438 60.3681 55.7891 60.6824 55.7891H68.3386C68.6529 55.7891 68.9078 56.0438 68.9078 56.3581V84.5346C68.9078 84.8491 68.6529 85.1037 68.3386 85.1037Z" fill="#4FC6F5"/>
<path d="M36.6597 61.3594V85.1043H40.4878C40.802 85.1043 41.0568 84.8494 41.0568 84.5352V61.9285C41.0568 61.6142 40.802 61.3594 40.4878 61.3594H36.6597Z" fill="#E62753"/>
<path d="M50.438 52.5664V85.1057H54.2661C54.5804 85.1057 54.8351 84.8509 54.8351 84.5366V53.1354C54.8351 52.8212 54.5804 52.5664 54.2661 52.5664H50.438Z" fill="#FFBD54"/>
<path d="M64.5103 55.7891V85.1037H68.3383C68.6526 85.1037 68.9074 84.8489 68.9074 84.5346V56.3581C68.9074 56.0438 68.6526 55.7891 68.3383 55.7891H64.5103Z" fill="#3BB3E3"/>
<path d="M34.0222 32.3783H66.2684C66.8579 32.3783 67.3355 31.9005 67.3355 31.3111C67.3355 30.7219 66.8579 30.2441 66.2684 30.2441H34.0222C33.4327 30.2441 32.9551 30.7219 32.9551 31.3111C32.9551 31.9005 33.4327 32.3783 34.0222 32.3783Z" fill="#50536E"/>
<path d="M66.2682 35.1328H34.0222C33.4327 35.1328 32.9551 35.6107 32.9551 36.1999C32.9551 36.7893 33.4327 37.267 34.0222 37.267H66.2684C66.8579 37.267 67.3355 36.7893 67.3355 36.1999C67.3355 35.6107 66.8577 35.1328 66.2682 35.1328Z" fill="#50536E"/>
<path d="M66.2682 40.0176H34.0222C33.4327 40.0176 32.9551 40.4953 32.9551 41.0847C32.9551 41.674 33.4327 42.1518 34.0222 42.1518H66.2684C66.8579 42.1518 67.3355 41.674 67.3355 41.0847C67.3355 40.4953 66.8577 40.0176 66.2682 40.0176Z" fill="#50536E"/>
<path d="M42.2419 44.9023H34.0222C33.4327 44.9023 32.9551 45.3802 32.9551 45.9695C32.9551 46.5588 33.4327 47.0366 34.0222 47.0366H42.2419C42.8314 47.0366 43.309 46.5588 43.309 45.9695C43.309 45.3802 42.8314 44.9023 42.2419 44.9023Z" fill="#50536E"/>
<path d="M79.3288 49.5465C87.1554 41.7199 87.1554 29.0306 79.3288 21.2039C71.5022 13.3773 58.8128 13.3773 50.9862 21.2039C43.1596 29.0306 43.1596 41.7199 50.9862 49.5465C58.8128 57.3732 71.5022 57.3732 79.3288 49.5465Z" fill="#50536E"/>
<path d="M76.5727 46.8739C70.1364 53.3103 59.6637 53.3103 53.2272 46.8739C46.7908 40.4376 46.7909 29.965 53.2272 23.5285C59.6635 17.092 70.1362 17.0921 76.5727 23.5285C83.0091 29.9649 83.009 40.4376 76.5727 46.8739Z" fill="#B5FCFF"/>
<path d="M76.7873 23.5281C73.2461 19.8218 68.4261 18.2502 63.7998 18.8122C67.2076 19.2262 70.5104 20.7978 73.1191 23.5281C79.269 29.9647 79.269 40.4376 73.1191 46.8743C70.5104 49.6046 67.2076 51.1762 63.7998 51.5902C68.4261 52.1522 73.2461 50.5806 76.7873 46.8743C82.9373 40.4378 82.9373 29.9647 76.7873 23.5281Z" fill="#71F6FC"/>
</g>
<defs>
<linearGradient id="paint0_linear_380_367" x1="55" y1="0" x2="55" y2="110" gradientUnits="userSpaceOnUse">
<stop stop-color="#83B645"/>
<stop offset="1" stop-color="#83B645" stop-opacity="0"/>
</linearGradient>
<clipPath id="clip0_380_367">
<rect width="110" height="110" fill="white"/>
</clipPath>
</defs>
</svg>
