<?xml version="1.0" encoding="utf-8"?>
<!-- Generator: Adobe Illustrator 16.0.2, SVG Export Plug-In . SVG Version: 6.00 Build 0)  -->
<!DOCTYPE svg PUBLIC "-//W3C//DTD SVG 1.1//EN" "http://www.w3.org/Graphics/SVG/1.1/DTD/svg11.dtd">
<svg version="1.1" id="Layer_1" xmlns="http://www.w3.org/2000/svg" xmlns:xlink="http://www.w3.org/1999/xlink" x="0px" y="0px"
	 width="67.98px" height="64px" viewBox="158.524 146.035 67.98 64" enable-background="new 158.524 146.035 67.98 64"
	 xml:space="preserve" fill="#fff">
<filter  id="a" xlink:show="other" height="100%" xlink:actuate="onLoad" xlink:type="simple" width="100%" y="0%" x="0%">
	<feColorMatrix  values="0 0 0 0 1 0 0 0 0 1 0 0 0 0 1 0 0 0 1 0" color-interpolation-filters="sRGB"></feColorMatrix>
</filter>
<g>
	<g>
		<g>
			<linearGradient id="SVGID_1_" gradientUnits="userSpaceOnUse" x1="158.5237" y1="191.7861" x2="211.1682" y2="191.7861">
				<stop  offset="0" style="stop-color:#fff"/>
				<stop  offset="1" style="stop-color:#fff"/>
			</linearGradient>
			<path fill="url(#SVGID_1_)" d="M160.327,175.289c-0.032,0-0.057,0.025-0.057,0.058v32.88c0,0.032,0.025,0.059,0.057,0.059h49.037
				c0.031,0,0.058-0.026,0.058-0.059v-27.25c0-0.032-0.026-0.058-0.058-0.058h-23.659c-0.431,0-0.849-0.156-1.175-0.438
				l-6.002-5.179c-0.011-0.009-0.024-0.014-0.038-0.014H160.327z M209.365,210.035h-49.037c-0.994,0-1.804-0.812-1.804-1.809v-32.88
				c0-0.998,0.81-1.809,1.804-1.809h18.164c0.431,0,0.849,0.155,1.176,0.438l6.001,5.179c0.011,0.009,0.024,0.014,0.038,0.014
				h23.659c0.994,0,1.804,0.812,1.804,1.809v27.25C211.168,209.224,210.359,210.035,209.365,210.035"/>
			<linearGradient id="SVGID_2_" gradientUnits="userSpaceOnUse" x1="179.4846" y1="175.7246" x2="187.9021" y2="175.7246">
				<stop  offset="0" style="stop-color:#fff"/>
				<stop  offset="1" style="stop-color:#fff"/>
			</linearGradient>
			<path fill="url(#SVGID_2_)" d="M187.029,176.601h-6.671c-0.481,0-0.873-0.392-0.873-0.875c0-0.483,0.392-0.876,0.873-0.876h6.671
				c0.481,0,0.873,0.393,0.873,0.876C187.902,176.209,187.51,176.601,187.029,176.601"/>
		</g>
	</g>
	<linearGradient id="SVGID_3_" gradientUnits="userSpaceOnUse" x1="164.0779" y1="169.4883" x2="192.9954" y2="169.4883">
		<stop  offset="0" style="stop-color:#fff"/>
		<stop  offset="1" style="stop-color:#fff"/>
	</linearGradient>
	<path fill="url(#SVGID_3_)" d="M192.122,180.919c-0.482,0-0.873-0.392-0.873-0.876v-20.234h-25.425v14.605
		c0,0.482-0.392,0.875-0.874,0.875c-0.482,0-0.873-0.393-0.873-0.875v-15.482c0-0.483,0.391-0.875,0.873-0.875h27.171
		c0.482,0,0.873,0.392,0.873,0.875v21.111C192.995,180.527,192.605,180.919,192.122,180.919"/>
	<linearGradient id="SVGID_4_" gradientUnits="userSpaceOnUse" x1="170.9719" y1="166.4834" x2="199.8889" y2="166.4834">
		<stop  offset="0" style="stop-color:#fff"/>
		<stop  offset="1" style="stop-color:#fff"/>
	</linearGradient>
	<path fill="url(#SVGID_4_)" d="M199.016,180.919h-9.914c-0.482,0-0.874-0.392-0.874-0.876c0-0.483,0.392-0.875,0.874-0.875h9.041
		v-25.37h-25.426v5.134c0,0.484-0.39,0.876-0.872,0.876c-0.482,0-0.873-0.393-0.873-0.876v-6.01c0-0.482,0.391-0.875,0.873-0.875
		h27.171c0.482,0,0.873,0.393,0.873,0.875v27.121C199.889,180.527,199.498,180.919,199.016,180.919"/>
	<g>
		<g>
			<linearGradient id="SVGID_5_" gradientUnits="userSpaceOnUse" x1="177.8674" y1="163.4775" x2="206.7844" y2="163.4775">
				<stop  offset="0" style="stop-color:#fff"/>
				<stop  offset="1" style="stop-color:#fff"/>
			</linearGradient>
			<path fill="url(#SVGID_5_)" d="M205.911,180.919c-0.481,0-0.872-0.392-0.872-0.876v-32.258h-25.425v5.137
				c0,0.485-0.392,0.876-0.873,0.876c-0.483,0-0.874-0.391-0.874-0.876v-6.012c0-0.483,0.391-0.875,0.874-0.875h27.17
				c0.483,0,0.873,0.392,0.873,0.875v33.133C206.784,180.527,206.395,180.919,205.911,180.919"/>
		</g>
	</g>
	<linearGradient id="SVGID_6_" gradientUnits="userSpaceOnUse" x1="169.1736" y1="164.9878" x2="187.9011" y2="164.9878">
		<stop  offset="0" style="stop-color:#fff"/>
		<stop  offset="1" style="stop-color:#fff"/>
	</linearGradient>
	<path fill="url(#SVGID_6_)" d="M187.028,165.863h-16.982c-0.482,0-0.873-0.393-0.873-0.875c0-0.484,0.391-0.876,0.873-0.876h16.982
		c0.482,0,0.873,0.392,0.873,0.876C187.901,165.471,187.51,165.863,187.028,165.863"/>
	<linearGradient id="SVGID_7_" gradientUnits="userSpaceOnUse" x1="169.1736" y1="170.3564" x2="187.9011" y2="170.3564">
		<stop  offset="0" style="stop-color:#fff"/>
		<stop  offset="1" style="stop-color:#fff"/>
	</linearGradient>
	<path fill="url(#SVGID_7_)" d="M187.028,171.232h-16.982c-0.482,0-0.873-0.393-0.873-0.876c0-0.484,0.391-0.875,0.873-0.875h16.982
		c0.482,0,0.873,0.392,0.873,0.875C187.901,170.84,187.51,171.232,187.028,171.232"/>
	<g>
		<g>
			<g>
				<g>
					<linearGradient id="SVGID_8_" gradientUnits="userSpaceOnUse" x1="209.1917" y1="193.3496" x2="226.5042" y2="193.3496">
						<stop  offset="0" style="stop-color:#fff"/>
						<stop  offset="1" style="stop-color:#fff"/>
					</linearGradient>
					<path fill="url(#SVGID_8_)" d="M209.307,188.796l4.476-4.223c0.038-0.037,0.081-0.063,0.132-0.08
						c0.05-0.018,0.102-0.024,0.156-0.02c0.055,0.004,0.106,0.018,0.157,0.042s0.096,0.057,0.135,0.098l12.017,12.709
						c0.039,0.042,0.069,0.088,0.091,0.14c0.022,0.052,0.033,0.104,0.034,0.159c0.001,0.056-0.01,0.107-0.029,0.156
						s-0.049,0.091-0.087,0.126l-4.475,4.223c-0.038,0.036-0.082,0.063-0.132,0.08s-0.103,0.023-0.156,0.02
						c-0.055-0.004-0.107-0.018-0.158-0.042c-0.05-0.024-0.096-0.058-0.134-0.099l-12.017-12.709
						c-0.04-0.041-0.069-0.088-0.092-0.14c-0.021-0.052-0.032-0.105-0.033-0.16c-0.001-0.054,0.009-0.105,0.029-0.154
						C209.24,188.874,209.27,188.831,209.307,188.796z"/>
				</g>
			</g>
		</g>
	</g>
	<g>
		<g>
			<g>
				<g>
					<g>
						<g>
							<linearGradient id="SVGID_9_" gradientUnits="userSpaceOnUse" x1="188.7288" y1="177.9121" x2="217.5901" y2="177.9121">
								<stop  offset="0" style="stop-color:#fff"/>
								<stop  offset="1" style="stop-color:#fff"/>
							</linearGradient>
							<path fill="url(#SVGID_9_)" d="M192.877,167.811c5.591-5.673,14.729-5.749,20.407-0.17c5.679,5.58,5.749,14.701,0.158,20.374
								c-5.592,5.672-14.729,5.748-20.408,0.17C187.356,182.605,187.285,173.484,192.877,167.811z"/>
						</g>
					</g>
				</g>
			</g>
			<g>
				<g>
					<g>
						<g>
							<g>
								<g>
									<defs>
										
											<filter id="Adobe_OpacityMaskFilter" filterUnits="userSpaceOnUse" x="191.189" y="165.768" width="24.278" height="24.519">
											<feColorMatrix  type="matrix" values="1 0 0 0 0  0 1 0 0 0  0 0 1 0 0  0 0 0 1 0"/>
										</filter>
									</defs>
									<mask maskUnits="userSpaceOnUse" x="191.189" y="165.768" width="24.278" height="24.519" id="m">
										<g filter="url(#a)">
											<g>
												<rect x="137.224" y="126.226" opacity="0.6" width="108.169" height="108.169"/>
											</g>
										</g>
									</mask>
									<g mask="url(#m)">
										<defs>
											<rect id="SVGID_10_" x="191.189" y="165.768" width="24.278" height="24.519"/>
										</defs>
										<linearGradient id="SVGID_11_" gradientUnits="userSpaceOnUse" x1="191.1887" y1="178.0269" x2="215.467" y2="178.0269">
											<stop  offset="0" style="stop-color:#fff"/>
											<stop  offset="1" style="stop-color:#fff"/>
										</linearGradient>
										<use xlink:href="#SVGID_10_"  overflow="visible" fill="url(#SVGID_11_)"/>
										<clipPath id="SVGID_12_">
											<use xlink:href="#SVGID_10_"  overflow="visible"/>
										</clipPath>
										<g clip-path="url(#SVGID_12_)">
											<g transform="translate(187 127)">
												<defs>
													<rect id="SVGID_13_" x="4.309" y="38.937" width="24.158" height="24.158"/>
												</defs>
												<linearGradient id="SVGID_14_" gradientUnits="userSpaceOnUse" x1="4.3088" y1="51.0156" x2="28.467" y2="51.0156">
													<stop  offset="0" style="stop-color:#fff"/>
													<stop  offset="1" style="stop-color:#fff"/>
												</linearGradient>
												<use xlink:href="#SVGID_13_"  overflow="visible" fill="url(#SVGID_14_)"/>
												<clipPath id="SVGID_15_">
													<use xlink:href="#SVGID_13_"  overflow="visible"/>
												</clipPath>
												<g clip-path="url(#SVGID_15_)">
													<linearGradient id="SVGID_16_" gradientUnits="userSpaceOnUse" x1="4.3088" y1="51.0156" x2="28.467" y2="51.0156">
														<stop  offset="0" style="stop-color:#fff"/>
														<stop  offset="1" style="stop-color:#fff"/>
													</linearGradient>
													<path fill="url(#SVGID_16_)" d="M28.467,51.016c0,0.395-0.021,0.79-0.059,1.184c-0.039,0.393-0.097,0.784-0.174,1.172
														c-0.077,0.388-0.174,0.771-0.288,1.149s-0.248,0.75-0.399,1.117c-0.151,0.365-0.32,0.722-0.507,1.071
														c-0.187,0.348-0.39,0.687-0.609,1.017c-0.22,0.329-0.455,0.646-0.706,0.952c-0.251,0.305-0.517,0.598-0.796,0.878
														c-0.28,0.28-0.572,0.546-0.878,0.796c-0.307,0.25-0.624,0.486-0.952,0.706c-0.329,0.22-0.668,0.423-1.018,0.609
														c-0.349,0.187-0.706,0.355-1.071,0.507s-0.738,0.285-1.116,0.399s-0.762,0.21-1.149,0.288
														c-0.389,0.077-0.779,0.136-1.173,0.174s-0.788,0.059-1.184,0.059s-0.791-0.021-1.185-0.059s-0.784-0.097-1.173-0.174
														c-0.388-0.078-0.771-0.174-1.148-0.288c-0.379-0.114-0.752-0.248-1.117-0.399s-0.722-0.32-1.071-0.507
														c-0.349-0.187-0.688-0.39-1.017-0.609c-0.329-0.22-0.646-0.456-0.952-0.706c-0.307-0.25-0.599-0.517-0.878-0.796
														c-0.28-0.28-0.546-0.573-0.796-0.878c-0.251-0.306-0.486-0.624-0.706-0.952c-0.22-0.33-0.423-0.668-0.609-1.017
														c-0.188-0.35-0.356-0.706-0.508-1.071c-0.15-0.366-0.284-0.738-0.398-1.117c-0.115-0.378-0.212-0.761-0.288-1.149
														c-0.077-0.389-0.136-0.779-0.174-1.172c-0.039-0.395-0.059-0.789-0.059-1.184c0-0.396,0.02-0.791,0.059-1.184
														c0.038-0.394,0.097-0.785,0.174-1.173c0.076-0.388,0.173-0.771,0.288-1.149c0.114-0.379,0.248-0.751,0.398-1.116
														c0.151-0.365,0.32-0.723,0.508-1.071c0.187-0.35,0.39-0.688,0.609-1.017s0.455-0.646,0.706-0.952
														c0.25-0.306,0.516-0.598,0.796-0.878c0.279-0.28,0.571-0.545,0.878-0.796c0.306-0.25,0.623-0.486,0.952-0.706
														c0.328-0.22,0.668-0.423,1.017-0.609c0.35-0.187,0.706-0.356,1.071-0.507c0.365-0.151,0.738-0.285,1.117-0.399
														c0.378-0.115,0.761-0.211,1.148-0.288c0.389-0.077,0.779-0.135,1.173-0.174s0.789-0.058,1.185-0.058
														s0.79,0.02,1.184,0.058s0.784,0.097,1.173,0.174c0.388,0.077,0.771,0.173,1.149,0.288
														c0.378,0.115,0.751,0.248,1.116,0.399c0.365,0.151,0.723,0.32,1.071,0.507c0.35,0.186,0.688,0.39,1.018,0.609
														c0.328,0.22,0.646,0.456,0.952,0.706c0.306,0.251,0.598,0.517,0.878,0.796c0.279,0.28,0.545,0.572,0.796,0.878
														s0.486,0.624,0.706,0.952s0.423,0.667,0.609,1.017c0.187,0.348,0.355,0.706,0.507,1.071s0.285,0.737,0.399,1.116
														c0.114,0.378,0.211,0.762,0.288,1.149s0.135,0.779,0.174,1.173C28.447,50.225,28.467,50.62,28.467,51.016z"/>
												</g>
											</g>
										</g>
									</g>
								</g>
							</g>
						</g>
					</g>
				</g>
			</g>
		</g>
	</g>
</g>
</svg>
