<?xml version="1.0" encoding="utf-8"?>
<!-- Generator: Adobe Illustrator 16.0.2, SVG Export Plug-In . SVG Version: 6.00 Build 0)  -->
<!DOCTYPE svg PUBLIC "-//W3C//DTD SVG 1.1//EN" "http://www.w3.org/Graphics/SVG/1.1/DTD/svg11.dtd">
<svg version="1.1" id="Layer_3" xmlns="http://www.w3.org/2000/svg" xmlns:xlink="http://www.w3.org/1999/xlink" x="0px" y="0px"
	 width="64px" height="64px" viewBox="223.998 231.002 64 64" enable-background="new 223.998 231.002 64 64" xml:space="preserve">
<g>
	<linearGradient id="SVGID_1_" gradientUnits="userSpaceOnUse" x1="246.7073" y1="254.7446" x2="228.1267" y2="254.7446">
		<stop  offset="0" style="stop-color:#83b645"/>
		<stop  offset="1" style="stop-color:#83B645"/>
	</linearGradient>
	<path fill="url(#SVGID_1_)" d="M245.675,253.712h-7.226v-7.226c0-0.57-0.462-1.032-1.032-1.032c-5.131,0-9.291,4.159-9.291,9.291
		c0,5.13,4.159,9.291,9.291,9.291c5.131,0,9.29-4.16,9.29-9.291C246.707,254.174,246.245,253.712,245.675,253.712z M236.385,247.592
		v6.726l-4.749,4.748c-2.394-3.182-1.755-7.703,1.427-10.097C234.036,248.237,235.179,247.763,236.385,247.592z M237.417,261.971
		c-1.559,0-3.075-0.508-4.319-1.445l4.749-4.749h6.725C244.054,259.33,241.009,261.967,237.417,261.971z"/>
	<linearGradient id="SVGID_2_" gradientUnits="userSpaceOnUse" x1="250.8367" y1="246.4863" x2="240.5139" y2="246.4863">
		<stop  offset="0" style="stop-color:#83b645"/>
		<stop  offset="1" style="stop-color:#83B645"/>
	</linearGradient>
	<path fill="url(#SVGID_2_)" d="M241.546,251.647h8.258c0.57,0,1.032-0.462,1.032-1.032c-0.006-5.128-4.162-9.284-9.291-9.29
		c-0.57,0-1.032,0.462-1.032,1.032v8.258C240.514,251.186,240.976,251.647,241.546,251.647z M242.578,243.463
		c3.168,0.463,5.657,2.952,6.12,6.12h-6.12V243.463z"/>
	<linearGradient id="SVGID_3_" gradientUnits="userSpaceOnUse" x1="276.6428" y1="270.2285" x2="249.8049" y2="270.2285">
		<stop  offset="0" style="stop-color:#83b645"/>
		<stop  offset="1" style="stop-color:#83B645"/>
	</linearGradient>
	<path fill="url(#SVGID_3_)" d="M263.224,256.809c-7.412,0-13.419,6.009-13.419,13.42s6.008,13.42,13.419,13.42
		c7.411,0,13.419-6.009,13.419-13.42C276.635,262.82,270.632,256.817,263.224,256.809z M258.063,266.1v-5.973
		c0.659-0.338,1.351-0.61,2.064-0.813v6.786H258.063z M270.449,268.164v2.064h-14.452v-2.064H270.449z M266.321,266.1v-6.786
		c0.713,0.203,1.404,0.476,2.064,0.813v5.973H266.321z M264.256,258.926v7.174h-2.064v-7.174c0.341-0.03,0.684-0.052,1.032-0.052
		S263.915,258.896,264.256,258.926z M255.998,261.476v4.624h-1.032c-0.57,0-1.032,0.462-1.032,1.032v4.129
		c0,0.57,0.462,1.032,1.032,1.032h16.516c0.57,0,1.032-0.462,1.032-1.032v-4.129c0-0.57-0.462-1.032-1.032-1.032h-1.032v-4.624
		c3.792,3.114,5.142,8.318,3.341,12.882h-21.133C250.857,269.794,252.206,264.59,255.998,261.476z M263.224,281.584
		c-3.837-0.005-7.412-1.946-9.505-5.162h19.01C270.636,279.638,267.061,281.579,263.224,281.584z"/>
	<linearGradient id="SVGID_4_" gradientUnits="userSpaceOnUse" x1="287.9973" y1="263.002" x2="223.9983" y2="263.002">
		<stop  offset="0" style="stop-color:#83b645"/>
		<stop  offset="1" style="stop-color:#83B645"/>
	</linearGradient>
	<path fill="url(#SVGID_4_)" d="M286.626,287.01l-4.466-4.465c0.424-0.799,0.279-1.779-0.355-2.421l-2.628-2.627
		c2.575-5.597,2.004-12.136-1.501-17.201v-26.197c0-1.71-1.387-3.097-3.098-3.097h-47.484c-1.71,0-3.097,1.386-3.097,3.097v39.226
		c0,1.711,1.386,3.097,3.097,3.097h19.73c3.383,9.042,13.456,13.63,22.498,10.247c0.396-0.148,0.786-0.311,1.169-0.486l2.628,2.627
		c0.638,0.645,1.624,0.789,2.42,0.355l4.466,4.466c1.828,1.828,4.793,1.828,6.621,0S288.454,288.839,286.626,287.01z
		 M227.094,233.067h47.484c0.57,0,1.032,0.462,1.032,1.032v3.097h-49.548v-3.097C226.062,233.529,226.524,233.067,227.094,233.067z
		 M227.094,274.357c-0.57,0-1.032-0.462-1.032-1.032V239.26h49.548v18.551c-1.493-1.485-3.241-2.689-5.161-3.556v-11.898
		c0-0.57-0.462-1.032-1.032-1.032h-4.129c-0.57,0-1.032,0.462-1.032,1.032v10.375c-0.344-0.021-0.684-0.052-1.032-0.052
		s-0.688,0.032-1.032,0.052v-4.182c0-0.57-0.462-1.032-1.032-1.032h-4.129c-0.57,0-1.033,0.462-1.033,1.032v5.705
		c-7.705,3.442-11.836,11.911-9.807,20.102H227.094z M268.385,253.457c-0.678-0.204-1.367-0.367-2.064-0.487v-9.581h2.064V253.457z
		 M260.127,252.97c-0.697,0.12-1.387,0.283-2.064,0.487v-3.874h2.064V252.97z M247.74,270.229c0-8.552,6.933-15.484,15.484-15.484
		s15.484,6.932,15.484,15.484s-6.933,15.484-15.484,15.484C254.676,285.703,247.749,278.776,247.74,270.229z M272.393,285.163
		c2.346-1.445,4.32-3.42,5.766-5.766l2.187,2.187l-5.767,5.766L272.393,285.163z M283.316,292.938
		c-0.694,0.002-1.361-0.274-1.851-0.767l-4.395-4.395l3.702-3.702l4.394,4.395c1.022,1.022,1.022,2.68,0,3.702
		C284.675,292.663,284.01,292.938,283.316,292.938z"/>
	<linearGradient id="SVGID_5_" gradientUnits="userSpaceOnUse" x1="242.5784" y1="269.1963" x2="228.1267" y2="269.1963">
		<stop  offset="0" style="stop-color:#83b645"/>
		<stop  offset="1" style="stop-color:#83B645"/>
	</linearGradient>
	<path fill="url(#SVGID_5_)" d="M241.546,266.1h-12.387c-0.57,0-1.032,0.462-1.032,1.032v4.129c0,0.57,0.462,1.032,1.032,1.032
		h12.387c0.57,0,1.032-0.462,1.032-1.032v-4.129C242.578,266.562,242.116,266.1,241.546,266.1z M240.514,270.229h-10.323v-2.064
		h10.323V270.229z"/>
</g>
</svg>
