<svg width="15" height="14" viewBox="0 0 15 14" fill="none" xmlns="http://www.w3.org/2000/svg">
<path d="M14.3807 13.305L11.1997 10.124C12.176 9.01064 12.7147 7.60191 12.7147 6.10736C12.7147 4.47594 12.0793 2.94235 10.9258 1.78887C9.77237 0.635388 8.23877 0 6.60736 0C4.97594 0 3.44235 0.635388 2.28887 1.78887C1.13539 2.94235 0.5 4.47594 0.5 6.10736C0.5 7.73877 1.13539 9.27237 2.28887 10.4258C3.44235 11.5793 4.97594 12.2147 6.60736 12.2147C8.10191 12.2147 9.51064 11.676 10.624 10.6997L13.805 13.8807C13.8845 13.9602 13.9887 14 14.0928 14C14.197 14 14.3012 13.9602 14.3807 13.8807C14.5398 13.7217 14.5398 13.464 14.3807 13.305ZM2.86461 9.8501C1.86501 8.8503 1.31431 7.52107 1.31431 6.10736C1.31431 4.69364 1.86501 3.36441 2.86461 2.36461C3.86441 1.36501 5.19364 0.814314 6.60736 0.814314C8.02107 0.814314 9.3503 1.36501 10.3501 2.36461C11.3497 3.36441 11.9004 4.69364 11.9004 6.10736C11.9004 7.52107 11.3497 8.8503 10.3501 9.8501C9.3503 10.8497 8.02107 11.4004 6.60736 11.4004C5.19364 11.4004 3.86441 10.8497 2.86461 9.8501Z" fill="#3B3B3B"/>
</svg>
