<svg width="110" height="110" viewBox="0 0 110 110" fill="none" xmlns="http://www.w3.org/2000/svg">
<g clip-path="url(#clip0_380_285)">
<path opacity="0.3" d="M109.748 6.98237L109.048 0L102.056 2.21662C90.0727 6.17631 77.2761 7.39143 64.7059 5.76322C51.4973 3.81377 37.9777 5.54609 25.7826 10.7506C19.3175 13.3687 13.6437 17.4832 9.27782 22.7193C4.91189 27.9555 1.99245 34.1472 0.785327 40.7305C-0.779889 49.235 0.00314135 57.9803 3.0578 66.1109C5.02469 61.8886 7.32308 57.8134 9.93349 53.9194C15.8547 45.6338 24.0594 39.0579 33.6488 34.9118C42.8869 30.9004 52.9845 29.0026 63.1327 29.3702C53.4718 30.775 44.2246 34.0778 35.9795 39.068C32.0026 41.4445 28.3605 44.2937 25.1416 47.5466C22.063 50.798 19.3487 54.3452 17.0423 58.1309C12.7102 66.0444 9.62767 74.5217 7.89409 83.2897C6.0255 92.086 5.01123 101.027 4.86413 110H16.5178C17.0656 101.953 18.2144 93.9527 19.9556 86.0605C28.0401 90.2122 37.1062 92.3296 46.293 92.2116C54.8614 92.206 63.3415 90.5666 71.232 87.3904C115.575 69.3803 109.748 9.47607 109.748 6.98237Z" fill="url(#paint0_linear_380_285)"/>
<path fill-rule="evenodd" clip-rule="evenodd" d="M89.6498 30.8945V78.6023C89.6498 81.666 87.1661 84.1497 84.1024 84.1497H30.8472C29.376 84.1497 27.965 83.5653 26.9246 82.5249C25.8842 81.4845 25.2998 80.0735 25.2998 78.6023V30.8945H89.6498Z" fill="#B0D3F0"/>
<path fill-rule="evenodd" clip-rule="evenodd" d="M89.6498 25.3482V33.1145H25.2998V25.3482C25.2998 22.2845 27.7835 19.8008 30.8472 19.8008H84.1024C85.5736 19.8008 86.9846 20.3852 88.025 21.4256C89.0654 22.466 89.6498 23.8769 89.6498 25.3482Z" fill="#3B97D3"/>
<path d="M31.9588 28.6782C33.1843 28.6782 34.1777 27.6848 34.1777 26.4593C34.1777 25.2338 33.1843 24.2402 31.9588 24.2402C30.7333 24.2402 29.7397 25.2338 29.7397 26.4593C29.7397 27.6848 30.7333 28.6782 31.9588 28.6782Z" fill="#65DDB9"/>
<path d="M40.8302 28.6782C42.0558 28.6782 43.0492 27.6848 43.0492 26.4593C43.0492 25.2338 42.0558 24.2402 40.8302 24.2402C39.6047 24.2402 38.6113 25.2338 38.6113 26.4593C38.6113 27.6848 39.6047 28.6782 40.8302 28.6782Z" fill="#F3D55B"/>
<path d="M49.7102 28.6782C50.9358 28.6782 51.9292 27.6848 51.9292 26.4593C51.9292 25.2338 50.9358 24.2402 49.7102 24.2402C48.4847 24.2402 47.4912 25.2338 47.4912 26.4593C47.4912 27.6848 48.4847 28.6782 49.7102 28.6782Z" fill="#FF5364"/>
<path fill-rule="evenodd" clip-rule="evenodd" d="M82.9959 28.6782C84.2214 28.6782 85.2149 27.6848 85.2149 26.4593C85.2149 25.2338 84.2214 24.2402 82.9959 24.2402H71.901C70.6755 24.2402 69.6821 25.2338 69.6821 26.4593C69.6821 27.6848 70.6755 28.6782 71.901 28.6782H82.9959Z" fill="#2980BA"/>
<path fill-rule="evenodd" clip-rule="evenodd" d="M34.1783 59.1771C30.2061 55.9003 28.7181 50.4828 30.4591 45.6367C32.1999 40.7906 36.7953 37.5586 41.9446 37.5586C47.0941 37.5586 51.6894 40.7906 53.4303 45.6367C55.1712 50.4828 53.6833 55.9003 49.7111 59.1771H34.1783Z" fill="#2980BA"/>
<path d="M82.9924 37.5527H63.0217C61.7961 37.5527 60.8027 38.5463 60.8027 39.7718V59.7424C60.8027 60.9679 61.7961 61.9614 63.0217 61.9614H82.9924C84.2179 61.9614 85.2113 60.9679 85.2113 59.7424V39.7718C85.2113 38.5463 84.2179 37.5527 82.9924 37.5527Z" fill="white"/>
<path fill-rule="evenodd" clip-rule="evenodd" d="M80.7731 58.6325H66.3498C65.1243 58.6325 64.1309 57.6391 64.1309 56.4136V41.9903C64.1309 41.3775 64.6276 40.8809 65.2403 40.8809C65.8531 40.8809 66.3498 41.3775 66.3498 41.9903V56.4136H80.7731C81.3859 56.4136 81.8826 56.9103 81.8826 57.5231C81.8826 58.1358 81.3859 58.6325 80.7731 58.6325Z" fill="#4482C3"/>
<path fill-rule="evenodd" clip-rule="evenodd" d="M69.6798 53.0845C69.0671 53.0845 68.5703 52.5878 68.5703 51.975V48.6466C68.5703 48.0338 69.0671 47.5371 69.6798 47.5371C70.2926 47.5371 70.7893 48.0338 70.7893 48.6466V51.975C70.7893 52.5878 70.2926 53.0845 69.6798 53.0845Z" fill="#4FBA6F"/>
<path fill-rule="evenodd" clip-rule="evenodd" d="M74.1198 51.9751C73.507 51.9751 73.0103 51.4784 73.0103 50.8657V47.5372C73.0103 46.9245 73.507 46.4277 74.1198 46.4277C74.7325 46.4277 75.2293 46.9245 75.2293 47.5372V50.8657C75.2293 51.4784 74.7325 51.9751 74.1198 51.9751Z" fill="#4FBA6F"/>
<path fill-rule="evenodd" clip-rule="evenodd" d="M78.552 54.1958C77.9391 54.1958 77.4424 53.6992 77.4424 53.0864V49.758C77.4424 49.1452 77.9391 48.6484 78.552 48.6484C79.1647 48.6484 79.6614 49.1452 79.6614 49.758V53.0864C79.6614 53.6992 79.1647 54.1958 78.552 54.1958Z" fill="#FF5364"/>
<path fill-rule="evenodd" clip-rule="evenodd" d="M78.4444 46.0694C77.9642 46.0704 77.4967 45.9145 77.1131 45.6257L74.0065 43.288L70.1755 45.2074C69.627 45.4813 68.9604 45.2587 68.6865 44.7103C68.4126 44.1619 68.6352 43.4953 69.1835 43.2214L73.008 41.3042C73.7591 40.9264 74.6594 41.0072 75.3312 41.5128L78.4511 43.8538L79.9899 42.3149C80.4253 41.8945 81.1173 41.9005 81.5452 42.3284C81.9732 42.7564 81.9792 43.4485 81.5587 43.8837L80.0198 45.4226C79.6017 45.8392 79.0347 46.072 78.4444 46.0694Z" fill="#FF5364"/>
<path d="M49.7073 66.3984H34.1745C32.949 66.3984 31.9556 67.3918 31.9556 68.6174C31.9556 69.8429 32.949 70.8363 34.1745 70.8363H49.7073C50.9328 70.8363 51.9263 69.8429 51.9263 68.6174C51.9263 67.3918 50.9328 66.3984 49.7073 66.3984Z" fill="#3B97D3"/>
<path fill-rule="evenodd" clip-rule="evenodd" d="M50.8167 76.3831H33.065C32.4523 76.3831 31.9556 75.8863 31.9556 75.2736C31.9556 74.6608 32.4523 74.1641 33.065 74.1641H50.8167C51.4295 74.1641 51.9263 74.6608 51.9263 75.2736C51.9263 75.8863 51.4295 76.3831 50.8167 76.3831Z" fill="#285680"/>
<path fill-rule="evenodd" clip-rule="evenodd" d="M50.8167 80.8224H33.065C32.4523 80.8224 31.9556 80.3258 31.9556 79.713C31.9556 79.1003 32.4523 78.6035 33.065 78.6035H50.8167C51.4295 78.6035 51.9263 79.1003 51.9263 79.713C51.9263 80.3258 51.4295 80.8224 50.8167 80.8224Z" fill="#285680"/>
<path fill-rule="evenodd" clip-rule="evenodd" d="M84.1021 76.3831H69.6788C69.0661 76.3831 68.5693 75.8863 68.5693 75.2736C68.5693 74.6608 69.0661 74.1641 69.6788 74.1641H84.1021C84.7149 74.1641 85.2116 74.6608 85.2116 75.2736C85.2116 75.8863 84.7149 76.3831 84.1021 76.3831Z" fill="#285680"/>
<path fill-rule="evenodd" clip-rule="evenodd" d="M84.1021 71.9475H69.6788C69.0661 71.9475 68.5693 71.4508 68.5693 70.8381C68.5693 70.2253 69.0661 69.7285 69.6788 69.7285H84.1021C84.7149 69.7285 85.2116 70.2253 85.2116 70.8381C85.2116 71.4508 84.7149 71.9475 84.1021 71.9475Z" fill="#285680"/>
<path fill-rule="evenodd" clip-rule="evenodd" d="M84.1021 67.508H69.6788C69.0661 67.508 68.5693 67.0113 68.5693 66.3985C68.5693 65.7858 69.0661 65.2891 69.6788 65.2891H84.1021C84.7149 65.2891 85.2116 65.7858 85.2116 66.3985C85.2116 67.0113 84.7149 67.508 84.1021 67.508Z" fill="#285680"/>
<path fill-rule="evenodd" clip-rule="evenodd" d="M84.1021 80.8224H69.6788C69.0661 80.8224 68.5693 80.3258 68.5693 79.713C68.5693 79.1003 69.0661 78.6035 69.6788 78.6035H84.1021C84.7149 78.6035 85.2116 79.1003 85.2116 79.713C85.2116 80.3258 84.7149 80.8224 84.1021 80.8224Z" fill="#285680"/>
<path d="M41.9429 53.0851C45.0066 53.0851 47.4903 50.6014 47.4903 47.5376C47.4903 44.4738 45.0066 41.9902 41.9429 41.9902C38.8792 41.9902 36.3955 44.4738 36.3955 47.5376C36.3955 50.6014 38.8792 53.0851 41.9429 53.0851Z" fill="#FDD7AD"/>
<path fill-rule="evenodd" clip-rule="evenodd" d="M66.3479 75.2549C66.3479 73.4166 64.8577 71.9264 63.0195 71.9264C62.4811 71.9258 62.0209 71.5391 61.9278 71.0089C61.8346 70.4787 62.1355 69.9582 62.6414 69.7743C63.1473 69.5903 63.7122 69.796 63.9814 70.2622C64.2969 70.7722 64.9606 70.9392 65.4799 70.6392C65.9991 70.3391 66.1861 69.6807 65.9019 69.1526C65.4991 68.4773 64.8702 67.9664 64.1267 67.7103V66.379C64.1267 65.7662 63.63 65.2695 63.0173 65.2695C62.4045 65.2695 61.9078 65.7662 61.9078 66.379V67.6926C60.3804 68.2305 59.4639 69.7916 59.7383 71.3874C60.0127 72.9832 61.3981 74.1484 63.0173 74.1453C63.5555 74.1459 64.0157 74.5327 64.1089 75.0629C64.2021 75.593 63.9012 76.1135 63.3953 76.2976C62.8894 76.4815 62.3245 76.2758 62.0553 75.8096C61.8637 75.4536 61.4935 75.2299 61.0892 75.226C60.6848 75.222 60.3104 75.4383 60.1118 75.7906C59.9133 76.1428 59.9221 76.5752 60.1348 76.9191C60.5375 77.5945 61.1664 78.1054 61.91 78.3614V79.6927C61.91 80.3055 62.4068 80.8023 63.0195 80.8023C63.6322 80.8023 64.1289 80.3055 64.1289 79.6927V78.3813C65.4549 77.9126 66.343 76.6611 66.3479 75.2549Z" fill="#14A085"/>
<path fill-rule="evenodd" clip-rule="evenodd" d="M49.709 57.5218V59.175C45.1972 62.8881 38.6882 62.8881 34.1763 59.175V57.5218C34.1763 55.0709 36.1632 53.084 38.6142 53.084H45.2711C47.7221 53.084 49.709 55.0709 49.709 57.5218Z" fill="#26B99A"/>
</g>
<defs>
<linearGradient id="paint0_linear_380_285" x1="55" y1="0" x2="55" y2="110" gradientUnits="userSpaceOnUse">
<stop stop-color="#83B645"/>
<stop offset="1" stop-color="#83B645" stop-opacity="0"/>
</linearGradient>
<clipPath id="clip0_380_285">
<rect width="110" height="110" fill="white"/>
</clipPath>
</defs>
</svg>
