<?xml version="1.0" encoding="utf-8"?>
<!-- Generator: Adobe Illustrator 16.0.2, SVG Export Plug-In . SVG Version: 6.00 Build 0)  -->
<!DOCTYPE svg PUBLIC "-//W3C//DTD SVG 1.1//EN" "http://www.w3.org/Graphics/SVG/1.1/DTD/svg11.dtd">
<svg version="1.1" id="Layer_1" xmlns="http://www.w3.org/2000/svg" xmlns:xlink="http://www.w3.org/1999/xlink" x="0px" y="0px"
	 width="63.817px" height="64px" viewBox="223.406 224 63.817 64" enable-background="new 223.406 224 63.817 64"
	 xml:space="preserve">
<g id="Out_line">
	<linearGradient id="SVGID_1_" gradientUnits="userSpaceOnUse" x1="239.406" y1="257.0664" x2="245.8059" y2="257.0664">
		<stop  offset="0" style="stop-color:#83b645"/>
		<stop  offset="1" style="stop-color:#83B645"/>
	</linearGradient>
	<path fill="url(#SVGID_1_)" d="M245.806,263.467v-11.733c0-0.589-0.478-1.067-1.066-1.067h-4.267c-0.589,0-1.067,0.478-1.067,1.067
		v11.733h2.133V252.8h2.133v10.667H245.806z"/>
	<linearGradient id="SVGID_2_" gradientUnits="userSpaceOnUse" x1="256.4729" y1="259.7334" x2="262.8723" y2="259.7334">
		<stop  offset="0" style="stop-color:#83b645"/>
		<stop  offset="1" style="stop-color:#83B645"/>
	</linearGradient>
	<path fill="url(#SVGID_2_)" d="M262.872,267.733V252.8c0-0.589-0.478-1.066-1.066-1.066h-4.267c-0.589,0-1.066,0.478-1.066,1.066
		v14.934h2.133v-13.867h2.134v13.867H262.872z"/>
	<linearGradient id="SVGID_3_" gradientUnits="userSpaceOnUse" x1="247.9392" y1="257.5996" x2="254.3396" y2="257.5996">
		<stop  offset="0" style="stop-color:#83b645"/>
		<stop  offset="1" style="stop-color:#83B645"/>
	</linearGradient>
	<path fill="url(#SVGID_3_)" d="M254.34,267.733v-19.2c0-0.589-0.478-1.066-1.067-1.066h-4.267c-0.589,0-1.067,0.478-1.067,1.066
		V265.6h2.133v-16h2.134v18.133H254.34z"/>
	<linearGradient id="SVGID_4_" gradientUnits="userSpaceOnUse" x1="265.0061" y1="253.8667" x2="271.4065" y2="253.8667">
		<stop  offset="0" style="stop-color:#83b645"/>
		<stop  offset="1" style="stop-color:#83B645"/>
	</linearGradient>
	<path fill="url(#SVGID_4_)" d="M271.406,259.2v-10.667c-0.001-0.589-0.479-1.066-1.067-1.066h-4.267
		c-0.589,0-1.066,0.478-1.066,1.066v11.733h2.133V249.6h2.134v9.6H271.406z"/>
	<linearGradient id="SVGID_5_" gradientUnits="userSpaceOnUse" x1="273.5393" y1="249.6006" x2="279.9397" y2="249.6006">
		<stop  offset="0" style="stop-color:#83b645"/>
		<stop  offset="1" style="stop-color:#83B645"/>
	</linearGradient>
	<path fill="url(#SVGID_5_)" d="M279.94,258.134v-16c0-0.589-0.478-1.066-1.067-1.066h-4.267c-0.589,0-1.066,0.478-1.066,1.066v16
		h2.134V243.2h2.133v14.934H279.94z"/>
	<linearGradient id="SVGID_6_" gradientUnits="userSpaceOnUse" x1="236.2058" y1="236.7998" x2="281.0061" y2="236.7998">
		<stop  offset="0" style="stop-color:#83b645"/>
		<stop  offset="1" style="stop-color:#83B645"/>
	</linearGradient>
	<path fill="url(#SVGID_6_)" d="M239.719,248.221c0.417,0.417,1.092,0.417,1.508,0l8.805-8.805l8.848,9.831
		c0.195,0.217,0.472,0.345,0.765,0.353c0.01,0,0.019,0,0.028,0c0.282,0,0.554-0.112,0.754-0.313l14.179-14.179v2.758
		c0,0.589,0.478,1.066,1.067,1.066h4.267c0.589,0,1.066-0.478,1.066-1.066v-12.8c0-0.589-0.478-1.067-1.066-1.067h-12.801
		c-0.589,0-1.066,0.478-1.066,1.067v4.267c0,0.589,0.478,1.066,1.066,1.066h2.759l-10.185,10.184l-8.848-9.831
		c-0.394-0.438-1.068-0.473-1.506-0.079c-0.014,0.013-0.027,0.025-0.041,0.039l-12.8,12.8c-0.417,0.417-0.417,1.092,0,1.509
		L239.719,248.221z M250.032,233.016l8.848,9.831c0.394,0.438,1.068,0.474,1.506,0.08c0.015-0.013,0.027-0.025,0.041-0.039
		l12.8-12.8c0.417-0.417,0.417-1.092,0-1.508c-0.2-0.2-0.472-0.313-0.754-0.313h-4.267v-2.133h10.666V236.8h-2.133v-4.267
		c0-0.589-0.478-1.066-1.067-1.066c-0.282,0-0.554,0.112-0.754,0.313l-15.205,15.205l-8.848-9.831
		c-0.196-0.218-0.472-0.345-0.765-0.353c-0.009,0-0.019,0-0.028,0c-0.283,0-0.554,0.113-0.754,0.313l-8.846,8.846l-1.692-1.691
		L250.032,233.016z"/>
	<linearGradient id="SVGID_7_" gradientUnits="userSpaceOnUse" x1="223.406" y1="274.0986" x2="287.2229" y2="274.0986">
		<stop  offset="0" style="stop-color:#83b645"/>
		<stop  offset="1" style="stop-color:#83B645"/>
	</linearGradient>
	<path fill="url(#SVGID_7_)" d="M233.006,286.934V284.8h3.2c0.589,0,1.066-0.478,1.066-1.066v-2.795
		c10.583,9.714,26.939,9.364,37.097-0.793l11.657-11.657c1.595-1.595,1.596-4.181,0.001-5.775c-1.325-1.325-3.383-1.579-4.989-0.614
		c-1.246-1.928-3.819-2.481-5.748-1.235c-0.416,0.269-0.781,0.61-1.077,1.008l-0.452,0.606c-0.231-0.177-0.479-0.332-0.739-0.463
		c-2.262-1.13-5.012-0.214-6.143,2.048c-0.028,0.056-0.055,0.112-0.08,0.169l-2.689,5.975c-0.563-0.225-1.164-0.34-1.771-0.34
		h-12.891l-1.821-1.82c-2.747-2.739-6.983-3.307-10.354-1.389V265.6c0-0.589-0.478-1.066-1.066-1.066h-3.2v-1.066
		c0-0.589-0.478-1.066-1.067-1.066h-8.533v2.133h7.467v21.333h-7.467V288h8.533C232.529,288,233.006,287.522,233.006,286.934z
		 M278.588,262.62c0.364,0.219,0.65,0.548,0.817,0.938l-8.464,8.464c-1.133,1.134-2.411,2.112-3.803,2.909l8.784-11.785
		C276.543,262.31,277.698,262.082,278.588,262.62z M268.744,265.106c0.554-1.231,2.002-1.78,3.232-1.226
		c0.03,0.013,0.061,0.027,0.091,0.042c0.147,0.074,0.288,0.164,0.418,0.267l-6.005,8.056c-0.168-0.287-0.365-0.556-0.588-0.802
		L268.744,265.106z M246.118,269.554l2.133,2.134c0.2,0.2,0.471,0.313,0.754,0.313h13.333c1.473,0,2.667,1.194,2.667,2.667
		s-1.194,2.666-2.667,2.666h-13.333v2.134h13.333c1.335,0,2.608-0.557,3.515-1.535c2.469-1.016,4.711-2.512,6.597-4.401l9.31-9.31
		c0.763-0.761,1.997-0.76,2.759,0.002c0.761,0.762,0.761,1.995,0,2.757l-11.658,11.657c-9.64,9.64-25.27,9.64-34.91,0l-0.678-0.679
		v-8.694C239.839,267.021,243.705,267.146,246.118,269.554z M235.139,266.667v16h-2.133v-16H235.139z"/>
</g>
</svg>
