<?xml version="1.0" encoding="utf-8"?>
<!-- Generator: Adobe Illustrator 16.0.2, SVG Export Plug-In . SVG Version: 6.00 Build 0)  -->
<!DOCTYPE svg PUBLIC "-//W3C//DTD SVG 1.1//EN" "http://www.w3.org/Graphics/SVG/1.1/DTD/svg11.dtd">
<svg version="1.1" id="Layer_1" xmlns="http://www.w3.org/2000/svg" xmlns:xlink="http://www.w3.org/1999/xlink" x="0px" y="0px"
	 width="55.459px" height="64px" viewBox="380.24 382.924 55.459 64" enable-background="new 380.24 382.924 55.459 64"
	 xml:space="preserve">
<g>
	
		<linearGradient id="SVGID_1_" gradientUnits="userSpaceOnUse" x1="390.7659" y1="411.9434" x2="410.6536" y2="411.9434" gradientTransform="matrix(1.5746 -1.1241 0.897 1.2565 -604.2385 348.8429)">
		<stop  offset="0" style="stop-color:#83b645"/>
		<stop  offset="1" style="stop-color:#83B645"/>
	</linearGradient>
	<polygon fill="url(#SVGID_1_)" points="380.891,427.676 412.206,405.322 411.555,404.408 380.24,426.763 	"/>
	<g>
		<g>
			<g>
				<linearGradient id="SVGID_2_" gradientUnits="userSpaceOnUse" x1="414.8606" y1="393.4033" x2="434.2024" y2="393.4033">
					<stop  offset="0" style="stop-color:#83b645"/>
					<stop  offset="1" style="stop-color:#83B645"/>
				</linearGradient>
				<path fill="url(#SVGID_2_)" d="M424.576,400.96c-4.173,0-7.566-3.391-7.566-7.557c0-4.167,3.394-7.557,7.566-7.557
					s7.568,3.39,7.568,7.557c0,1.575-0.485,3.039-1.314,4.25l1.507,1.45c1.172-1.598,1.865-3.568,1.865-5.7
					c0-5.333-4.33-9.657-9.671-9.657c-5.342,0-9.671,4.324-9.671,9.657c0,5.333,4.329,9.657,9.671,9.657
					c2.514,0,4.803-0.958,6.522-2.528l-1.623-1.337C428.116,400.295,426.423,400.96,424.576,400.96z"/>
			</g>
		</g>
		<linearGradient id="SVGID_3_" gradientUnits="userSpaceOnUse" x1="419.0872" y1="393.4033" x2="430.0452" y2="393.4033">
			<stop  offset="0" style="stop-color:#83b645"/>
			<stop  offset="1" style="stop-color:#83B645"/>
		</linearGradient>
		<path fill="url(#SVGID_3_)" d="M429.291,396.174c0.479-0.813,0.754-1.759,0.754-2.77c0-3.022-2.453-5.472-5.479-5.472
			c-3.026,0-5.479,2.45-5.479,5.472c0,3.021,2.453,5.471,5.479,5.471c1.2,0,2.311-0.386,3.214-1.04l-1.949-1.606
			c-0.376,0.163-0.79,0.254-1.226,0.254c-1.703,0-3.083-1.378-3.083-3.079s1.38-3.079,3.083-3.079s3.084,1.378,3.084,3.079
			c0,0.369-0.067,0.723-0.187,1.05L429.291,396.174z"/>
		<g>
			<g>
				<linearGradient id="SVGID_4_" gradientUnits="userSpaceOnUse" x1="424.5208" y1="398.5107" x2="435.6995" y2="398.5107">
					<stop  offset="0" style="stop-color:#83b645"/>
					<stop  offset="1" style="stop-color:#83B645"/>
				</linearGradient>
				<path fill="url(#SVGID_4_)" d="M435.682,401.506l-1.715-1.661c0.02-0.028-0.123-0.08-0.264-0.084l-1.38,0.205l-0.087-0.083
					l-5.516-5.306l0.013-0.014c0.036-0.04,0.032-0.101-0.007-0.135l-0.002-0.002c-0.04-0.035-0.101-0.032-0.136,0.008l-0.015,0.016
					c-0.204-0.138-0.47-0.137-0.672-0.005l-1.312-1.01c-0.011-0.009-0.034,0-0.051,0.019l-0.001,0
					c-0.018,0.02-0.023,0.043-0.014,0.053l1.157,1.188c-0.101,0.213-0.068,0.47,0.088,0.654l-0.014,0.015
					c-0.035,0.04-0.032,0.101,0.008,0.136l0.001,0.001c0.04,0.035,0.101,0.032,0.136-0.008l0.013-0.014l5.907,4.867l0.221,0.182
					l-0.133-0.11l-0.046,1.369c-0.004,0.112,0.045,0.219,0.131,0.29l1.833,1.5c0.036,0.03,0.091,0.004,0.09-0.043l-0.014-1.473
					l0.705,0.581c0.035,0.029,0.079,0.042,0.122,0.038c0.026-0.002,0.052-0.011,0.075-0.024c0.005-0.003,0.01-0.005,0.015-0.009
					c0.001-0.001,0.003-0.002,0.005-0.004c0.007-0.005,0.014-0.012,0.02-0.019l0,0c0,0,0,0,0,0l0.003-0.002l0,0v0
					c0.013-0.014,0.022-0.03,0.029-0.048c0.001-0.003,0.003-0.006,0.004-0.008c0.001,0,0.001-0.001,0.001-0.001
					c0.007-0.02,0.01-0.042,0.009-0.062c-0.001-0.043-0.019-0.085-0.052-0.117l-0.443-0.426l-0.211-0.203l1.464-0.154
					C435.697,401.598,435.717,401.539,435.682,401.506z"/>
			</g>
		</g>
		<g>
			<g>
				<linearGradient id="SVGID_5_" gradientUnits="userSpaceOnUse" x1="414.1663" y1="402.1123" x2="417.4514" y2="402.1123">
					<stop  offset="0" style="stop-color:#83b645"/>
					<stop  offset="1" style="stop-color:#83B645"/>
				</linearGradient>
				<path fill="url(#SVGID_5_)" d="M417.451,402.112c-1.231,0.226-1.415,0.41-1.643,1.642c-0.227-1.232-0.41-1.416-1.643-1.642
					c1.232-0.227,1.416-0.411,1.643-1.643C416.036,401.702,416.22,401.885,417.451,402.112z"/>
			</g>
		</g>
		<g>
			<g>
				<linearGradient id="SVGID_6_" gradientUnits="userSpaceOnUse" x1="430.4299" y1="384.5664" x2="433.7151" y2="384.5664">
					<stop  offset="0" style="stop-color:#83b645"/>
					<stop  offset="1" style="stop-color:#83B645"/>
				</linearGradient>
				<path fill="url(#SVGID_6_)" d="M433.715,384.566c-1.232,0.227-1.416,0.411-1.643,1.643c-0.228-1.232-0.411-1.416-1.643-1.643
					c1.231-0.227,1.415-0.411,1.643-1.643C432.299,384.156,432.483,384.339,433.715,384.566z"/>
			</g>
		</g>
		<g>
			<g>
				<linearGradient id="SVGID_7_" gradientUnits="userSpaceOnUse" x1="416.3518" y1="403.7627" x2="418.5676" y2="403.7627">
					<stop  offset="0" style="stop-color:#83b645"/>
					<stop  offset="1" style="stop-color:#83B645"/>
				</linearGradient>
				<path fill="url(#SVGID_7_)" d="M418.568,403.763c-0.831,0.153-0.955,0.277-1.107,1.107c-0.153-0.831-0.277-0.954-1.108-1.107
					c0.831-0.153,0.955-0.277,1.108-1.108C417.613,403.486,417.737,403.61,418.568,403.763z"/>
			</g>
		</g>
		<g>
			<g>
				<linearGradient id="SVGID_8_" gradientUnits="userSpaceOnUse" x1="380.3875" y1="425.915" x2="434.9856" y2="425.915">
					<stop  offset="0" style="stop-color:#83b645"/>
					<stop  offset="1" style="stop-color:#83B645"/>
				</linearGradient>
				<path fill="url(#SVGID_8_)" d="M434.986,444.823v2.101h-54.598v-2.101h4.2v-14.707h8.4v14.707h4.2v-23.11h8.4v23.11h4.199
					V413.31h8.4v31.514h4.199v-39.917h8.4v39.917H434.986z M386.687,444.823h4.2v-12.605h-4.2V444.823z M399.287,444.823h4.2v-21.01
					h-4.2V444.823z M411.887,444.823h4.199V415.41h-4.199V444.823z M424.487,444.823h4.2v-37.816h-4.2V444.823z"/>
			</g>
		</g>
		<linearGradient id="SVGID_9_" gradientUnits="userSpaceOnUse" x1="409.1125" y1="406.0234" x2="412.9348" y2="406.0234">
			<stop  offset="0" style="stop-color:#83b645"/>
			<stop  offset="1" style="stop-color:#83B645"/>
		</linearGradient>
		<path fill="url(#SVGID_9_)" d="M409.113,404.177l3.822,0.035l-1.106,3.658L409.113,404.177z"/>
	</g>
</g>
</svg>
