<svg xmlns="http://www.w3.org/2000/svg" width="375" viewBox="0 0 375 375" height="375" version="1.0"><defs><clipPath id="a"><path d="M 97 33.785156 L 303 33.785156 L 303 195 L 97 195 Z M 97 33.785156"/></clipPath><clipPath id="b"><path d="M 49 90 L 318.917969 90 L 318.917969 296.285156 L 49 296.285156 Z M 49 90"/></clipPath><clipPath id="c"><path d="M 149.0625 296.238281 L 226.3125 296.238281 L 226.3125 339.191406 L 149.0625 339.191406 Z M 149.0625 296.238281"/></clipPath><clipPath id="d"><path d="M 100.535156 210.128906 L 300.035156 210.128906 L 300.035156 255.878906 L 100.535156 255.878906 Z M 100.535156 210.128906"/></clipPath><clipPath id="e"><path d="M 254.265625 116.460938 L 300 116.460938 L 300 244.414062 L 254.265625 244.414062 Z M 254.265625 116.460938"/></clipPath><clipPath id="f"><path d="M 132.558594 176.808594 L 260.515625 176.808594 L 260.515625 222.558594 L 132.558594 222.558594 Z M 132.558594 176.808594"/></clipPath><clipPath id="g"><path d="M 162.582031 206 L 196 206 L 196 256.050781 L 162.582031 256.050781 Z M 162.582031 206"/></clipPath><clipPath id="h"><path d="M 209 167 L 243 167 L 243 256.050781 L 209 256.050781 Z M 209 167"/></clipPath><clipPath id="i"><path d="M 256 129.300781 L 289.332031 129.300781 L 289.332031 256.050781 L 256 256.050781 Z M 256 129.300781"/></clipPath></defs><path fill="#FFF" d="M-37.5 -37.5H412.5V412.5H-37.5z"/><path fill="#FFF" d="M-37.5 -37.5H412.5V412.5H-37.5z"/><path fill="#2B7F5C" d="M 189.625 276.375 C 189.625 276.664062 189.597656 276.949219 189.539062 277.230469 C 189.484375 277.515625 189.402344 277.789062 189.292969 278.054688 C 189.179688 278.324219 189.046875 278.574219 188.886719 278.816406 C 188.726562 279.054688 188.542969 279.277344 188.339844 279.480469 C 188.136719 279.683594 187.917969 279.867188 187.675781 280.027344 C 187.4375 280.1875 187.183594 280.320312 186.917969 280.433594 C 186.652344 280.542969 186.378906 280.625 186.097656 280.683594 C 185.816406 280.738281 185.53125 280.765625 185.242188 280.765625 C 184.953125 280.765625 184.671875 280.738281 184.386719 280.683594 C 184.105469 280.625 183.832031 280.542969 183.566406 280.433594 C 183.300781 280.320312 183.046875 280.1875 182.808594 280.027344 C 182.570312 279.867188 182.347656 279.683594 182.144531 279.480469 C 181.941406 279.277344 181.757812 279.054688 181.597656 278.816406 C 181.4375 278.574219 181.304688 278.324219 181.195312 278.054688 C 181.085938 277.789062 181 277.515625 180.945312 277.230469 C 180.890625 276.949219 180.859375 276.664062 180.859375 276.375 C 180.859375 276.085938 180.890625 275.800781 180.945312 275.519531 C 181 275.238281 181.085938 274.960938 181.195312 274.695312 C 181.304688 274.429688 181.4375 274.175781 181.597656 273.9375 C 181.757812 273.695312 181.941406 273.476562 182.144531 273.269531 C 182.347656 273.066406 182.570312 272.886719 182.808594 272.726562 C 183.046875 272.566406 183.300781 272.429688 183.566406 272.320312 C 183.832031 272.207031 184.105469 272.125 184.386719 272.070312 C 184.671875 272.011719 184.953125 271.984375 185.242188 271.984375 C 185.53125 271.984375 185.816406 272.011719 186.097656 272.070312 C 186.378906 272.125 186.652344 272.207031 186.917969 272.320312 C 187.183594 272.429688 187.4375 272.566406 187.675781 272.726562 C 187.917969 272.886719 188.136719 273.066406 188.339844 273.269531 C 188.542969 273.476562 188.726562 273.695312 188.886719 273.9375 C 189.046875 274.175781 189.179688 274.429688 189.292969 274.695312 C 189.402344 274.960938 189.484375 275.238281 189.539062 275.519531 C 189.597656 275.800781 189.625 276.085938 189.625 276.375 Z M 189.625 276.375"/><g clip-path="url(#a)"><path fill="#2B7F5C" d="M 302.78125 38.070312 C 302.78125 37.78125 302.753906 37.492188 302.695312 37.207031 C 302.640625 36.921875 302.554688 36.644531 302.445312 36.378906 C 302.335938 36.109375 302.199219 35.855469 302.039062 35.613281 C 301.875 35.371094 301.691406 35.148438 301.488281 34.941406 C 301.28125 34.734375 301.058594 34.554688 300.820312 34.390625 C 300.578125 34.230469 300.324219 34.09375 300.054688 33.980469 C 299.785156 33.871094 299.511719 33.789062 299.226562 33.730469 C 298.941406 33.671875 298.65625 33.644531 298.363281 33.644531 L 268.925781 33.644531 C 268.636719 33.644531 268.347656 33.671875 268.066406 33.730469 C 267.78125 33.789062 267.503906 33.871094 267.234375 33.980469 C 266.96875 34.09375 266.714844 34.230469 266.472656 34.390625 C 266.230469 34.554688 266.007812 34.734375 265.804688 34.941406 C 265.597656 35.148438 265.414062 35.371094 265.253906 35.613281 C 265.09375 35.855469 264.957031 36.109375 264.84375 36.378906 C 264.734375 36.644531 264.652344 36.921875 264.59375 37.207031 C 264.539062 37.492188 264.507812 37.78125 264.507812 38.070312 C 264.507812 38.363281 264.539062 38.648438 264.59375 38.933594 C 264.652344 39.21875 264.734375 39.496094 264.84375 39.765625 C 264.957031 40.035156 265.09375 40.289062 265.253906 40.53125 C 265.414062 40.773438 265.597656 40.996094 265.804688 41.203125 C 266.007812 41.40625 266.230469 41.589844 266.472656 41.75 C 266.714844 41.914062 266.96875 42.050781 267.234375 42.160156 C 267.503906 42.273438 267.78125 42.355469 268.066406 42.414062 C 268.347656 42.46875 268.636719 42.496094 268.925781 42.496094 L 287.867188 42.496094 L 189.234375 153.363281 L 149.761719 125.710938 C 149.289062 125.382812 148.773438 125.15625 148.214844 125.03125 C 147.652344 124.90625 147.089844 124.890625 146.523438 124.984375 C 145.957031 125.074219 145.429688 125.269531 144.9375 125.566406 C 144.445312 125.863281 144.027344 126.242188 143.683594 126.699219 L 98.730469 187.429688 C 98.5625 187.664062 98.417969 187.914062 98.296875 188.179688 C 98.179688 188.445312 98.085938 188.71875 98.019531 189.003906 C 97.953125 189.285156 97.914062 189.570312 97.902344 189.863281 C 97.890625 190.152344 97.910156 190.441406 97.957031 190.730469 C 98 191.015625 98.074219 191.296875 98.175781 191.570312 C 98.277344 191.84375 98.402344 192.105469 98.554688 192.351562 C 98.703125 192.601562 98.878906 192.832031 99.074219 193.046875 C 99.273438 193.257812 99.488281 193.453125 99.722656 193.625 C 100.515625 194.1875 101.398438 194.46875 102.371094 194.472656 C 103.066406 194.480469 103.726562 194.328125 104.351562 194.015625 C 104.972656 193.703125 105.492188 193.265625 105.90625 192.703125 L 148.3125 135.445312 L 187.398438 163.03125 C 187.839844 163.34375 188.324219 163.566406 188.847656 163.699219 C 189.375 163.832031 189.902344 163.867188 190.441406 163.804688 C 190.980469 163.742188 191.488281 163.585938 191.96875 163.339844 C 192.449219 163.089844 192.867188 162.761719 193.230469 162.359375 L 294.089844 48.941406 L 294.089844 65.335938 C 294.085938 65.628906 294.113281 65.917969 294.167969 66.203125 C 294.222656 66.488281 294.304688 66.765625 294.414062 67.035156 C 294.523438 67.304688 294.660156 67.5625 294.820312 67.804688 C 294.984375 68.046875 295.167969 68.269531 295.371094 68.476562 C 295.578125 68.683594 295.800781 68.867188 296.042969 69.027344 C 296.285156 69.1875 296.539062 69.324219 296.808594 69.433594 C 297.078125 69.546875 297.355469 69.628906 297.640625 69.683594 C 297.925781 69.738281 298.214844 69.765625 298.503906 69.761719 C 298.796875 69.761719 299.082031 69.734375 299.367188 69.679688 C 299.652344 69.621094 299.929688 69.539062 300.195312 69.425781 C 300.464844 69.316406 300.71875 69.179688 300.960938 69.015625 C 301.199219 68.855469 301.425781 68.671875 301.628906 68.464844 C 301.835938 68.261719 302.019531 68.039062 302.179688 67.796875 C 302.339844 67.554688 302.476562 67.300781 302.585938 67.03125 C 302.699219 66.761719 302.78125 66.484375 302.839844 66.199219 C 302.894531 65.914062 302.921875 65.628906 302.921875 65.335938 Z M 302.78125 38.070312"/></g><path fill="#2B7F5C" d="M 81.628906 236.964844 L 56.535156 236.964844 C 56.246094 236.964844 55.960938 236.9375 55.675781 236.878906 C 55.390625 236.824219 55.113281 236.738281 54.847656 236.628906 C 54.578125 236.515625 54.324219 236.378906 54.082031 236.21875 C 53.839844 236.058594 53.617188 235.875 53.414062 235.667969 C 53.207031 235.464844 53.023438 235.238281 52.863281 235 C 52.703125 234.757812 52.566406 234.5 52.457031 234.234375 C 52.34375 233.964844 52.261719 233.6875 52.203125 233.402344 C 52.148438 233.117188 52.117188 232.828125 52.117188 232.539062 C 52.117188 232.25 52.148438 231.960938 52.203125 231.675781 C 52.261719 231.390625 52.34375 231.113281 52.457031 230.84375 C 52.566406 230.578125 52.703125 230.320312 52.863281 230.082031 C 53.023438 229.839844 53.207031 229.613281 53.414062 229.410156 C 53.617188 229.203125 53.839844 229.019531 54.082031 228.859375 C 54.324219 228.699219 54.578125 228.5625 54.847656 228.449219 C 55.113281 228.339844 55.390625 228.253906 55.675781 228.199219 C 55.960938 228.140625 56.246094 228.113281 56.535156 228.113281 L 81.628906 228.113281 C 81.917969 228.113281 82.203125 228.140625 82.488281 228.199219 C 82.773438 228.253906 83.050781 228.339844 83.316406 228.449219 C 83.585938 228.5625 83.839844 228.699219 84.082031 228.859375 C 84.324219 229.019531 84.546875 229.203125 84.75 229.410156 C 84.957031 229.613281 85.140625 229.839844 85.300781 230.082031 C 85.460938 230.320312 85.597656 230.578125 85.707031 230.84375 C 85.820312 231.113281 85.902344 231.390625 85.960938 231.675781 C 86.015625 231.960938 86.042969 232.25 86.042969 232.539062 C 86.042969 232.828125 86.015625 233.117188 85.960938 233.402344 C 85.902344 233.6875 85.820312 233.964844 85.707031 234.234375 C 85.597656 234.5 85.460938 234.757812 85.300781 235 C 85.140625 235.238281 84.957031 235.464844 84.75 235.667969 C 84.546875 235.875 84.324219 236.058594 84.082031 236.21875 C 83.839844 236.378906 83.585938 236.515625 83.316406 236.628906 C 83.050781 236.738281 82.773438 236.824219 82.488281 236.878906 C 82.203125 236.9375 81.917969 236.964844 81.628906 236.964844 Z M 81.628906 236.964844"/><path fill="#2B7F5C" d="M 81.628906 210.410156 L 56.535156 210.410156 C 56.246094 210.410156 55.960938 210.378906 55.675781 210.324219 C 55.390625 210.265625 55.113281 210.183594 54.847656 210.070312 C 54.578125 209.960938 54.324219 209.824219 54.082031 209.664062 C 53.839844 209.5 53.617188 209.316406 53.414062 209.113281 C 53.207031 208.90625 53.023438 208.683594 52.863281 208.441406 C 52.703125 208.199219 52.566406 207.945312 52.457031 207.675781 C 52.34375 207.40625 52.261719 207.128906 52.203125 206.84375 C 52.148438 206.5625 52.117188 206.273438 52.117188 205.980469 C 52.117188 205.691406 52.148438 205.402344 52.203125 205.117188 C 52.261719 204.832031 52.34375 204.558594 52.457031 204.289062 C 52.566406 204.019531 52.703125 203.765625 52.863281 203.523438 C 53.023438 203.28125 53.207031 203.058594 53.414062 202.851562 C 53.617188 202.648438 53.839844 202.464844 54.082031 202.300781 C 54.324219 202.140625 54.578125 202.003906 54.847656 201.894531 C 55.113281 201.78125 55.390625 201.699219 55.675781 201.640625 C 55.960938 201.585938 56.246094 201.554688 56.535156 201.554688 L 81.628906 201.554688 C 81.917969 201.554688 82.203125 201.585938 82.488281 201.640625 C 82.773438 201.699219 83.050781 201.78125 83.316406 201.894531 C 83.585938 202.003906 83.839844 202.140625 84.082031 202.300781 C 84.324219 202.464844 84.546875 202.648438 84.75 202.851562 C 84.957031 203.058594 85.140625 203.28125 85.300781 203.523438 C 85.460938 203.765625 85.597656 204.019531 85.707031 204.289062 C 85.820312 204.558594 85.902344 204.832031 85.960938 205.117188 C 86.015625 205.402344 86.042969 205.691406 86.042969 205.980469 C 86.042969 206.273438 86.015625 206.5625 85.960938 206.84375 C 85.902344 207.128906 85.820312 207.40625 85.707031 207.675781 C 85.597656 207.945312 85.460938 208.199219 85.300781 208.441406 C 85.140625 208.683594 84.957031 208.90625 84.75 209.113281 C 84.546875 209.316406 84.324219 209.5 84.082031 209.664062 C 83.839844 209.824219 83.585938 209.960938 83.316406 210.070312 C 83.050781 210.183594 82.773438 210.265625 82.488281 210.324219 C 82.203125 210.378906 81.917969 210.410156 81.628906 210.410156 Z M 81.628906 210.410156"/><path fill="#2B7F5C" d="M 81.628906 183.851562 L 56.535156 183.851562 C 56.246094 183.851562 55.960938 183.824219 55.675781 183.765625 C 55.390625 183.710938 55.113281 183.625 54.847656 183.515625 C 54.578125 183.402344 54.324219 183.265625 54.082031 183.105469 C 53.839844 182.945312 53.617188 182.761719 53.414062 182.554688 C 53.207031 182.347656 53.023438 182.125 52.863281 181.882812 C 52.703125 181.644531 52.566406 181.386719 52.457031 181.117188 C 52.34375 180.851562 52.261719 180.574219 52.203125 180.289062 C 52.148438 180.003906 52.117188 179.714844 52.117188 179.425781 C 52.117188 179.132812 52.148438 178.847656 52.203125 178.5625 C 52.261719 178.277344 52.34375 178 52.457031 177.730469 C 52.566406 177.464844 52.703125 177.207031 52.863281 176.964844 C 53.023438 176.722656 53.207031 176.5 53.414062 176.296875 C 53.617188 176.089844 53.839844 175.90625 54.082031 175.746094 C 54.324219 175.582031 54.578125 175.445312 54.847656 175.335938 C 55.113281 175.226562 55.390625 175.140625 55.675781 175.085938 C 55.960938 175.027344 56.246094 175 56.535156 175 L 81.628906 175 C 81.917969 175 82.203125 175.027344 82.488281 175.085938 C 82.773438 175.140625 83.050781 175.226562 83.316406 175.335938 C 83.585938 175.445312 83.839844 175.582031 84.082031 175.746094 C 84.324219 175.90625 84.546875 176.089844 84.75 176.296875 C 84.957031 176.5 85.140625 176.722656 85.300781 176.964844 C 85.460938 177.207031 85.597656 177.464844 85.707031 177.730469 C 85.820312 178 85.902344 178.277344 85.960938 178.5625 C 86.015625 178.847656 86.042969 179.132812 86.042969 179.425781 C 86.042969 179.714844 86.015625 180.003906 85.960938 180.289062 C 85.902344 180.574219 85.820312 180.851562 85.707031 181.117188 C 85.597656 181.386719 85.460938 181.644531 85.300781 181.882812 C 85.140625 182.125 84.957031 182.347656 84.75 182.554688 C 84.546875 182.761719 84.324219 182.945312 84.082031 183.105469 C 83.839844 183.265625 83.585938 183.402344 83.316406 183.515625 C 83.050781 183.625 82.773438 183.710938 82.488281 183.765625 C 82.203125 183.824219 81.917969 183.851562 81.628906 183.851562 Z M 81.628906 183.851562"/><path fill="#2B7F5C" d="M 81.628906 157.292969 L 56.535156 157.292969 C 56.246094 157.292969 55.960938 157.265625 55.675781 157.210938 C 55.390625 157.152344 55.113281 157.070312 54.847656 156.957031 C 54.578125 156.847656 54.324219 156.710938 54.082031 156.546875 C 53.839844 156.386719 53.617188 156.203125 53.414062 156 C 53.207031 155.792969 53.023438 155.570312 52.863281 155.328125 C 52.703125 155.085938 52.566406 154.832031 52.457031 154.5625 C 52.34375 154.292969 52.261719 154.015625 52.203125 153.730469 C 52.148438 153.445312 52.117188 153.160156 52.117188 152.867188 C 52.117188 152.578125 52.148438 152.289062 52.203125 152.003906 C 52.261719 151.71875 52.34375 151.441406 52.457031 151.175781 C 52.566406 150.90625 52.703125 150.652344 52.863281 150.410156 C 53.023438 150.167969 53.207031 149.945312 53.414062 149.738281 C 53.617188 149.53125 53.839844 149.347656 54.082031 149.1875 C 54.324219 149.027344 54.578125 148.890625 54.847656 148.777344 C 55.113281 148.667969 55.390625 148.582031 55.675781 148.527344 C 55.960938 148.46875 56.246094 148.441406 56.535156 148.441406 L 81.628906 148.441406 C 81.917969 148.441406 82.203125 148.46875 82.488281 148.527344 C 82.773438 148.582031 83.050781 148.667969 83.316406 148.777344 C 83.585938 148.890625 83.839844 149.027344 84.082031 149.1875 C 84.324219 149.347656 84.546875 149.53125 84.75 149.738281 C 84.957031 149.945312 85.140625 150.167969 85.300781 150.410156 C 85.460938 150.652344 85.597656 150.90625 85.707031 151.175781 C 85.820312 151.441406 85.902344 151.71875 85.960938 152.003906 C 86.015625 152.289062 86.042969 152.578125 86.042969 152.867188 C 86.042969 153.160156 86.015625 153.445312 85.960938 153.730469 C 85.902344 154.015625 85.820312 154.292969 85.707031 154.5625 C 85.597656 154.832031 85.460938 155.085938 85.300781 155.328125 C 85.140625 155.570312 84.957031 155.792969 84.75 156 C 84.546875 156.203125 84.324219 156.386719 84.082031 156.546875 C 83.839844 156.710938 83.585938 156.847656 83.316406 156.957031 C 83.050781 157.070312 82.773438 157.152344 82.488281 157.210938 C 82.203125 157.265625 81.917969 157.292969 81.628906 157.292969 Z M 81.628906 157.292969"/><path fill="#2B7F5C" d="M 81.628906 130.738281 L 56.535156 130.738281 C 56.246094 130.738281 55.960938 130.710938 55.675781 130.652344 C 55.390625 130.597656 55.113281 130.511719 54.847656 130.402344 C 54.578125 130.289062 54.324219 130.152344 54.082031 129.992188 C 53.839844 129.832031 53.617188 129.648438 53.414062 129.441406 C 53.207031 129.234375 53.023438 129.011719 52.863281 128.769531 C 52.703125 128.527344 52.566406 128.273438 52.457031 128.003906 C 52.34375 127.738281 52.261719 127.460938 52.203125 127.175781 C 52.148438 126.890625 52.117188 126.601562 52.117188 126.3125 C 52.117188 126.019531 52.148438 125.734375 52.203125 125.449219 C 52.261719 125.164062 52.34375 124.886719 52.457031 124.617188 C 52.566406 124.347656 52.703125 124.09375 52.863281 123.851562 C 53.023438 123.609375 53.207031 123.386719 53.414062 123.179688 C 53.617188 122.976562 53.839844 122.792969 54.082031 122.632812 C 54.324219 122.46875 54.578125 122.332031 54.847656 122.222656 C 55.113281 122.109375 55.390625 122.027344 55.675781 121.96875 C 55.960938 121.914062 56.246094 121.886719 56.535156 121.886719 L 81.628906 121.886719 C 81.917969 121.886719 82.203125 121.914062 82.488281 121.96875 C 82.773438 122.027344 83.050781 122.109375 83.316406 122.222656 C 83.585938 122.332031 83.839844 122.46875 84.082031 122.632812 C 84.324219 122.792969 84.546875 122.976562 84.75 123.179688 C 84.957031 123.386719 85.140625 123.609375 85.300781 123.851562 C 85.460938 124.09375 85.597656 124.347656 85.707031 124.617188 C 85.820312 124.886719 85.902344 125.164062 85.960938 125.449219 C 86.015625 125.734375 86.042969 126.019531 86.042969 126.3125 C 86.042969 126.601562 86.015625 126.890625 85.960938 127.175781 C 85.902344 127.460938 85.820312 127.738281 85.707031 128.003906 C 85.597656 128.273438 85.460938 128.527344 85.300781 128.769531 C 85.140625 129.011719 84.957031 129.234375 84.75 129.441406 C 84.546875 129.648438 84.324219 129.832031 84.082031 129.992188 C 83.839844 130.152344 83.585938 130.289062 83.316406 130.402344 C 83.050781 130.511719 82.773438 130.597656 82.488281 130.652344 C 82.203125 130.710938 81.917969 130.738281 81.628906 130.738281 Z M 81.628906 130.738281"/><g clip-path="url(#b)"><path fill="#2B7F5C" d="M 320.558594 259.203125 L 320.558594 101.878906 C 320.558594 101.101562 320.480469 100.328125 320.332031 99.566406 C 320.179688 98.800781 319.953125 98.058594 319.65625 97.339844 C 319.359375 96.621094 318.996094 95.9375 318.5625 95.289062 C 318.128906 94.640625 317.640625 94.042969 317.089844 93.492188 C 316.539062 92.941406 315.941406 92.449219 315.296875 92.015625 C 314.648438 91.582031 313.96875 91.21875 313.25 90.917969 C 312.53125 90.621094 311.789062 90.398438 311.027344 90.246094 C 310.265625 90.09375 309.496094 90.015625 308.71875 90.015625 L 272.882812 90.015625 C 272.59375 90.015625 272.308594 90.046875 272.023438 90.101562 C 271.738281 90.160156 271.460938 90.242188 271.195312 90.355469 C 270.925781 90.464844 270.671875 90.601562 270.429688 90.761719 C 270.1875 90.925781 269.964844 91.109375 269.761719 91.3125 C 269.554688 91.519531 269.371094 91.742188 269.210938 91.984375 C 269.050781 92.226562 268.914062 92.480469 268.804688 92.75 C 268.691406 93.019531 268.609375 93.292969 268.550781 93.578125 C 268.496094 93.863281 268.46875 94.152344 268.46875 94.441406 C 268.46875 94.734375 268.496094 95.023438 268.550781 95.304688 C 268.609375 95.589844 268.691406 95.867188 268.804688 96.136719 C 268.914062 96.40625 269.050781 96.660156 269.210938 96.902344 C 269.371094 97.144531 269.554688 97.367188 269.761719 97.574219 C 269.964844 97.777344 270.1875 97.960938 270.429688 98.125 C 270.671875 98.285156 270.925781 98.421875 271.195312 98.53125 C 271.460938 98.644531 271.738281 98.726562 272.023438 98.785156 C 272.308594 98.839844 272.59375 98.871094 272.882812 98.871094 L 308.578125 98.871094 C 308.976562 98.871094 309.359375 98.945312 309.726562 99.097656 C 310.09375 99.25 310.417969 99.46875 310.703125 99.75 C 310.984375 100.03125 311.199219 100.359375 311.351562 100.726562 C 311.503906 101.097656 311.582031 101.480469 311.582031 101.878906 L 311.582031 255.875 L 296.351562 255.875 L 296.351562 126.3125 C 296.351562 126.019531 296.320312 125.734375 296.265625 125.449219 C 296.207031 125.164062 296.125 124.886719 296.015625 124.617188 C 295.902344 124.347656 295.765625 124.09375 295.605469 123.851562 C 295.445312 123.609375 295.261719 123.386719 295.054688 123.179688 C 294.851562 122.976562 294.628906 122.792969 294.386719 122.632812 C 294.144531 122.46875 293.890625 122.332031 293.625 122.222656 C 293.355469 122.109375 293.078125 122.027344 292.792969 121.96875 C 292.511719 121.914062 292.222656 121.886719 291.933594 121.886719 L 266.3125 121.886719 C 266.023438 121.886719 265.734375 121.914062 265.449219 121.96875 C 265.164062 122.027344 264.890625 122.109375 264.621094 122.222656 C 264.351562 122.332031 264.097656 122.46875 263.855469 122.632812 C 263.617188 122.792969 263.394531 122.976562 263.1875 123.179688 C 262.984375 123.386719 262.800781 123.609375 262.636719 123.851562 C 262.476562 124.09375 262.339844 124.347656 262.230469 124.617188 C 262.121094 124.886719 262.035156 125.164062 261.980469 125.449219 C 261.921875 125.734375 261.894531 126.019531 261.894531 126.3125 L 261.894531 255.875 L 242.847656 255.875 L 242.847656 206.300781 C 242.839844 206.015625 242.804688 205.730469 242.742188 205.453125 C 242.683594 205.171875 242.59375 204.902344 242.480469 204.640625 C 242.367188 204.378906 242.226562 204.128906 242.066406 203.894531 C 241.902344 203.65625 241.71875 203.441406 241.515625 203.238281 C 241.3125 203.039062 241.089844 202.859375 240.851562 202.703125 C 240.613281 202.546875 240.359375 202.414062 240.09375 202.308594 C 239.832031 202.199219 239.558594 202.117188 239.277344 202.0625 C 238.996094 202.007812 238.714844 201.980469 238.429688 201.980469 L 212.808594 201.980469 C 212.515625 201.980469 212.230469 202.007812 211.945312 202.066406 C 211.660156 202.121094 211.386719 202.207031 211.117188 202.316406 C 210.847656 202.429688 210.59375 202.566406 210.351562 202.726562 C 210.113281 202.886719 209.890625 203.070312 209.683594 203.277344 C 209.480469 203.484375 209.296875 203.707031 209.132812 203.949219 C 208.972656 204.191406 208.835938 204.445312 208.726562 204.714844 C 208.617188 204.980469 208.53125 205.257812 208.476562 205.542969 C 208.417969 205.828125 208.390625 206.117188 208.390625 206.40625 L 208.390625 255.980469 L 189.378906 255.980469 L 189.378906 191.359375 C 189.378906 191.066406 189.347656 190.78125 189.292969 190.496094 C 189.234375 190.210938 189.152344 189.933594 189.042969 189.664062 C 188.929688 189.394531 188.792969 189.140625 188.632812 188.898438 C 188.472656 188.65625 188.289062 188.433594 188.082031 188.226562 C 187.878906 188.023438 187.65625 187.839844 187.414062 187.679688 C 187.171875 187.515625 186.917969 187.378906 186.652344 187.269531 C 186.382812 187.15625 186.105469 187.074219 185.820312 187.015625 C 185.539062 186.960938 185.25 186.933594 184.960938 186.933594 L 159.375 186.933594 C 159.085938 186.933594 158.796875 186.960938 158.511719 187.015625 C 158.226562 187.074219 157.953125 187.15625 157.683594 187.269531 C 157.414062 187.378906 157.160156 187.515625 156.921875 187.679688 C 156.679688 187.839844 156.457031 188.023438 156.25 188.226562 C 156.046875 188.433594 155.863281 188.65625 155.703125 188.898438 C 155.539062 189.140625 155.402344 189.394531 155.292969 189.664062 C 155.183594 189.933594 155.097656 190.210938 155.042969 190.496094 C 154.984375 190.78125 154.957031 191.066406 154.957031 191.359375 L 154.957031 255.875 L 135.910156 255.875 L 135.910156 228.183594 C 135.910156 227.894531 135.882812 227.609375 135.824219 227.324219 C 135.769531 227.039062 135.6875 226.765625 135.574219 226.5 C 135.464844 226.230469 135.332031 225.976562 135.171875 225.734375 C 135.011719 225.496094 134.832031 225.273438 134.628906 225.066406 C 134.425781 224.859375 134.203125 224.675781 133.964844 224.515625 C 133.726562 224.355469 133.472656 224.21875 133.207031 224.105469 C 132.941406 223.992188 132.667969 223.90625 132.382812 223.847656 C 132.101562 223.789062 131.816406 223.761719 131.527344 223.757812 L 105.871094 223.757812 C 105.582031 223.757812 105.292969 223.785156 105.007812 223.84375 C 104.722656 223.898438 104.449219 223.984375 104.179688 224.09375 C 103.910156 224.207031 103.65625 224.34375 103.417969 224.503906 C 103.175781 224.664062 102.953125 224.847656 102.746094 225.054688 C 102.542969 225.257812 102.359375 225.484375 102.199219 225.726562 C 102.035156 225.964844 101.898438 226.222656 101.789062 226.488281 C 101.679688 226.757812 101.59375 227.035156 101.539062 227.320312 C 101.480469 227.605469 101.453125 227.894531 101.453125 228.183594 L 101.453125 255.875 L 58.832031 255.875 L 58.832031 101.878906 C 58.832031 101.480469 58.910156 101.097656 59.0625 100.726562 C 59.214844 100.359375 59.429688 100.03125 59.714844 99.75 C 59.996094 99.46875 60.320312 99.25 60.6875 99.097656 C 61.054688 98.945312 61.4375 98.871094 61.835938 98.871094 L 223.410156 98.871094 C 223.699219 98.871094 223.988281 98.839844 224.269531 98.785156 C 224.554688 98.726562 224.832031 98.644531 225.101562 98.53125 C 225.367188 98.421875 225.621094 98.285156 225.863281 98.125 C 226.105469 97.960938 226.328125 97.777344 226.53125 97.574219 C 226.738281 97.367188 226.921875 97.144531 227.082031 96.902344 C 227.242188 96.660156 227.378906 96.40625 227.492188 96.136719 C 227.601562 95.867188 227.683594 95.589844 227.742188 95.304688 C 227.796875 95.023438 227.828125 94.734375 227.828125 94.441406 C 227.828125 94.152344 227.796875 93.863281 227.742188 93.578125 C 227.683594 93.292969 227.601562 93.019531 227.492188 92.75 C 227.378906 92.480469 227.242188 92.226562 227.082031 91.984375 C 226.921875 91.742188 226.738281 91.519531 226.53125 91.3125 C 226.328125 91.109375 226.105469 90.925781 225.863281 90.761719 C 225.621094 90.601562 225.367188 90.464844 225.101562 90.355469 C 224.832031 90.242188 224.554688 90.160156 224.269531 90.101562 C 223.988281 90.046875 223.699219 90.015625 223.410156 90.015625 L 61.835938 90.015625 C 61.058594 90.015625 60.289062 90.09375 59.527344 90.246094 C 58.765625 90.398438 58.023438 90.621094 57.308594 90.917969 C 56.589844 91.21875 55.90625 91.582031 55.261719 92.015625 C 54.613281 92.449219 54.015625 92.941406 53.464844 93.492188 C 52.917969 94.042969 52.425781 94.640625 51.992188 95.289062 C 51.5625 95.9375 51.195312 96.621094 50.898438 97.339844 C 50.601562 98.058594 50.378906 98.800781 50.226562 99.566406 C 50.074219 100.328125 50 101.101562 50 101.878906 L 50 259.203125 C 49.890625 259.5625 49.820312 259.925781 49.785156 260.300781 L 49.785156 283.175781 C 49.828125 284.042969 49.949219 284.902344 50.148438 285.753906 C 50.34375 286.601562 50.617188 287.425781 50.964844 288.222656 C 51.3125 289.023438 51.726562 289.78125 52.210938 290.507812 C 52.695312 291.230469 53.242188 291.902344 53.847656 292.527344 C 54.457031 293.152344 55.113281 293.714844 55.824219 294.21875 C 56.53125 294.726562 57.28125 295.160156 58.066406 295.53125 C 58.855469 295.898438 59.671875 296.191406 60.511719 296.414062 C 61.351562 296.632812 62.207031 296.777344 63.074219 296.84375 L 150.820312 296.84375 C 150.820312 303.214844 150.820312 313.804688 150.328125 316.246094 C 150.074219 317.101562 149.71875 317.914062 149.253906 318.675781 C 148.792969 319.441406 148.242188 320.132812 147.601562 320.753906 C 146.960938 321.375 146.25 321.902344 145.472656 322.339844 C 144.695312 322.773438 143.875 323.105469 143.011719 323.328125 L 129.617188 323.328125 C 129.328125 323.328125 129.042969 323.355469 128.757812 323.414062 C 128.472656 323.46875 128.195312 323.554688 127.929688 323.664062 C 127.660156 323.777344 127.40625 323.914062 127.164062 324.074219 C 126.921875 324.234375 126.699219 324.417969 126.496094 324.625 C 126.289062 324.832031 126.105469 325.054688 125.945312 325.296875 C 125.785156 325.539062 125.648438 325.792969 125.539062 326.0625 C 125.425781 326.328125 125.34375 326.605469 125.285156 326.890625 C 125.230469 327.175781 125.199219 327.464844 125.199219 327.753906 C 125.199219 328.046875 125.230469 328.332031 125.285156 328.617188 C 125.34375 328.902344 125.425781 329.179688 125.539062 329.449219 C 125.648438 329.71875 125.785156 329.972656 125.945312 330.214844 C 126.105469 330.457031 126.289062 330.679688 126.496094 330.882812 C 126.699219 331.089844 126.921875 331.273438 127.164062 331.433594 C 127.40625 331.597656 127.660156 331.734375 127.929688 331.84375 C 128.195312 331.953125 128.472656 332.039062 128.757812 332.097656 C 129.042969 332.152344 129.328125 332.179688 129.617188 332.179688 L 241.078125 332.179688 C 241.371094 332.179688 241.65625 332.152344 241.941406 332.097656 C 242.226562 332.039062 242.5 331.953125 242.769531 331.84375 C 243.039062 331.734375 243.292969 331.597656 243.535156 331.433594 C 243.773438 331.273438 243.996094 331.089844 244.203125 330.882812 C 244.40625 330.679688 244.589844 330.457031 244.753906 330.214844 C 244.914062 329.972656 245.050781 329.71875 245.160156 329.449219 C 245.269531 329.179688 245.355469 328.902344 245.410156 328.617188 C 245.46875 328.332031 245.496094 328.046875 245.496094 327.753906 C 245.496094 327.464844 245.46875 327.175781 245.410156 326.890625 C 245.355469 326.605469 245.269531 326.328125 245.160156 326.0625 C 245.050781 325.792969 244.914062 325.539062 244.753906 325.296875 C 244.589844 325.054688 244.40625 324.832031 244.203125 324.625 C 243.996094 324.417969 243.773438 324.234375 243.535156 324.074219 C 243.292969 323.914062 243.039062 323.777344 242.769531 323.664062 C 242.5 323.554688 242.226562 323.46875 241.941406 323.414062 C 241.65625 323.355469 241.371094 323.328125 241.078125 323.328125 L 226.945312 323.328125 C 226.117188 323.097656 225.335938 322.761719 224.597656 322.320312 C 223.863281 321.875 223.199219 321.34375 222.605469 320.71875 C 222.015625 320.097656 221.519531 319.40625 221.113281 318.644531 C 220.710938 317.886719 220.414062 317.085938 220.230469 316.246094 C 219.769531 313.769531 219.769531 303.074219 219.699219 296.84375 L 309.355469 296.84375 C 316.421875 296.84375 320.769531 290.078125 320.769531 283.527344 L 320.769531 260.300781 C 320.738281 259.925781 320.664062 259.5625 320.558594 259.203125 Z M 309.355469 287.988281 L 63.074219 287.988281 C 62.5 287.863281 61.960938 287.65625 61.453125 287.367188 C 60.945312 287.074219 60.492188 286.714844 60.09375 286.285156 C 59.695312 285.851562 59.371094 285.371094 59.117188 284.84375 C 58.867188 284.3125 58.703125 283.753906 58.621094 283.175781 L 58.621094 264.867188 L 311.933594 264.867188 L 311.933594 283.421875 C 311.933594 285.652344 310.875 287.988281 309.355469 287.988281 Z M 309.355469 287.988281"/></g><path fill="#2B7F5C" d="M 154.957031 191.359375 C 154.953125 191.066406 154.980469 190.777344 155.035156 190.492188 C 155.089844 190.207031 155.171875 189.929688 155.285156 189.660156 C 155.394531 189.390625 155.527344 189.132812 155.691406 188.890625 C 155.851562 188.648438 156.035156 188.425781 156.238281 188.21875 C 156.445312 188.011719 156.667969 187.828125 156.910156 187.667969 C 157.152344 187.503906 157.410156 187.371094 157.679688 187.257812 C 157.949219 187.148438 158.222656 187.066406 158.511719 187.011719 C 158.796875 186.957031 159.082031 186.929688 159.375 186.933594 L 184.960938 186.933594 C 185.25 186.933594 185.539062 186.960938 185.820312 187.015625 C 186.105469 187.074219 186.382812 187.15625 186.652344 187.269531 C 186.917969 187.378906 187.171875 187.515625 187.414062 187.679688 C 187.65625 187.839844 187.878906 188.023438 188.082031 188.226562 C 188.289062 188.433594 188.472656 188.65625 188.632812 188.898438 C 188.792969 189.140625 188.929688 189.394531 189.042969 189.664062 C 189.152344 189.933594 189.234375 190.210938 189.292969 190.496094 C 189.347656 190.78125 189.378906 191.066406 189.378906 191.359375 L 189.378906 255.839844 L 154.957031 255.839844 Z M 154.957031 191.359375"/><path fill="#2B7F5C" d="M 208.425781 206.265625 C 208.445312 205.695312 208.566406 205.148438 208.796875 204.625 C 209.027344 204.101562 209.347656 203.636719 209.753906 203.238281 C 210.164062 202.839844 210.632812 202.53125 211.160156 202.3125 C 211.6875 202.097656 212.238281 201.984375 212.808594 201.980469 L 238.394531 201.980469 C 238.683594 201.980469 238.96875 202.007812 239.253906 202.066406 C 239.539062 202.121094 239.816406 202.207031 240.082031 202.316406 C 240.351562 202.429688 240.605469 202.566406 240.847656 202.726562 C 241.089844 202.886719 241.3125 203.070312 241.515625 203.277344 C 241.722656 203.484375 241.90625 203.707031 242.066406 203.949219 C 242.226562 204.191406 242.363281 204.445312 242.472656 204.714844 C 242.585938 204.980469 242.667969 205.257812 242.726562 205.542969 C 242.78125 205.828125 242.8125 206.117188 242.8125 206.40625 L 242.8125 255.980469 L 208.425781 255.980469 Z M 208.425781 206.265625"/><path fill="#2B7F5C" d="M 261.894531 126.3125 C 261.894531 126.019531 261.921875 125.734375 261.980469 125.449219 C 262.035156 125.164062 262.121094 124.886719 262.230469 124.617188 C 262.339844 124.347656 262.476562 124.09375 262.636719 123.851562 C 262.800781 123.609375 262.984375 123.386719 263.1875 123.179688 C 263.394531 122.976562 263.617188 122.792969 263.855469 122.632812 C 264.097656 122.46875 264.351562 122.332031 264.621094 122.222656 C 264.890625 122.109375 265.164062 122.027344 265.449219 121.96875 C 265.734375 121.914062 266.023438 121.886719 266.3125 121.886719 L 291.933594 121.886719 C 292.222656 121.886719 292.511719 121.914062 292.792969 121.96875 C 293.078125 122.027344 293.355469 122.109375 293.625 122.222656 C 293.890625 122.332031 294.144531 122.46875 294.386719 122.632812 C 294.628906 122.792969 294.851562 122.976562 295.054688 123.179688 C 295.261719 123.386719 295.445312 123.609375 295.605469 123.851562 C 295.765625 124.09375 295.902344 124.347656 296.015625 124.617188 C 296.125 124.886719 296.207031 125.164062 296.265625 125.449219 C 296.320312 125.734375 296.351562 126.019531 296.351562 126.3125 L 296.351562 255.839844 L 261.894531 255.839844 Z M 261.894531 126.3125"/><path fill="#2B7F5C" d="M 101.453125 228.21875 C 101.449219 227.929688 101.476562 227.640625 101.53125 227.351562 C 101.585938 227.066406 101.667969 226.789062 101.78125 226.519531 C 101.890625 226.25 102.023438 225.996094 102.1875 225.75 C 102.347656 225.507812 102.53125 225.285156 102.734375 225.078125 C 102.941406 224.871094 103.164062 224.6875 103.40625 224.527344 C 103.648438 224.367188 103.90625 224.230469 104.175781 224.121094 C 104.441406 224.011719 104.71875 223.925781 105.007812 223.871094 C 105.292969 223.816406 105.578125 223.789062 105.871094 223.792969 L 131.527344 223.792969 C 131.816406 223.789062 132.105469 223.816406 132.390625 223.871094 C 132.675781 223.925781 132.953125 224.011719 133.222656 224.121094 C 133.492188 224.230469 133.746094 224.367188 133.988281 224.527344 C 134.230469 224.6875 134.457031 224.871094 134.660156 225.078125 C 134.867188 225.285156 135.050781 225.507812 135.210938 225.75 C 135.371094 225.996094 135.507812 226.25 135.617188 226.519531 C 135.726562 226.789062 135.808594 227.066406 135.867188 227.351562 C 135.921875 227.640625 135.945312 227.929688 135.945312 228.21875 L 135.945312 255.839844 L 101.453125 255.839844 Z M 101.453125 228.21875"/><g clip-path="url(#c)"><path fill="#2B7F5C" d="M 304.542969 105.191406 L 70.320312 105.191406 C 69.464844 105.191406 68.617188 105.273438 67.78125 105.441406 C 66.941406 105.605469 66.128906 105.851562 65.339844 106.179688 C 64.550781 106.507812 63.800781 106.90625 63.089844 107.382812 C 62.378906 107.855469 61.722656 108.394531 61.117188 109 C 60.515625 109.601562 59.976562 110.257812 59.5 110.96875 C 59.027344 111.679688 58.625 112.425781 58.296875 113.214844 C 57.972656 114.003906 57.722656 114.816406 57.558594 115.65625 C 57.390625 116.492188 57.308594 117.335938 57.308594 118.191406 L 57.308594 282.855469 C 57.308594 283.710938 57.390625 284.554688 57.558594 285.394531 C 57.722656 286.230469 57.972656 287.042969 58.296875 287.832031 C 58.625 288.621094 59.027344 289.371094 59.5 290.078125 C 59.976562 290.789062 60.515625 291.445312 61.117188 292.050781 C 61.722656 292.652344 62.378906 293.191406 63.089844 293.667969 C 63.800781 294.140625 64.550781 294.539062 65.339844 294.867188 C 66.128906 295.195312 66.941406 295.441406 67.78125 295.605469 C 68.617188 295.773438 69.464844 295.855469 70.320312 295.855469 L 169.128906 295.855469 L 162.1875 330.523438 L 152.730469 330.523438 L 152.730469 339.191406 L 222.132812 339.191406 L 222.132812 330.523438 L 212.675781 330.523438 L 205.734375 295.855469 L 304.542969 295.855469 C 305.398438 295.855469 306.242188 295.773438 307.082031 295.605469 C 307.921875 295.441406 308.734375 295.195312 309.523438 294.867188 C 310.3125 294.539062 311.0625 294.140625 311.773438 293.667969 C 312.484375 293.191406 313.140625 292.652344 313.746094 292.050781 C 314.347656 291.445312 314.886719 290.789062 315.363281 290.078125 C 315.835938 289.371094 316.238281 288.621094 316.566406 287.832031 C 316.890625 287.042969 317.140625 286.230469 317.304688 285.394531 C 317.472656 284.554688 317.554688 283.710938 317.554688 282.855469 L 317.554688 118.191406 C 317.554688 117.335938 317.472656 116.492188 317.304688 115.65625 C 317.140625 114.816406 316.890625 114.003906 316.566406 113.214844 C 316.238281 112.425781 315.835938 111.679688 315.363281 110.96875 C 314.886719 110.257812 314.347656 109.601562 313.746094 109 C 313.140625 108.394531 312.484375 107.855469 311.773438 107.382812 C 311.0625 106.90625 310.3125 106.507812 309.523438 106.179688 C 308.734375 105.851562 307.921875 105.605469 307.082031 105.441406 C 306.242188 105.273438 305.398438 105.191406 304.542969 105.191406 Z M 70.320312 113.855469 L 304.542969 113.855469 C 304.828125 113.855469 305.109375 113.886719 305.390625 113.941406 C 305.667969 113.996094 305.941406 114.078125 306.203125 114.1875 C 306.464844 114.296875 306.714844 114.429688 306.953125 114.585938 C 307.191406 114.746094 307.410156 114.925781 307.609375 115.125 C 307.8125 115.328125 307.992188 115.546875 308.148438 115.78125 C 308.308594 116.019531 308.441406 116.269531 308.550781 116.53125 C 308.660156 116.796875 308.742188 117.066406 308.796875 117.34375 C 308.851562 117.625 308.882812 117.90625 308.882812 118.191406 L 308.882812 261.191406 L 65.980469 261.191406 L 65.980469 118.191406 C 65.980469 117.90625 66.011719 117.625 66.066406 117.34375 C 66.121094 117.066406 66.203125 116.796875 66.3125 116.53125 C 66.421875 116.269531 66.554688 116.019531 66.714844 115.78125 C 66.871094 115.546875 67.050781 115.328125 67.253906 115.125 C 67.453125 114.925781 67.671875 114.746094 67.910156 114.585938 C 68.148438 114.429688 68.398438 114.296875 68.660156 114.1875 C 68.921875 114.078125 69.195312 113.996094 69.472656 113.941406 C 69.753906 113.886719 70.035156 113.855469 70.320312 113.855469 Z M 203.828125 330.523438 L 171.035156 330.523438 L 177.976562 295.855469 L 196.886719 295.855469 Z M 304.542969 287.191406 L 70.320312 287.191406 C 70.035156 287.191406 69.753906 287.164062 69.472656 287.105469 C 69.195312 287.050781 68.921875 286.96875 68.660156 286.859375 C 68.398438 286.75 68.148438 286.617188 67.910156 286.460938 C 67.671875 286.300781 67.453125 286.121094 67.253906 285.921875 C 67.050781 285.71875 66.871094 285.5 66.714844 285.265625 C 66.554688 285.027344 66.421875 284.777344 66.3125 284.515625 C 66.203125 284.253906 66.121094 283.980469 66.066406 283.703125 C 66.011719 283.421875 65.980469 283.140625 65.980469 282.855469 L 65.980469 269.855469 L 308.882812 269.855469 L 308.882812 282.855469 C 308.882812 283.140625 308.851562 283.421875 308.796875 283.703125 C 308.742188 283.980469 308.660156 284.253906 308.550781 284.515625 C 308.441406 284.777344 308.308594 285.027344 308.148438 285.265625 C 307.992188 285.5 307.8125 285.71875 307.609375 285.921875 C 307.410156 286.121094 307.191406 286.300781 306.953125 286.460938 C 306.714844 286.617188 306.464844 286.75 306.203125 286.859375 C 305.941406 286.96875 305.667969 287.050781 305.390625 287.105469 C 305.109375 287.164062 304.828125 287.191406 304.542969 287.191406 Z M 304.542969 287.191406"/></g><g clip-path="url(#d)"><path fill="#FFF" d="M 100.539062 210.152344 L 300.03125 210.152344 L 300.03125 255.898438 L 100.539062 255.898438 Z M 100.539062 210.152344"/></g><g clip-path="url(#e)"><path fill="#FFF" d="M 299.992188 44.917969 L 299.992188 244.410156 L 254.246094 244.410156 L 254.246094 44.917969 Z M 299.992188 44.917969"/></g><g clip-path="url(#f)"><path fill="#FFF" d="M 332.054688 222.535156 L 132.566406 222.535156 L 132.566406 176.792969 L 332.054688 176.792969 Z M 332.054688 222.535156"/></g><g clip-path="url(#g)"><path fill="#2B7F5C" d="M 190.136719 206.453125 L 168.09375 206.453125 C 167.730469 206.453125 167.371094 206.488281 167.015625 206.558594 C 166.664062 206.628906 166.316406 206.734375 165.984375 206.871094 C 165.648438 207.007812 165.332031 207.179688 165.03125 207.378906 C 164.730469 207.582031 164.453125 207.808594 164.195312 208.066406 C 163.941406 208.320312 163.710938 208.601562 163.511719 208.902344 C 163.308594 209.203125 163.140625 209.519531 163 209.851562 C 162.863281 210.1875 162.757812 210.53125 162.6875 210.886719 C 162.617188 211.242188 162.582031 211.601562 162.582031 211.960938 L 162.582031 250.539062 C 162.582031 250.898438 162.617188 251.257812 162.6875 251.613281 C 162.757812 251.96875 162.863281 252.3125 163 252.648438 C 163.140625 252.980469 163.308594 253.300781 163.511719 253.601562 C 163.710938 253.902344 163.941406 254.179688 164.195312 254.433594 C 164.453125 254.691406 164.730469 254.917969 165.03125 255.121094 C 165.332031 255.320312 165.648438 255.492188 165.984375 255.628906 C 166.316406 255.769531 166.664062 255.871094 167.015625 255.945312 C 167.371094 256.015625 167.730469 256.050781 168.09375 256.050781 L 190.136719 256.050781 C 190.496094 256.050781 190.855469 256.015625 191.210938 255.941406 C 191.566406 255.871094 191.910156 255.769531 192.246094 255.628906 C 192.578125 255.492188 192.898438 255.320312 193.199219 255.121094 C 193.5 254.917969 193.777344 254.691406 194.03125 254.433594 C 194.289062 254.179688 194.515625 253.902344 194.71875 253.601562 C 194.917969 253.300781 195.089844 252.980469 195.226562 252.648438 C 195.367188 252.3125 195.46875 251.96875 195.539062 251.613281 C 195.613281 251.257812 195.648438 250.898438 195.648438 250.539062 L 195.648438 211.960938 C 195.648438 211.601562 195.613281 211.242188 195.539062 210.886719 C 195.46875 210.53125 195.367188 210.1875 195.226562 209.851562 C 195.089844 209.519531 194.917969 209.203125 194.71875 208.902344 C 194.515625 208.601562 194.289062 208.320312 194.03125 208.066406 C 193.777344 207.808594 193.5 207.582031 193.199219 207.378906 C 192.898438 207.179688 192.578125 207.007812 192.246094 206.871094 C 191.910156 206.734375 191.566406 206.628906 191.210938 206.558594 C 190.855469 206.488281 190.496094 206.453125 190.136719 206.453125 Z M 184.625 245.027344 L 173.601562 245.027344 L 173.601562 217.472656 L 184.625 217.472656 Z M 184.625 245.027344"/></g><g clip-path="url(#h)"><path fill="#2B7F5C" d="M 236.976562 167.875 L 214.933594 167.875 C 214.574219 167.875 214.214844 167.910156 213.859375 167.980469 C 213.503906 168.050781 213.160156 168.15625 212.824219 168.292969 C 212.492188 168.433594 212.175781 168.601562 211.875 168.804688 C 211.574219 169.003906 211.292969 169.234375 211.039062 169.488281 C 210.78125 169.746094 210.554688 170.023438 210.351562 170.324219 C 210.152344 170.625 209.980469 170.941406 209.84375 171.277344 C 209.703125 171.613281 209.601562 171.957031 209.53125 172.3125 C 209.460938 172.664062 209.425781 173.023438 209.425781 173.386719 L 209.425781 250.539062 C 209.425781 250.898438 209.460938 251.257812 209.53125 251.613281 C 209.601562 251.96875 209.703125 252.3125 209.84375 252.648438 C 209.980469 252.980469 210.152344 253.300781 210.351562 253.601562 C 210.554688 253.902344 210.78125 254.179688 211.039062 254.433594 C 211.292969 254.691406 211.574219 254.917969 211.875 255.121094 C 212.175781 255.320312 212.492188 255.492188 212.824219 255.628906 C 213.160156 255.769531 213.503906 255.871094 213.859375 255.945312 C 214.214844 256.015625 214.574219 256.050781 214.933594 256.050781 L 236.976562 256.050781 C 237.339844 256.050781 237.699219 256.015625 238.054688 255.941406 C 238.410156 255.871094 238.753906 255.769531 239.085938 255.628906 C 239.421875 255.492188 239.738281 255.320312 240.039062 255.121094 C 240.339844 254.917969 240.621094 254.691406 240.875 254.433594 C 241.132812 254.179688 241.359375 253.902344 241.558594 253.601562 C 241.761719 253.300781 241.929688 252.980469 242.070312 252.648438 C 242.207031 252.3125 242.3125 251.96875 242.382812 251.613281 C 242.453125 251.257812 242.488281 250.898438 242.488281 250.539062 L 242.488281 173.386719 C 242.488281 173.023438 242.453125 172.664062 242.382812 172.3125 C 242.3125 171.957031 242.207031 171.613281 242.070312 171.277344 C 241.929688 170.941406 241.761719 170.625 241.558594 170.324219 C 241.359375 170.023438 241.132812 169.746094 240.875 169.488281 C 240.621094 169.234375 240.339844 169.003906 240.039062 168.804688 C 239.738281 168.601562 239.421875 168.433594 239.085938 168.292969 C 238.753906 168.15625 238.410156 168.050781 238.054688 167.980469 C 237.699219 167.910156 237.339844 167.875 236.976562 167.875 Z M 231.46875 245.027344 L 220.445312 245.027344 L 220.445312 178.898438 L 231.46875 178.898438 Z M 231.46875 245.027344"/></g><g clip-path="url(#i)"><path fill="#2B7F5C" d="M 283.820312 129.300781 L 261.777344 129.300781 C 261.414062 129.300781 261.058594 129.335938 260.703125 129.40625 C 260.347656 129.476562 260.003906 129.582031 259.667969 129.71875 C 259.335938 129.855469 259.015625 130.027344 258.714844 130.226562 C 258.414062 130.429688 258.136719 130.65625 257.878906 130.914062 C 257.625 131.167969 257.394531 131.449219 257.195312 131.75 C 256.992188 132.050781 256.824219 132.367188 256.6875 132.703125 C 256.546875 133.035156 256.441406 133.378906 256.371094 133.734375 C 256.300781 134.089844 256.265625 134.449219 256.265625 134.808594 L 256.265625 250.539062 C 256.265625 250.898438 256.300781 251.257812 256.371094 251.613281 C 256.441406 251.96875 256.546875 252.3125 256.6875 252.648438 C 256.824219 252.980469 256.992188 253.300781 257.195312 253.601562 C 257.394531 253.902344 257.625 254.179688 257.878906 254.433594 C 258.136719 254.691406 258.414062 254.917969 258.714844 255.121094 C 259.015625 255.320312 259.335938 255.492188 259.667969 255.628906 C 260.003906 255.769531 260.347656 255.871094 260.703125 255.945312 C 261.058594 256.015625 261.414062 256.050781 261.777344 256.050781 L 283.820312 256.050781 C 284.183594 256.050781 284.539062 256.015625 284.894531 255.941406 C 285.25 255.871094 285.59375 255.769531 285.929688 255.628906 C 286.265625 255.492188 286.582031 255.320312 286.882812 255.121094 C 287.183594 254.917969 287.460938 254.691406 287.71875 254.433594 C 287.972656 254.179688 288.203125 253.902344 288.402344 253.601562 C 288.605469 253.300781 288.773438 252.980469 288.910156 252.648438 C 289.050781 252.3125 289.15625 251.96875 289.226562 251.613281 C 289.296875 251.257812 289.332031 250.898438 289.332031 250.539062 L 289.332031 134.808594 C 289.332031 134.449219 289.296875 134.089844 289.226562 133.734375 C 289.15625 133.378906 289.050781 133.035156 288.910156 132.703125 C 288.773438 132.367188 288.605469 132.050781 288.402344 131.75 C 288.203125 131.449219 287.972656 131.167969 287.71875 130.914062 C 287.460938 130.65625 287.183594 130.429688 286.882812 130.226562 C 286.582031 130.027344 286.265625 129.855469 285.929688 129.71875 C 285.59375 129.582031 285.25 129.476562 284.894531 129.40625 C 284.539062 129.335938 284.183594 129.300781 283.820312 129.300781 Z M 278.308594 245.027344 L 267.289062 245.027344 L 267.289062 140.320312 L 278.308594 140.320312 Z M 278.308594 245.027344"/></g></svg>