<svg width="116" height="40" viewBox="0 0 116 40" fill="none" xmlns="http://www.w3.org/2000/svg">
<path d="M6.66059 28.5675C7.14982 29.8597 7.82714 30.9645 8.69269 31.8821C9.55824 32.7997 10.5837 33.502 11.7689 33.9889C12.9544 34.4758 14.2432 34.7192 15.6356 34.7192C16.9903 34.7192 18.2603 34.4664 19.4457 33.9607C20.6311 33.455 21.6659 32.7434 22.5502 31.8259C23.4345 30.9082 24.1213 29.8128 24.6105 28.5394C25.0997 27.266 25.3443 25.8429 25.3443 24.2697V0H31.2711V39.3259H25.4007V35.6741C24.0837 37.0598 22.5313 38.1273 20.7439 38.8765C18.9564 39.6255 17.0279 40 14.9582 40C12.8508 40 10.8847 39.6348 9.05952 38.9045C7.2345 38.1741 5.65391 37.1349 4.31812 35.7865C2.98233 34.4381 1.92856 32.8185 1.15719 30.927C0.385687 29.0356 0 26.929 0 24.6067V0H5.92681V24.2697C5.92681 25.8429 6.17136 27.2753 6.66059 28.5675Z" fill="#010202"/>
<path d="M41.4873 0V14.3258C42.8043 13.015 44.3285 11.9757 46.0595 11.2079C47.7904 10.44 49.672 10.0562 51.704 10.0562C53.8114 10.0562 55.7868 10.4493 57.6308 11.2359C59.4747 12.0224 61.0739 13.0898 62.4287 14.4382C63.7834 15.7866 64.8559 17.3782 65.6462 19.2134C66.4364 21.0487 66.8315 22.9963 66.8315 25.0562C66.8315 27.116 66.4364 29.0543 65.6462 30.8707C64.8559 32.6872 63.7834 34.2697 62.4287 35.6178C61.0739 36.9662 59.4747 38.0337 57.6308 38.8202C55.7868 39.6067 53.8113 39.9999 51.704 39.9999C49.6719 39.9999 47.7811 39.616 46.0312 38.8481C44.2814 38.0804 42.7479 37.041 41.4308 35.7302V39.3257H35.7863V0H41.4873ZM42.1364 28.9326C42.6444 30.1312 43.35 31.1798 44.2532 32.0787C45.1563 32.9776 46.21 33.6893 47.4141 34.2136C48.6184 34.738 49.9166 35.0001 51.3089 35.0001C52.6637 35.0001 53.9431 34.738 55.1472 34.2136C56.3513 33.6893 57.3955 32.9777 58.28 32.0787C59.1643 31.18 59.8699 30.1312 60.3967 28.9326C60.9235 27.7341 61.1869 26.442 61.1869 25.0562C61.1869 23.6704 60.9235 22.3689 60.3967 21.1517C59.8699 19.9344 59.1643 18.8764 58.28 17.9775C57.3956 17.0788 56.3515 16.3764 55.1472 15.8709C53.9429 15.3653 52.6636 15.1123 51.3089 15.1123C49.9543 15.1123 48.6748 15.3652 47.4707 15.8709C46.2665 16.3766 45.2129 17.0788 44.3096 17.9775C43.4066 18.8764 42.6916 19.9344 42.1647 21.1517C41.6379 22.3689 41.3745 23.6704 41.3745 25.0562C41.3744 26.442 41.6284 27.7341 42.1364 28.9326Z" fill="#010202"/>
<path d="M70.0486 19.2697C70.8011 17.4719 71.8362 15.8896 73.1531 14.5226C74.47 13.1555 76.0319 12.0788 77.8382 11.2922C79.6445 10.5057 81.6013 10.1125 83.7085 10.1125C85.7782 10.1125 87.6974 10.4871 89.4661 11.2361C91.2347 11.9852 92.7587 13.0245 94.0381 14.3541C95.3176 15.6836 96.3149 17.2568 97.0297 19.0732C97.7448 20.8897 98.1022 22.8654 98.1022 25.0003V26.8542H74.6772C74.8655 28.0153 75.2418 29.092 75.8062 30.0844C76.3707 31.0769 77.0762 31.9383 77.9229 32.6687C78.7696 33.3991 79.7291 33.9703 80.8016 34.3821C81.8741 34.7941 83.0124 35.0002 84.2166 35.0002C87.6411 35.0002 90.407 33.5956 92.5143 30.7866L96.6348 33.8203C95.2048 35.7304 93.4363 37.2286 91.329 38.3147C89.2216 39.4008 86.8509 39.9439 84.2167 39.9439C82.0717 39.9439 80.068 39.5692 78.2053 38.8203C76.3425 38.0713 74.7245 37.0225 73.3509 35.6741C71.9774 34.3257 70.8956 32.7434 70.1053 30.927C69.3151 29.1105 68.9199 27.1348 68.9199 25C68.9197 22.9776 69.2961 21.0675 70.0486 19.2697ZM77.9793 17.0505C76.38 18.3801 75.317 20.1498 74.7902 22.3595H92.3449C91.8557 20.1498 90.8114 18.3801 89.2121 17.0505C87.6127 15.721 85.7406 15.0562 83.5958 15.0562C81.4507 15.0562 79.5786 15.721 77.9793 17.0505Z" fill="#010202"/>
<path d="M108.77 17.6966C107.566 19.0074 106.964 20.7864 106.964 23.0337V39.326H101.263V10.6742H106.907V14.2136C107.622 13.0525 108.554 12.1349 109.701 11.4607C110.849 10.7865 112.213 10.4493 113.794 10.4493H115.769V15.7303H113.398C111.517 15.7304 109.974 16.3857 108.77 17.6966Z" fill="#010202"/>
</svg>
