<svg width="20" height="13" viewBox="0 0 20 13" fill="none" xmlns="http://www.w3.org/2000/svg">
<path d="M19.8729 5.98463C19.6942 5.74021 15.4371 0 9.99991 0C4.56275 0 0.305392 5.74021 0.126914 5.98439C-0.0423048 6.21627 -0.0423048 6.53076 0.126914 6.76264C0.305392 7.00705 4.56275 12.7473 9.99991 12.7473C15.4371 12.7473 19.6942 7.00701 19.8729 6.76283C20.0424 6.531 20.0424 6.21627 19.8729 5.98463ZM9.99991 11.4286C5.99486 11.4286 2.52606 7.61869 1.49922 6.37318C2.52473 5.12658 5.98627 1.31868 9.99991 1.31868C14.0048 1.31868 17.4733 5.12791 18.5006 6.37408C17.4751 7.62065 14.0136 11.4286 9.99991 11.4286Z" fill="#3B3B3B"/>
<path d="M9.99989 2.4176C7.81855 2.4176 6.04382 4.19233 6.04382 6.37367C6.04382 8.555 7.81855 10.3297 9.99989 10.3297C12.1812 10.3297 13.956 8.555 13.956 6.37367C13.956 4.19233 12.1812 2.4176 9.99989 2.4176ZM9.99989 9.01102C8.54559 9.01102 7.36254 7.82793 7.36254 6.37367C7.36254 4.91941 8.54563 3.73632 9.99989 3.73632C11.4542 3.73632 12.6372 4.91941 12.6372 6.37367C12.6372 7.82793 11.4542 9.01102 9.99989 9.01102Z" fill="#3B3B3B"/>
</svg>
