<svg width="80" height="80" viewBox="0 0 80 80" fill="none" xmlns="http://www.w3.org/2000/svg">
<rect width="80" height="80" rx="5" fill="#009688"/>
<g clip-path="url(#clip0_11_313)">
<path opacity="0.1" d="M73.9221 41.2851L73.7058 39L71.5446 39.7254C67.8408 41.0213 63.8853 41.419 60 40.8861C55.9174 40.2481 51.7386 40.8151 47.9692 42.5184C45.9709 43.3752 44.2172 44.7217 42.8677 46.4354C41.5182 48.1491 40.6158 50.1754 40.2427 52.33C39.7589 55.1133 40.001 57.9754 40.9451 60.6363C41.5531 59.2545 42.2635 57.9207 43.0704 56.6463C44.9006 53.9347 47.4365 51.7826 50.4005 50.4257C53.256 49.1129 56.3771 48.4917 59.5138 48.6121C56.5277 49.0718 53.6694 50.1527 51.121 51.7859C49.8917 52.5636 48.766 53.4961 47.771 54.5607C46.8195 55.6248 45.9805 56.7857 45.2676 58.0247C43.9286 60.6145 42.9758 63.3889 42.44 66.2584C41.8624 69.1372 41.5489 72.0634 41.5035 75H45.1055C45.2748 72.3662 45.6299 69.7481 46.1681 67.1652C48.6669 68.5241 51.4692 69.2169 54.3088 69.1784C56.9571 69.1765 59.5783 68.6401 62.0172 67.6005C75.723 61.7063 73.9221 42.1012 73.9221 41.2851Z" fill="white"/>
</g>
<g clip-path="url(#clip1_11_313)">
<path opacity="0.1" d="M21.9634 9.07909L21.8615 8L20.8445 8.34257C19.1015 8.95452 17.2402 9.14231 15.4118 8.89068C13.4905 8.5894 11.524 8.85712 9.75019 9.66146C8.80982 10.0661 7.98456 10.7019 7.3495 11.5112C6.71446 12.3204 6.28981 13.2773 6.11423 14.2947C5.88656 15.6091 6.00046 16.9606 6.44477 18.2171C6.73086 17.5646 7.06518 16.9348 7.44488 16.333C8.30614 15.0525 9.49955 14.0362 10.8944 13.3955C12.2381 12.7755 13.7069 12.4822 15.1829 12.539C13.7777 12.7561 12.4327 13.2666 11.2334 14.0378C10.6549 14.4051 10.1252 14.8454 9.65696 15.3481C9.20917 15.8506 8.81435 16.3988 8.47888 16.9839C7.84875 18.2069 7.40039 19.517 7.14823 20.872C6.87644 22.2315 6.72891 23.6133 6.70751 25H8.40259C8.48227 23.7563 8.64937 22.5199 8.90265 21.3002C10.0786 21.9419 11.3973 22.2691 12.7335 22.2509C13.9798 22.25 15.2133 21.9967 16.361 21.5058C22.8108 18.7224 21.9634 9.46448 21.9634 9.07909Z" fill="white"/>
</g>
<path d="M38.37 59.7143C44.3713 59.7143 49.2362 54.8107 49.2362 48.7619C49.2362 42.7131 44.3713 37.8095 38.37 37.8095C32.3688 37.8095 27.5039 42.7131 27.5039 48.7619C27.5039 54.8107 32.3688 59.7143 38.37 59.7143Z" fill="white" stroke="white" stroke-width="2"/>
<path d="M35.5269 54.4206V45.3932H41.4569V46.9668H37.4205V49.1179H41.0633V50.6915H37.4205V54.4206H35.5269Z" fill="#009688"/>
<path d="M28.2632 59.3904L30.3681 50.8481L35.5071 54.475L28.2632 59.3904Z" fill="white"/>
<path d="M49.0447 43.4683C55.346 43.4683 60.4542 38.3195 60.4542 31.9683C60.4542 25.617 55.346 20.4683 49.0447 20.4683C42.7434 20.4683 37.6353 25.617 37.6353 31.9683C37.6353 38.3195 42.7434 43.4683 49.0447 43.4683Z" fill="white" stroke="white" stroke-width="2"/>
<path d="M47.479 36.3492V27.3218H51.0126C51.6919 27.3218 52.2706 27.4525 52.7488 27.7141C53.2268 27.9727 53.5912 28.3327 53.8422 28.794C54.0957 29.2525 54.2225 29.7814 54.2225 30.3809C54.2225 30.9803 54.0943 31.5093 53.8378 31.9677C53.581 32.4262 53.2094 32.7832 52.7225 33.0388C52.2385 33.2945 51.6525 33.4224 50.9645 33.4224H48.7123V31.8928H50.6583C51.0228 31.8928 51.3231 31.8296 51.5592 31.7032C51.7983 31.574 51.9761 31.3962 52.0928 31.1699C52.2123 30.9407 52.2721 30.6777 52.2721 30.3809C52.2721 30.0812 52.2123 29.8196 52.0928 29.5963C51.9761 29.37 51.7983 29.1951 51.5592 29.0717C51.3201 28.9454 51.0169 28.8822 50.6496 28.8822H49.3726V36.3492H47.479Z" fill="#009688"/>
<path d="M59.9939 44.4679L52.5049 39.9414L57.4484 36.0484L59.9939 44.4679Z" fill="white"/>
<path d="M31.1262 42.9206C37.4275 42.9206 42.5357 37.7719 42.5357 31.4206C42.5357 25.0693 37.4275 19.9206 31.1262 19.9206C24.825 19.9206 19.7168 25.0693 19.7168 31.4206C19.7168 37.7719 24.825 42.9206 31.1262 42.9206Z" fill="white" stroke="white" stroke-width="2"/>
<path d="M28.2822 34.7063V25.6789H31.8683C32.5272 25.6789 33.0767 25.7774 33.517 25.9742C33.9572 26.1711 34.2881 26.4444 34.5097 26.7941C34.7312 27.1409 34.842 27.5405 34.842 27.9931C34.842 28.3457 34.7721 28.6557 34.6321 28.9231C34.4922 29.1876 34.2998 29.4051 34.0549 29.5755C33.8129 29.743 33.5359 29.862 33.224 29.9325V30.0207C33.5651 30.0354 33.8843 30.1324 34.1817 30.3116C34.482 30.4909 34.7254 30.7421 34.912 31.0654C35.0986 31.3857 35.1919 31.7677 35.1919 32.2114C35.1919 32.6904 35.0738 33.118 34.8377 33.4941C34.6044 33.8673 34.2589 34.1627 33.8012 34.3801C33.3435 34.5976 32.7793 34.7063 32.1088 34.7063H28.2822ZM30.1758 33.1459H31.7195C32.2473 33.1459 32.6321 33.0446 32.8741 32.8418C33.1161 32.6361 33.2371 32.3628 33.2371 32.0219C33.2371 31.7721 33.1773 31.5517 33.0578 31.3607C32.9382 31.1697 32.7677 31.0198 32.5461 30.9111C32.3274 30.8024 32.0665 30.748 31.7633 30.748H30.1758V33.1459ZM30.1758 29.4565H31.5796C31.8391 29.4565 32.0694 29.411 32.2706 29.3198C32.4747 29.2258 32.635 29.0936 32.7517 28.9231C32.8712 28.7527 32.9309 28.5485 32.9309 28.3104C32.9309 27.9843 32.8158 27.7213 32.5855 27.5214C32.358 27.3216 32.0345 27.2217 31.6146 27.2217H30.1758V29.4565Z" fill="#009688"/>
<path d="M20.2944 40.5888L22.3994 32.0466L27.5384 35.6735L20.2944 40.5888Z" fill="white"/>
<path opacity="0.1" d="M14.9839 64.4443L14.9394 64L14.4945 64.1411C13.7319 64.393 12.9175 64.4704 12.1176 64.3668C11.2771 64.2427 10.4168 64.3529 9.6407 64.6841C9.22929 64.8507 8.86824 65.1126 8.5904 65.4458C8.31257 65.779 8.12679 66.173 8.04998 66.5919C7.95037 67.1331 8.0002 67.6897 8.19459 68.2071C8.31975 67.9384 8.46601 67.679 8.63213 67.4312C9.00893 66.904 9.53105 66.4855 10.1413 66.2217C10.7292 65.9664 11.3717 65.8456 12.0175 65.869C11.4027 65.9584 10.8143 66.1686 10.2896 66.4861C10.0365 66.6374 9.80476 66.8187 9.59991 67.0257C9.40401 67.2326 9.23127 67.4583 9.0845 67.6992C8.80882 68.2028 8.61267 68.7423 8.50235 69.3003C8.38344 69.86 8.3189 70.429 8.30953 71H9.05113C9.08599 70.4879 9.15909 69.9788 9.2699 69.4766C9.78436 69.7408 10.3613 69.8755 10.9459 69.868C11.4912 69.8677 12.0308 69.7634 12.5329 69.5612C15.3547 68.4151 14.9839 64.603 14.9839 64.4443Z" fill="white"/>
<defs>
<clipPath id="clip0_11_313">
<rect width="34" height="36" fill="white" transform="translate(40 39)"/>
</clipPath>
<clipPath id="clip1_11_313">
<rect width="16" height="17" fill="white" transform="translate(6 8)"/>
</clipPath>
</defs>
</svg>
