<svg width="80" height="80" viewBox="0 0 80 80" fill="none" xmlns="http://www.w3.org/2000/svg">
<rect width="80" height="80" rx="5" fill="#5C6BC0"/>
<g clip-path="url(#clip0_11_314)">
<path opacity="0.1" d="M73.9427 48.7139L73.7837 47L72.1946 47.5441C69.4712 48.516 66.5627 48.8143 63.7059 48.4146C60.704 47.9361 57.6313 48.3613 54.8597 49.6388C53.3903 50.2814 52.1009 51.2913 51.1086 52.5766C50.1163 53.8618 49.4528 55.3816 49.1785 56.9975C48.8228 59.085 49.0007 61.2316 49.695 63.2272C50.142 62.1908 50.6643 61.1905 51.2576 60.2348C52.6033 58.201 54.468 56.5869 56.6475 55.5693C58.747 54.5847 61.042 54.1188 63.3483 54.2091C61.1527 54.5539 59.051 55.3645 57.1772 56.5894C56.2733 57.1727 55.4456 57.8721 54.714 58.6705C54.0143 59.4686 53.3974 60.3393 52.8732 61.2685C51.8887 63.2109 51.1881 65.2917 50.7941 67.4438C50.3694 69.6029 50.1389 71.7975 50.1055 74H52.7541C52.8785 72.0247 53.1396 70.0611 53.5354 68.1239C55.3727 69.1431 57.4332 69.6627 59.5212 69.6338C61.4685 69.6324 63.3958 69.2301 65.1891 68.4504C75.2669 64.0297 73.9427 49.3259 73.9427 48.7139Z" fill="white"/>
</g>
<path opacity="0.1" d="M71.9862 8.44433L71.9481 8L71.5667 8.14106C70.9131 8.39304 70.215 8.47036 69.5294 8.36675C68.8089 8.24269 68.0715 8.35293 67.4063 8.68413C67.0537 8.85074 66.7442 9.11256 66.5061 9.44578C66.2679 9.77899 66.1087 10.173 66.0428 10.5919C65.9575 11.1331 66.0002 11.6897 66.1668 12.2071C66.2741 11.9384 66.3994 11.679 66.5418 11.4312C66.8648 10.904 67.3123 10.4855 67.8354 10.2217C68.3393 9.96639 68.8901 9.84562 69.4436 9.86902C68.9166 9.95841 68.4122 10.1686 67.9625 10.4861C67.7456 10.6374 67.5469 10.8187 67.3714 11.0257C67.2034 11.2326 67.0554 11.4583 66.9296 11.6992C66.6933 12.2028 66.5251 12.7423 66.4306 13.3003C66.3287 13.86 66.2733 14.429 66.2653 15H66.901C66.9308 14.4879 66.9935 13.9788 67.0885 13.4766C67.5295 13.7408 68.024 13.8755 68.5251 13.868C68.9924 13.8677 69.455 13.7634 69.8854 13.5612C72.304 12.4151 71.9862 8.60302 71.9862 8.44433Z" fill="white"/>
<g clip-path="url(#clip1_11_314)">
<path fill-rule="evenodd" clip-rule="evenodd" d="M61.3537 49.661L46.5629 58.8466C45.1294 59.7271 43.5621 59.9474 41.8945 59.5007L28.9504 56.0317C28.7402 55.9763 28.5204 56.0055 28.334 56.1129L22.0029 59.7687L17 51.1106L28.7688 44.2954C30.4221 43.3383 32.2091 42.5361 34.0965 43.1476C34.6556 43.3292 35.3198 43.5586 36.0222 43.8017C38.3683 44.6111 41.2877 45.6189 44.2837 46.2764C44.7519 46.3786 45.1533 46.6725 45.4113 47.1016C45.7027 47.5746 45.784 48.15 45.6407 48.6798C45.373 49.6722 44.3744 50.2982 43.3662 50.1046C43.3519 50.1013 33.2459 47.3982 33.2459 47.3982C32.8158 47.2816 32.3715 47.5392 32.2521 47.9706C32.1374 48.4031 32.3954 48.8474 32.8254 48.9631L42.8119 51.6379C45.0481 52.2385 46.8973 52.3427 49.1813 51.0109L56.6995 46.6332C59.8723 44.7841 62.0655 45.1902 62.7631 46.3499C63.2936 47.2375 62.9783 48.659 61.3537 49.661V49.661ZM47.4862 29.5494L39.4151 39.529L40.2575 32.3684C40.2576 32.3661 40.2577 32.3634 40.2582 32.3622L40.2584 32.3611C40.2574 32.3606 40.2561 32.3602 40.2558 32.3602H34.5432L42.1751 22.5856L41.7735 29.5494H47.4862ZM41.0154 20.2312C35.0426 20.2312 30.188 25.0869 30.188 31.0553C30.188 37.0243 35.0427 41.8799 41.0154 41.8799C46.9834 41.8799 51.8381 37.0243 51.8381 31.0553C51.8381 25.0868 46.9834 20.2312 41.0154 20.2312V20.2312Z" fill="white"/>
</g>
<path opacity="0.1" d="M18.5929 8.35253L18.5573 8L18.2009 8.11191C17.5903 8.31183 16.9381 8.37318 16.2975 8.29098C15.6244 8.19255 14.9354 8.28001 14.3139 8.54278C13.9845 8.67496 13.6953 8.88269 13.4728 9.14706C13.2503 9.41143 13.1015 9.72403 13.04 10.0564C12.9603 10.4858 13.0002 10.9273 13.1558 11.3378C13.2561 11.1247 13.3732 10.9189 13.5062 10.7223C13.808 10.304 14.2261 9.97197 14.7148 9.76264C15.1856 9.56011 15.7002 9.46429 16.2173 9.48286C15.725 9.55378 15.2538 9.72053 14.8336 9.97248C14.6309 10.0925 14.4453 10.2363 14.2813 10.4006C14.1244 10.5647 13.986 10.7438 13.8685 10.9349C13.6477 11.3345 13.4906 11.7625 13.4023 12.2052C13.3071 12.6493 13.2554 13.1007 13.2479 13.5537H13.8418C13.8697 13.1474 13.9282 12.7435 14.017 12.345C14.429 12.5547 14.891 12.6616 15.3592 12.6556C15.7958 12.6553 16.228 12.5726 16.6301 12.4122C18.8899 11.5029 18.5929 8.47843 18.5929 8.35253Z" fill="white"/>
<defs>
<clipPath id="clip0_11_314">
<rect width="25" height="27" fill="white" transform="translate(49 47)"/>
</clipPath>
<clipPath id="clip1_11_314">
<rect width="46" height="46" fill="white" transform="translate(17 17)"/>
</clipPath>
</defs>
</svg>
