<svg width="80" height="80" viewBox="0 0 80 80" fill="none" xmlns="http://www.w3.org/2000/svg">
<path opacity="0.5" d="M19.4402 6.70506L19.3736 6L18.7084 6.22383C17.5685 6.62366 16.3512 6.74636 15.1554 6.58195C13.8989 6.3851 12.6128 6.56003 11.4527 7.08556C10.8376 7.34993 10.2979 7.76539 9.88258 8.29413C9.46726 8.82286 9.18954 9.44806 9.07471 10.1128C8.92581 10.9716 9.0003 11.8547 9.29088 12.6757C9.47799 12.2493 9.69663 11.8378 9.94496 11.4446C10.5082 10.608 11.2887 9.94394 12.201 9.52528C13.0798 9.12022 14.0403 8.92858 15.0057 8.96571C14.0867 9.10756 13.207 9.44106 12.4227 9.94496C12.0444 10.1849 11.6979 10.4726 11.3917 10.8011C11.0988 11.1294 10.8406 11.4876 10.6212 11.8699C10.2091 12.6689 9.91586 13.525 9.75095 14.4103C9.5732 15.2985 9.47671 16.2014 9.46272 17.1074H10.5713C10.6234 16.2948 10.7327 15.487 10.8984 14.6901C11.6674 15.1094 12.5299 15.3231 13.4038 15.3113C14.2189 15.3107 15.0256 15.1452 15.7762 14.8244C19.9944 13.0058 19.4402 6.95686 19.4402 6.70506Z" fill="#C5DEA7"/>
<path d="M0 5C0 2.23858 2.23858 0 5 0H75C77.7614 0 80 2.23858 80 5V75C80 77.7614 77.7614 80 75 80H5C2.23858 80 0 77.7614 0 75V5Z" fill="#FFCA28"/>
<path opacity="0.2" d="M28.9427 6.71385L28.7837 5L27.1946 5.54408C24.4712 6.516 21.5627 6.81426 18.7059 6.41461C15.704 5.93611 12.6313 6.36131 9.85968 7.63879C8.39034 8.28141 7.10087 9.29131 6.10859 10.5766C5.11634 11.8618 4.45283 13.3816 4.17848 14.9975C3.82275 17.085 4.00071 19.2316 4.69496 21.2272C5.14197 20.1908 5.66434 19.1905 6.25762 18.2348C7.60335 16.201 9.46804 14.5869 11.6475 13.5693C13.747 12.5847 16.042 12.1188 18.3483 12.2091C16.1527 12.5539 14.051 13.3645 12.1772 14.5894C11.2733 15.1727 10.4456 15.8721 9.71399 16.6705C9.01433 17.4686 8.39742 18.3393 7.87325 19.2685C6.88867 21.2109 6.1881 23.2917 5.79411 25.4438C5.36943 27.6029 5.13892 29.7975 5.10548 32H7.75405C7.87855 30.0247 8.13964 28.0611 8.53538 26.1239C10.3727 27.1431 12.4332 27.6627 14.5212 27.6338C16.4685 27.6324 18.3958 27.2301 20.1891 26.4504C30.2669 22.0297 28.9427 7.32594 28.9427 6.71385Z" fill="white"/>
<path opacity="0.2" d="M76.9633 59.0791L76.8615 58L75.8445 58.3426C74.1015 58.9545 72.2401 59.1423 70.4117 58.8907C68.4905 58.5894 66.524 58.8571 64.7502 59.6615C63.8098 60.0661 62.9845 60.7019 62.3495 61.5112C61.7145 62.3204 61.2898 63.2773 61.1142 64.2947C60.8866 65.6091 61.0005 66.9606 61.4448 68.2171C61.7309 67.5646 62.0652 66.9348 62.4449 66.333C63.3061 65.0525 64.4995 64.0362 65.8944 63.3955C67.2381 62.7755 68.7068 62.4822 70.1829 62.539C68.7777 62.7561 67.4326 63.2666 66.2334 64.0378C65.6549 64.4051 65.1252 64.8454 64.6569 65.3481C64.2092 65.8506 63.8143 66.3988 63.4789 66.9839C62.8487 68.2069 62.4004 69.517 62.1482 70.872C61.8764 72.2315 61.7289 73.6133 61.7075 75H63.4026C63.4823 73.7563 63.6494 72.5199 63.9026 71.3002C65.0785 71.9419 66.3972 72.2691 67.7335 72.2509C68.9798 72.25 70.2133 71.9967 71.361 71.5058C77.8108 68.7224 76.9633 59.4645 76.9633 59.0791Z" fill="white"/>
<path opacity="0.2" d="M73.9794 18.6348L73.9221 18L73.35 18.2015C72.3696 18.5615 71.3226 18.6719 70.2941 18.5239C69.2134 18.3467 68.1073 18.5042 67.1095 18.9773C66.5805 19.2153 66.1163 19.5894 65.7591 20.0654C65.4019 20.5414 65.163 21.1043 65.0643 21.7028C64.9362 22.4759 65.0003 23.2709 65.2502 24.0101C65.4111 23.6262 65.5992 23.2558 65.8127 22.9018C66.2972 22.1485 66.9685 21.5507 67.7531 21.1738C68.5089 20.8091 69.3351 20.6366 70.1654 20.67C69.375 20.7977 68.6184 21.098 67.9438 21.5516C67.6184 21.7677 67.3204 22.0267 67.057 22.3224C66.8052 22.618 66.5831 22.9405 66.3944 23.2846C66.0399 24.004 65.7877 24.7747 65.6459 25.5718C65.493 26.3715 65.41 27.1843 65.398 28H66.3515C66.3963 27.2684 66.4903 26.5411 66.6327 25.8237C67.2942 26.2011 68.036 26.3936 68.7876 26.3829C69.4886 26.3824 70.1825 26.2334 70.8281 25.9446C74.4561 24.3073 73.9794 18.8615 73.9794 18.6348Z" fill="white"/>
<g clip-path="url(#clip0_11_315)">
<path d="M25.2344 38.6875C26.2271 38.6875 27.1256 38.2892 27.7895 37.6496L31.4319 39.4706C31.4136 39.619 31.3867 39.7648 31.3867 39.918C31.3867 41.9534 33.0427 43.6094 35.0781 43.6094C37.1135 43.6094 38.7695 41.9534 38.7695 39.918C38.7695 39.3498 38.6298 38.8179 38.3994 38.3366L43.3405 33.3955C43.8218 33.6259 44.3537 33.7656 44.9219 33.7656C46.9573 33.7656 48.6133 32.1096 48.6133 30.0742C48.6133 29.691 48.538 29.3286 48.429 28.9809L52.7222 25.7618C53.308 26.1531 54.01 26.3828 54.7656 26.3828C56.801 26.3828 58.457 24.7268 58.457 22.6914C58.457 20.656 56.801 19 54.7656 19C52.7302 19 51.0742 20.656 51.0742 22.6914C51.0742 23.0746 51.1495 23.4371 51.2585 23.7847L46.9653 27.0038C46.3795 26.6126 45.6775 26.3828 44.9219 26.3828C42.8865 26.3828 41.2305 28.0388 41.2305 30.0742C41.2305 30.6423 41.3702 31.1743 41.6006 31.6556L36.6595 36.5967C36.1782 36.3663 35.6463 36.2266 35.0781 36.2266C34.0854 36.2266 33.1869 36.6249 32.523 37.2645L28.8806 35.4434C28.8989 35.2951 28.9258 35.1493 28.9258 34.9961C28.9258 32.9607 27.2698 31.3047 25.2344 31.3047C23.199 31.3047 21.543 32.9607 21.543 34.9961C21.543 37.0315 23.199 38.6875 25.2344 38.6875Z" fill="white"/>
<path d="M59.7695 58.5391H58.457V32.5352C58.457 31.8552 57.9065 31.3047 57.2266 31.3047H52.3047C51.6247 31.3047 51.0742 31.8552 51.0742 32.5352V58.5391H48.6133V39.918C48.6133 39.238 48.0628 38.6875 47.3828 38.6875H42.4609C41.781 38.6875 41.2305 39.238 41.2305 39.918V58.5391H38.7695V49.7617C38.7695 49.0818 38.219 48.5312 37.5391 48.5312H32.6172C31.9372 48.5312 31.3867 49.0818 31.3867 49.7617V58.5391H28.9258V44.8398C28.9258 44.1599 28.3753 43.6094 27.6953 43.6094H22.7734C22.0935 43.6094 21.543 44.1599 21.543 44.8398V58.5391H20.2305C19.5505 58.5391 19 59.0896 19 59.7695C19 60.4495 19.5505 61 20.2305 61H59.7695C60.4495 61 61 60.4495 61 59.7695C61 59.0896 60.4495 58.5391 59.7695 58.5391Z" fill="white"/>
</g>
<defs>
<clipPath id="clip0_11_315">
<rect width="42" height="42" fill="white" transform="translate(19 19)"/>
</clipPath>
</defs>
</svg>
