<svg width="80" height="80" viewBox="0 0 80 80" fill="none" xmlns="http://www.w3.org/2000/svg">
<rect width="80" height="80" rx="5" fill="#29B6F6"/>
<path opacity="0.16" d="M69.3612 6.37015L69.327 6L68.9854 6.11751C68.4 6.32742 67.7749 6.39184 67.1609 6.30552C66.5156 6.20218 65.8552 6.29401 65.2595 6.56992C64.9437 6.70871 64.6665 6.92683 64.4532 7.20442C64.2399 7.482 64.0973 7.81023 64.0384 8.15924C63.9619 8.61009 64.0002 9.0737 64.1494 9.50472C64.2455 9.28089 64.3577 9.06484 64.4853 8.85842C64.7745 8.41918 65.1753 8.07057 65.6437 7.85077C66.095 7.63812 66.5883 7.53751 67.084 7.557C66.6121 7.63147 66.1604 7.80656 65.7576 8.0711C65.5633 8.19709 65.3854 8.34813 65.2282 8.52058C65.0778 8.69294 64.9452 8.88099 64.8325 9.08168C64.6209 9.5012 64.4703 9.9506 64.3856 10.4154C64.2943 10.8817 64.2448 11.3557 64.2376 11.8314H64.8069C64.8337 11.4048 64.8898 10.9807 64.9748 10.5623C65.3697 10.7824 65.8126 10.8946 66.2614 10.8884C66.68 10.8881 67.0942 10.8012 67.4797 10.6328C69.6458 9.67805 69.3612 6.50235 69.3612 6.37015Z" fill="white"/>
<path opacity="0.16" d="M17.3612 68.3702L17.327 68L16.9854 68.1175C16.4 68.3274 15.7749 68.3918 15.1609 68.3055C14.5156 68.2022 13.8552 68.294 13.2595 68.5699C12.9437 68.7087 12.6665 68.9268 12.4532 69.2044C12.2399 69.482 12.0973 69.8102 12.0384 70.1592C11.9619 70.6101 12.0002 71.0737 12.1494 71.5047C12.2455 71.2809 12.3577 71.0648 12.4853 70.8584C12.7745 70.4192 13.1753 70.0706 13.6437 69.8508C14.095 69.6381 14.5883 69.5375 15.084 69.557C14.6121 69.6315 14.1604 69.8066 13.7576 70.0711C13.5633 70.1971 13.3854 70.3481 13.2282 70.5206C13.0778 70.6929 12.9452 70.881 12.8325 71.0817C12.6209 71.5012 12.4703 71.9506 12.3856 72.4154C12.2943 72.8817 12.2448 73.3557 12.2376 73.8314H12.8069C12.8337 73.4048 12.8898 72.9807 12.9748 72.5623C13.3697 72.7824 13.8126 72.8946 14.2614 72.8884C14.68 72.8881 15.0942 72.8012 15.4797 72.6328C17.6458 71.678 17.3612 68.5024 17.3612 68.3702Z" fill="white"/>
<path opacity="0.16" d="M29.9449 5.45995L29.7922 4L28.2667 4.46348C25.6523 5.29141 22.8602 5.54548 20.1176 5.20504C17.2358 4.79742 14.286 5.15964 11.6253 6.24785C10.2147 6.79527 8.97682 7.65556 8.02424 8.75041C7.07168 9.84525 6.43472 11.1398 6.17134 12.5164C5.82984 14.2946 6.00069 16.1232 6.66715 17.8232C7.09629 16.9403 7.59776 16.0882 8.16731 15.2741C9.4592 13.5416 11.2493 12.1667 13.3415 11.2997C15.3571 10.461 17.5602 10.0642 19.7744 10.1411C17.6666 10.4348 15.649 11.1253 13.8501 12.1688C12.9823 12.6657 12.1877 13.2614 11.4854 13.9416C10.8137 14.6214 10.2215 15.3631 9.7183 16.1547C8.77311 17.8093 8.10057 19.5818 7.72234 21.4151C7.31465 23.2543 7.09336 25.1238 7.06126 27H9.60388C9.72339 25.3173 9.97404 23.6446 10.354 21.9944C12.1178 22.8626 14.0959 23.3053 16.1003 23.2807C17.9697 23.2794 19.8199 22.9367 21.5415 22.2725C31.2162 18.5068 29.9449 5.98135 29.9449 5.45995Z" fill="white"/>
<path opacity="0.16" d="M72.9449 52.4599L72.7922 51L71.2667 51.4635C68.6523 52.2914 65.8602 52.5455 63.1176 52.205C60.2358 51.7974 57.286 52.1596 54.6253 53.2479C53.2147 53.7953 51.9768 54.6556 51.0242 55.7504C50.0717 56.8452 49.4347 58.1398 49.1713 59.5164C48.8298 61.2946 49.0007 63.1232 49.6672 64.8232C50.0963 63.9403 50.5978 63.0882 51.1673 62.2741C52.4592 60.5416 54.2493 59.1667 56.3415 58.2997C58.3571 57.461 60.5602 57.0642 62.7744 57.1411C60.6666 57.4348 58.649 58.1253 56.8501 59.1688C55.9823 59.6657 55.1877 60.2614 54.4854 60.9416C53.8137 61.6214 53.2215 62.3631 52.7183 63.1547C51.7731 64.8093 51.1006 66.5818 50.7223 68.4151C50.3146 70.2543 50.0934 72.1238 50.0613 74H52.6039C52.7234 72.3173 52.974 70.6446 53.354 68.9944C55.1178 69.8626 57.0959 70.3053 59.1003 70.2807C60.9697 70.2794 62.8199 69.9367 64.5415 69.2725C74.2162 65.5068 72.9449 52.9814 72.9449 52.4599Z" fill="white"/>
<g clip-path="url(#clip0_11_316)">
<path d="M40 19C28.4027 19 19 28.4027 19 40C19 51.5973 28.4027 61 40 61C51.5973 61 61 51.5973 61 40C61 28.4027 51.5973 19 40 19ZM45.1161 34.75H46.5625C47.287 34.75 47.875 35.338 47.875 36.0625C47.875 36.787 47.287 37.375 46.5625 37.375H45.1161C44.5071 40.3675 41.8559 42.625 38.6875 42.625H36.6059L44.8641 50.8832C45.376 51.3951 45.376 52.2272 44.8641 52.7391C44.6095 52.9964 44.2735 53.125 43.9375 53.125C43.6015 53.125 43.2655 52.9964 43.0082 52.7417L32.5082 42.2418C32.1329 41.8638 32.02 41.302 32.2248 40.8111C32.4269 40.3202 32.9073 40 33.4375 40H38.6875C40.3964 40 41.8401 38.9001 42.3835 37.375H33.4375C32.713 37.375 32.125 36.787 32.125 36.0625C32.125 35.338 32.713 34.75 33.4375 34.75H42.3835C41.8401 33.2249 40.3964 32.125 38.6875 32.125H33.4375C32.713 32.125 32.125 31.537 32.125 30.8125C32.125 30.088 32.713 29.5 33.4375 29.5H38.6875H46.5625C47.287 29.5 47.875 30.088 47.875 30.8125C47.875 31.537 47.287 32.125 46.5625 32.125H43.9034C44.4835 32.8915 44.9193 33.7735 45.1161 34.75Z" fill="white"/>
</g>
<defs>
<clipPath id="clip0_11_316">
<rect width="42" height="42" fill="white" transform="translate(19 19)"/>
</clipPath>
</defs>
</svg>
