<svg width="22" height="11" viewBox="0 0 22 11" fill="none" xmlns="http://www.w3.org/2000/svg">
<path d="M21.7479 4.71981C21.7477 4.71955 21.7475 4.71925 21.7472 4.71899L17.2568 0.250247C16.9204 -0.0845223 16.3762 -0.0832765 16.0414 0.253169C15.7066 0.589571 15.7079 1.13368 16.0443 1.4685L19.0591 4.46874H0.859375C0.384742 4.46874 0 4.85349 0 5.32812C0 5.80275 0.384742 6.18749 0.859375 6.18749H19.0591L16.0443 9.18774C15.7079 9.52255 15.7066 10.0667 16.0414 10.4031C16.3763 10.7396 16.9204 10.7407 17.2568 10.406L21.7472 5.93724C21.7475 5.93699 21.7477 5.93669 21.748 5.93643C22.0846 5.6005 22.0835 5.05462 21.7479 4.71981Z" fill="white"/>
</svg>
