<svg width="650" height="676" viewBox="0 0 650 676" fill="none" xmlns="http://www.w3.org/2000/svg">
<path opacity="0.08" d="M59.6815 604.488C63.3234 601.75 68.3402 601.618 72.0582 604.251C139.371 651.919 218.723 676.89 297.364 675.02C378.461 673.091 427.283 599.719 453.288 526.722C531.594 547.753 624.253 376.821 594.689 252.883C592.615 244.187 594.371 234.955 599.69 227.77C636.306 178.319 653.889 116.024 649.245 51.158C644.24 -18.7486 613.773 -86.7098 563.698 -139.667C451.59 -258.251 272.617 -271.558 164.502 -169.347L-260.12 232.084C-350.27 317.311 -347.569 466.731 -254.089 565.611C-166.65 658.101 -31.3735 672.926 59.6815 604.488Z" fill="#83B645"/>
</svg>
